<?xml version="1.0" standalone="no"?>
 <!DOCTYPE svg PUBLIC "-//W3C//DTD SVG 1.1//EN" 
 "http://www.w3.org/Graphics/SVG/1.1/DTD/svg11.dtd"> 
<svg
  xmlns:svg="http://www.w3.org/2000/svg"
  xmlns="http://www.w3.org/2000/svg"
  xmlns:xlink="http://www.w3.org/1999/xlink"
  version="1.1"
  width="437.4896mm" height="129.2352mm" viewBox="0.0000 0.0000 437.4896 129.2352">
<title>SVG Image created as Every83_PCB-User_Drawings.svg date 2023/11/16 16:43:48 </title>
  <desc>Image generated by PCBNEW </desc>
<g style="fill:#000000; fill-opacity:1.0000;stroke:#000000; stroke-opacity:1.0000;
stroke-linecap:round; stroke-linejoin:round;"
 transform="translate(0 0) scale(1 1)">
</g>
<g style="fill:#000000; fill-opacity:0.0; 
stroke:#000000; stroke-width:0.0000; stroke-opacity:1; 
stroke-linecap:round; stroke-linejoin:round;">
</g>
<g style="fill:#000000; fill-opacity:0.0; 
stroke:#000000; stroke-width:0.1200; stroke-opacity:1; 
stroke-linecap:round; stroke-linejoin:round;">
<path d="M266.7000 19.0500
L266.7000 5.0500
" />
<path d="M266.7000 5.0500
L252.7000 5.0500
" />
<path d="M252.7000 19.0500
L266.7000 19.0500
" />
<path d="M252.7000 5.0500
L252.7000 19.0500
" />
<path d="M128.5875 80.9625
L128.5875 66.9625
" />
<path d="M128.5875 66.9625
L114.5875 66.9625
" />
<path d="M114.5875 80.9625
L128.5875 80.9625
" />
<path d="M114.5875 66.9625
L114.5875 80.9625
" />
<path d="M166.6875 80.9625
L166.6875 66.9625
" />
<path d="M166.6875 66.9625
L152.6875 66.9625
" />
<path d="M152.6875 80.9625
L166.6875 80.9625
" />
<path d="M152.6875 66.9625
L152.6875 80.9625
" />
<path d="M171.4500 42.8625
L171.4500 28.8625
" />
<path d="M171.4500 28.8625
L157.4500 28.8625
" />
<path d="M157.4500 42.8625
L171.4500 42.8625
" />
<path d="M157.4500 28.8625
L157.4500 42.8625
" />
<path d="M100.0125 100.0125
L100.0125 86.0125
" />
<path d="M100.0125 86.0125
L86.0125 86.0125
" />
<path d="M86.0125 100.0125
L100.0125 100.0125
" />
<path d="M86.0125 86.0125
L86.0125 100.0125
" />
<path d="M85.7250 61.9125
L85.7250 47.9125
" />
<path d="M85.7250 47.9125
L71.7250 47.9125
" />
<path d="M71.7250 61.9125
L85.7250 61.9125
" />
<path d="M71.7250 47.9125
L71.7250 61.9125
" />
<path d="M30.9562 100.0125
L30.9562 86.0125
" />
<path d="M30.9562 86.0125
L16.9563 86.0125
" />
<path d="M16.9563 100.0125
L30.9562 100.0125
" />
<path d="M16.9563 86.0125
L16.9563 100.0125
" />
<path d="M76.2000 42.8625
L76.2000 28.8625
" />
<path d="M76.2000 28.8625
L62.2000 28.8625
" />
<path d="M62.2000 42.8625
L76.2000 42.8625
" />
<path d="M62.2000 28.8625
L62.2000 42.8625
" />
<path d="M47.6250 61.9125
L47.6250 47.9125
" />
<path d="M47.6250 47.9125
L33.6250 47.9125
" />
<path d="M33.6250 61.9125
L47.6250 61.9125
" />
<path d="M33.6250 47.9125
L33.6250 61.9125
" />
<path d="M238.1250 61.9125
L238.1250 47.9125
" />
<path d="M238.1250 47.9125
L224.1250 47.9125
" />
<path d="M224.1250 61.9125
L238.1250 61.9125
" />
<path d="M224.1250 47.9125
L224.1250 61.9125
" />
<path d="M138.1125 100.0125
L138.1125 86.0125
" />
<path d="M138.1125 86.0125
L124.1125 86.0125
" />
<path d="M124.1125 100.0125
L138.1125 100.0125
" />
<path d="M124.1125 86.0125
L124.1125 100.0125
" />
<path d="M52.3875 80.9625
L52.3875 66.9625
" />
<path d="M52.3875 66.9625
L38.3875 66.9625
" />
<path d="M38.3875 80.9625
L52.3875 80.9625
" />
<path d="M38.3875 66.9625
L38.3875 80.9625
" />
<path d="M276.2250 42.8625
L276.2250 28.8625
" />
<path d="M276.2250 28.8625
L262.2250 28.8625
" />
<path d="M262.2250 42.8625
L276.2250 42.8625
" />
<path d="M262.2250 28.8625
L262.2250 42.8625
" />
<path d="M76.2000 19.0500
L76.2000 5.0500
" />
<path d="M76.2000 5.0500
L62.2000 5.0500
" />
<path d="M62.2000 19.0500
L76.2000 19.0500
" />
<path d="M62.2000 5.0500
L62.2000 19.0500
" />
<path d="M180.9750 61.9125
L180.9750 47.9125
" />
<path d="M180.9750 47.9125
L166.9750 47.9125
" />
<path d="M166.9750 61.9125
L180.9750 61.9125
" />
<path d="M166.9750 47.9125
L166.9750 61.9125
" />
<path d="M21.4312 119.0625
L21.4312 105.0625
" />
<path d="M21.4312 105.0625
L7.4312 105.0625
" />
<path d="M7.4312 119.0625
L21.4312 119.0625
" />
<path d="M7.4312 105.0625
L7.4312 119.0625
" />
<path d="M190.5000 42.8625
L190.5000 28.8625
" />
<path d="M190.5000 28.8625
L176.5000 28.8625
" />
<path d="M176.5000 42.8625
L190.5000 42.8625
" />
<path d="M176.5000 28.8625
L176.5000 42.8625
" />
<path d="M90.4875 80.9625
L90.4875 66.9625
" />
<path d="M90.4875 66.9625
L76.4875 66.9625
" />
<path d="M76.4875 80.9625
L90.4875 80.9625
" />
<path d="M76.4875 66.9625
L76.4875 80.9625
" />
<path d="M61.9125 100.0125
L61.9125 86.0125
" />
<path d="M61.9125 86.0125
L47.9125 86.0125
" />
<path d="M47.9125 100.0125
L61.9125 100.0125
" />
<path d="M47.9125 86.0125
L47.9125 100.0125
" />
<path d="M95.2500 19.0500
L95.2500 5.0500
" />
<path d="M95.2500 5.0500
L81.2500 5.0500
" />
<path d="M81.2500 19.0500
L95.2500 19.0500
" />
<path d="M81.2500 5.0500
L81.2500 19.0500
" />
<path d="M123.8250 61.9125
L123.8250 47.9125
" />
<path d="M123.8250 47.9125
L109.8250 47.9125
" />
<path d="M109.8250 61.9125
L123.8250 61.9125
" />
<path d="M109.8250 47.9125
L109.8250 61.9125
" />
<path d="M223.8375 80.9625
L223.8375 66.9625
" />
<path d="M223.8375 66.9625
L209.8375 66.9625
" />
<path d="M209.8375 80.9625
L223.8375 80.9625
" />
<path d="M209.8375 66.9625
L209.8375 80.9625
" />
<path d="M290.5125 119.0625
L290.5125 105.0625
" />
<path d="M290.5125 105.0625
L276.5125 105.0625
" />
<path d="M276.5125 119.0625
L290.5125 119.0625
" />
<path d="M276.5125 105.0625
L276.5125 119.0625
" />
<path d="M200.0250 19.0500
L200.0250 5.0500
" />
<path d="M200.0250 5.0500
L186.0250 5.0500
" />
<path d="M186.0250 19.0500
L200.0250 19.0500
" />
<path d="M186.0250 5.0500
L186.0250 19.0500
" />
<path d="M104.7750 61.9125
L104.7750 47.9125
" />
<path d="M104.7750 47.9125
L90.7750 47.9125
" />
<path d="M90.7750 61.9125
L104.7750 61.9125
" />
<path d="M90.7750 47.9125
L90.7750 61.9125
" />
<path d="M23.8125 61.9125
L23.8125 47.9125
" />
<path d="M23.8125 47.9125
L9.8125 47.9125
" />
<path d="M9.8125 61.9125
L23.8125 61.9125
" />
<path d="M9.8125 47.9125
L9.8125 61.9125
" />
<path d="M219.0750 61.9125
L219.0750 47.9125
" />
<path d="M219.0750 47.9125
L205.0750 47.9125
" />
<path d="M205.0750 61.9125
L219.0750 61.9125
" />
<path d="M205.0750 47.9125
L205.0750 61.9125
" />
<path d="M309.5625 19.0500
L309.5625 5.0500
" />
<path d="M309.5625 5.0500
L295.5625 5.0500
" />
<path d="M295.5625 19.0500
L309.5625 19.0500
" />
<path d="M295.5625 5.0500
L295.5625 19.0500
" />
<path d="M45.2437 119.0625
L45.2437 105.0625
" />
<path d="M45.2437 105.0625
L31.2437 105.0625
" />
<path d="M31.2437 119.0625
L45.2437 119.0625
" />
<path d="M31.2437 105.0625
L31.2437 119.0625
" />
<path d="M57.1500 42.8625
L57.1500 28.8625
" />
<path d="M57.1500 28.8625
L43.1500 28.8625
" />
<path d="M43.1500 42.8625
L57.1500 42.8625
" />
<path d="M43.1500 28.8625
L43.1500 42.8625
" />
<path d="M140.4938 119.0625
L140.4938 105.0625
" />
<path d="M140.4938 105.0625
L126.4937 105.0625
" />
<path d="M126.4937 119.0625
L140.4938 119.0625
" />
<path d="M126.4937 105.0625
L126.4937 119.0625
" />
<path d="M214.3125 100.0125
L214.3125 86.0125
" />
<path d="M214.3125 86.0125
L200.3125 86.0125
" />
<path d="M200.3125 100.0125
L214.3125 100.0125
" />
<path d="M200.3125 86.0125
L200.3125 100.0125
" />
<path d="M142.8750 61.9125
L142.8750 47.9125
" />
<path d="M142.8750 47.9125
L128.8750 47.9125
" />
<path d="M128.8750 61.9125
L142.8750 61.9125
" />
<path d="M128.8750 47.9125
L128.8750 61.9125
" />
<path d="M114.3000 19.0500
L114.3000 5.0500
" />
<path d="M114.3000 5.0500
L100.3000 5.0500
" />
<path d="M100.3000 19.0500
L114.3000 19.0500
" />
<path d="M100.3000 5.0500
L100.3000 19.0500
" />
<path d="M142.8750 19.0500
L142.8750 5.0500
" />
<path d="M142.8750 5.0500
L128.8750 5.0500
" />
<path d="M128.8750 19.0500
L142.8750 19.0500
" />
<path d="M128.8750 5.0500
L128.8750 19.0500
" />
<path d="M109.5375 80.9625
L109.5375 66.9625
" />
<path d="M109.5375 66.9625
L95.5375 66.9625
" />
<path d="M95.5375 80.9625
L109.5375 80.9625
" />
<path d="M95.5375 66.9625
L95.5375 80.9625
" />
<path d="M328.6125 19.0500
L328.6125 5.0500
" />
<path d="M328.6125 5.0500
L314.6125 5.0500
" />
<path d="M314.6125 19.0500
L328.6125 19.0500
" />
<path d="M314.6125 5.0500
L314.6125 19.0500
" />
<path d="M228.6000 19.0500
L228.6000 5.0500
" />
<path d="M228.6000 5.0500
L214.6000 5.0500
" />
<path d="M214.6000 19.0500
L228.6000 19.0500
" />
<path d="M214.6000 5.0500
L214.6000 19.0500
" />
<path d="M309.5625 100.0125
L309.5625 86.0125
" />
<path d="M309.5625 86.0125
L295.5625 86.0125
" />
<path d="M295.5625 100.0125
L309.5625 100.0125
" />
<path d="M295.5625 86.0125
L295.5625 100.0125
" />
<path d="M209.5500 42.8625
L209.5500 28.8625
" />
<path d="M209.5500 28.8625
L195.5500 28.8625
" />
<path d="M195.5500 42.8625
L209.5500 42.8625
" />
<path d="M195.5500 28.8625
L195.5500 42.8625
" />
<path d="M280.9875 61.9125
L280.9875 47.9125
" />
<path d="M280.9875 47.9125
L266.9875 47.9125
" />
<path d="M266.9875 61.9125
L280.9875 61.9125
" />
<path d="M266.9875 47.9125
L266.9875 61.9125
" />
<path d="M235.7437 119.0625
L235.7437 105.0625
" />
<path d="M235.7437 105.0625
L221.7437 105.0625
" />
<path d="M221.7437 119.0625
L235.7437 119.0625
" />
<path d="M221.7437 105.0625
L221.7437 119.0625
" />
<path d="M180.9750 19.0500
L180.9750 5.0500
" />
<path d="M180.9750 5.0500
L166.9750 5.0500
" />
<path d="M166.9750 19.0500
L180.9750 19.0500
" />
<path d="M166.9750 5.0500
L166.9750 19.0500
" />
<path d="M38.1000 42.8625
L38.1000 28.8625
" />
<path d="M38.1000 28.8625
L24.1000 28.8625
" />
<path d="M24.1000 42.8625
L38.1000 42.8625
" />
<path d="M24.1000 28.8625
L24.1000 42.8625
" />
<path d="M19.0500 19.0500
L19.0500 5.0500
" />
<path d="M19.0500 5.0500
L5.0500 5.0500
" />
<path d="M5.0500 19.0500
L19.0500 19.0500
" />
<path d="M5.0500 5.0500
L5.0500 19.0500
" />
<path d="M273.8438 80.9625
L273.8438 66.9625
" />
<path d="M273.8438 66.9625
L259.8438 66.9625
" />
<path d="M259.8438 80.9625
L273.8438 80.9625
" />
<path d="M259.8438 66.9625
L259.8438 80.9625
" />
<path d="M328.6125 119.0625
L328.6125 105.0625
" />
<path d="M328.6125 105.0625
L314.6125 105.0625
" />
<path d="M314.6125 119.0625
L328.6125 119.0625
" />
<path d="M314.6125 105.0625
L314.6125 119.0625
" />
<path d="M161.9250 61.9125
L161.9250 47.9125
" />
<path d="M161.9250 47.9125
L147.9250 47.9125
" />
<path d="M147.9250 61.9125
L161.9250 61.9125
" />
<path d="M147.9250 47.9125
L147.9250 61.9125
" />
<path d="M257.1750 61.9125
L257.1750 47.9125
" />
<path d="M257.1750 47.9125
L243.1750 47.9125
" />
<path d="M243.1750 61.9125
L257.1750 61.9125
" />
<path d="M243.1750 47.9125
L243.1750 61.9125
" />
<path d="M211.9312 119.0625
L211.9312 105.0625
" />
<path d="M211.9312 105.0625
L197.9312 105.0625
" />
<path d="M197.9312 119.0625
L211.9312 119.0625
" />
<path d="M197.9312 105.0625
L197.9312 119.0625
" />
<path d="M204.7875 80.9625
L204.7875 66.9625
" />
<path d="M204.7875 66.9625
L190.7875 66.9625
" />
<path d="M190.7875 80.9625
L204.7875 80.9625
" />
<path d="M190.7875 66.9625
L190.7875 80.9625
" />
<path d="M242.8875 80.9625
L242.8875 66.9625
" />
<path d="M242.8875 66.9625
L228.8875 66.9625
" />
<path d="M228.8875 80.9625
L242.8875 80.9625
" />
<path d="M228.8875 66.9625
L228.8875 80.9625
" />
<path d="M119.0625 100.0125
L119.0625 86.0125
" />
<path d="M119.0625 86.0125
L105.0625 86.0125
" />
<path d="M105.0625 100.0125
L119.0625 100.0125
" />
<path d="M105.0625 86.0125
L105.0625 100.0125
" />
<path d="M269.0813 100.0125
L269.0813 86.0125
" />
<path d="M269.0813 86.0125
L255.0812 86.0125
" />
<path d="M255.0812 100.0125
L269.0813 100.0125
" />
<path d="M255.0812 86.0125
L255.0812 100.0125
" />
<path d="M57.1500 19.0500
L57.1500 5.0500
" />
<path d="M57.1500 5.0500
L43.1500 5.0500
" />
<path d="M43.1500 19.0500
L57.1500 19.0500
" />
<path d="M43.1500 5.0500
L43.1500 19.0500
" />
<path d="M247.6500 42.8625
L247.6500 28.8625
" />
<path d="M247.6500 28.8625
L233.6500 28.8625
" />
<path d="M233.6500 42.8625
L247.6500 42.8625
" />
<path d="M233.6500 28.8625
L233.6500 42.8625
" />
<path d="M19.0500 42.8625
L19.0500 28.8625
" />
<path d="M19.0500 28.8625
L5.0500 28.8625
" />
<path d="M5.0500 42.8625
L19.0500 42.8625
" />
<path d="M5.0500 28.8625
L5.0500 42.8625
" />
<path d="M185.7375 80.9625
L185.7375 66.9625
" />
<path d="M185.7375 66.9625
L171.7375 66.9625
" />
<path d="M171.7375 80.9625
L185.7375 80.9625
" />
<path d="M171.7375 66.9625
L171.7375 80.9625
" />
<path d="M80.9625 100.0125
L80.9625 86.0125
" />
<path d="M80.9625 86.0125
L66.9625 86.0125
" />
<path d="M66.9625 100.0125
L80.9625 100.0125
" />
<path d="M66.9625 86.0125
L66.9625 100.0125
" />
<path d="M157.1625 100.0125
L157.1625 86.0125
" />
<path d="M157.1625 86.0125
L143.1625 86.0125
" />
<path d="M143.1625 100.0125
L157.1625 100.0125
" />
<path d="M143.1625 86.0125
L143.1625 100.0125
" />
<path d="M328.6125 61.9125
L328.6125 47.9125
" />
<path d="M328.6125 47.9125
L314.6125 47.9125
" />
<path d="M314.6125 61.9125
L328.6125 61.9125
" />
<path d="M314.6125 47.9125
L314.6125 61.9125
" />
<path d="M176.2125 100.0125
L176.2125 86.0125
" />
<path d="M176.2125 86.0125
L162.2125 86.0125
" />
<path d="M162.2125 100.0125
L176.2125 100.0125
" />
<path d="M162.2125 86.0125
L162.2125 100.0125
" />
<path d="M200.0250 61.9125
L200.0250 47.9125
" />
<path d="M200.0250 47.9125
L186.0250 47.9125
" />
<path d="M186.0250 61.9125
L200.0250 61.9125
" />
<path d="M186.0250 47.9125
L186.0250 61.9125
" />
<path d="M233.3625 100.0125
L233.3625 86.0125
" />
<path d="M233.3625 86.0125
L219.3625 86.0125
" />
<path d="M219.3625 100.0125
L233.3625 100.0125
" />
<path d="M219.3625 86.0125
L219.3625 100.0125
" />
<path d="M247.6500 19.0500
L247.6500 5.0500
" />
<path d="M247.6500 5.0500
L233.6500 5.0500
" />
<path d="M233.6500 19.0500
L247.6500 19.0500
" />
<path d="M233.6500 5.0500
L233.6500 19.0500
" />
<path d="M161.9250 19.0500
L161.9250 5.0500
" />
<path d="M161.9250 5.0500
L147.9250 5.0500
" />
<path d="M147.9250 19.0500
L161.9250 19.0500
" />
<path d="M147.9250 5.0500
L147.9250 19.0500
" />
<path d="M309.5625 119.0625
L309.5625 105.0625
" />
<path d="M309.5625 105.0625
L295.5625 105.0625
" />
<path d="M295.5625 119.0625
L309.5625 119.0625
" />
<path d="M295.5625 105.0625
L295.5625 119.0625
" />
<path d="M259.5562 119.0625
L259.5562 105.0625
" />
<path d="M259.5562 105.0625
L245.5562 105.0625
" />
<path d="M245.5562 119.0625
L259.5562 119.0625
" />
<path d="M245.5562 105.0625
L245.5562 119.0625
" />
<path d="M309.5625 42.8625
L309.5625 28.8625
" />
<path d="M309.5625 28.8625
L295.5625 28.8625
" />
<path d="M295.5625 42.8625
L309.5625 42.8625
" />
<path d="M295.5625 28.8625
L295.5625 42.8625
" />
<path d="M228.6000 42.8625
L228.6000 28.8625
" />
<path d="M228.6000 28.8625
L214.6000 28.8625
" />
<path d="M214.6000 42.8625
L228.6000 42.8625
" />
<path d="M214.6000 28.8625
L214.6000 42.8625
" />
<path d="M147.6375 80.9625
L147.6375 66.9625
" />
<path d="M147.6375 66.9625
L133.6375 66.9625
" />
<path d="M133.6375 80.9625
L147.6375 80.9625
" />
<path d="M133.6375 66.9625
L133.6375 80.9625
" />
<path d="M285.7500 19.0500
L285.7500 5.0500
" />
<path d="M285.7500 5.0500
L271.7500 5.0500
" />
<path d="M271.7500 19.0500
L285.7500 19.0500
" />
<path d="M271.7500 5.0500
L271.7500 19.0500
" />
<path d="M152.4000 42.8625
L152.4000 28.8625
" />
<path d="M152.4000 28.8625
L138.4000 28.8625
" />
<path d="M138.4000 42.8625
L152.4000 42.8625
" />
<path d="M138.4000 28.8625
L138.4000 42.8625
" />
<path d="M95.2500 42.8625
L95.2500 28.8625
" />
<path d="M95.2500 28.8625
L81.2500 28.8625
" />
<path d="M81.2500 42.8625
L95.2500 42.8625
" />
<path d="M81.2500 28.8625
L81.2500 42.8625
" />
<path d="M328.6125 42.8625
L328.6125 28.8625
" />
<path d="M328.6125 28.8625
L314.6125 28.8625
" />
<path d="M314.6125 42.8625
L328.6125 42.8625
" />
<path d="M314.6125 28.8625
L314.6125 42.8625
" />
<path d="M309.5625 61.9125
L309.5625 47.9125
" />
<path d="M309.5625 47.9125
L295.5625 47.9125
" />
<path d="M295.5625 61.9125
L309.5625 61.9125
" />
<path d="M295.5625 47.9125
L295.5625 61.9125
" />
<path d="M26.1937 80.9625
L26.1937 66.9625
" />
<path d="M26.1937 66.9625
L12.1937 66.9625
" />
<path d="M12.1937 80.9625
L26.1937 80.9625
" />
<path d="M12.1937 66.9625
L12.1937 80.9625
" />
<path d="M71.4375 80.9625
L71.4375 66.9625
" />
<path d="M71.4375 66.9625
L57.4375 66.9625
" />
<path d="M57.4375 80.9625
L71.4375 80.9625
" />
<path d="M57.4375 66.9625
L57.4375 80.9625
" />
<path d="M66.6750 61.9125
L66.6750 47.9125
" />
<path d="M66.6750 47.9125
L52.6750 47.9125
" />
<path d="M52.6750 61.9125
L66.6750 61.9125
" />
<path d="M52.6750 47.9125
L52.6750 61.9125
" />
<path d="M195.2625 100.0125
L195.2625 86.0125
" />
<path d="M195.2625 86.0125
L181.2625 86.0125
" />
<path d="M181.2625 100.0125
L195.2625 100.0125
" />
<path d="M181.2625 86.0125
L181.2625 100.0125
" />
<path d="M133.3500 42.8625
L133.3500 28.8625
" />
<path d="M133.3500 28.8625
L119.3500 28.8625
" />
<path d="M119.3500 42.8625
L133.3500 42.8625
" />
<path d="M119.3500 28.8625
L119.3500 42.8625
" />
<path d="M114.3000 42.8625
L114.3000 28.8625
" />
<path d="M114.3000 28.8625
L100.3000 28.8625
" />
<path d="M100.3000 42.8625
L114.3000 42.8625
" />
<path d="M100.3000 28.8625
L100.3000 42.8625
" />
<path d="M69.0562 119.0625
L69.0562 105.0625
" />
<path d="M69.0562 105.0625
L55.0562 105.0625
" />
<path d="M55.0562 119.0625
L69.0562 119.0625
" />
<path d="M55.0562 105.0625
L55.0562 119.0625
" />
<g >
</g>
<g >
</g>
<g >
</g>
<g >
</g>
<g >
</g>
<g >
</g>
<g >
</g>
<g >
</g>
<g >
</g>
<g >
</g>
<g >
</g>
<g >
</g>
<g >
</g>
<g >
</g>
<g >
</g>
<g >
</g>
<g >
</g>
<g >
</g>
<g >
</g>
<g >
</g>
<g >
</g>
<g >
</g>
<g >
</g>
<g >
</g>
<g >
</g>
<g >
</g>
<g >
</g>
<g >
</g>
<g >
</g>
<g >
</g>
<g >
</g>
<g >
</g>
<g >
</g>
<g >
</g>
<g >
</g>
<g >
</g>
<g >
</g>
<g >
</g>
<g >
</g>
<g >
</g>
<g >
</g>
<g >
</g>
<g >
</g>
<g >
</g>
<g >
</g>
<g >
</g>
<g >
</g>
<g >
</g>
<g >
</g>
<g >
</g>
<g >
</g>
<g >
</g>
<g >
</g>
<g >
</g>
<g >
</g>
<g >
</g>
<g >
</g>
<g >
</g>
<g >
</g>
<g >
</g>
<g >
</g>
<g >
</g>
<g >
</g>
<g >
</g>
<g >
</g>
<g >
</g>
<g >
</g>
<g >
</g>
<g >
</g>
<g >
</g>
<g >
</g>
<g >
</g>
<g >
</g>
<g >
</g>
<g >
</g>
<g >
</g>
<g >
</g>
<g >
</g>
<g >
</g>
<g >
</g>
<g >
</g>
<g >
</g>
<g >
</g>
<g >
</g>
<g >
</g>
<g >
</g>
<g >
</g>
<g >
</g>
<g >
</g>
<g >
</g>
<g >
</g>
<g >
</g>
<g >
</g>
<g >
</g>
<g >
</g>
<g >
</g>
<g >
</g>
<g >
</g>
<g >
</g>
<g >
</g>
<g >
</g>
<g >
</g>
<g >
</g>
<g >
</g>
<g >
</g>
<g >
</g>
<g >
</g>
<g >
</g>
<g >
</g>
<g >
</g>
<g >
</g>
<g >
</g>
<g >
</g>
<g >
</g>
<g >
</g>
<g >
</g>
<g >
</g>
<g >
</g>
<g >
</g>
<g >
</g>
<g >
</g>
<g >
</g>
<g >
</g>
<g >
</g>
<g >
</g>
<g >
</g>
<g >
</g>
<g >
</g>
<g >
</g>
<g >
</g>
<g >
</g>
<g >
</g>
<g >
</g>
<g >
</g>
<g >
</g>
<g >
</g>
<g >
</g>
<g >
</g>
<g >
</g>
<g >
</g>
<g >
</g>
<g >
</g>
<g >
</g>
<g >
</g>
<g >
</g>
<g >
</g>
<g >
</g>
<g >
</g>
<g >
</g>
<g >
</g>
<g >
</g>
<g >
</g>
<g >
</g>
<g >
</g>
<g >
</g>
<g >
</g>
<g >
</g>
<g >
</g>
<g >
</g>
<g >
</g>
<g >
</g>
<g >
</g>
<g >
</g>
<g >
</g>
<g >
</g>
<g >
</g>
<g >
</g>
<g >
</g>
<g >
</g>
<g >
</g>
<g >
</g>
<g >
</g>
<g >
</g>
<g >
</g>
<g >
</g>
<g >
</g>
<g >
</g>
<g >
</g>
<g >
</g>
<g >
</g>
<g >
</g>
<g >
</g>
<g >
</g>
<g >
</g>
<g >
</g>
<g >
</g>
<g >
</g>
<g >
</g>
<g >
</g>
<g >
</g>
<g >
</g>
<g >
</g>
<g >
</g>
<g >
</g>
<g >
</g>
<g >
</g>
<g >
</g>
<g >
</g>
<g >
</g>
<g >
</g>
<g >
</g>
<g >
</g>
<g >
</g>
<g >
</g>
<g >
</g>
<g >
</g>
<g >
</g>
<g >
</g>
<g >
</g>
<g >
</g>
<g >
</g>
<g >
</g>
<g >
</g>
<g >
</g>
<g >
</g>
<g >
</g>
<g >
</g>
<g >
</g>
<g >
</g>
<g >
</g>
<g >
</g>
<g >
</g>
<g >
</g>
<g >
</g>
<g >
</g>
<g >
</g>
<g >
</g>
<g >
</g>
<g >
</g>
<g >
</g>
<g >
</g>
<g >
</g>
<g >
</g>
<g >
</g>
<g >
</g>
<g >
</g>
<g >
</g>
<g >
</g>
<g >
</g>
<g >
</g>
<g >
</g>
<g >
</g>
<g >
</g>
<g >
</g>
<g >
</g>
<g >
</g>
<g >
</g>
<g >
</g>
<g >
</g>
<g >
</g>
<g >
</g>
<g >
</g>
<g >
</g>
<g >
</g>
<g >
</g>
<g >
</g>
<g >
</g>
<g >
</g>
<g >
</g>
<g >
</g>
<g >
</g>
<g >
</g>
<g >
</g>
<g >
</g>
<g >
</g>
<g >
</g>
<g >
</g>
<g >
</g>
<g >
</g>
<g >
</g>
<g >
</g>
<g >
</g>
<g >
</g>
<g >
</g>
<g >
</g>
<g >
</g>
<g >
</g>
<g >
</g>
<g >
</g>
<g >
</g>
<g >
</g>
<g >
</g>
<g >
</g>
<g >
</g>
<g >
</g>
<g >
</g>
<g >
</g>
<g >
</g>
<g >
</g>
<g >
</g>
<g >
</g>
<g >
</g>
<g >
</g>
<g >
</g>
<g >
</g>
<g >
</g>
</g> 
</svg>
