  0
SECTION
  2
HEADER
  9
$ACADVER
  1
AC1014
  9
$HANDSEED
  5
FFFF
  9
$MEASUREMENT
 70
     1
  0
ENDSEC
  0
SECTION
  2
TABLES
  0
TABLE
  2
VPORT
  5
8
330
0
100
AcDbSymbolTable
 70
     4
  0
VPORT
  5
2E
330
8
100
AcDbSymbolTableRecord
100
AcDbViewportTableRecord
  2
*ACTIVE
 70
     0
 10
0.0
 20
0.0
 11
1.0
 21
1.0
 12
210.0
 22
148.5
 13
0.0
 23
0.0
 14
10.0
 24
10.0
 15
10.0
 25
10.0
 16
0.0
 26
0.0
 36
1.0
 17
0.0
 27
0.0
 37
0.0
 40
341.0
 41
1.24
 42
50.0
 43
0.0
 44
0.0
 50
0.0
 51
0.0
 71
     0
 72
   100
 73
     1
 74
     3
 75
     0
 76
     0
 77
     0
 78
     0
  0
ENDTAB
  0
TABLE
  2
LTYPE
  5
5
330
0
100
AcDbSymbolTable
 70
     1
  0
LTYPE
  5
14
330
5
100
AcDbSymbolTableRecord
100
AcDbLinetypeTableRecord
  2
BYBLOCK
 70
     0
  3

 72
    65
 73
     0
 40
0.0
  0
LTYPE
  5
15
330
5
100
AcDbSymbolTableRecord
100
AcDbLinetypeTableRecord
  2
BYLAYER
 70
     0
  3

 72
    65
 73
     0
 40
0.0
  0
LTYPE
  5
16
330
5
100
AcDbSymbolTableRecord
100
AcDbLinetypeTableRecord
  2
CONTINUOUS
 70
     0
  3
Solid line
 72
    65
 73
     0
 40
0.0
  0
ENDTAB
  0
TABLE
  2
LAYER
  5
2
100
AcDbSymbolTable
 70
1
  0
LAYER
  5
50
100
AcDbSymbolTableRecord
100
AcDbLayerTableRecord
  2
0
 70
0
  6
CONTINUOUS
  0
ENDTAB
  0
TABLE
  2
STYLE
  5
3
330
0
100
AcDbSymbolTable
 70
     1
  0
STYLE
  5
11
330
3
100
AcDbSymbolTableRecord
100
AcDbTextStyleTableRecord
  2
STANDARD
 70
     0
 40
0.0
 41
1.0
 50
0.0
 71
     0
 42
2.5
  3
txt
  4

  0
ENDTAB
  0
TABLE
  2
VIEW
  5
6
330
0
100
AcDbSymbolTable
 70
     0
  0
ENDTAB
  0
TABLE
  2
UCS
  5
7
330
0
100
AcDbSymbolTable
 70
     0
  0
ENDTAB
  0
TABLE
  2
APPID
  5
9
330
0
100
AcDbSymbolTable
 70
     2
  0
APPID
  5
12
330
9
100
AcDbSymbolTableRecord
100
AcDbRegAppTableRecord
  2
ACAD
 70
     0
  0
ENDTAB
  0
TABLE
  2
DIMSTYLE
  5
A
330
0
100
AcDbSymbolTable
 70
     1
  0
DIMSTYLE
105
27
330
A
100
AcDbSymbolTableRecord
100
AcDbDimStyleTableRecord
  2
ISO-25
 70
     0
  3

  4

  5

  6

  7

 40
1.0
 41
2.5
 42
0.625
 43
3.75
 44
1.25
 45
0.0
 46
0.0
 47
0.0
 48
0.0
140
2.5
141
2.5
142
0.0
143
0.03937007874016
144
1.0
145
0.0
146
1.0
147
0.625
 71
     0
 72
     0
 73
     0
 74
     0
 75
     0
 76
     0
 77
     1
 78
     8
170
     0
171
     3
172
     1
173
     0
174
     0
175
     0
176
     0
177
     0
178
     0
270
     2
271
     2
272
     2
273
     2
274
     3
340
11
275
     0
280
     0
281
     0
282
     0
283
     0
284
     8
285
     0
286
     0
287
     3
288
     0
  0
ENDTAB
  0
TABLE
  2
BLOCK_RECORD
  5
1
330
0
100
AcDbSymbolTable
 70
     1
  0
BLOCK_RECORD
  5
1F
330
1
100
AcDbSymbolTableRecord
100
AcDbBlockTableRecord
  2
*MODEL_SPACE
  0
BLOCK_RECORD
  5
1B
330
1
100
AcDbSymbolTableRecord
100
AcDbBlockTableRecord
  2
*PAPER_SPACE
  0
ENDTAB
  0
ENDSEC
  0
SECTION
  2
BLOCKS
  0
BLOCK
  5
20
330
1F
100
AcDbEntity
  8
0
100
AcDbBlockBegin
  2
*MODEL_SPACE
 70
     0
 10
0.0
 20
0.0
 30
0.0
  3
*MODEL_SPACE
  1

  0
ENDBLK
  5
21
330
1F
100
AcDbEntity
  8
0
100
AcDbBlockEnd
  0
BLOCK
  5
1C
330
1B
100
AcDbEntity
 67
     1
  8
0
100
AcDbBlockBegin
  2
*PAPER_SPACE
  1

  0
ENDBLK
  5
1D
330
1B
100
AcDbEntity
 67
     1
  8
0
100
AcDbBlockEnd
  0
ENDSEC
  0
SECTION
  2
ENTITIES
  0
LWPOLYLINE
  5
100
100
AcDbEntity
  8
0
 62
7
100
AcDbPolyline
 90
3
 70
0
 10
266.700413
 20
110.185371
 30
0.0
 10
266.700413
 20
124.185392
 30
0.0
 10
252.700391
 20
124.185392
 30
0.0
  0
LWPOLYLINE
  5
101
100
AcDbEntity
  8
0
 62
7
100
AcDbPolyline
 90
2
 70
0
 10
252.700391
 20
110.185371
 30
0.0
 10
266.700413
 20
110.185371
 30
0.0
  0
LWPOLYLINE
  5
102
100
AcDbEntity
  8
0
 62
7
100
AcDbPolyline
 90
2
 70
0
 10
252.700391
 20
124.185392
 30
0.0
 10
252.700391
 20
110.185371
 30
0.0
  0
LWPOLYLINE
  5
103
100
AcDbEntity
  8
0
 62
7
100
AcDbPolyline
 90
3
 70
0
 10
128.587699
 20
48.272775
 30
0.0
 10
128.587699
 20
62.272796
 30
0.0
 10
114.587677
 20
62.272796
 30
0.0
  0
LWPOLYLINE
  5
104
100
AcDbEntity
  8
0
 62
7
100
AcDbPolyline
 90
2
 70
0
 10
114.587677
 20
48.272775
 30
0.0
 10
128.587699
 20
48.272775
 30
0.0
  0
LWPOLYLINE
  5
105
100
AcDbEntity
  8
0
 62
7
100
AcDbPolyline
 90
2
 70
0
 10
114.587677
 20
62.272796
 30
0.0
 10
114.587677
 20
48.272775
 30
0.0
  0
LWPOLYLINE
  5
106
100
AcDbEntity
  8
0
 62
7
100
AcDbPolyline
 90
3
 70
0
 10
166.687758
 20
48.272775
 30
0.0
 10
166.687758
 20
62.272796
 30
0.0
 10
152.687736
 20
62.272796
 30
0.0
  0
LWPOLYLINE
  5
107
100
AcDbEntity
  8
0
 62
7
100
AcDbPolyline
 90
2
 70
0
 10
152.687736
 20
48.272775
 30
0.0
 10
166.687758
 20
48.272775
 30
0.0
  0
LWPOLYLINE
  5
108
100
AcDbEntity
  8
0
 62
7
100
AcDbPolyline
 90
2
 70
0
 10
152.687736
 20
62.272796
 30
0.0
 10
152.687736
 20
48.272775
 30
0.0
  0
LWPOLYLINE
  5
109
100
AcDbEntity
  8
0
 62
7
100
AcDbPolyline
 90
3
 70
0
 10
171.450265
 20
86.372834
 30
0.0
 10
171.450265
 20
100.372855
 30
0.0
 10
157.450244
 20
100.372855
 30
0.0
  0
LWPOLYLINE
  5
10a
100
AcDbEntity
  8
0
 62
7
100
AcDbPolyline
 90
2
 70
0
 10
157.450244
 20
86.372834
 30
0.0
 10
171.450265
 20
86.372834
 30
0.0
  0
LWPOLYLINE
  5
10b
100
AcDbEntity
  8
0
 62
7
100
AcDbPolyline
 90
2
 70
0
 10
157.450244
 20
100.372855
 30
0.0
 10
157.450244
 20
86.372834
 30
0.0
  0
LWPOLYLINE
  5
10c
100
AcDbEntity
  8
0
 62
7
100
AcDbPolyline
 90
3
 70
0
 10
100.012655
 20
29.222745
 30
0.0
 10
100.012655
 20
43.222767
 30
0.0
 10
86.012633
 20
43.222767
 30
0.0
  0
LWPOLYLINE
  5
10d
100
AcDbEntity
  8
0
 62
7
100
AcDbPolyline
 90
2
 70
0
 10
86.012633
 20
29.222745
 30
0.0
 10
100.012655
 20
29.222745
 30
0.0
  0
LWPOLYLINE
  5
10e
100
AcDbEntity
  8
0
 62
7
100
AcDbPolyline
 90
2
 70
0
 10
86.012633
 20
43.222767
 30
0.0
 10
86.012633
 20
29.222745
 30
0.0
  0
LWPOLYLINE
  5
10f
100
AcDbEntity
  8
0
 62
7
100
AcDbPolyline
 90
3
 70
0
 10
85.725133
 20
67.322804
 30
0.0
 10
85.725133
 20
81.322826
 30
0.0
 10
71.725111
 20
81.322826
 30
0.0
  0
LWPOLYLINE
  5
110
100
AcDbEntity
  8
0
 62
7
100
AcDbPolyline
 90
2
 70
0
 10
71.725111
 20
67.322804
 30
0.0
 10
85.725133
 20
67.322804
 30
0.0
  0
LWPOLYLINE
  5
111
100
AcDbEntity
  8
0
 62
7
100
AcDbPolyline
 90
2
 70
0
 10
71.725111
 20
81.322826
 30
0.0
 10
71.725111
 20
67.322804
 30
0.0
  0
LWPOLYLINE
  5
112
100
AcDbEntity
  8
0
 62
7
100
AcDbPolyline
 90
3
 70
0
 10
30.956248
 20
29.222745
 30
0.0
 10
30.956248
 20
43.222767
 30
0.0
 10
16.956326
 20
43.222767
 30
0.0
  0
LWPOLYLINE
  5
113
100
AcDbEntity
  8
0
 62
7
100
AcDbPolyline
 90
2
 70
0
 10
16.956326
 20
29.222745
 30
0.0
 10
30.956248
 20
29.222745
 30
0.0
  0
LWPOLYLINE
  5
114
100
AcDbEntity
  8
0
 62
7
100
AcDbPolyline
 90
2
 70
0
 10
16.956326
 20
43.222767
 30
0.0
 10
16.956326
 20
29.222745
 30
0.0
  0
LWPOLYLINE
  5
115
100
AcDbEntity
  8
0
 62
7
100
AcDbPolyline
 90
3
 70
0
 10
76.200118
 20
86.372834
 30
0.0
 10
76.200118
 20
100.372855
 30
0.0
 10
62.200096
 20
100.372855
 30
0.0
  0
LWPOLYLINE
  5
116
100
AcDbEntity
  8
0
 62
7
100
AcDbPolyline
 90
2
 70
0
 10
62.200096
 20
86.372834
 30
0.0
 10
76.200118
 20
86.372834
 30
0.0
  0
LWPOLYLINE
  5
117
100
AcDbEntity
  8
0
 62
7
100
AcDbPolyline
 90
2
 70
0
 10
62.200096
 20
100.372855
 30
0.0
 10
62.200096
 20
86.372834
 30
0.0
  0
LWPOLYLINE
  5
118
100
AcDbEntity
  8
0
 62
7
100
AcDbPolyline
 90
3
 70
0
 10
47.625074
 20
67.322804
 30
0.0
 10
47.625074
 20
81.322826
 30
0.0
 10
33.625052
 20
81.322826
 30
0.0
  0
LWPOLYLINE
  5
119
100
AcDbEntity
  8
0
 62
7
100
AcDbPolyline
 90
2
 70
0
 10
33.625052
 20
67.322804
 30
0.0
 10
47.625074
 20
67.322804
 30
0.0
  0
LWPOLYLINE
  5
11a
100
AcDbEntity
  8
0
 62
7
100
AcDbPolyline
 90
2
 70
0
 10
33.625052
 20
81.322826
 30
0.0
 10
33.625052
 20
67.322804
 30
0.0
  0
LWPOLYLINE
  5
11b
100
AcDbEntity
  8
0
 62
7
100
AcDbPolyline
 90
3
 70
0
 10
238.125369
 20
67.322804
 30
0.0
 10
238.125369
 20
81.322826
 30
0.0
 10
224.125347
 20
81.322826
 30
0.0
  0
LWPOLYLINE
  5
11c
100
AcDbEntity
  8
0
 62
7
100
AcDbPolyline
 90
2
 70
0
 10
224.125347
 20
67.322804
 30
0.0
 10
238.125369
 20
67.322804
 30
0.0
  0
LWPOLYLINE
  5
11d
100
AcDbEntity
  8
0
 62
7
100
AcDbPolyline
 90
2
 70
0
 10
224.125347
 20
81.322826
 30
0.0
 10
224.125347
 20
67.322804
 30
0.0
  0
LWPOLYLINE
  5
11e
100
AcDbEntity
  8
0
 62
7
100
AcDbPolyline
 90
3
 70
0
 10
138.112714
 20
29.222745
 30
0.0
 10
138.112714
 20
43.222767
 30
0.0
 10
124.112692
 20
43.222767
 30
0.0
  0
LWPOLYLINE
  5
11f
100
AcDbEntity
  8
0
 62
7
100
AcDbPolyline
 90
2
 70
0
 10
124.112692
 20
29.222745
 30
0.0
 10
138.112714
 20
29.222745
 30
0.0
  0
LWPOLYLINE
  5
120
100
AcDbEntity
  8
0
 62
7
100
AcDbPolyline
 90
2
 70
0
 10
124.112692
 20
43.222767
 30
0.0
 10
124.112692
 20
29.222745
 30
0.0
  0
LWPOLYLINE
  5
121
100
AcDbEntity
  8
0
 62
7
100
AcDbPolyline
 90
3
 70
0
 10
52.387581
 20
48.272775
 30
0.0
 10
52.387581
 20
62.272796
 30
0.0
 10
38.387559
 20
62.272796
 30
0.0
  0
LWPOLYLINE
  5
122
100
AcDbEntity
  8
0
 62
7
100
AcDbPolyline
 90
2
 70
0
 10
38.387559
 20
48.272775
 30
0.0
 10
52.387581
 20
48.272775
 30
0.0
  0
LWPOLYLINE
  5
123
100
AcDbEntity
  8
0
 62
7
100
AcDbPolyline
 90
2
 70
0
 10
38.387559
 20
62.272796
 30
0.0
 10
38.387559
 20
48.272775
 30
0.0
  0
LWPOLYLINE
  5
124
100
AcDbEntity
  8
0
 62
7
100
AcDbPolyline
 90
3
 70
0
 10
276.225427
 20
86.372834
 30
0.0
 10
276.225427
 20
100.372855
 30
0.0
 10
262.225406
 20
100.372855
 30
0.0
  0
LWPOLYLINE
  5
125
100
AcDbEntity
  8
0
 62
7
100
AcDbPolyline
 90
2
 70
0
 10
262.225406
 20
86.372834
 30
0.0
 10
276.225427
 20
86.372834
 30
0.0
  0
LWPOLYLINE
  5
126
100
AcDbEntity
  8
0
 62
7
100
AcDbPolyline
 90
2
 70
0
 10
262.225406
 20
100.372855
 30
0.0
 10
262.225406
 20
86.372834
 30
0.0
  0
LWPOLYLINE
  5
127
100
AcDbEntity
  8
0
 62
7
100
AcDbPolyline
 90
3
 70
0
 10
76.200118
 20
110.185371
 30
0.0
 10
76.200118
 20
124.185392
 30
0.0
 10
62.200096
 20
124.185392
 30
0.0
  0
LWPOLYLINE
  5
128
100
AcDbEntity
  8
0
 62
7
100
AcDbPolyline
 90
2
 70
0
 10
62.200096
 20
110.185371
 30
0.0
 10
76.200118
 20
110.185371
 30
0.0
  0
LWPOLYLINE
  5
129
100
AcDbEntity
  8
0
 62
7
100
AcDbPolyline
 90
2
 70
0
 10
62.200096
 20
124.185392
 30
0.0
 10
62.200096
 20
110.185371
 30
0.0
  0
LWPOLYLINE
  5
12a
100
AcDbEntity
  8
0
 62
7
100
AcDbPolyline
 90
3
 70
0
 10
180.975280
 20
67.322804
 30
0.0
 10
180.975280
 20
81.322826
 30
0.0
 10
166.975258
 20
81.322826
 30
0.0
  0
LWPOLYLINE
  5
12b
100
AcDbEntity
  8
0
 62
7
100
AcDbPolyline
 90
2
 70
0
 10
166.975258
 20
67.322804
 30
0.0
 10
180.975280
 20
67.322804
 30
0.0
  0
LWPOLYLINE
  5
12c
100
AcDbEntity
  8
0
 62
7
100
AcDbPolyline
 90
2
 70
0
 10
166.975258
 20
81.322826
 30
0.0
 10
166.975258
 20
67.322804
 30
0.0
  0
LWPOLYLINE
  5
12d
100
AcDbEntity
  8
0
 62
7
100
AcDbPolyline
 90
3
 70
0
 10
21.431233
 20
10.172716
 30
0.0
 10
21.431233
 20
24.172737
 30
0.0
 10
7.431212
 20
24.172737
 30
0.0
  0
LWPOLYLINE
  5
12e
100
AcDbEntity
  8
0
 62
7
100
AcDbPolyline
 90
2
 70
0
 10
7.431212
 20
10.172716
 30
0.0
 10
21.431233
 20
10.172716
 30
0.0
  0
LWPOLYLINE
  5
12f
100
AcDbEntity
  8
0
 62
7
100
AcDbPolyline
 90
2
 70
0
 10
7.431212
 20
24.172737
 30
0.0
 10
7.431212
 20
10.172716
 30
0.0
  0
LWPOLYLINE
  5
130
100
AcDbEntity
  8
0
 62
7
100
AcDbPolyline
 90
3
 70
0
 10
190.500295
 20
86.372834
 30
0.0
 10
190.500295
 20
100.372855
 30
0.0
 10
176.500273
 20
100.372855
 30
0.0
  0
LWPOLYLINE
  5
131
100
AcDbEntity
  8
0
 62
7
100
AcDbPolyline
 90
2
 70
0
 10
176.500273
 20
86.372834
 30
0.0
 10
190.500295
 20
86.372834
 30
0.0
  0
LWPOLYLINE
  5
132
100
AcDbEntity
  8
0
 62
7
100
AcDbPolyline
 90
2
 70
0
 10
176.500273
 20
100.372855
 30
0.0
 10
176.500273
 20
86.372834
 30
0.0
  0
LWPOLYLINE
  5
133
100
AcDbEntity
  8
0
 62
7
100
AcDbPolyline
 90
3
 70
0
 10
90.487640
 20
48.272775
 30
0.0
 10
90.487640
 20
62.272796
 30
0.0
 10
76.487618
 20
62.272796
 30
0.0
  0
LWPOLYLINE
  5
134
100
AcDbEntity
  8
0
 62
7
100
AcDbPolyline
 90
2
 70
0
 10
76.487618
 20
48.272775
 30
0.0
 10
90.487640
 20
48.272775
 30
0.0
  0
LWPOLYLINE
  5
135
100
AcDbEntity
  8
0
 62
7
100
AcDbPolyline
 90
2
 70
0
 10
76.487618
 20
62.272796
 30
0.0
 10
76.487618
 20
48.272775
 30
0.0
  0
LWPOLYLINE
  5
136
100
AcDbEntity
  8
0
 62
7
100
AcDbPolyline
 90
3
 70
0
 10
61.912596
 20
29.222745
 30
0.0
 10
61.912596
 20
43.222767
 30
0.0
 10
47.912574
 20
43.222767
 30
0.0
  0
LWPOLYLINE
  5
137
100
AcDbEntity
  8
0
 62
7
100
AcDbPolyline
 90
2
 70
0
 10
47.912574
 20
29.222745
 30
0.0
 10
61.912596
 20
29.222745
 30
0.0
  0
LWPOLYLINE
  5
138
100
AcDbEntity
  8
0
 62
7
100
AcDbPolyline
 90
2
 70
0
 10
47.912574
 20
43.222767
 30
0.0
 10
47.912574
 20
29.222745
 30
0.0
  0
LWPOLYLINE
  5
139
100
AcDbEntity
  8
0
 62
7
100
AcDbPolyline
 90
3
 70
0
 10
95.250147
 20
110.185371
 30
0.0
 10
95.250147
 20
124.185392
 30
0.0
 10
81.250126
 20
124.185392
 30
0.0
  0
LWPOLYLINE
  5
13a
100
AcDbEntity
  8
0
 62
7
100
AcDbPolyline
 90
2
 70
0
 10
81.250126
 20
110.185371
 30
0.0
 10
95.250147
 20
110.185371
 30
0.0
  0
LWPOLYLINE
  5
13b
100
AcDbEntity
  8
0
 62
7
100
AcDbPolyline
 90
2
 70
0
 10
81.250126
 20
124.185392
 30
0.0
 10
81.250126
 20
110.185371
 30
0.0
  0
LWPOLYLINE
  5
13c
100
AcDbEntity
  8
0
 62
7
100
AcDbPolyline
 90
3
 70
0
 10
123.825192
 20
67.322804
 30
0.0
 10
123.825192
 20
81.322826
 30
0.0
 10
109.825170
 20
81.322826
 30
0.0
  0
LWPOLYLINE
  5
13d
100
AcDbEntity
  8
0
 62
7
100
AcDbPolyline
 90
2
 70
0
 10
109.825170
 20
67.322804
 30
0.0
 10
123.825192
 20
67.322804
 30
0.0
  0
LWPOLYLINE
  5
13e
100
AcDbEntity
  8
0
 62
7
100
AcDbPolyline
 90
2
 70
0
 10
109.825170
 20
81.322826
 30
0.0
 10
109.825170
 20
67.322804
 30
0.0
  0
LWPOLYLINE
  5
13f
100
AcDbEntity
  8
0
 62
7
100
AcDbPolyline
 90
3
 70
0
 10
223.837846
 20
48.272775
 30
0.0
 10
223.837846
 20
62.272796
 30
0.0
 10
209.837825
 20
62.272796
 30
0.0
  0
LWPOLYLINE
  5
140
100
AcDbEntity
  8
0
 62
7
100
AcDbPolyline
 90
2
 70
0
 10
209.837825
 20
48.272775
 30
0.0
 10
223.837846
 20
48.272775
 30
0.0
  0
LWPOLYLINE
  5
141
100
AcDbEntity
  8
0
 62
7
100
AcDbPolyline
 90
2
 70
0
 10
209.837825
 20
62.272796
 30
0.0
 10
209.837825
 20
48.272775
 30
0.0
  0
LWPOLYLINE
  5
142
100
AcDbEntity
  8
0
 62
7
100
AcDbPolyline
 90
3
 70
0
 10
290.512950
 20
10.172716
 30
0.0
 10
290.512950
 20
24.172737
 30
0.0
 10
276.512928
 20
24.172737
 30
0.0
  0
LWPOLYLINE
  5
143
100
AcDbEntity
  8
0
 62
7
100
AcDbPolyline
 90
2
 70
0
 10
276.512928
 20
10.172716
 30
0.0
 10
290.512950
 20
10.172716
 30
0.0
  0
LWPOLYLINE
  5
144
100
AcDbEntity
  8
0
 62
7
100
AcDbPolyline
 90
2
 70
0
 10
276.512928
 20
24.172737
 30
0.0
 10
276.512928
 20
10.172716
 30
0.0
  0
LWPOLYLINE
  5
145
100
AcDbEntity
  8
0
 62
7
100
AcDbPolyline
 90
3
 70
0
 10
200.025310
 20
110.185371
 30
0.0
 10
200.025310
 20
124.185392
 30
0.0
 10
186.025288
 20
124.185392
 30
0.0
  0
LWPOLYLINE
  5
146
100
AcDbEntity
  8
0
 62
7
100
AcDbPolyline
 90
2
 70
0
 10
186.025288
 20
110.185371
 30
0.0
 10
200.025310
 20
110.185371
 30
0.0
  0
LWPOLYLINE
  5
147
100
AcDbEntity
  8
0
 62
7
100
AcDbPolyline
 90
2
 70
0
 10
186.025288
 20
124.185392
 30
0.0
 10
186.025288
 20
110.185371
 30
0.0
  0
LWPOLYLINE
  5
148
100
AcDbEntity
  8
0
 62
7
100
AcDbPolyline
 90
3
 70
0
 10
104.775162
 20
67.322804
 30
0.0
 10
104.775162
 20
81.322826
 30
0.0
 10
90.775140
 20
81.322826
 30
0.0
  0
LWPOLYLINE
  5
149
100
AcDbEntity
  8
0
 62
7
100
AcDbPolyline
 90
2
 70
0
 10
90.775140
 20
67.322804
 30
0.0
 10
104.775162
 20
67.322804
 30
0.0
  0
LWPOLYLINE
  5
14a
100
AcDbEntity
  8
0
 62
7
100
AcDbPolyline
 90
2
 70
0
 10
90.775140
 20
81.322826
 30
0.0
 10
90.775140
 20
67.322804
 30
0.0
  0
LWPOLYLINE
  5
14b
100
AcDbEntity
  8
0
 62
7
100
AcDbPolyline
 90
3
 70
0
 10
23.812537
 20
67.322804
 30
0.0
 10
23.812537
 20
81.322826
 30
0.0
 10
9.812515
 20
81.322826
 30
0.0
  0
LWPOLYLINE
  5
14c
100
AcDbEntity
  8
0
 62
7
100
AcDbPolyline
 90
2
 70
0
 10
9.812515
 20
67.322804
 30
0.0
 10
23.812537
 20
67.322804
 30
0.0
  0
LWPOLYLINE
  5
14d
100
AcDbEntity
  8
0
 62
7
100
AcDbPolyline
 90
2
 70
0
 10
9.812515
 20
81.322826
 30
0.0
 10
9.812515
 20
67.322804
 30
0.0
  0
LWPOLYLINE
  5
14e
100
AcDbEntity
  8
0
 62
7
100
AcDbPolyline
 90
3
 70
0
 10
219.075339
 20
67.322804
 30
0.0
 10
219.075339
 20
81.322826
 30
0.0
 10
205.075317
 20
81.322826
 30
0.0
  0
LWPOLYLINE
  5
14f
100
AcDbEntity
  8
0
 62
7
100
AcDbPolyline
 90
2
 70
0
 10
205.075317
 20
67.322804
 30
0.0
 10
219.075339
 20
67.322804
 30
0.0
  0
LWPOLYLINE
  5
150
100
AcDbEntity
  8
0
 62
7
100
AcDbPolyline
 90
2
 70
0
 10
205.075317
 20
81.322826
 30
0.0
 10
205.075317
 20
67.322804
 30
0.0
  0
LWPOLYLINE
  5
151
100
AcDbEntity
  8
0
 62
7
100
AcDbPolyline
 90
3
 70
0
 10
309.562979
 20
110.185371
 30
0.0
 10
309.562979
 20
124.185392
 30
0.0
 10
295.562957
 20
124.185392
 30
0.0
  0
LWPOLYLINE
  5
152
100
AcDbEntity
  8
0
 62
7
100
AcDbPolyline
 90
2
 70
0
 10
295.562957
 20
110.185371
 30
0.0
 10
309.562979
 20
110.185371
 30
0.0
  0
LWPOLYLINE
  5
153
100
AcDbEntity
  8
0
 62
7
100
AcDbPolyline
 90
2
 70
0
 10
295.562957
 20
124.185392
 30
0.0
 10
295.562957
 20
110.185371
 30
0.0
  0
LWPOLYLINE
  5
154
100
AcDbEntity
  8
0
 62
7
100
AcDbPolyline
 90
3
 70
0
 10
45.243770
 20
10.172716
 30
0.0
 10
45.243770
 20
24.172737
 30
0.0
 10
31.243748
 20
24.172737
 30
0.0
  0
LWPOLYLINE
  5
155
100
AcDbEntity
  8
0
 62
7
100
AcDbPolyline
 90
2
 70
0
 10
31.243748
 20
10.172716
 30
0.0
 10
45.243770
 20
10.172716
 30
0.0
  0
LWPOLYLINE
  5
156
100
AcDbEntity
  8
0
 62
7
100
AcDbPolyline
 90
2
 70
0
 10
31.243748
 20
24.172737
 30
0.0
 10
31.243748
 20
10.172716
 30
0.0
  0
LWPOLYLINE
  5
157
100
AcDbEntity
  8
0
 62
7
100
AcDbPolyline
 90
3
 70
0
 10
57.150088
 20
86.372834
 30
0.0
 10
57.150088
 20
100.372855
 30
0.0
 10
43.150067
 20
100.372855
 30
0.0
  0
LWPOLYLINE
  5
158
100
AcDbEntity
  8
0
 62
7
100
AcDbPolyline
 90
2
 70
0
 10
43.150067
 20
86.372834
 30
0.0
 10
57.150088
 20
86.372834
 30
0.0
  0
LWPOLYLINE
  5
159
100
AcDbEntity
  8
0
 62
7
100
AcDbPolyline
 90
2
 70
0
 10
43.150067
 20
100.372855
 30
0.0
 10
43.150067
 20
86.372834
 30
0.0
  0
LWPOLYLINE
  5
15a
100
AcDbEntity
  8
0
 62
7
100
AcDbPolyline
 90
3
 70
0
 10
140.494017
 20
10.172716
 30
0.0
 10
140.494017
 20
24.172737
 30
0.0
 10
126.493896
 20
24.172737
 30
0.0
  0
LWPOLYLINE
  5
15b
100
AcDbEntity
  8
0
 62
7
100
AcDbPolyline
 90
2
 70
0
 10
126.493896
 20
10.172716
 30
0.0
 10
140.494017
 20
10.172716
 30
0.0
  0
LWPOLYLINE
  5
15c
100
AcDbEntity
  8
0
 62
7
100
AcDbPolyline
 90
2
 70
0
 10
126.493896
 20
24.172737
 30
0.0
 10
126.493896
 20
10.172716
 30
0.0
  0
LWPOLYLINE
  5
15d
100
AcDbEntity
  8
0
 62
7
100
AcDbPolyline
 90
3
 70
0
 10
214.312832
 20
29.222745
 30
0.0
 10
214.312832
 20
43.222767
 30
0.0
 10
200.312810
 20
43.222767
 30
0.0
  0
LWPOLYLINE
  5
15e
100
AcDbEntity
  8
0
 62
7
100
AcDbPolyline
 90
2
 70
0
 10
200.312810
 20
29.222745
 30
0.0
 10
214.312832
 20
29.222745
 30
0.0
  0
LWPOLYLINE
  5
15f
100
AcDbEntity
  8
0
 62
7
100
AcDbPolyline
 90
2
 70
0
 10
200.312810
 20
43.222767
 30
0.0
 10
200.312810
 20
29.222745
 30
0.0
  0
LWPOLYLINE
  5
160
100
AcDbEntity
  8
0
 62
7
100
AcDbPolyline
 90
3
 70
0
 10
142.875221
 20
67.322804
 30
0.0
 10
142.875221
 20
81.322826
 30
0.0
 10
128.875199
 20
81.322826
 30
0.0
  0
LWPOLYLINE
  5
161
100
AcDbEntity
  8
0
 62
7
100
AcDbPolyline
 90
2
 70
0
 10
128.875199
 20
67.322804
 30
0.0
 10
142.875221
 20
67.322804
 30
0.0
  0
LWPOLYLINE
  5
162
100
AcDbEntity
  8
0
 62
7
100
AcDbPolyline
 90
2
 70
0
 10
128.875199
 20
81.322826
 30
0.0
 10
128.875199
 20
67.322804
 30
0.0
  0
LWPOLYLINE
  5
163
100
AcDbEntity
  8
0
 62
7
100
AcDbPolyline
 90
3
 70
0
 10
114.300177
 20
110.185371
 30
0.0
 10
114.300177
 20
124.185392
 30
0.0
 10
100.300155
 20
124.185392
 30
0.0
  0
LWPOLYLINE
  5
164
100
AcDbEntity
  8
0
 62
7
100
AcDbPolyline
 90
2
 70
0
 10
100.300155
 20
110.185371
 30
0.0
 10
114.300177
 20
110.185371
 30
0.0
  0
LWPOLYLINE
  5
165
100
AcDbEntity
  8
0
 62
7
100
AcDbPolyline
 90
2
 70
0
 10
100.300155
 20
124.185392
 30
0.0
 10
100.300155
 20
110.185371
 30
0.0
  0
LWPOLYLINE
  5
166
100
AcDbEntity
  8
0
 62
7
100
AcDbPolyline
 90
3
 70
0
 10
142.875221
 20
110.185371
 30
0.0
 10
142.875221
 20
124.185392
 30
0.0
 10
128.875199
 20
124.185392
 30
0.0
  0
LWPOLYLINE
  5
167
100
AcDbEntity
  8
0
 62
7
100
AcDbPolyline
 90
2
 70
0
 10
128.875199
 20
110.185371
 30
0.0
 10
142.875221
 20
110.185371
 30
0.0
  0
LWPOLYLINE
  5
168
100
AcDbEntity
  8
0
 62
7
100
AcDbPolyline
 90
2
 70
0
 10
128.875199
 20
124.185392
 30
0.0
 10
128.875199
 20
110.185371
 30
0.0
  0
LWPOLYLINE
  5
169
100
AcDbEntity
  8
0
 62
7
100
AcDbPolyline
 90
3
 70
0
 10
109.537670
 20
48.272775
 30
0.0
 10
109.537670
 20
62.272796
 30
0.0
 10
95.537648
 20
62.272796
 30
0.0
  0
LWPOLYLINE
  5
16a
100
AcDbEntity
  8
0
 62
7
100
AcDbPolyline
 90
2
 70
0
 10
95.537648
 20
48.272775
 30
0.0
 10
109.537670
 20
48.272775
 30
0.0
  0
LWPOLYLINE
  5
16b
100
AcDbEntity
  8
0
 62
7
100
AcDbPolyline
 90
2
 70
0
 10
95.537648
 20
62.272796
 30
0.0
 10
95.537648
 20
48.272775
 30
0.0
  0
LWPOLYLINE
  5
16c
100
AcDbEntity
  8
0
 62
7
100
AcDbPolyline
 90
3
 70
0
 10
328.613009
 20
110.185371
 30
0.0
 10
328.613009
 20
124.185392
 30
0.0
 10
314.612987
 20
124.185392
 30
0.0
  0
LWPOLYLINE
  5
16d
100
AcDbEntity
  8
0
 62
7
100
AcDbPolyline
 90
2
 70
0
 10
314.612987
 20
110.185371
 30
0.0
 10
328.613009
 20
110.185371
 30
0.0
  0
LWPOLYLINE
  5
16e
100
AcDbEntity
  8
0
 62
7
100
AcDbPolyline
 90
2
 70
0
 10
314.612987
 20
124.185392
 30
0.0
 10
314.612987
 20
110.185371
 30
0.0
  0
LWPOLYLINE
  5
16f
100
AcDbEntity
  8
0
 62
7
100
AcDbPolyline
 90
3
 70
0
 10
228.600354
 20
110.185371
 30
0.0
 10
228.600354
 20
124.185392
 30
0.0
 10
214.600332
 20
124.185392
 30
0.0
  0
LWPOLYLINE
  5
170
100
AcDbEntity
  8
0
 62
7
100
AcDbPolyline
 90
2
 70
0
 10
214.600332
 20
110.185371
 30
0.0
 10
228.600354
 20
110.185371
 30
0.0
  0
LWPOLYLINE
  5
171
100
AcDbEntity
  8
0
 62
7
100
AcDbPolyline
 90
2
 70
0
 10
214.600332
 20
124.185392
 30
0.0
 10
214.600332
 20
110.185371
 30
0.0
  0
LWPOLYLINE
  5
172
100
AcDbEntity
  8
0
 62
7
100
AcDbPolyline
 90
3
 70
0
 10
309.562979
 20
29.222745
 30
0.0
 10
309.562979
 20
43.222767
 30
0.0
 10
295.562957
 20
43.222767
 30
0.0
  0
LWPOLYLINE
  5
173
100
AcDbEntity
  8
0
 62
7
100
AcDbPolyline
 90
2
 70
0
 10
295.562957
 20
29.222745
 30
0.0
 10
309.562979
 20
29.222745
 30
0.0
  0
LWPOLYLINE
  5
174
100
AcDbEntity
  8
0
 62
7
100
AcDbPolyline
 90
2
 70
0
 10
295.562957
 20
43.222767
 30
0.0
 10
295.562957
 20
29.222745
 30
0.0
  0
LWPOLYLINE
  5
175
100
AcDbEntity
  8
0
 62
7
100
AcDbPolyline
 90
3
 70
0
 10
209.550324
 20
86.372834
 30
0.0
 10
209.550324
 20
100.372855
 30
0.0
 10
195.550303
 20
100.372855
 30
0.0
  0
LWPOLYLINE
  5
176
100
AcDbEntity
  8
0
 62
7
100
AcDbPolyline
 90
2
 70
0
 10
195.550303
 20
86.372834
 30
0.0
 10
209.550324
 20
86.372834
 30
0.0
  0
LWPOLYLINE
  5
177
100
AcDbEntity
  8
0
 62
7
100
AcDbPolyline
 90
2
 70
0
 10
195.550303
 20
100.372855
 30
0.0
 10
195.550303
 20
86.372834
 30
0.0
  0
LWPOLYLINE
  5
178
100
AcDbEntity
  8
0
 62
7
100
AcDbPolyline
 90
3
 70
0
 10
280.987935
 20
67.322804
 30
0.0
 10
280.987935
 20
81.322826
 30
0.0
 10
266.987913
 20
81.322826
 30
0.0
  0
LWPOLYLINE
  5
179
100
AcDbEntity
  8
0
 62
7
100
AcDbPolyline
 90
2
 70
0
 10
266.987913
 20
67.322804
 30
0.0
 10
280.987935
 20
67.322804
 30
0.0
  0
LWPOLYLINE
  5
17a
100
AcDbEntity
  8
0
 62
7
100
AcDbPolyline
 90
2
 70
0
 10
266.987913
 20
81.322826
 30
0.0
 10
266.987913
 20
67.322804
 30
0.0
  0
LWPOLYLINE
  5
17b
100
AcDbEntity
  8
0
 62
7
100
AcDbPolyline
 90
3
 70
0
 10
235.744065
 20
10.172716
 30
0.0
 10
235.744065
 20
24.172737
 30
0.0
 10
221.744043
 20
24.172737
 30
0.0
  0
LWPOLYLINE
  5
17c
100
AcDbEntity
  8
0
 62
7
100
AcDbPolyline
 90
2
 70
0
 10
221.744043
 20
10.172716
 30
0.0
 10
235.744065
 20
10.172716
 30
0.0
  0
LWPOLYLINE
  5
17d
100
AcDbEntity
  8
0
 62
7
100
AcDbPolyline
 90
2
 70
0
 10
221.744043
 20
24.172737
 30
0.0
 10
221.744043
 20
10.172716
 30
0.0
  0
LWPOLYLINE
  5
17e
100
AcDbEntity
  8
0
 62
7
100
AcDbPolyline
 90
3
 70
0
 10
180.975280
 20
110.185371
 30
0.0
 10
180.975280
 20
124.185392
 30
0.0
 10
166.975258
 20
124.185392
 30
0.0
  0
LWPOLYLINE
  5
17f
100
AcDbEntity
  8
0
 62
7
100
AcDbPolyline
 90
2
 70
0
 10
166.975258
 20
110.185371
 30
0.0
 10
180.975280
 20
110.185371
 30
0.0
  0
LWPOLYLINE
  5
180
100
AcDbEntity
  8
0
 62
7
100
AcDbPolyline
 90
2
 70
0
 10
166.975258
 20
124.185392
 30
0.0
 10
166.975258
 20
110.185371
 30
0.0
  0
LWPOLYLINE
  5
181
100
AcDbEntity
  8
0
 62
7
100
AcDbPolyline
 90
3
 70
0
 10
38.100059
 20
86.372834
 30
0.0
 10
38.100059
 20
100.372855
 30
0.0
 10
24.100037
 20
100.372855
 30
0.0
  0
LWPOLYLINE
  5
182
100
AcDbEntity
  8
0
 62
7
100
AcDbPolyline
 90
2
 70
0
 10
24.100037
 20
86.372834
 30
0.0
 10
38.100059
 20
86.372834
 30
0.0
  0
LWPOLYLINE
  5
183
100
AcDbEntity
  8
0
 62
7
100
AcDbPolyline
 90
2
 70
0
 10
24.100037
 20
100.372855
 30
0.0
 10
24.100037
 20
86.372834
 30
0.0
  0
LWPOLYLINE
  5
184
100
AcDbEntity
  8
0
 62
7
100
AcDbPolyline
 90
3
 70
0
 10
19.050029
 20
110.185371
 30
0.0
 10
19.050029
 20
124.185392
 30
0.0
 10
5.050008
 20
124.185392
 30
0.0
  0
LWPOLYLINE
  5
185
100
AcDbEntity
  8
0
 62
7
100
AcDbPolyline
 90
2
 70
0
 10
5.050008
 20
110.185371
 30
0.0
 10
19.050029
 20
110.185371
 30
0.0
  0
LWPOLYLINE
  5
186
100
AcDbEntity
  8
0
 62
7
100
AcDbPolyline
 90
2
 70
0
 10
5.050008
 20
124.185392
 30
0.0
 10
5.050008
 20
110.185371
 30
0.0
  0
LWPOLYLINE
  5
187
100
AcDbEntity
  8
0
 62
7
100
AcDbPolyline
 90
3
 70
0
 10
273.844224
 20
48.272775
 30
0.0
 10
273.844224
 20
62.272796
 30
0.0
 10
259.844202
 20
62.272796
 30
0.0
  0
LWPOLYLINE
  5
188
100
AcDbEntity
  8
0
 62
7
100
AcDbPolyline
 90
2
 70
0
 10
259.844202
 20
48.272775
 30
0.0
 10
273.844224
 20
48.272775
 30
0.0
  0
LWPOLYLINE
  5
189
100
AcDbEntity
  8
0
 62
7
100
AcDbPolyline
 90
2
 70
0
 10
259.844202
 20
62.272796
 30
0.0
 10
259.844202
 20
48.272775
 30
0.0
  0
LWPOLYLINE
  5
18a
100
AcDbEntity
  8
0
 62
7
100
AcDbPolyline
 90
3
 70
0
 10
328.613009
 20
10.172716
 30
0.0
 10
328.613009
 20
24.172737
 30
0.0
 10
314.612987
 20
24.172737
 30
0.0
  0
LWPOLYLINE
  5
18b
100
AcDbEntity
  8
0
 62
7
100
AcDbPolyline
 90
2
 70
0
 10
314.612987
 20
10.172716
 30
0.0
 10
328.613009
 20
10.172716
 30
0.0
  0
LWPOLYLINE
  5
18c
100
AcDbEntity
  8
0
 62
7
100
AcDbPolyline
 90
2
 70
0
 10
314.612987
 20
24.172737
 30
0.0
 10
314.612987
 20
10.172716
 30
0.0
  0
LWPOLYLINE
  5
18d
100
AcDbEntity
  8
0
 62
7
100
AcDbPolyline
 90
3
 70
0
 10
161.925251
 20
67.322804
 30
0.0
 10
161.925251
 20
81.322826
 30
0.0
 10
147.925229
 20
81.322826
 30
0.0
  0
LWPOLYLINE
  5
18e
100
AcDbEntity
  8
0
 62
7
100
AcDbPolyline
 90
2
 70
0
 10
147.925229
 20
67.322804
 30
0.0
 10
161.925251
 20
67.322804
 30
0.0
  0
LWPOLYLINE
  5
18f
100
AcDbEntity
  8
0
 62
7
100
AcDbPolyline
 90
2
 70
0
 10
147.925229
 20
81.322826
 30
0.0
 10
147.925229
 20
67.322804
 30
0.0
  0
LWPOLYLINE
  5
190
100
AcDbEntity
  8
0
 62
7
100
AcDbPolyline
 90
3
 70
0
 10
257.175398
 20
67.322804
 30
0.0
 10
257.175398
 20
81.322826
 30
0.0
 10
243.175376
 20
81.322826
 30
0.0
  0
LWPOLYLINE
  5
191
100
AcDbEntity
  8
0
 62
7
100
AcDbPolyline
 90
2
 70
0
 10
243.175376
 20
67.322804
 30
0.0
 10
257.175398
 20
67.322804
 30
0.0
  0
LWPOLYLINE
  5
192
100
AcDbEntity
  8
0
 62
7
100
AcDbPolyline
 90
2
 70
0
 10
243.175376
 20
81.322826
 30
0.0
 10
243.175376
 20
67.322804
 30
0.0
  0
LWPOLYLINE
  5
193
100
AcDbEntity
  8
0
 62
7
100
AcDbPolyline
 90
3
 70
0
 10
211.931528
 20
10.172716
 30
0.0
 10
211.931528
 20
24.172737
 30
0.0
 10
197.931506
 20
24.172737
 30
0.0
  0
LWPOLYLINE
  5
194
100
AcDbEntity
  8
0
 62
7
100
AcDbPolyline
 90
2
 70
0
 10
197.931506
 20
10.172716
 30
0.0
 10
211.931528
 20
10.172716
 30
0.0
  0
LWPOLYLINE
  5
195
100
AcDbEntity
  8
0
 62
7
100
AcDbPolyline
 90
2
 70
0
 10
197.931506
 20
24.172737
 30
0.0
 10
197.931506
 20
10.172716
 30
0.0
  0
LWPOLYLINE
  5
196
100
AcDbEntity
  8
0
 62
7
100
AcDbPolyline
 90
3
 70
0
 10
204.787817
 20
48.272775
 30
0.0
 10
204.787817
 20
62.272796
 30
0.0
 10
190.787795
 20
62.272796
 30
0.0
  0
LWPOLYLINE
  5
197
100
AcDbEntity
  8
0
 62
7
100
AcDbPolyline
 90
2
 70
0
 10
190.787795
 20
48.272775
 30
0.0
 10
204.787817
 20
48.272775
 30
0.0
  0
LWPOLYLINE
  5
198
100
AcDbEntity
  8
0
 62
7
100
AcDbPolyline
 90
2
 70
0
 10
190.787795
 20
62.272796
 30
0.0
 10
190.787795
 20
48.272775
 30
0.0
  0
LWPOLYLINE
  5
199
100
AcDbEntity
  8
0
 62
7
100
AcDbPolyline
 90
3
 70
0
 10
242.887876
 20
48.272775
 30
0.0
 10
242.887876
 20
62.272796
 30
0.0
 10
228.887854
 20
62.272796
 30
0.0
  0
LWPOLYLINE
  5
19a
100
AcDbEntity
  8
0
 62
7
100
AcDbPolyline
 90
2
 70
0
 10
228.887854
 20
48.272775
 30
0.0
 10
242.887876
 20
48.272775
 30
0.0
  0
LWPOLYLINE
  5
19b
100
AcDbEntity
  8
0
 62
7
100
AcDbPolyline
 90
2
 70
0
 10
228.887854
 20
62.272796
 30
0.0
 10
228.887854
 20
48.272775
 30
0.0
  0
LWPOLYLINE
  5
19c
100
AcDbEntity
  8
0
 62
7
100
AcDbPolyline
 90
3
 70
0
 10
119.062684
 20
29.222745
 30
0.0
 10
119.062684
 20
43.222767
 30
0.0
 10
105.062663
 20
43.222767
 30
0.0
  0
LWPOLYLINE
  5
19d
100
AcDbEntity
  8
0
 62
7
100
AcDbPolyline
 90
2
 70
0
 10
105.062663
 20
29.222745
 30
0.0
 10
119.062684
 20
29.222745
 30
0.0
  0
LWPOLYLINE
  5
19e
100
AcDbEntity
  8
0
 62
7
100
AcDbPolyline
 90
2
 70
0
 10
105.062663
 20
43.222767
 30
0.0
 10
105.062663
 20
29.222745
 30
0.0
  0
LWPOLYLINE
  5
19f
100
AcDbEntity
  8
0
 62
7
100
AcDbPolyline
 90
3
 70
0
 10
269.081716
 20
29.222745
 30
0.0
 10
269.081716
 20
43.222767
 30
0.0
 10
255.081595
 20
43.222767
 30
0.0
  0
LWPOLYLINE
  5
1a0
100
AcDbEntity
  8
0
 62
7
100
AcDbPolyline
 90
2
 70
0
 10
255.081595
 20
29.222745
 30
0.0
 10
269.081716
 20
29.222745
 30
0.0
  0
LWPOLYLINE
  5
1a1
100
AcDbEntity
  8
0
 62
7
100
AcDbPolyline
 90
2
 70
0
 10
255.081595
 20
43.222767
 30
0.0
 10
255.081595
 20
29.222745
 30
0.0
  0
LWPOLYLINE
  5
1a2
100
AcDbEntity
  8
0
 62
7
100
AcDbPolyline
 90
3
 70
0
 10
57.150088
 20
110.185371
 30
0.0
 10
57.150088
 20
124.185392
 30
0.0
 10
43.150067
 20
124.185392
 30
0.0
  0
LWPOLYLINE
  5
1a3
100
AcDbEntity
  8
0
 62
7
100
AcDbPolyline
 90
2
 70
0
 10
43.150067
 20
110.185371
 30
0.0
 10
57.150088
 20
110.185371
 30
0.0
  0
LWPOLYLINE
  5
1a4
100
AcDbEntity
  8
0
 62
7
100
AcDbPolyline
 90
2
 70
0
 10
43.150067
 20
124.185392
 30
0.0
 10
43.150067
 20
110.185371
 30
0.0
  0
LWPOLYLINE
  5
1a5
100
AcDbEntity
  8
0
 62
7
100
AcDbPolyline
 90
3
 70
0
 10
247.650383
 20
86.372834
 30
0.0
 10
247.650383
 20
100.372855
 30
0.0
 10
233.650362
 20
100.372855
 30
0.0
  0
LWPOLYLINE
  5
1a6
100
AcDbEntity
  8
0
 62
7
100
AcDbPolyline
 90
2
 70
0
 10
233.650362
 20
86.372834
 30
0.0
 10
247.650383
 20
86.372834
 30
0.0
  0
LWPOLYLINE
  5
1a7
100
AcDbEntity
  8
0
 62
7
100
AcDbPolyline
 90
2
 70
0
 10
233.650362
 20
100.372855
 30
0.0
 10
233.650362
 20
86.372834
 30
0.0
  0
LWPOLYLINE
  5
1a8
100
AcDbEntity
  8
0
 62
7
100
AcDbPolyline
 90
3
 70
0
 10
19.050029
 20
86.372834
 30
0.0
 10
19.050029
 20
100.372855
 30
0.0
 10
5.050008
 20
100.372855
 30
0.0
  0
LWPOLYLINE
  5
1a9
100
AcDbEntity
  8
0
 62
7
100
AcDbPolyline
 90
2
 70
0
 10
5.050008
 20
86.372834
 30
0.0
 10
19.050029
 20
86.372834
 30
0.0
  0
LWPOLYLINE
  5
1aa
100
AcDbEntity
  8
0
 62
7
100
AcDbPolyline
 90
2
 70
0
 10
5.050008
 20
100.372855
 30
0.0
 10
5.050008
 20
86.372834
 30
0.0
  0
LWPOLYLINE
  5
1ab
100
AcDbEntity
  8
0
 62
7
100
AcDbPolyline
 90
3
 70
0
 10
185.737787
 20
48.272775
 30
0.0
 10
185.737787
 20
62.272796
 30
0.0
 10
171.737766
 20
62.272796
 30
0.0
  0
LWPOLYLINE
  5
1ac
100
AcDbEntity
  8
0
 62
7
100
AcDbPolyline
 90
2
 70
0
 10
171.737766
 20
48.272775
 30
0.0
 10
185.737787
 20
48.272775
 30
0.0
  0
LWPOLYLINE
  5
1ad
100
AcDbEntity
  8
0
 62
7
100
AcDbPolyline
 90
2
 70
0
 10
171.737766
 20
62.272796
 30
0.0
 10
171.737766
 20
48.272775
 30
0.0
  0
LWPOLYLINE
  5
1ae
100
AcDbEntity
  8
0
 62
7
100
AcDbPolyline
 90
3
 70
0
 10
80.962625
 20
29.222745
 30
0.0
 10
80.962625
 20
43.222767
 30
0.0
 10
66.962604
 20
43.222767
 30
0.0
  0
LWPOLYLINE
  5
1af
100
AcDbEntity
  8
0
 62
7
100
AcDbPolyline
 90
2
 70
0
 10
66.962604
 20
29.222745
 30
0.0
 10
80.962625
 20
29.222745
 30
0.0
  0
LWPOLYLINE
  5
1b0
100
AcDbEntity
  8
0
 62
7
100
AcDbPolyline
 90
2
 70
0
 10
66.962604
 20
43.222767
 30
0.0
 10
66.962604
 20
29.222745
 30
0.0
  0
LWPOLYLINE
  5
1b1
100
AcDbEntity
  8
0
 62
7
100
AcDbPolyline
 90
3
 70
0
 10
157.162743
 20
29.222745
 30
0.0
 10
157.162743
 20
43.222767
 30
0.0
 10
143.162722
 20
43.222767
 30
0.0
  0
LWPOLYLINE
  5
1b2
100
AcDbEntity
  8
0
 62
7
100
AcDbPolyline
 90
2
 70
0
 10
143.162722
 20
29.222745
 30
0.0
 10
157.162743
 20
29.222745
 30
0.0
  0
LWPOLYLINE
  5
1b3
100
AcDbEntity
  8
0
 62
7
100
AcDbPolyline
 90
2
 70
0
 10
143.162722
 20
43.222767
 30
0.0
 10
143.162722
 20
29.222745
 30
0.0
  0
LWPOLYLINE
  5
1b4
100
AcDbEntity
  8
0
 62
7
100
AcDbPolyline
 90
3
 70
0
 10
328.613009
 20
67.322804
 30
0.0
 10
328.613009
 20
81.322826
 30
0.0
 10
314.612987
 20
81.322826
 30
0.0
  0
LWPOLYLINE
  5
1b5
100
AcDbEntity
  8
0
 62
7
100
AcDbPolyline
 90
2
 70
0
 10
314.612987
 20
67.322804
 30
0.0
 10
328.613009
 20
67.322804
 30
0.0
  0
LWPOLYLINE
  5
1b6
100
AcDbEntity
  8
0
 62
7
100
AcDbPolyline
 90
2
 70
0
 10
314.612987
 20
81.322826
 30
0.0
 10
314.612987
 20
67.322804
 30
0.0
  0
LWPOLYLINE
  5
1b7
100
AcDbEntity
  8
0
 62
7
100
AcDbPolyline
 90
3
 70
0
 10
176.212773
 20
29.222745
 30
0.0
 10
176.212773
 20
43.222767
 30
0.0
 10
162.212751
 20
43.222767
 30
0.0
  0
LWPOLYLINE
  5
1b8
100
AcDbEntity
  8
0
 62
7
100
AcDbPolyline
 90
2
 70
0
 10
162.212751
 20
29.222745
 30
0.0
 10
176.212773
 20
29.222745
 30
0.0
  0
LWPOLYLINE
  5
1b9
100
AcDbEntity
  8
0
 62
7
100
AcDbPolyline
 90
2
 70
0
 10
162.212751
 20
43.222767
 30
0.0
 10
162.212751
 20
29.222745
 30
0.0
  0
LWPOLYLINE
  5
1ba
100
AcDbEntity
  8
0
 62
7
100
AcDbPolyline
 90
3
 70
0
 10
200.025310
 20
67.322804
 30
0.0
 10
200.025310
 20
81.322826
 30
0.0
 10
186.025288
 20
81.322826
 30
0.0
  0
LWPOLYLINE
  5
1bb
100
AcDbEntity
  8
0
 62
7
100
AcDbPolyline
 90
2
 70
0
 10
186.025288
 20
67.322804
 30
0.0
 10
200.025310
 20
67.322804
 30
0.0
  0
LWPOLYLINE
  5
1bc
100
AcDbEntity
  8
0
 62
7
100
AcDbPolyline
 90
2
 70
0
 10
186.025288
 20
81.322826
 30
0.0
 10
186.025288
 20
67.322804
 30
0.0
  0
LWPOLYLINE
  5
1bd
100
AcDbEntity
  8
0
 62
7
100
AcDbPolyline
 90
3
 70
0
 10
233.362861
 20
29.222745
 30
0.0
 10
233.362861
 20
43.222767
 30
0.0
 10
219.362839
 20
43.222767
 30
0.0
  0
LWPOLYLINE
  5
1be
100
AcDbEntity
  8
0
 62
7
100
AcDbPolyline
 90
2
 70
0
 10
219.362839
 20
29.222745
 30
0.0
 10
233.362861
 20
29.222745
 30
0.0
  0
LWPOLYLINE
  5
1bf
100
AcDbEntity
  8
0
 62
7
100
AcDbPolyline
 90
2
 70
0
 10
219.362839
 20
43.222767
 30
0.0
 10
219.362839
 20
29.222745
 30
0.0
  0
LWPOLYLINE
  5
1c0
100
AcDbEntity
  8
0
 62
7
100
AcDbPolyline
 90
3
 70
0
 10
247.650383
 20
110.185371
 30
0.0
 10
247.650383
 20
124.185392
 30
0.0
 10
233.650362
 20
124.185392
 30
0.0
  0
LWPOLYLINE
  5
1c1
100
AcDbEntity
  8
0
 62
7
100
AcDbPolyline
 90
2
 70
0
 10
233.650362
 20
110.185371
 30
0.0
 10
247.650383
 20
110.185371
 30
0.0
  0
LWPOLYLINE
  5
1c2
100
AcDbEntity
  8
0
 62
7
100
AcDbPolyline
 90
2
 70
0
 10
233.650362
 20
124.185392
 30
0.0
 10
233.650362
 20
110.185371
 30
0.0
  0
LWPOLYLINE
  5
1c3
100
AcDbEntity
  8
0
 62
7
100
AcDbPolyline
 90
3
 70
0
 10
161.925251
 20
110.185371
 30
0.0
 10
161.925251
 20
124.185392
 30
0.0
 10
147.925229
 20
124.185392
 30
0.0
  0
LWPOLYLINE
  5
1c4
100
AcDbEntity
  8
0
 62
7
100
AcDbPolyline
 90
2
 70
0
 10
147.925229
 20
110.185371
 30
0.0
 10
161.925251
 20
110.185371
 30
0.0
  0
LWPOLYLINE
  5
1c5
100
AcDbEntity
  8
0
 62
7
100
AcDbPolyline
 90
2
 70
0
 10
147.925229
 20
124.185392
 30
0.0
 10
147.925229
 20
110.185371
 30
0.0
  0
LWPOLYLINE
  5
1c6
100
AcDbEntity
  8
0
 62
7
100
AcDbPolyline
 90
3
 70
0
 10
309.562979
 20
10.172716
 30
0.0
 10
309.562979
 20
24.172737
 30
0.0
 10
295.562957
 20
24.172737
 30
0.0
  0
LWPOLYLINE
  5
1c7
100
AcDbEntity
  8
0
 62
7
100
AcDbPolyline
 90
2
 70
0
 10
295.562957
 20
10.172716
 30
0.0
 10
309.562979
 20
10.172716
 30
0.0
  0
LWPOLYLINE
  5
1c8
100
AcDbEntity
  8
0
 62
7
100
AcDbPolyline
 90
2
 70
0
 10
295.562957
 20
24.172737
 30
0.0
 10
295.562957
 20
10.172716
 30
0.0
  0
LWPOLYLINE
  5
1c9
100
AcDbEntity
  8
0
 62
7
100
AcDbPolyline
 90
3
 70
0
 10
259.556602
 20
10.172716
 30
0.0
 10
259.556602
 20
24.172737
 30
0.0
 10
245.556580
 20
24.172737
 30
0.0
  0
LWPOLYLINE
  5
1ca
100
AcDbEntity
  8
0
 62
7
100
AcDbPolyline
 90
2
 70
0
 10
245.556580
 20
10.172716
 30
0.0
 10
259.556602
 20
10.172716
 30
0.0
  0
LWPOLYLINE
  5
1cb
100
AcDbEntity
  8
0
 62
7
100
AcDbPolyline
 90
2
 70
0
 10
245.556580
 20
24.172737
 30
0.0
 10
245.556580
 20
10.172716
 30
0.0
  0
LWPOLYLINE
  5
1cc
100
AcDbEntity
  8
0
 62
7
100
AcDbPolyline
 90
3
 70
0
 10
309.562979
 20
86.372834
 30
0.0
 10
309.562979
 20
100.372855
 30
0.0
 10
295.562957
 20
100.372855
 30
0.0
  0
LWPOLYLINE
  5
1cd
100
AcDbEntity
  8
0
 62
7
100
AcDbPolyline
 90
2
 70
0
 10
295.562957
 20
86.372834
 30
0.0
 10
309.562979
 20
86.372834
 30
0.0
  0
LWPOLYLINE
  5
1ce
100
AcDbEntity
  8
0
 62
7
100
AcDbPolyline
 90
2
 70
0
 10
295.562957
 20
100.372855
 30
0.0
 10
295.562957
 20
86.372834
 30
0.0
  0
LWPOLYLINE
  5
1cf
100
AcDbEntity
  8
0
 62
7
100
AcDbPolyline
 90
3
 70
0
 10
228.600354
 20
86.372834
 30
0.0
 10
228.600354
 20
100.372855
 30
0.0
 10
214.600332
 20
100.372855
 30
0.0
  0
LWPOLYLINE
  5
1d0
100
AcDbEntity
  8
0
 62
7
100
AcDbPolyline
 90
2
 70
0
 10
214.600332
 20
86.372834
 30
0.0
 10
228.600354
 20
86.372834
 30
0.0
  0
LWPOLYLINE
  5
1d1
100
AcDbEntity
  8
0
 62
7
100
AcDbPolyline
 90
2
 70
0
 10
214.600332
 20
100.372855
 30
0.0
 10
214.600332
 20
86.372834
 30
0.0
  0
LWPOLYLINE
  5
1d2
100
AcDbEntity
  8
0
 62
7
100
AcDbPolyline
 90
3
 70
0
 10
147.637728
 20
48.272775
 30
0.0
 10
147.637728
 20
62.272796
 30
0.0
 10
133.637707
 20
62.272796
 30
0.0
  0
LWPOLYLINE
  5
1d3
100
AcDbEntity
  8
0
 62
7
100
AcDbPolyline
 90
2
 70
0
 10
133.637707
 20
48.272775
 30
0.0
 10
147.637728
 20
48.272775
 30
0.0
  0
LWPOLYLINE
  5
1d4
100
AcDbEntity
  8
0
 62
7
100
AcDbPolyline
 90
2
 70
0
 10
133.637707
 20
62.272796
 30
0.0
 10
133.637707
 20
48.272775
 30
0.0
  0
LWPOLYLINE
  5
1d5
100
AcDbEntity
  8
0
 62
7
100
AcDbPolyline
 90
3
 70
0
 10
285.750442
 20
110.185371
 30
0.0
 10
285.750442
 20
124.185392
 30
0.0
 10
271.750421
 20
124.185392
 30
0.0
  0
LWPOLYLINE
  5
1d6
100
AcDbEntity
  8
0
 62
7
100
AcDbPolyline
 90
2
 70
0
 10
271.750421
 20
110.185371
 30
0.0
 10
285.750442
 20
110.185371
 30
0.0
  0
LWPOLYLINE
  5
1d7
100
AcDbEntity
  8
0
 62
7
100
AcDbPolyline
 90
2
 70
0
 10
271.750421
 20
124.185392
 30
0.0
 10
271.750421
 20
110.185371
 30
0.0
  0
LWPOLYLINE
  5
1d8
100
AcDbEntity
  8
0
 62
7
100
AcDbPolyline
 90
3
 70
0
 10
152.400236
 20
86.372834
 30
0.0
 10
152.400236
 20
100.372855
 30
0.0
 10
138.400214
 20
100.372855
 30
0.0
  0
LWPOLYLINE
  5
1d9
100
AcDbEntity
  8
0
 62
7
100
AcDbPolyline
 90
2
 70
0
 10
138.400214
 20
86.372834
 30
0.0
 10
152.400236
 20
86.372834
 30
0.0
  0
LWPOLYLINE
  5
1da
100
AcDbEntity
  8
0
 62
7
100
AcDbPolyline
 90
2
 70
0
 10
138.400214
 20
100.372855
 30
0.0
 10
138.400214
 20
86.372834
 30
0.0
  0
LWPOLYLINE
  5
1db
100
AcDbEntity
  8
0
 62
7
100
AcDbPolyline
 90
3
 70
0
 10
95.250147
 20
86.372834
 30
0.0
 10
95.250147
 20
100.372855
 30
0.0
 10
81.250126
 20
100.372855
 30
0.0
  0
LWPOLYLINE
  5
1dc
100
AcDbEntity
  8
0
 62
7
100
AcDbPolyline
 90
2
 70
0
 10
81.250126
 20
86.372834
 30
0.0
 10
95.250147
 20
86.372834
 30
0.0
  0
LWPOLYLINE
  5
1dd
100
AcDbEntity
  8
0
 62
7
100
AcDbPolyline
 90
2
 70
0
 10
81.250126
 20
100.372855
 30
0.0
 10
81.250126
 20
86.372834
 30
0.0
  0
LWPOLYLINE
  5
1de
100
AcDbEntity
  8
0
 62
7
100
AcDbPolyline
 90
3
 70
0
 10
328.613009
 20
86.372834
 30
0.0
 10
328.613009
 20
100.372855
 30
0.0
 10
314.612987
 20
100.372855
 30
0.0
  0
LWPOLYLINE
  5
1df
100
AcDbEntity
  8
0
 62
7
100
AcDbPolyline
 90
2
 70
0
 10
314.612987
 20
86.372834
 30
0.0
 10
328.613009
 20
86.372834
 30
0.0
  0
LWPOLYLINE
  5
1e0
100
AcDbEntity
  8
0
 62
7
100
AcDbPolyline
 90
2
 70
0
 10
314.612987
 20
100.372855
 30
0.0
 10
314.612987
 20
86.372834
 30
0.0
  0
LWPOLYLINE
  5
1e1
100
AcDbEntity
  8
0
 62
7
100
AcDbPolyline
 90
3
 70
0
 10
309.562979
 20
67.322804
 30
0.0
 10
309.562979
 20
81.322826
 30
0.0
 10
295.562957
 20
81.322826
 30
0.0
  0
LWPOLYLINE
  5
1e2
100
AcDbEntity
  8
0
 62
7
100
AcDbPolyline
 90
2
 70
0
 10
295.562957
 20
67.322804
 30
0.0
 10
309.562979
 20
67.322804
 30
0.0
  0
LWPOLYLINE
  5
1e3
100
AcDbEntity
  8
0
 62
7
100
AcDbPolyline
 90
2
 70
0
 10
295.562957
 20
81.322826
 30
0.0
 10
295.562957
 20
67.322804
 30
0.0
  0
LWPOLYLINE
  5
1e4
100
AcDbEntity
  8
0
 62
7
100
AcDbPolyline
 90
3
 70
0
 10
26.193741
 20
48.272775
 30
0.0
 10
26.193741
 20
62.272796
 30
0.0
 10
12.193719
 20
62.272796
 30
0.0
  0
LWPOLYLINE
  5
1e5
100
AcDbEntity
  8
0
 62
7
100
AcDbPolyline
 90
2
 70
0
 10
12.193719
 20
48.272775
 30
0.0
 10
26.193741
 20
48.272775
 30
0.0
  0
LWPOLYLINE
  5
1e6
100
AcDbEntity
  8
0
 62
7
100
AcDbPolyline
 90
2
 70
0
 10
12.193719
 20
62.272796
 30
0.0
 10
12.193719
 20
48.272775
 30
0.0
  0
LWPOLYLINE
  5
1e7
100
AcDbEntity
  8
0
 62
7
100
AcDbPolyline
 90
3
 70
0
 10
71.437611
 20
48.272775
 30
0.0
 10
71.437611
 20
62.272796
 30
0.0
 10
57.437589
 20
62.272796
 30
0.0
  0
LWPOLYLINE
  5
1e8
100
AcDbEntity
  8
0
 62
7
100
AcDbPolyline
 90
2
 70
0
 10
57.437589
 20
48.272775
 30
0.0
 10
71.437611
 20
48.272775
 30
0.0
  0
LWPOLYLINE
  5
1e9
100
AcDbEntity
  8
0
 62
7
100
AcDbPolyline
 90
2
 70
0
 10
57.437589
 20
62.272796
 30
0.0
 10
57.437589
 20
48.272775
 30
0.0
  0
LWPOLYLINE
  5
1ea
100
AcDbEntity
  8
0
 62
7
100
AcDbPolyline
 90
3
 70
0
 10
66.675103
 20
67.322804
 30
0.0
 10
66.675103
 20
81.322826
 30
0.0
 10
52.675082
 20
81.322826
 30
0.0
  0
LWPOLYLINE
  5
1eb
100
AcDbEntity
  8
0
 62
7
100
AcDbPolyline
 90
2
 70
0
 10
52.675082
 20
67.322804
 30
0.0
 10
66.675103
 20
67.322804
 30
0.0
  0
LWPOLYLINE
  5
1ec
100
AcDbEntity
  8
0
 62
7
100
AcDbPolyline
 90
2
 70
0
 10
52.675082
 20
81.322826
 30
0.0
 10
52.675082
 20
67.322804
 30
0.0
  0
LWPOLYLINE
  5
1ed
100
AcDbEntity
  8
0
 62
7
100
AcDbPolyline
 90
3
 70
0
 10
195.262802
 20
29.222745
 30
0.0
 10
195.262802
 20
43.222767
 30
0.0
 10
181.262781
 20
43.222767
 30
0.0
  0
LWPOLYLINE
  5
1ee
100
AcDbEntity
  8
0
 62
7
100
AcDbPolyline
 90
2
 70
0
 10
181.262781
 20
29.222745
 30
0.0
 10
195.262802
 20
29.222745
 30
0.0
  0
LWPOLYLINE
  5
1ef
100
AcDbEntity
  8
0
 62
7
100
AcDbPolyline
 90
2
 70
0
 10
181.262781
 20
43.222767
 30
0.0
 10
181.262781
 20
29.222745
 30
0.0
  0
LWPOLYLINE
  5
1f0
100
AcDbEntity
  8
0
 62
7
100
AcDbPolyline
 90
3
 70
0
 10
133.350206
 20
86.372834
 30
0.0
 10
133.350206
 20
100.372855
 30
0.0
 10
119.350185
 20
100.372855
 30
0.0
  0
LWPOLYLINE
  5
1f1
100
AcDbEntity
  8
0
 62
7
100
AcDbPolyline
 90
2
 70
0
 10
119.350185
 20
86.372834
 30
0.0
 10
133.350206
 20
86.372834
 30
0.0
  0
LWPOLYLINE
  5
1f2
100
AcDbEntity
  8
0
 62
7
100
AcDbPolyline
 90
2
 70
0
 10
119.350185
 20
100.372855
 30
0.0
 10
119.350185
 20
86.372834
 30
0.0
  0
LWPOLYLINE
  5
1f3
100
AcDbEntity
  8
0
 62
7
100
AcDbPolyline
 90
3
 70
0
 10
114.300177
 20
86.372834
 30
0.0
 10
114.300177
 20
100.372855
 30
0.0
 10
100.300155
 20
100.372855
 30
0.0
  0
LWPOLYLINE
  5
1f4
100
AcDbEntity
  8
0
 62
7
100
AcDbPolyline
 90
2
 70
0
 10
100.300155
 20
86.372834
 30
0.0
 10
114.300177
 20
86.372834
 30
0.0
  0
LWPOLYLINE
  5
1f5
100
AcDbEntity
  8
0
 62
7
100
AcDbPolyline
 90
2
 70
0
 10
100.300155
 20
100.372855
 30
0.0
 10
100.300155
 20
86.372834
 30
0.0
  0
LWPOLYLINE
  5
1f6
100
AcDbEntity
  8
0
 62
7
100
AcDbPolyline
 90
3
 70
0
 10
69.056307
 20
10.172716
 30
0.0
 10
69.056307
 20
24.172737
 30
0.0
 10
55.056285
 20
24.172737
 30
0.0
  0
LWPOLYLINE
  5
1f7
100
AcDbEntity
  8
0
 62
7
100
AcDbPolyline
 90
2
 70
0
 10
55.056285
 20
10.172716
 30
0.0
 10
69.056307
 20
10.172716
 30
0.0
  0
LWPOLYLINE
  5
1f8
100
AcDbEntity
  8
0
 62
7
100
AcDbPolyline
 90
2
 70
0
 10
55.056285
 20
24.172737
 30
0.0
 10
55.056285
 20
10.172716
 30
0.0
  0
ENDSEC
  0
SECTION
  2
OBJECTS
  0
DICTIONARY
  5
C
330
0
100
AcDbDictionary
  3
ACAD_GROUP
350
D
  3
ACAD_MLINESTYLE
350
17
  0
DICTIONARY
  5
D
330
C
100
AcDbDictionary
  0
DICTIONARY
  5
1A
330
C
100
AcDbDictionary
  0
DICTIONARY
  5
17
330
C
100
AcDbDictionary
  3
STANDARD
350
18
  0
DICTIONARY
  5
19
330
C
100
AcDbDictionary
  0
ENDSEC
  0
EOF
