<?xml version="1.0" standalone="no"?>
 <!DOCTYPE svg PUBLIC "-//W3C//DTD SVG 1.1//EN" 
 "http://www.w3.org/Graphics/SVG/1.1/DTD/svg11.dtd"> 
<svg
  xmlns:svg="http://www.w3.org/2000/svg"
  xmlns="http://www.w3.org/2000/svg"
  xmlns:xlink="http://www.w3.org/1999/xlink"
  version="1.1"
  width="342.9000mm" height="148.3868mm" viewBox="0.0000 0.0000 342.9000 148.3868">
<title>SVG Image created as Every83_PCB-User_Drawings.svg date 2024/12/05 10:24:21 </title>
  <desc>Image generated by PCBNEW </desc>
<g style="fill:#000000; fill-opacity:1.0000;stroke:#000000; stroke-opacity:1.0000;
stroke-linecap:round; stroke-linejoin:round;"
 transform="translate(0 0) scale(1 1)">
</g>
<g style="fill:none; 
stroke:#C2C2C2; stroke-width:0.1000; stroke-opacity:1; 
stroke-linecap:round; stroke-linejoin:round;">
<path d="M5.8995 141.4890
L5.8995 22.4900
" />
<path d="M100.2605 141.4890
L5.8995 141.4890
" />
<path d="M100.2605 122.1850
L100.2605 141.4890
" />
<path d="M178.8735 122.1850
L100.2605 122.1850
" />
<path d="M178.8735 141.4890
L178.8735 122.1850
" />
<path d="M336.4805 141.4890
L178.8735 141.4890
" />
<path d="M336.4805 22.4900
L336.4805 141.4890
" />
<path d="M5.8995 22.4900
L336.4805 22.4900
" />
</g>
<g style="fill:none; 
stroke:#C2C2C2; stroke-width:0.1200; stroke-opacity:1; 
stroke-linecap:round; stroke-linejoin:round;">
<path d="M257.0330 24.6175
L257.0330 38.6175
" />
<path d="M257.0330 38.6175
L271.0330 38.6175
" />
<path d="M271.0330 24.6175
L257.0330 24.6175
" />
<path d="M271.0330 38.6175
L271.0330 24.6175
" />
<path d="M118.9205 86.5300
L118.9205 100.5300
" />
<path d="M118.9205 100.5300
L132.9205 100.5300
" />
<path d="M132.9205 86.5300
L118.9205 86.5300
" />
<path d="M132.9205 100.5300
L132.9205 86.5300
" />
<path d="M157.0205 86.5300
L157.0205 100.5300
" />
<path d="M157.0205 100.5300
L171.0205 100.5300
" />
<path d="M171.0205 86.5300
L157.0205 86.5300
" />
<path d="M171.0205 100.5300
L171.0205 86.5300
" />
<path d="M161.7830 48.4300
L161.7830 62.4300
" />
<path d="M161.7830 62.4300
L175.7830 62.4300
" />
<path d="M175.7830 48.4300
L161.7830 48.4300
" />
<path d="M175.7830 62.4300
L175.7830 48.4300
" />
<path d="M90.3455 105.5800
L90.3455 119.5800
" />
<path d="M90.3455 119.5800
L104.3455 119.5800
" />
<path d="M104.3455 105.5800
L90.3455 105.5800
" />
<path d="M104.3455 119.5800
L104.3455 105.5800
" />
<path d="M76.0580 67.4800
L76.0580 81.4800
" />
<path d="M76.0580 81.4800
L90.0580 81.4800
" />
<path d="M90.0580 67.4800
L76.0580 67.4800
" />
<path d="M90.0580 81.4800
L90.0580 67.4800
" />
<path d="M21.2892 105.5800
L21.2892 119.5800
" />
<path d="M21.2892 119.5800
L35.2892 119.5800
" />
<path d="M35.2892 105.5800
L21.2892 105.5800
" />
<path d="M35.2892 119.5800
L35.2892 105.5800
" />
<path d="M66.5330 48.4300
L66.5330 62.4300
" />
<path d="M66.5330 62.4300
L80.5330 62.4300
" />
<path d="M80.5330 48.4300
L66.5330 48.4300
" />
<path d="M80.5330 62.4300
L80.5330 48.4300
" />
<path d="M37.9580 67.4800
L37.9580 81.4800
" />
<path d="M37.9580 81.4800
L51.9580 81.4800
" />
<path d="M51.9580 67.4800
L37.9580 67.4800
" />
<path d="M51.9580 81.4800
L51.9580 67.4800
" />
<path d="M228.4580 67.4800
L228.4580 81.4800
" />
<path d="M228.4580 81.4800
L242.4580 81.4800
" />
<path d="M242.4580 67.4800
L228.4580 67.4800
" />
<path d="M242.4580 81.4800
L242.4580 67.4800
" />
<path d="M128.4455 105.5800
L128.4455 119.5800
" />
<path d="M128.4455 119.5800
L142.4455 119.5800
" />
<path d="M142.4455 105.5800
L128.4455 105.5800
" />
<path d="M142.4455 119.5800
L142.4455 105.5800
" />
<path d="M42.7205 86.5300
L42.7205 100.5300
" />
<path d="M42.7205 100.5300
L56.7205 100.5300
" />
<path d="M56.7205 86.5300
L42.7205 86.5300
" />
<path d="M56.7205 100.5300
L56.7205 86.5300
" />
<path d="M266.5580 48.4300
L266.5580 62.4300
" />
<path d="M266.5580 62.4300
L280.5580 62.4300
" />
<path d="M280.5580 48.4300
L266.5580 48.4300
" />
<path d="M280.5580 62.4300
L280.5580 48.4300
" />
<path d="M66.5330 24.6175
L66.5330 38.6175
" />
<path d="M66.5330 38.6175
L80.5330 38.6175
" />
<path d="M80.5330 24.6175
L66.5330 24.6175
" />
<path d="M80.5330 38.6175
L80.5330 24.6175
" />
<path d="M171.3080 67.4800
L171.3080 81.4800
" />
<path d="M171.3080 81.4800
L185.3080 81.4800
" />
<path d="M185.3080 67.4800
L171.3080 67.4800
" />
<path d="M185.3080 81.4800
L185.3080 67.4800
" />
<path d="M11.7642 124.6300
L11.7642 138.6300
" />
<path d="M11.7642 138.6300
L25.7643 138.6300
" />
<path d="M25.7643 124.6300
L11.7642 124.6300
" />
<path d="M25.7643 138.6300
L25.7643 124.6300
" />
<path d="M180.8330 48.4300
L180.8330 62.4300
" />
<path d="M180.8330 62.4300
L194.8330 62.4300
" />
<path d="M194.8330 48.4300
L180.8330 48.4300
" />
<path d="M194.8330 62.4300
L194.8330 48.4300
" />
<path d="M80.8205 86.5300
L80.8205 100.5300
" />
<path d="M80.8205 100.5300
L94.8205 100.5300
" />
<path d="M94.8205 86.5300
L80.8205 86.5300
" />
<path d="M94.8205 100.5300
L94.8205 86.5300
" />
<path d="M52.2455 105.5800
L52.2455 119.5800
" />
<path d="M52.2455 119.5800
L66.2455 119.5800
" />
<path d="M66.2455 105.5800
L52.2455 105.5800
" />
<path d="M66.2455 119.5800
L66.2455 105.5800
" />
<path d="M85.5830 24.6175
L85.5830 38.6175
" />
<path d="M85.5830 38.6175
L99.5830 38.6175
" />
<path d="M99.5830 24.6175
L85.5830 24.6175
" />
<path d="M99.5830 38.6175
L99.5830 24.6175
" />
<path d="M114.1580 67.4800
L114.1580 81.4800
" />
<path d="M114.1580 81.4800
L128.1580 81.4800
" />
<path d="M128.1580 67.4800
L114.1580 67.4800
" />
<path d="M128.1580 81.4800
L128.1580 67.4800
" />
<path d="M214.1705 86.5300
L214.1705 100.5300
" />
<path d="M214.1705 100.5300
L228.1705 100.5300
" />
<path d="M228.1705 86.5300
L214.1705 86.5300
" />
<path d="M228.1705 100.5300
L228.1705 86.5300
" />
<path d="M280.8455 124.6300
L280.8455 138.6300
" />
<path d="M280.8455 138.6300
L294.8455 138.6300
" />
<path d="M294.8455 124.6300
L280.8455 124.6300
" />
<path d="M294.8455 138.6300
L294.8455 124.6300
" />
<path d="M190.3580 24.6175
L190.3580 38.6175
" />
<path d="M190.3580 38.6175
L204.3580 38.6175
" />
<path d="M204.3580 24.6175
L190.3580 24.6175
" />
<path d="M204.3580 38.6175
L204.3580 24.6175
" />
<path d="M95.1080 67.4800
L95.1080 81.4800
" />
<path d="M95.1080 81.4800
L109.1080 81.4800
" />
<path d="M109.1080 67.4800
L95.1080 67.4800
" />
<path d="M109.1080 81.4800
L109.1080 67.4800
" />
<path d="M14.1455 67.4800
L14.1455 81.4800
" />
<path d="M14.1455 81.4800
L28.1455 81.4800
" />
<path d="M28.1455 67.4800
L14.1455 67.4800
" />
<path d="M28.1455 81.4800
L28.1455 67.4800
" />
<path d="M209.4080 67.4800
L209.4080 81.4800
" />
<path d="M209.4080 81.4800
L223.4080 81.4800
" />
<path d="M223.4080 67.4800
L209.4080 67.4800
" />
<path d="M223.4080 81.4800
L223.4080 67.4800
" />
<path d="M299.8955 24.6175
L299.8955 38.6175
" />
<path d="M299.8955 38.6175
L313.8955 38.6175
" />
<path d="M313.8955 24.6175
L299.8955 24.6175
" />
<path d="M313.8955 38.6175
L313.8955 24.6175
" />
<path d="M35.5767 124.6300
L35.5767 138.6300
" />
<path d="M35.5767 138.6300
L49.5767 138.6300
" />
<path d="M49.5767 124.6300
L35.5767 124.6300
" />
<path d="M49.5767 138.6300
L49.5767 124.6300
" />
<path d="M47.4830 48.4300
L47.4830 62.4300
" />
<path d="M47.4830 62.4300
L61.4830 62.4300
" />
<path d="M61.4830 48.4300
L47.4830 48.4300
" />
<path d="M61.4830 62.4300
L61.4830 48.4300
" />
<path d="M204.6455 105.5800
L204.6455 119.5800
" />
<path d="M204.6455 119.5800
L218.6455 119.5800
" />
<path d="M218.6455 105.5800
L204.6455 105.5800
" />
<path d="M218.6455 119.5800
L218.6455 105.5800
" />
<path d="M133.2080 67.4800
L133.2080 81.4800
" />
<path d="M133.2080 81.4800
L147.2080 81.4800
" />
<path d="M147.2080 67.4800
L133.2080 67.4800
" />
<path d="M147.2080 81.4800
L147.2080 67.4800
" />
<path d="M104.6330 24.6175
L104.6330 38.6175
" />
<path d="M104.6330 38.6175
L118.6330 38.6175
" />
<path d="M118.6330 24.6175
L104.6330 24.6175
" />
<path d="M118.6330 38.6175
L118.6330 24.6175
" />
<path d="M133.2080 24.6175
L133.2080 38.6175
" />
<path d="M133.2080 38.6175
L147.2080 38.6175
" />
<path d="M147.2080 24.6175
L133.2080 24.6175
" />
<path d="M147.2080 38.6175
L147.2080 24.6175
" />
<path d="M99.8705 86.5300
L99.8705 100.5300
" />
<path d="M99.8705 100.5300
L113.8705 100.5300
" />
<path d="M113.8705 86.5300
L99.8705 86.5300
" />
<path d="M113.8705 100.5300
L113.8705 86.5300
" />
<path d="M318.9455 24.6175
L318.9455 38.6175
" />
<path d="M318.9455 38.6175
L332.9455 38.6175
" />
<path d="M332.9455 24.6175
L318.9455 24.6175
" />
<path d="M332.9455 38.6175
L332.9455 24.6175
" />
<path d="M218.9330 24.6175
L218.9330 38.6175
" />
<path d="M218.9330 38.6175
L232.9330 38.6175
" />
<path d="M232.9330 24.6175
L218.9330 24.6175
" />
<path d="M232.9330 38.6175
L232.9330 24.6175
" />
<path d="M299.8955 105.5800
L299.8955 119.5800
" />
<path d="M299.8955 119.5800
L313.8955 119.5800
" />
<path d="M313.8955 105.5800
L299.8955 105.5800
" />
<path d="M313.8955 119.5800
L313.8955 105.5800
" />
<path d="M199.8830 48.4300
L199.8830 62.4300
" />
<path d="M199.8830 62.4300
L213.8830 62.4300
" />
<path d="M213.8830 48.4300
L199.8830 48.4300
" />
<path d="M213.8830 62.4300
L213.8830 48.4300
" />
<path d="M271.3205 67.4800
L271.3205 81.4800
" />
<path d="M271.3205 81.4800
L285.3205 81.4800
" />
<path d="M285.3205 67.4800
L271.3205 67.4800
" />
<path d="M285.3205 81.4800
L285.3205 67.4800
" />
<path d="M226.0767 124.6300
L226.0767 138.6300
" />
<path d="M226.0767 138.6300
L240.0767 138.6300
" />
<path d="M240.0767 124.6300
L226.0767 124.6300
" />
<path d="M240.0767 138.6300
L240.0767 124.6300
" />
<path d="M171.3080 24.6175
L171.3080 38.6175
" />
<path d="M171.3080 38.6175
L185.3080 38.6175
" />
<path d="M185.3080 24.6175
L171.3080 24.6175
" />
<path d="M185.3080 38.6175
L185.3080 24.6175
" />
<path d="M28.4330 48.4300
L28.4330 62.4300
" />
<path d="M28.4330 62.4300
L42.4330 62.4300
" />
<path d="M42.4330 48.4300
L28.4330 48.4300
" />
<path d="M42.4330 62.4300
L42.4330 48.4300
" />
<path d="M9.3830 24.6175
L9.3830 38.6175
" />
<path d="M9.3830 38.6175
L23.3830 38.6175
" />
<path d="M23.3830 24.6175
L9.3830 24.6175
" />
<path d="M23.3830 38.6175
L23.3830 24.6175
" />
<path d="M264.1767 86.5300
L264.1767 100.5300
" />
<path d="M264.1767 100.5300
L278.1767 100.5300
" />
<path d="M278.1767 86.5300
L264.1767 86.5300
" />
<path d="M278.1767 100.5300
L278.1767 86.5300
" />
<path d="M318.9455 124.6300
L318.9455 138.6300
" />
<path d="M318.9455 138.6300
L332.9455 138.6300
" />
<path d="M332.9455 124.6300
L318.9455 124.6300
" />
<path d="M332.9455 138.6300
L332.9455 124.6300
" />
<path d="M152.2580 67.4800
L152.2580 81.4800
" />
<path d="M152.2580 81.4800
L166.2580 81.4800
" />
<path d="M166.2580 67.4800
L152.2580 67.4800
" />
<path d="M166.2580 81.4800
L166.2580 67.4800
" />
<path d="M247.5080 67.4800
L247.5080 81.4800
" />
<path d="M247.5080 81.4800
L261.5080 81.4800
" />
<path d="M261.5080 67.4800
L247.5080 67.4800
" />
<path d="M261.5080 81.4800
L261.5080 67.4800
" />
<path d="M202.2643 124.6300
L202.2643 138.6300
" />
<path d="M202.2643 138.6300
L216.2643 138.6300
" />
<path d="M216.2643 124.6300
L202.2643 124.6300
" />
<path d="M216.2643 138.6300
L216.2643 124.6300
" />
<path d="M195.1205 86.5300
L195.1205 100.5300
" />
<path d="M195.1205 100.5300
L209.1205 100.5300
" />
<path d="M209.1205 86.5300
L195.1205 86.5300
" />
<path d="M209.1205 100.5300
L209.1205 86.5300
" />
<path d="M233.2205 86.5300
L233.2205 100.5300
" />
<path d="M233.2205 100.5300
L247.2205 100.5300
" />
<path d="M247.2205 86.5300
L233.2205 86.5300
" />
<path d="M247.2205 100.5300
L247.2205 86.5300
" />
<path d="M109.3955 105.5800
L109.3955 119.5800
" />
<path d="M109.3955 119.5800
L123.3955 119.5800
" />
<path d="M123.3955 105.5800
L109.3955 105.5800
" />
<path d="M123.3955 119.5800
L123.3955 105.5800
" />
<path d="M259.4142 105.5800
L259.4142 119.5800
" />
<path d="M259.4142 119.5800
L273.4142 119.5800
" />
<path d="M273.4142 105.5800
L259.4142 105.5800
" />
<path d="M273.4142 119.5800
L273.4142 105.5800
" />
<path d="M47.4830 24.6175
L47.4830 38.6175
" />
<path d="M47.4830 38.6175
L61.4830 38.6175
" />
<path d="M61.4830 24.6175
L47.4830 24.6175
" />
<path d="M61.4830 38.6175
L61.4830 24.6175
" />
<path d="M237.9830 48.4300
L237.9830 62.4300
" />
<path d="M237.9830 62.4300
L251.9830 62.4300
" />
<path d="M251.9830 48.4300
L237.9830 48.4300
" />
<path d="M251.9830 62.4300
L251.9830 48.4300
" />
<path d="M9.3830 48.4300
L9.3830 62.4300
" />
<path d="M9.3830 62.4300
L23.3830 62.4300
" />
<path d="M23.3830 48.4300
L9.3830 48.4300
" />
<path d="M23.3830 62.4300
L23.3830 48.4300
" />
<path d="M176.0705 86.5300
L176.0705 100.5300
" />
<path d="M176.0705 100.5300
L190.0705 100.5300
" />
<path d="M190.0705 86.5300
L176.0705 86.5300
" />
<path d="M190.0705 100.5300
L190.0705 86.5300
" />
<path d="M71.2955 105.5800
L71.2955 119.5800
" />
<path d="M71.2955 119.5800
L85.2955 119.5800
" />
<path d="M85.2955 105.5800
L71.2955 105.5800
" />
<path d="M85.2955 119.5800
L85.2955 105.5800
" />
<path d="M147.4955 105.5800
L147.4955 119.5800
" />
<path d="M147.4955 119.5800
L161.4955 119.5800
" />
<path d="M161.4955 105.5800
L147.4955 105.5800
" />
<path d="M161.4955 119.5800
L161.4955 105.5800
" />
<path d="M318.9455 67.4800
L318.9455 81.4800
" />
<path d="M318.9455 81.4800
L332.9455 81.4800
" />
<path d="M332.9455 67.4800
L318.9455 67.4800
" />
<path d="M332.9455 81.4800
L332.9455 67.4800
" />
<path d="M166.5455 105.5800
L166.5455 119.5800
" />
<path d="M166.5455 119.5800
L180.5455 119.5800
" />
<path d="M180.5455 105.5800
L166.5455 105.5800
" />
<path d="M180.5455 119.5800
L180.5455 105.5800
" />
<path d="M190.3580 67.4800
L190.3580 81.4800
" />
<path d="M190.3580 81.4800
L204.3580 81.4800
" />
<path d="M204.3580 67.4800
L190.3580 67.4800
" />
<path d="M204.3580 81.4800
L204.3580 67.4800
" />
<path d="M223.6955 105.5800
L223.6955 119.5800
" />
<path d="M223.6955 119.5800
L237.6955 119.5800
" />
<path d="M237.6955 105.5800
L223.6955 105.5800
" />
<path d="M237.6955 119.5800
L237.6955 105.5800
" />
<path d="M237.9830 24.6175
L237.9830 38.6175
" />
<path d="M237.9830 38.6175
L251.9830 38.6175
" />
<path d="M251.9830 24.6175
L237.9830 24.6175
" />
<path d="M251.9830 38.6175
L251.9830 24.6175
" />
<path d="M152.2580 24.6175
L152.2580 38.6175
" />
<path d="M152.2580 38.6175
L166.2580 38.6175
" />
<path d="M166.2580 24.6175
L152.2580 24.6175
" />
<path d="M166.2580 38.6175
L166.2580 24.6175
" />
<path d="M299.8955 124.6300
L299.8955 138.6300
" />
<path d="M299.8955 138.6300
L313.8955 138.6300
" />
<path d="M313.8955 124.6300
L299.8955 124.6300
" />
<path d="M313.8955 138.6300
L313.8955 124.6300
" />
<path d="M249.8892 124.6300
L249.8892 138.6300
" />
<path d="M249.8892 138.6300
L263.8893 138.6300
" />
<path d="M263.8893 124.6300
L249.8892 124.6300
" />
<path d="M263.8893 138.6300
L263.8893 124.6300
" />
<path d="M299.8955 48.4300
L299.8955 62.4300
" />
<path d="M299.8955 62.4300
L313.8955 62.4300
" />
<path d="M313.8955 48.4300
L299.8955 48.4300
" />
<path d="M313.8955 62.4300
L313.8955 48.4300
" />
<path d="M218.9330 48.4300
L218.9330 62.4300
" />
<path d="M218.9330 62.4300
L232.9330 62.4300
" />
<path d="M232.9330 48.4300
L218.9330 48.4300
" />
<path d="M232.9330 62.4300
L232.9330 48.4300
" />
<path d="M137.9705 86.5300
L137.9705 100.5300
" />
<path d="M137.9705 100.5300
L151.9705 100.5300
" />
<path d="M151.9705 86.5300
L137.9705 86.5300
" />
<path d="M151.9705 100.5300
L151.9705 86.5300
" />
<path d="M276.0830 24.6175
L276.0830 38.6175
" />
<path d="M276.0830 38.6175
L290.0830 38.6175
" />
<path d="M290.0830 24.6175
L276.0830 24.6175
" />
<path d="M290.0830 38.6175
L290.0830 24.6175
" />
<path d="M142.7330 48.4300
L142.7330 62.4300
" />
<path d="M142.7330 62.4300
L156.7330 62.4300
" />
<path d="M156.7330 48.4300
L142.7330 48.4300
" />
<path d="M156.7330 62.4300
L156.7330 48.4300
" />
<path d="M85.5830 48.4300
L85.5830 62.4300
" />
<path d="M85.5830 62.4300
L99.5830 62.4300
" />
<path d="M99.5830 48.4300
L85.5830 48.4300
" />
<path d="M99.5830 62.4300
L99.5830 48.4300
" />
<path d="M318.9455 48.4300
L318.9455 62.4300
" />
<path d="M318.9455 62.4300
L332.9455 62.4300
" />
<path d="M332.9455 48.4300
L318.9455 48.4300
" />
<path d="M332.9455 62.4300
L332.9455 48.4300
" />
<path d="M299.8955 67.4800
L299.8955 81.4800
" />
<path d="M299.8955 81.4800
L313.8955 81.4800
" />
<path d="M313.8955 67.4800
L299.8955 67.4800
" />
<path d="M313.8955 81.4800
L313.8955 67.4800
" />
<path d="M16.5267 86.5300
L16.5267 100.5300
" />
<path d="M16.5267 100.5300
L30.5267 100.5300
" />
<path d="M30.5267 86.5300
L16.5267 86.5300
" />
<path d="M30.5267 100.5300
L30.5267 86.5300
" />
<path d="M61.7705 86.5300
L61.7705 100.5300
" />
<path d="M61.7705 100.5300
L75.7705 100.5300
" />
<path d="M75.7705 86.5300
L61.7705 86.5300
" />
<path d="M75.7705 100.5300
L75.7705 86.5300
" />
<path d="M57.0080 67.4800
L57.0080 81.4800
" />
<path d="M57.0080 81.4800
L71.0080 81.4800
" />
<path d="M71.0080 67.4800
L57.0080 67.4800
" />
<path d="M71.0080 81.4800
L71.0080 67.4800
" />
<path d="M185.5955 105.5800
L185.5955 119.5800
" />
<path d="M185.5955 119.5800
L199.5955 119.5800
" />
<path d="M199.5955 105.5800
L185.5955 105.5800
" />
<path d="M199.5955 119.5800
L199.5955 105.5800
" />
<path d="M123.6830 48.4300
L123.6830 62.4300
" />
<path d="M123.6830 62.4300
L137.6830 62.4300
" />
<path d="M137.6830 48.4300
L123.6830 48.4300
" />
<path d="M137.6830 62.4300
L137.6830 48.4300
" />
<path d="M104.6330 48.4300
L104.6330 62.4300
" />
<path d="M104.6330 62.4300
L118.6330 62.4300
" />
<path d="M118.6330 48.4300
L104.6330 48.4300
" />
<path d="M118.6330 62.4300
L118.6330 48.4300
" />
<path d="M59.3892 124.6300
L59.3892 138.6300
" />
<path d="M59.3892 138.6300
L73.3892 138.6300
" />
<path d="M73.3892 124.6300
L59.3892 124.6300
" />
<path d="M73.3892 138.6300
L73.3892 124.6300
" />
<path style="fill:none; 
stroke:#C2C2C2; stroke-width:0.1000; stroke-opacity:1; 
stroke-linecap:round; stroke-linejoin:round;fill:none"
d="M 127.3625,23.7002
130.5625,23.7002
130.5625,23.2202
127.3625,23.2202
Z" /> 
</g>
<g style="fill:none; 
stroke:#C2C2C2; stroke-width:0.1000; stroke-opacity:1; 
stroke-linecap:round; stroke-linejoin:round;">
<path d="M129.9625 23.2202 A1.0000 1.0000 0.0 0 0 127.9625 23.2202" />
</g> 
</svg>
