G04 #@! TF.GenerationSoftware,KiCad,Pcbnew,(7.0.0)*
G04 #@! TF.CreationDate,2023-09-22T15:52:12-05:00*
G04 #@! TF.ProjectId,stab_tester,73746162-5f74-4657-9374-65722e6b6963,rev?*
G04 #@! TF.SameCoordinates,Original*
G04 #@! TF.FileFunction,Legend,Bot*
G04 #@! TF.FilePolarity,Positive*
%FSLAX46Y46*%
G04 Gerber Fmt 4.6, Leading zero omitted, Abs format (unit mm)*
G04 Created by KiCad (PCBNEW (7.0.0)) date 2023-09-22 15:52:12*
%MOMM*%
%LPD*%
G01*
G04 APERTURE LIST*
G04 Aperture macros list*
%AMRoundRect*
0 Rectangle with rounded corners*
0 $1 Rounding radius*
0 $2 $3 $4 $5 $6 $7 $8 $9 X,Y pos of 4 corners*
0 Add a 4 corners polygon primitive as box body*
4,1,4,$2,$3,$4,$5,$6,$7,$8,$9,$2,$3,0*
0 Add four circle primitives for the rounded corners*
1,1,$1+$1,$2,$3*
1,1,$1+$1,$4,$5*
1,1,$1+$1,$6,$7*
1,1,$1+$1,$8,$9*
0 Add four rect primitives between the rounded corners*
20,1,$1+$1,$2,$3,$4,$5,0*
20,1,$1+$1,$4,$5,$6,$7,0*
20,1,$1+$1,$6,$7,$8,$9,0*
20,1,$1+$1,$8,$9,$2,$3,0*%
G04 Aperture macros list end*
%ADD10C,0.150000*%
%ADD11C,0.100000*%
%ADD12C,1.000000*%
%ADD13C,1.701800*%
%ADD14C,3.000000*%
%ADD15C,5.000000*%
%ADD16C,0.990600*%
%ADD17R,2.600000X2.600000*%
%ADD18R,2.550000X2.500000*%
%ADD19RoundRect,0.082000X0.618000X-0.328000X0.618000X0.328000X-0.618000X0.328000X-0.618000X-0.328000X0*%
%ADD20C,3.400000*%
G04 APERTURE END LIST*
D10*
X79359226Y-94143392D02*
X79406845Y-94191011D01*
X79406845Y-94191011D02*
X79549702Y-94238630D01*
X79549702Y-94238630D02*
X79644940Y-94238630D01*
X79644940Y-94238630D02*
X79787797Y-94191011D01*
X79787797Y-94191011D02*
X79883035Y-94095773D01*
X79883035Y-94095773D02*
X79930654Y-94000535D01*
X79930654Y-94000535D02*
X79978273Y-93810059D01*
X79978273Y-93810059D02*
X79978273Y-93667202D01*
X79978273Y-93667202D02*
X79930654Y-93476726D01*
X79930654Y-93476726D02*
X79883035Y-93381488D01*
X79883035Y-93381488D02*
X79787797Y-93286250D01*
X79787797Y-93286250D02*
X79644940Y-93238630D01*
X79644940Y-93238630D02*
X79549702Y-93238630D01*
X79549702Y-93238630D02*
X79406845Y-93286250D01*
X79406845Y-93286250D02*
X79359226Y-93333869D01*
X78930654Y-94238630D02*
X78930654Y-93238630D01*
X78502083Y-94238630D02*
X78502083Y-93714821D01*
X78502083Y-93714821D02*
X78549702Y-93619583D01*
X78549702Y-93619583D02*
X78644940Y-93571964D01*
X78644940Y-93571964D02*
X78787797Y-93571964D01*
X78787797Y-93571964D02*
X78883035Y-93619583D01*
X78883035Y-93619583D02*
X78930654Y-93667202D01*
X77644940Y-94191011D02*
X77740178Y-94238630D01*
X77740178Y-94238630D02*
X77930654Y-94238630D01*
X77930654Y-94238630D02*
X78025892Y-94191011D01*
X78025892Y-94191011D02*
X78073511Y-94095773D01*
X78073511Y-94095773D02*
X78073511Y-93714821D01*
X78073511Y-93714821D02*
X78025892Y-93619583D01*
X78025892Y-93619583D02*
X77930654Y-93571964D01*
X77930654Y-93571964D02*
X77740178Y-93571964D01*
X77740178Y-93571964D02*
X77644940Y-93619583D01*
X77644940Y-93619583D02*
X77597321Y-93714821D01*
X77597321Y-93714821D02*
X77597321Y-93810059D01*
X77597321Y-93810059D02*
X78073511Y-93905297D01*
X77168749Y-94238630D02*
X77168749Y-93571964D01*
X77168749Y-93762440D02*
X77121130Y-93667202D01*
X77121130Y-93667202D02*
X77073511Y-93619583D01*
X77073511Y-93619583D02*
X76978273Y-93571964D01*
X76978273Y-93571964D02*
X76883035Y-93571964D01*
X76549701Y-94238630D02*
X76549701Y-93571964D01*
X76549701Y-93762440D02*
X76502082Y-93667202D01*
X76502082Y-93667202D02*
X76454463Y-93619583D01*
X76454463Y-93619583D02*
X76359225Y-93571964D01*
X76359225Y-93571964D02*
X76263987Y-93571964D01*
X76025891Y-93571964D02*
X75787796Y-94238630D01*
X75549701Y-93571964D02*
X75787796Y-94238630D01*
X75787796Y-94238630D02*
X75883034Y-94476726D01*
X75883034Y-94476726D02*
X75930653Y-94524345D01*
X75930653Y-94524345D02*
X76025891Y-94571964D01*
X74568748Y-94238630D02*
X74568748Y-93238630D01*
X74568748Y-93238630D02*
X74235415Y-93952916D01*
X74235415Y-93952916D02*
X73902082Y-93238630D01*
X73902082Y-93238630D02*
X73902082Y-94238630D01*
X73521129Y-93238630D02*
X72854463Y-94238630D01*
X72854463Y-93238630D02*
X73521129Y-94238630D01*
X79930654Y-49788630D02*
X79930654Y-48788630D01*
X79359226Y-49788630D02*
X79787797Y-49217202D01*
X79359226Y-48788630D02*
X79930654Y-49360059D01*
X78502083Y-49788630D02*
X78502083Y-49264821D01*
X78502083Y-49264821D02*
X78549702Y-49169583D01*
X78549702Y-49169583D02*
X78644940Y-49121964D01*
X78644940Y-49121964D02*
X78835416Y-49121964D01*
X78835416Y-49121964D02*
X78930654Y-49169583D01*
X78502083Y-49741011D02*
X78597321Y-49788630D01*
X78597321Y-49788630D02*
X78835416Y-49788630D01*
X78835416Y-49788630D02*
X78930654Y-49741011D01*
X78930654Y-49741011D02*
X78978273Y-49645773D01*
X78978273Y-49645773D02*
X78978273Y-49550535D01*
X78978273Y-49550535D02*
X78930654Y-49455297D01*
X78930654Y-49455297D02*
X78835416Y-49407678D01*
X78835416Y-49407678D02*
X78597321Y-49407678D01*
X78597321Y-49407678D02*
X78502083Y-49360059D01*
X78025892Y-49788630D02*
X78025892Y-49121964D01*
X78025892Y-48788630D02*
X78073511Y-48836250D01*
X78073511Y-48836250D02*
X78025892Y-48883869D01*
X78025892Y-48883869D02*
X77978273Y-48836250D01*
X77978273Y-48836250D02*
X78025892Y-48788630D01*
X78025892Y-48788630D02*
X78025892Y-48883869D01*
X77406845Y-49788630D02*
X77502083Y-49741011D01*
X77502083Y-49741011D02*
X77549702Y-49645773D01*
X77549702Y-49645773D02*
X77549702Y-48788630D01*
X77025892Y-49788630D02*
X77025892Y-48788630D01*
X76597321Y-49788630D02*
X76597321Y-49264821D01*
X76597321Y-49264821D02*
X76644940Y-49169583D01*
X76644940Y-49169583D02*
X76740178Y-49121964D01*
X76740178Y-49121964D02*
X76883035Y-49121964D01*
X76883035Y-49121964D02*
X76978273Y-49169583D01*
X76978273Y-49169583D02*
X77025892Y-49217202D01*
X74949702Y-49693392D02*
X74997321Y-49741011D01*
X74997321Y-49741011D02*
X75140178Y-49788630D01*
X75140178Y-49788630D02*
X75235416Y-49788630D01*
X75235416Y-49788630D02*
X75378273Y-49741011D01*
X75378273Y-49741011D02*
X75473511Y-49645773D01*
X75473511Y-49645773D02*
X75521130Y-49550535D01*
X75521130Y-49550535D02*
X75568749Y-49360059D01*
X75568749Y-49360059D02*
X75568749Y-49217202D01*
X75568749Y-49217202D02*
X75521130Y-49026726D01*
X75521130Y-49026726D02*
X75473511Y-48931488D01*
X75473511Y-48931488D02*
X75378273Y-48836250D01*
X75378273Y-48836250D02*
X75235416Y-48788630D01*
X75235416Y-48788630D02*
X75140178Y-48788630D01*
X75140178Y-48788630D02*
X74997321Y-48836250D01*
X74997321Y-48836250D02*
X74949702Y-48883869D01*
X74521130Y-49788630D02*
X74521130Y-48788630D01*
X74092559Y-49788630D02*
X74092559Y-49264821D01*
X74092559Y-49264821D02*
X74140178Y-49169583D01*
X74140178Y-49169583D02*
X74235416Y-49121964D01*
X74235416Y-49121964D02*
X74378273Y-49121964D01*
X74378273Y-49121964D02*
X74473511Y-49169583D01*
X74473511Y-49169583D02*
X74521130Y-49217202D01*
X73473511Y-49788630D02*
X73568749Y-49741011D01*
X73568749Y-49741011D02*
X73616368Y-49693392D01*
X73616368Y-49693392D02*
X73663987Y-49598154D01*
X73663987Y-49598154D02*
X73663987Y-49312440D01*
X73663987Y-49312440D02*
X73616368Y-49217202D01*
X73616368Y-49217202D02*
X73568749Y-49169583D01*
X73568749Y-49169583D02*
X73473511Y-49121964D01*
X73473511Y-49121964D02*
X73330654Y-49121964D01*
X73330654Y-49121964D02*
X73235416Y-49169583D01*
X73235416Y-49169583D02*
X73187797Y-49217202D01*
X73187797Y-49217202D02*
X73140178Y-49312440D01*
X73140178Y-49312440D02*
X73140178Y-49598154D01*
X73140178Y-49598154D02*
X73187797Y-49693392D01*
X73187797Y-49693392D02*
X73235416Y-49741011D01*
X73235416Y-49741011D02*
X73330654Y-49788630D01*
X73330654Y-49788630D02*
X73473511Y-49788630D01*
X72283035Y-49741011D02*
X72378273Y-49788630D01*
X72378273Y-49788630D02*
X72568749Y-49788630D01*
X72568749Y-49788630D02*
X72663987Y-49741011D01*
X72663987Y-49741011D02*
X72711606Y-49693392D01*
X72711606Y-49693392D02*
X72759225Y-49598154D01*
X72759225Y-49598154D02*
X72759225Y-49312440D01*
X72759225Y-49312440D02*
X72711606Y-49217202D01*
X72711606Y-49217202D02*
X72663987Y-49169583D01*
X72663987Y-49169583D02*
X72568749Y-49121964D01*
X72568749Y-49121964D02*
X72378273Y-49121964D01*
X72378273Y-49121964D02*
X72283035Y-49169583D01*
X82776191Y-70852500D02*
X82871429Y-70804880D01*
X82871429Y-70804880D02*
X83014286Y-70804880D01*
X83014286Y-70804880D02*
X83157143Y-70852500D01*
X83157143Y-70852500D02*
X83252381Y-70947738D01*
X83252381Y-70947738D02*
X83300000Y-71042976D01*
X83300000Y-71042976D02*
X83347619Y-71233452D01*
X83347619Y-71233452D02*
X83347619Y-71376309D01*
X83347619Y-71376309D02*
X83300000Y-71566785D01*
X83300000Y-71566785D02*
X83252381Y-71662023D01*
X83252381Y-71662023D02*
X83157143Y-71757261D01*
X83157143Y-71757261D02*
X83014286Y-71804880D01*
X83014286Y-71804880D02*
X82919048Y-71804880D01*
X82919048Y-71804880D02*
X82776191Y-71757261D01*
X82776191Y-71757261D02*
X82728572Y-71709642D01*
X82728572Y-71709642D02*
X82728572Y-71376309D01*
X82728572Y-71376309D02*
X82919048Y-71376309D01*
X81871429Y-71804880D02*
X81871429Y-71281071D01*
X81871429Y-71281071D02*
X81919048Y-71185833D01*
X81919048Y-71185833D02*
X82014286Y-71138214D01*
X82014286Y-71138214D02*
X82204762Y-71138214D01*
X82204762Y-71138214D02*
X82300000Y-71185833D01*
X81871429Y-71757261D02*
X81966667Y-71804880D01*
X81966667Y-71804880D02*
X82204762Y-71804880D01*
X82204762Y-71804880D02*
X82300000Y-71757261D01*
X82300000Y-71757261D02*
X82347619Y-71662023D01*
X82347619Y-71662023D02*
X82347619Y-71566785D01*
X82347619Y-71566785D02*
X82300000Y-71471547D01*
X82300000Y-71471547D02*
X82204762Y-71423928D01*
X82204762Y-71423928D02*
X81966667Y-71423928D01*
X81966667Y-71423928D02*
X81871429Y-71376309D01*
X81538095Y-71138214D02*
X81157143Y-71138214D01*
X81395238Y-70804880D02*
X81395238Y-71662023D01*
X81395238Y-71662023D02*
X81347619Y-71757261D01*
X81347619Y-71757261D02*
X81252381Y-71804880D01*
X81252381Y-71804880D02*
X81157143Y-71804880D01*
X80442857Y-71757261D02*
X80538095Y-71804880D01*
X80538095Y-71804880D02*
X80728571Y-71804880D01*
X80728571Y-71804880D02*
X80823809Y-71757261D01*
X80823809Y-71757261D02*
X80871428Y-71662023D01*
X80871428Y-71662023D02*
X80871428Y-71281071D01*
X80871428Y-71281071D02*
X80823809Y-71185833D01*
X80823809Y-71185833D02*
X80728571Y-71138214D01*
X80728571Y-71138214D02*
X80538095Y-71138214D01*
X80538095Y-71138214D02*
X80442857Y-71185833D01*
X80442857Y-71185833D02*
X80395238Y-71281071D01*
X80395238Y-71281071D02*
X80395238Y-71376309D01*
X80395238Y-71376309D02*
X80871428Y-71471547D01*
X79966666Y-71804880D02*
X79966666Y-71138214D01*
X79966666Y-71328690D02*
X79919047Y-71233452D01*
X79919047Y-71233452D02*
X79871428Y-71185833D01*
X79871428Y-71185833D02*
X79776190Y-71138214D01*
X79776190Y-71138214D02*
X79680952Y-71138214D01*
X79204761Y-71804880D02*
X79299999Y-71757261D01*
X79299999Y-71757261D02*
X79347618Y-71709642D01*
X79347618Y-71709642D02*
X79395237Y-71614404D01*
X79395237Y-71614404D02*
X79395237Y-71328690D01*
X79395237Y-71328690D02*
X79347618Y-71233452D01*
X79347618Y-71233452D02*
X79299999Y-71185833D01*
X79299999Y-71185833D02*
X79204761Y-71138214D01*
X79204761Y-71138214D02*
X79061904Y-71138214D01*
X79061904Y-71138214D02*
X78966666Y-71185833D01*
X78966666Y-71185833D02*
X78919047Y-71233452D01*
X78919047Y-71233452D02*
X78871428Y-71328690D01*
X78871428Y-71328690D02*
X78871428Y-71614404D01*
X78871428Y-71614404D02*
X78919047Y-71709642D01*
X78919047Y-71709642D02*
X78966666Y-71757261D01*
X78966666Y-71757261D02*
X79061904Y-71804880D01*
X79061904Y-71804880D02*
X79204761Y-71804880D01*
X78442856Y-71138214D02*
X78442856Y-71804880D01*
X78442856Y-71233452D02*
X78395237Y-71185833D01*
X78395237Y-71185833D02*
X78299999Y-71138214D01*
X78299999Y-71138214D02*
X78157142Y-71138214D01*
X78157142Y-71138214D02*
X78061904Y-71185833D01*
X78061904Y-71185833D02*
X78014285Y-71281071D01*
X78014285Y-71281071D02*
X78014285Y-71804880D01*
X76461904Y-71804880D02*
X76938094Y-71804880D01*
X76938094Y-71804880D02*
X76938094Y-70804880D01*
X75985713Y-71804880D02*
X76080951Y-71757261D01*
X76080951Y-71757261D02*
X76128570Y-71709642D01*
X76128570Y-71709642D02*
X76176189Y-71614404D01*
X76176189Y-71614404D02*
X76176189Y-71328690D01*
X76176189Y-71328690D02*
X76128570Y-71233452D01*
X76128570Y-71233452D02*
X76080951Y-71185833D01*
X76080951Y-71185833D02*
X75985713Y-71138214D01*
X75985713Y-71138214D02*
X75842856Y-71138214D01*
X75842856Y-71138214D02*
X75747618Y-71185833D01*
X75747618Y-71185833D02*
X75699999Y-71233452D01*
X75699999Y-71233452D02*
X75652380Y-71328690D01*
X75652380Y-71328690D02*
X75652380Y-71614404D01*
X75652380Y-71614404D02*
X75699999Y-71709642D01*
X75699999Y-71709642D02*
X75747618Y-71757261D01*
X75747618Y-71757261D02*
X75842856Y-71804880D01*
X75842856Y-71804880D02*
X75985713Y-71804880D01*
X75319046Y-71138214D02*
X75128570Y-71804880D01*
X75128570Y-71804880D02*
X74938094Y-71328690D01*
X74938094Y-71328690D02*
X74747618Y-71804880D01*
X74747618Y-71804880D02*
X74557142Y-71138214D01*
X73576189Y-71804880D02*
X73576189Y-70804880D01*
X73576189Y-70804880D02*
X73195237Y-70804880D01*
X73195237Y-70804880D02*
X73099999Y-70852500D01*
X73099999Y-70852500D02*
X73052380Y-70900119D01*
X73052380Y-70900119D02*
X73004761Y-70995357D01*
X73004761Y-70995357D02*
X73004761Y-71138214D01*
X73004761Y-71138214D02*
X73052380Y-71233452D01*
X73052380Y-71233452D02*
X73099999Y-71281071D01*
X73099999Y-71281071D02*
X73195237Y-71328690D01*
X73195237Y-71328690D02*
X73576189Y-71328690D01*
X72576189Y-71804880D02*
X72576189Y-71138214D01*
X72576189Y-71328690D02*
X72528570Y-71233452D01*
X72528570Y-71233452D02*
X72480951Y-71185833D01*
X72480951Y-71185833D02*
X72385713Y-71138214D01*
X72385713Y-71138214D02*
X72290475Y-71138214D01*
X71814284Y-71804880D02*
X71909522Y-71757261D01*
X71909522Y-71757261D02*
X71957141Y-71709642D01*
X71957141Y-71709642D02*
X72004760Y-71614404D01*
X72004760Y-71614404D02*
X72004760Y-71328690D01*
X72004760Y-71328690D02*
X71957141Y-71233452D01*
X71957141Y-71233452D02*
X71909522Y-71185833D01*
X71909522Y-71185833D02*
X71814284Y-71138214D01*
X71814284Y-71138214D02*
X71671427Y-71138214D01*
X71671427Y-71138214D02*
X71576189Y-71185833D01*
X71576189Y-71185833D02*
X71528570Y-71233452D01*
X71528570Y-71233452D02*
X71480951Y-71328690D01*
X71480951Y-71328690D02*
X71480951Y-71614404D01*
X71480951Y-71614404D02*
X71528570Y-71709642D01*
X71528570Y-71709642D02*
X71576189Y-71757261D01*
X71576189Y-71757261D02*
X71671427Y-71804880D01*
X71671427Y-71804880D02*
X71814284Y-71804880D01*
X71195236Y-71138214D02*
X70814284Y-71138214D01*
X71052379Y-71804880D02*
X71052379Y-70947738D01*
X71052379Y-70947738D02*
X71004760Y-70852500D01*
X71004760Y-70852500D02*
X70909522Y-70804880D01*
X70909522Y-70804880D02*
X70814284Y-70804880D01*
X70480950Y-71804880D02*
X70480950Y-71138214D01*
X70480950Y-70804880D02*
X70528569Y-70852500D01*
X70528569Y-70852500D02*
X70480950Y-70900119D01*
X70480950Y-70900119D02*
X70433331Y-70852500D01*
X70433331Y-70852500D02*
X70480950Y-70804880D01*
X70480950Y-70804880D02*
X70480950Y-70900119D01*
X69861903Y-71804880D02*
X69957141Y-71757261D01*
X69957141Y-71757261D02*
X70004760Y-71662023D01*
X70004760Y-71662023D02*
X70004760Y-70804880D01*
X69099998Y-71757261D02*
X69195236Y-71804880D01*
X69195236Y-71804880D02*
X69385712Y-71804880D01*
X69385712Y-71804880D02*
X69480950Y-71757261D01*
X69480950Y-71757261D02*
X69528569Y-71662023D01*
X69528569Y-71662023D02*
X69528569Y-71281071D01*
X69528569Y-71281071D02*
X69480950Y-71185833D01*
X69480950Y-71185833D02*
X69385712Y-71138214D01*
X69385712Y-71138214D02*
X69195236Y-71138214D01*
X69195236Y-71138214D02*
X69099998Y-71185833D01*
X69099998Y-71185833D02*
X69052379Y-71281071D01*
X69052379Y-71281071D02*
X69052379Y-71376309D01*
X69052379Y-71376309D02*
X69528569Y-71471547D01*
X112062500Y-85768750D02*
X112062500Y-86368750D01*
X113982500Y-82708750D02*
X119062500Y-82708750D01*
X113982500Y-83724750D02*
X113982500Y-82708750D01*
X113982500Y-87153750D02*
X113982500Y-86772750D01*
X121526662Y-80803750D02*
X123253500Y-80803750D01*
X122872500Y-87153750D02*
X113982500Y-87153750D01*
X125031500Y-80803750D02*
X125412500Y-80803750D01*
X125412500Y-81184750D02*
X125412500Y-80803750D01*
X125412500Y-84613750D02*
X125412500Y-84232750D01*
X119062500Y-82708749D02*
G75*
G03*
X121526661Y-80784790I0J2539999D01*
G01*
X122872500Y-87153750D02*
G75*
G03*
X125412500Y-84613750I0J2540000D01*
G01*
G36*
X114862500Y-74469751D02*
G01*
X114862500Y-73569751D01*
X115762500Y-73569751D01*
X114862500Y-74469751D01*
G37*
D11*
X114862500Y-74469751D02*
X114862500Y-73569751D01*
X115762500Y-73569751D01*
X114862500Y-74469751D01*
D10*
X112062500Y-107993750D02*
X112062500Y-108593750D01*
X113982500Y-104933750D02*
X119062500Y-104933750D01*
X113982500Y-105949750D02*
X113982500Y-104933750D01*
X113982500Y-109378750D02*
X113982500Y-108997750D01*
X121526662Y-103028750D02*
X123253500Y-103028750D01*
X122872500Y-109378750D02*
X113982500Y-109378750D01*
X125031500Y-103028750D02*
X125412500Y-103028750D01*
X125412500Y-103409750D02*
X125412500Y-103028750D01*
X125412500Y-106838750D02*
X125412500Y-106457750D01*
X119062500Y-104933749D02*
G75*
G03*
X121526661Y-103009790I0J2539999D01*
G01*
X122872500Y-109378750D02*
G75*
G03*
X125412500Y-106838750I0J2540000D01*
G01*
G36*
X114862500Y-96694751D02*
G01*
X114862500Y-95794751D01*
X115762500Y-95794751D01*
X114862500Y-96694751D01*
G37*
D11*
X114862500Y-96694751D02*
X114862500Y-95794751D01*
X115762500Y-95794751D01*
X114862500Y-96694751D01*
D10*
X112062500Y-63311234D02*
X112062500Y-63911234D01*
X113982500Y-60251234D02*
X119062500Y-60251234D01*
X113982500Y-61267234D02*
X113982500Y-60251234D01*
X113982500Y-64696234D02*
X113982500Y-64315234D01*
X121526662Y-58346234D02*
X123253500Y-58346234D01*
X122872500Y-64696234D02*
X113982500Y-64696234D01*
X125031500Y-58346234D02*
X125412500Y-58346234D01*
X125412500Y-58727234D02*
X125412500Y-58346234D01*
X125412500Y-62156234D02*
X125412500Y-61775234D01*
X119062500Y-60251233D02*
G75*
G03*
X121526661Y-58327274I0J2539999D01*
G01*
X122872500Y-64696234D02*
G75*
G03*
X125412500Y-62156234I0J2540000D01*
G01*
G36*
X114862500Y-52012235D02*
G01*
X114862500Y-51112235D01*
X115762500Y-51112235D01*
X114862500Y-52012235D01*
G37*
D11*
X114862500Y-52012235D02*
X114862500Y-51112235D01*
X115762500Y-51112235D01*
X114862500Y-52012235D01*
%LPC*%
D12*
X119062500Y-80168750D03*
D13*
X113562500Y-80168750D03*
X113982500Y-80168750D03*
D14*
X114062500Y-83918750D03*
X114062500Y-83968750D03*
X114662500Y-84868750D03*
X116522500Y-85248750D03*
D15*
X119062500Y-80168750D03*
D14*
X119062500Y-86068750D03*
X121662500Y-85918750D03*
X122872500Y-82708750D03*
D13*
X124142500Y-80168750D03*
D16*
X124212500Y-75168750D03*
D13*
X124562500Y-80168750D03*
D17*
X110787499Y-83968749D03*
X111387499Y-84868749D03*
D18*
X112772499Y-85248749D03*
D17*
X122337499Y-86068749D03*
X124937499Y-85918749D03*
D18*
X126622499Y-82708749D03*
D19*
X121762500Y-76219751D03*
X121762500Y-74719751D03*
X116362500Y-74719751D03*
X116362500Y-76219751D03*
D13*
X113562500Y-102393750D03*
X113982500Y-102393750D03*
D14*
X114062500Y-106143750D03*
X114062500Y-106193750D03*
X114662500Y-107093750D03*
X116522500Y-107473750D03*
D15*
X119062500Y-102393750D03*
D14*
X119062500Y-108293750D03*
X121662500Y-108143750D03*
X122872500Y-104933750D03*
D13*
X124142500Y-102393750D03*
D16*
X124212500Y-97393750D03*
D13*
X124562500Y-102393750D03*
D17*
X110787499Y-106193749D03*
X111387499Y-107093749D03*
D18*
X112772499Y-107473749D03*
D17*
X122337499Y-108293749D03*
X124937499Y-108143749D03*
D18*
X126622499Y-104933749D03*
D19*
X121762500Y-98444751D03*
X121762500Y-96944751D03*
X116362500Y-96944751D03*
X116362500Y-98444751D03*
D20*
X119062500Y-57711234D03*
D13*
X113562500Y-57711234D03*
X113982500Y-57711234D03*
D14*
X114062500Y-61461234D03*
X114062500Y-61511234D03*
X114662500Y-62411234D03*
X116522500Y-62791234D03*
D15*
X119062500Y-57711234D03*
D14*
X119062500Y-63611234D03*
X121662500Y-63461234D03*
X122872500Y-60251234D03*
D13*
X124142500Y-57711234D03*
D16*
X124212500Y-52711234D03*
D13*
X124562500Y-57711234D03*
D17*
X110787499Y-61511233D03*
X111387499Y-62411233D03*
D18*
X112772499Y-62791233D03*
D17*
X122337499Y-63611233D03*
X124937499Y-63461233D03*
D18*
X126622499Y-60251233D03*
D19*
X121762500Y-53762235D03*
X121762500Y-52262235D03*
X116362500Y-52262235D03*
X116362500Y-53762235D03*
M02*
