G04 #@! TF.GenerationSoftware,KiCad,Pcbnew,(7.0.0)*
G04 #@! TF.CreationDate,2023-09-22T15:52:12-05:00*
G04 #@! TF.ProjectId,stab_tester,73746162-5f74-4657-9374-65722e6b6963,rev?*
G04 #@! TF.SameCoordinates,Original*
G04 #@! TF.FileFunction,Soldermask,Bot*
G04 #@! TF.FilePolarity,Negative*
%FSLAX46Y46*%
G04 Gerber Fmt 4.6, Leading zero omitted, Abs format (unit mm)*
G04 Created by KiCad (PCBNEW (7.0.0)) date 2023-09-22 15:52:12*
%MOMM*%
%LPD*%
G01*
G04 APERTURE LIST*
G04 Aperture macros list*
%AMRoundRect*
0 Rectangle with rounded corners*
0 $1 Rounding radius*
0 $2 $3 $4 $5 $6 $7 $8 $9 X,Y pos of 4 corners*
0 Add a 4 corners polygon primitive as box body*
4,1,4,$2,$3,$4,$5,$6,$7,$8,$9,$2,$3,0*
0 Add four circle primitives for the rounded corners*
1,1,$1+$1,$2,$3*
1,1,$1+$1,$4,$5*
1,1,$1+$1,$6,$7*
1,1,$1+$1,$8,$9*
0 Add four rect primitives between the rounded corners*
20,1,$1+$1,$2,$3,$4,$5,0*
20,1,$1+$1,$4,$5,$6,$7,0*
20,1,$1+$1,$6,$7,$8,$9,0*
20,1,$1+$1,$8,$9,$2,$3,0*%
G04 Aperture macros list end*
%ADD10C,1.000000*%
%ADD11C,1.701800*%
%ADD12C,3.000000*%
%ADD13C,5.000000*%
%ADD14C,0.990600*%
%ADD15R,2.600000X2.600000*%
%ADD16R,2.550000X2.500000*%
%ADD17RoundRect,0.082000X0.618000X-0.328000X0.618000X0.328000X-0.618000X0.328000X-0.618000X-0.328000X0*%
%ADD18C,3.400000*%
G04 APERTURE END LIST*
D10*
X119062500Y-80168750D03*
D11*
X113562500Y-80168750D03*
X113982500Y-80168750D03*
D12*
X114062500Y-83918750D03*
X114062500Y-83968750D03*
X114662500Y-84868750D03*
X116522500Y-85248750D03*
D13*
X119062500Y-80168750D03*
D12*
X119062500Y-86068750D03*
X121662500Y-85918750D03*
X122872500Y-82708750D03*
D11*
X124142500Y-80168750D03*
D14*
X124212500Y-75168750D03*
D11*
X124562500Y-80168750D03*
D15*
X110787499Y-83968749D03*
X111387499Y-84868749D03*
D16*
X112772499Y-85248749D03*
D15*
X122337499Y-86068749D03*
X124937499Y-85918749D03*
D16*
X126622499Y-82708749D03*
D17*
X121762500Y-76219751D03*
X121762500Y-74719751D03*
X116362500Y-74719751D03*
X116362500Y-76219751D03*
D11*
X113562500Y-102393750D03*
X113982500Y-102393750D03*
D12*
X114062500Y-106143750D03*
X114062500Y-106193750D03*
X114662500Y-107093750D03*
X116522500Y-107473750D03*
D13*
X119062500Y-102393750D03*
D12*
X119062500Y-108293750D03*
X121662500Y-108143750D03*
X122872500Y-104933750D03*
D11*
X124142500Y-102393750D03*
D14*
X124212500Y-97393750D03*
D11*
X124562500Y-102393750D03*
D15*
X110787499Y-106193749D03*
X111387499Y-107093749D03*
D16*
X112772499Y-107473749D03*
D15*
X122337499Y-108293749D03*
X124937499Y-108143749D03*
D16*
X126622499Y-104933749D03*
D17*
X121762500Y-98444751D03*
X121762500Y-96944751D03*
X116362500Y-96944751D03*
X116362500Y-98444751D03*
D18*
X119062500Y-57711234D03*
D11*
X113562500Y-57711234D03*
X113982500Y-57711234D03*
D12*
X114062500Y-61461234D03*
X114062500Y-61511234D03*
X114662500Y-62411234D03*
X116522500Y-62791234D03*
D13*
X119062500Y-57711234D03*
D12*
X119062500Y-63611234D03*
X121662500Y-63461234D03*
X122872500Y-60251234D03*
D11*
X124142500Y-57711234D03*
D14*
X124212500Y-52711234D03*
D11*
X124562500Y-57711234D03*
D15*
X110787499Y-61511233D03*
X111387499Y-62411233D03*
D16*
X112772499Y-62791233D03*
D15*
X122337499Y-63611233D03*
X124937499Y-63461233D03*
D16*
X126622499Y-60251233D03*
D17*
X121762500Y-53762235D03*
X121762500Y-52262235D03*
X116362500Y-52262235D03*
X116362500Y-53762235D03*
M02*
