G04 #@! TF.GenerationSoftware,KiCad,Pcbnew,(7.0.0)*
G04 #@! TF.CreationDate,2023-09-22T15:52:11-05:00*
G04 #@! TF.ProjectId,stab_tester,73746162-5f74-4657-9374-65722e6b6963,rev?*
G04 #@! TF.SameCoordinates,Original*
G04 #@! TF.FileFunction,Legend,Top*
G04 #@! TF.FilePolarity,Positive*
%FSLAX46Y46*%
G04 Gerber Fmt 4.6, Leading zero omitted, Abs format (unit mm)*
G04 Created by KiCad (PCBNEW (7.0.0)) date 2023-09-22 15:52:11*
%MOMM*%
%LPD*%
G01*
G04 APERTURE LIST*
%ADD10C,0.150000*%
%ADD11C,1.000000*%
%ADD12C,1.701800*%
%ADD13C,3.000000*%
%ADD14C,5.000000*%
%ADD15C,0.990600*%
%ADD16C,3.400000*%
G04 APERTURE END LIST*
D10*
X117729166Y-80036130D02*
X117395833Y-79559940D01*
X117157738Y-80036130D02*
X117157738Y-79036130D01*
X117157738Y-79036130D02*
X117538690Y-79036130D01*
X117538690Y-79036130D02*
X117633928Y-79083750D01*
X117633928Y-79083750D02*
X117681547Y-79131369D01*
X117681547Y-79131369D02*
X117729166Y-79226607D01*
X117729166Y-79226607D02*
X117729166Y-79369464D01*
X117729166Y-79369464D02*
X117681547Y-79464702D01*
X117681547Y-79464702D02*
X117633928Y-79512321D01*
X117633928Y-79512321D02*
X117538690Y-79559940D01*
X117538690Y-79559940D02*
X117157738Y-79559940D01*
X118157738Y-79512321D02*
X118491071Y-79512321D01*
X118633928Y-80036130D02*
X118157738Y-80036130D01*
X118157738Y-80036130D02*
X118157738Y-79036130D01*
X118157738Y-79036130D02*
X118633928Y-79036130D01*
X119395833Y-79512321D02*
X119062500Y-79512321D01*
X119062500Y-80036130D02*
X119062500Y-79036130D01*
X119062500Y-79036130D02*
X119538690Y-79036130D01*
X120062500Y-79036130D02*
X120062500Y-79274226D01*
X119824405Y-79178988D02*
X120062500Y-79274226D01*
X120062500Y-79274226D02*
X120300595Y-79178988D01*
X119919643Y-79464702D02*
X120062500Y-79274226D01*
X120062500Y-79274226D02*
X120205357Y-79464702D01*
X120824405Y-79036130D02*
X120824405Y-79274226D01*
X120586310Y-79178988D02*
X120824405Y-79274226D01*
X120824405Y-79274226D02*
X121062500Y-79178988D01*
X120681548Y-79464702D02*
X120824405Y-79274226D01*
X120824405Y-79274226D02*
X120967262Y-79464702D01*
X112586308Y-71083750D02*
X112491070Y-71036130D01*
X112491070Y-71036130D02*
X112348213Y-71036130D01*
X112348213Y-71036130D02*
X112205356Y-71083750D01*
X112205356Y-71083750D02*
X112110118Y-71178988D01*
X112110118Y-71178988D02*
X112062499Y-71274226D01*
X112062499Y-71274226D02*
X112014880Y-71464702D01*
X112014880Y-71464702D02*
X112014880Y-71607559D01*
X112014880Y-71607559D02*
X112062499Y-71798035D01*
X112062499Y-71798035D02*
X112110118Y-71893273D01*
X112110118Y-71893273D02*
X112205356Y-71988511D01*
X112205356Y-71988511D02*
X112348213Y-72036130D01*
X112348213Y-72036130D02*
X112443451Y-72036130D01*
X112443451Y-72036130D02*
X112586308Y-71988511D01*
X112586308Y-71988511D02*
X112633927Y-71940892D01*
X112633927Y-71940892D02*
X112633927Y-71607559D01*
X112633927Y-71607559D02*
X112443451Y-71607559D01*
X113491070Y-72036130D02*
X113491070Y-71512321D01*
X113491070Y-71512321D02*
X113443451Y-71417083D01*
X113443451Y-71417083D02*
X113348213Y-71369464D01*
X113348213Y-71369464D02*
X113157737Y-71369464D01*
X113157737Y-71369464D02*
X113062499Y-71417083D01*
X113491070Y-71988511D02*
X113395832Y-72036130D01*
X113395832Y-72036130D02*
X113157737Y-72036130D01*
X113157737Y-72036130D02*
X113062499Y-71988511D01*
X113062499Y-71988511D02*
X113014880Y-71893273D01*
X113014880Y-71893273D02*
X113014880Y-71798035D01*
X113014880Y-71798035D02*
X113062499Y-71702797D01*
X113062499Y-71702797D02*
X113157737Y-71655178D01*
X113157737Y-71655178D02*
X113395832Y-71655178D01*
X113395832Y-71655178D02*
X113491070Y-71607559D01*
X113824404Y-71369464D02*
X114205356Y-71369464D01*
X113967261Y-71036130D02*
X113967261Y-71893273D01*
X113967261Y-71893273D02*
X114014880Y-71988511D01*
X114014880Y-71988511D02*
X114110118Y-72036130D01*
X114110118Y-72036130D02*
X114205356Y-72036130D01*
X114919642Y-71988511D02*
X114824404Y-72036130D01*
X114824404Y-72036130D02*
X114633928Y-72036130D01*
X114633928Y-72036130D02*
X114538690Y-71988511D01*
X114538690Y-71988511D02*
X114491071Y-71893273D01*
X114491071Y-71893273D02*
X114491071Y-71512321D01*
X114491071Y-71512321D02*
X114538690Y-71417083D01*
X114538690Y-71417083D02*
X114633928Y-71369464D01*
X114633928Y-71369464D02*
X114824404Y-71369464D01*
X114824404Y-71369464D02*
X114919642Y-71417083D01*
X114919642Y-71417083D02*
X114967261Y-71512321D01*
X114967261Y-71512321D02*
X114967261Y-71607559D01*
X114967261Y-71607559D02*
X114491071Y-71702797D01*
X115395833Y-72036130D02*
X115395833Y-71369464D01*
X115395833Y-71559940D02*
X115443452Y-71464702D01*
X115443452Y-71464702D02*
X115491071Y-71417083D01*
X115491071Y-71417083D02*
X115586309Y-71369464D01*
X115586309Y-71369464D02*
X115681547Y-71369464D01*
X116157738Y-72036130D02*
X116062500Y-71988511D01*
X116062500Y-71988511D02*
X116014881Y-71940892D01*
X116014881Y-71940892D02*
X115967262Y-71845654D01*
X115967262Y-71845654D02*
X115967262Y-71559940D01*
X115967262Y-71559940D02*
X116014881Y-71464702D01*
X116014881Y-71464702D02*
X116062500Y-71417083D01*
X116062500Y-71417083D02*
X116157738Y-71369464D01*
X116157738Y-71369464D02*
X116300595Y-71369464D01*
X116300595Y-71369464D02*
X116395833Y-71417083D01*
X116395833Y-71417083D02*
X116443452Y-71464702D01*
X116443452Y-71464702D02*
X116491071Y-71559940D01*
X116491071Y-71559940D02*
X116491071Y-71845654D01*
X116491071Y-71845654D02*
X116443452Y-71940892D01*
X116443452Y-71940892D02*
X116395833Y-71988511D01*
X116395833Y-71988511D02*
X116300595Y-72036130D01*
X116300595Y-72036130D02*
X116157738Y-72036130D01*
X116919643Y-71369464D02*
X116919643Y-72036130D01*
X116919643Y-71464702D02*
X116967262Y-71417083D01*
X116967262Y-71417083D02*
X117062500Y-71369464D01*
X117062500Y-71369464D02*
X117205357Y-71369464D01*
X117205357Y-71369464D02*
X117300595Y-71417083D01*
X117300595Y-71417083D02*
X117348214Y-71512321D01*
X117348214Y-71512321D02*
X117348214Y-72036130D01*
X118900595Y-72036130D02*
X118424405Y-72036130D01*
X118424405Y-72036130D02*
X118424405Y-71036130D01*
X119376786Y-72036130D02*
X119281548Y-71988511D01*
X119281548Y-71988511D02*
X119233929Y-71940892D01*
X119233929Y-71940892D02*
X119186310Y-71845654D01*
X119186310Y-71845654D02*
X119186310Y-71559940D01*
X119186310Y-71559940D02*
X119233929Y-71464702D01*
X119233929Y-71464702D02*
X119281548Y-71417083D01*
X119281548Y-71417083D02*
X119376786Y-71369464D01*
X119376786Y-71369464D02*
X119519643Y-71369464D01*
X119519643Y-71369464D02*
X119614881Y-71417083D01*
X119614881Y-71417083D02*
X119662500Y-71464702D01*
X119662500Y-71464702D02*
X119710119Y-71559940D01*
X119710119Y-71559940D02*
X119710119Y-71845654D01*
X119710119Y-71845654D02*
X119662500Y-71940892D01*
X119662500Y-71940892D02*
X119614881Y-71988511D01*
X119614881Y-71988511D02*
X119519643Y-72036130D01*
X119519643Y-72036130D02*
X119376786Y-72036130D01*
X120043453Y-71369464D02*
X120233929Y-72036130D01*
X120233929Y-72036130D02*
X120424405Y-71559940D01*
X120424405Y-71559940D02*
X120614881Y-72036130D01*
X120614881Y-72036130D02*
X120805357Y-71369464D01*
X121786310Y-72036130D02*
X121786310Y-71036130D01*
X121786310Y-71036130D02*
X122167262Y-71036130D01*
X122167262Y-71036130D02*
X122262500Y-71083750D01*
X122262500Y-71083750D02*
X122310119Y-71131369D01*
X122310119Y-71131369D02*
X122357738Y-71226607D01*
X122357738Y-71226607D02*
X122357738Y-71369464D01*
X122357738Y-71369464D02*
X122310119Y-71464702D01*
X122310119Y-71464702D02*
X122262500Y-71512321D01*
X122262500Y-71512321D02*
X122167262Y-71559940D01*
X122167262Y-71559940D02*
X121786310Y-71559940D01*
X122786310Y-72036130D02*
X122786310Y-71369464D01*
X122786310Y-71559940D02*
X122833929Y-71464702D01*
X122833929Y-71464702D02*
X122881548Y-71417083D01*
X122881548Y-71417083D02*
X122976786Y-71369464D01*
X122976786Y-71369464D02*
X123072024Y-71369464D01*
X123548215Y-72036130D02*
X123452977Y-71988511D01*
X123452977Y-71988511D02*
X123405358Y-71940892D01*
X123405358Y-71940892D02*
X123357739Y-71845654D01*
X123357739Y-71845654D02*
X123357739Y-71559940D01*
X123357739Y-71559940D02*
X123405358Y-71464702D01*
X123405358Y-71464702D02*
X123452977Y-71417083D01*
X123452977Y-71417083D02*
X123548215Y-71369464D01*
X123548215Y-71369464D02*
X123691072Y-71369464D01*
X123691072Y-71369464D02*
X123786310Y-71417083D01*
X123786310Y-71417083D02*
X123833929Y-71464702D01*
X123833929Y-71464702D02*
X123881548Y-71559940D01*
X123881548Y-71559940D02*
X123881548Y-71845654D01*
X123881548Y-71845654D02*
X123833929Y-71940892D01*
X123833929Y-71940892D02*
X123786310Y-71988511D01*
X123786310Y-71988511D02*
X123691072Y-72036130D01*
X123691072Y-72036130D02*
X123548215Y-72036130D01*
X124167263Y-71369464D02*
X124548215Y-71369464D01*
X124310120Y-72036130D02*
X124310120Y-71178988D01*
X124310120Y-71178988D02*
X124357739Y-71083750D01*
X124357739Y-71083750D02*
X124452977Y-71036130D01*
X124452977Y-71036130D02*
X124548215Y-71036130D01*
X124881549Y-72036130D02*
X124881549Y-71369464D01*
X124881549Y-71036130D02*
X124833930Y-71083750D01*
X124833930Y-71083750D02*
X124881549Y-71131369D01*
X124881549Y-71131369D02*
X124929168Y-71083750D01*
X124929168Y-71083750D02*
X124881549Y-71036130D01*
X124881549Y-71036130D02*
X124881549Y-71131369D01*
X125500596Y-72036130D02*
X125405358Y-71988511D01*
X125405358Y-71988511D02*
X125357739Y-71893273D01*
X125357739Y-71893273D02*
X125357739Y-71036130D01*
X126262501Y-71988511D02*
X126167263Y-72036130D01*
X126167263Y-72036130D02*
X125976787Y-72036130D01*
X125976787Y-72036130D02*
X125881549Y-71988511D01*
X125881549Y-71988511D02*
X125833930Y-71893273D01*
X125833930Y-71893273D02*
X125833930Y-71512321D01*
X125833930Y-71512321D02*
X125881549Y-71417083D01*
X125881549Y-71417083D02*
X125976787Y-71369464D01*
X125976787Y-71369464D02*
X126167263Y-71369464D01*
X126167263Y-71369464D02*
X126262501Y-71417083D01*
X126262501Y-71417083D02*
X126310120Y-71512321D01*
X126310120Y-71512321D02*
X126310120Y-71607559D01*
X126310120Y-71607559D02*
X125833930Y-71702797D01*
X116243451Y-94165892D02*
X116195832Y-94213511D01*
X116195832Y-94213511D02*
X116052975Y-94261130D01*
X116052975Y-94261130D02*
X115957737Y-94261130D01*
X115957737Y-94261130D02*
X115814880Y-94213511D01*
X115814880Y-94213511D02*
X115719642Y-94118273D01*
X115719642Y-94118273D02*
X115672023Y-94023035D01*
X115672023Y-94023035D02*
X115624404Y-93832559D01*
X115624404Y-93832559D02*
X115624404Y-93689702D01*
X115624404Y-93689702D02*
X115672023Y-93499226D01*
X115672023Y-93499226D02*
X115719642Y-93403988D01*
X115719642Y-93403988D02*
X115814880Y-93308750D01*
X115814880Y-93308750D02*
X115957737Y-93261130D01*
X115957737Y-93261130D02*
X116052975Y-93261130D01*
X116052975Y-93261130D02*
X116195832Y-93308750D01*
X116195832Y-93308750D02*
X116243451Y-93356369D01*
X116672023Y-94261130D02*
X116672023Y-93261130D01*
X117100594Y-94261130D02*
X117100594Y-93737321D01*
X117100594Y-93737321D02*
X117052975Y-93642083D01*
X117052975Y-93642083D02*
X116957737Y-93594464D01*
X116957737Y-93594464D02*
X116814880Y-93594464D01*
X116814880Y-93594464D02*
X116719642Y-93642083D01*
X116719642Y-93642083D02*
X116672023Y-93689702D01*
X117957737Y-94213511D02*
X117862499Y-94261130D01*
X117862499Y-94261130D02*
X117672023Y-94261130D01*
X117672023Y-94261130D02*
X117576785Y-94213511D01*
X117576785Y-94213511D02*
X117529166Y-94118273D01*
X117529166Y-94118273D02*
X117529166Y-93737321D01*
X117529166Y-93737321D02*
X117576785Y-93642083D01*
X117576785Y-93642083D02*
X117672023Y-93594464D01*
X117672023Y-93594464D02*
X117862499Y-93594464D01*
X117862499Y-93594464D02*
X117957737Y-93642083D01*
X117957737Y-93642083D02*
X118005356Y-93737321D01*
X118005356Y-93737321D02*
X118005356Y-93832559D01*
X118005356Y-93832559D02*
X117529166Y-93927797D01*
X118433928Y-94261130D02*
X118433928Y-93594464D01*
X118433928Y-93784940D02*
X118481547Y-93689702D01*
X118481547Y-93689702D02*
X118529166Y-93642083D01*
X118529166Y-93642083D02*
X118624404Y-93594464D01*
X118624404Y-93594464D02*
X118719642Y-93594464D01*
X119052976Y-94261130D02*
X119052976Y-93594464D01*
X119052976Y-93784940D02*
X119100595Y-93689702D01*
X119100595Y-93689702D02*
X119148214Y-93642083D01*
X119148214Y-93642083D02*
X119243452Y-93594464D01*
X119243452Y-93594464D02*
X119338690Y-93594464D01*
X119576786Y-93594464D02*
X119814881Y-94261130D01*
X120052976Y-93594464D02*
X119814881Y-94261130D01*
X119814881Y-94261130D02*
X119719643Y-94499226D01*
X119719643Y-94499226D02*
X119672024Y-94546845D01*
X119672024Y-94546845D02*
X119576786Y-94594464D01*
X121033929Y-94261130D02*
X121033929Y-93261130D01*
X121033929Y-93261130D02*
X121367262Y-93975416D01*
X121367262Y-93975416D02*
X121700595Y-93261130D01*
X121700595Y-93261130D02*
X121700595Y-94261130D01*
X122081548Y-93261130D02*
X122748214Y-94261130D01*
X122748214Y-93261130D02*
X122081548Y-94261130D01*
X115362500Y-49578614D02*
X115362500Y-48578614D01*
X115933928Y-49578614D02*
X115505357Y-49007186D01*
X115933928Y-48578614D02*
X115362500Y-49150043D01*
X116791071Y-49578614D02*
X116791071Y-49054805D01*
X116791071Y-49054805D02*
X116743452Y-48959567D01*
X116743452Y-48959567D02*
X116648214Y-48911948D01*
X116648214Y-48911948D02*
X116457738Y-48911948D01*
X116457738Y-48911948D02*
X116362500Y-48959567D01*
X116791071Y-49530995D02*
X116695833Y-49578614D01*
X116695833Y-49578614D02*
X116457738Y-49578614D01*
X116457738Y-49578614D02*
X116362500Y-49530995D01*
X116362500Y-49530995D02*
X116314881Y-49435757D01*
X116314881Y-49435757D02*
X116314881Y-49340519D01*
X116314881Y-49340519D02*
X116362500Y-49245281D01*
X116362500Y-49245281D02*
X116457738Y-49197662D01*
X116457738Y-49197662D02*
X116695833Y-49197662D01*
X116695833Y-49197662D02*
X116791071Y-49150043D01*
X117267262Y-49578614D02*
X117267262Y-48911948D01*
X117267262Y-48578614D02*
X117219643Y-48626234D01*
X117219643Y-48626234D02*
X117267262Y-48673853D01*
X117267262Y-48673853D02*
X117314881Y-48626234D01*
X117314881Y-48626234D02*
X117267262Y-48578614D01*
X117267262Y-48578614D02*
X117267262Y-48673853D01*
X117886309Y-49578614D02*
X117791071Y-49530995D01*
X117791071Y-49530995D02*
X117743452Y-49435757D01*
X117743452Y-49435757D02*
X117743452Y-48578614D01*
X118267262Y-49578614D02*
X118267262Y-48578614D01*
X118695833Y-49578614D02*
X118695833Y-49054805D01*
X118695833Y-49054805D02*
X118648214Y-48959567D01*
X118648214Y-48959567D02*
X118552976Y-48911948D01*
X118552976Y-48911948D02*
X118410119Y-48911948D01*
X118410119Y-48911948D02*
X118314881Y-48959567D01*
X118314881Y-48959567D02*
X118267262Y-49007186D01*
X120343452Y-49483376D02*
X120295833Y-49530995D01*
X120295833Y-49530995D02*
X120152976Y-49578614D01*
X120152976Y-49578614D02*
X120057738Y-49578614D01*
X120057738Y-49578614D02*
X119914881Y-49530995D01*
X119914881Y-49530995D02*
X119819643Y-49435757D01*
X119819643Y-49435757D02*
X119772024Y-49340519D01*
X119772024Y-49340519D02*
X119724405Y-49150043D01*
X119724405Y-49150043D02*
X119724405Y-49007186D01*
X119724405Y-49007186D02*
X119772024Y-48816710D01*
X119772024Y-48816710D02*
X119819643Y-48721472D01*
X119819643Y-48721472D02*
X119914881Y-48626234D01*
X119914881Y-48626234D02*
X120057738Y-48578614D01*
X120057738Y-48578614D02*
X120152976Y-48578614D01*
X120152976Y-48578614D02*
X120295833Y-48626234D01*
X120295833Y-48626234D02*
X120343452Y-48673853D01*
X120772024Y-49578614D02*
X120772024Y-48578614D01*
X121200595Y-49578614D02*
X121200595Y-49054805D01*
X121200595Y-49054805D02*
X121152976Y-48959567D01*
X121152976Y-48959567D02*
X121057738Y-48911948D01*
X121057738Y-48911948D02*
X120914881Y-48911948D01*
X120914881Y-48911948D02*
X120819643Y-48959567D01*
X120819643Y-48959567D02*
X120772024Y-49007186D01*
X121819643Y-49578614D02*
X121724405Y-49530995D01*
X121724405Y-49530995D02*
X121676786Y-49483376D01*
X121676786Y-49483376D02*
X121629167Y-49388138D01*
X121629167Y-49388138D02*
X121629167Y-49102424D01*
X121629167Y-49102424D02*
X121676786Y-49007186D01*
X121676786Y-49007186D02*
X121724405Y-48959567D01*
X121724405Y-48959567D02*
X121819643Y-48911948D01*
X121819643Y-48911948D02*
X121962500Y-48911948D01*
X121962500Y-48911948D02*
X122057738Y-48959567D01*
X122057738Y-48959567D02*
X122105357Y-49007186D01*
X122105357Y-49007186D02*
X122152976Y-49102424D01*
X122152976Y-49102424D02*
X122152976Y-49388138D01*
X122152976Y-49388138D02*
X122105357Y-49483376D01*
X122105357Y-49483376D02*
X122057738Y-49530995D01*
X122057738Y-49530995D02*
X121962500Y-49578614D01*
X121962500Y-49578614D02*
X121819643Y-49578614D01*
X123010119Y-49530995D02*
X122914881Y-49578614D01*
X122914881Y-49578614D02*
X122724405Y-49578614D01*
X122724405Y-49578614D02*
X122629167Y-49530995D01*
X122629167Y-49530995D02*
X122581548Y-49483376D01*
X122581548Y-49483376D02*
X122533929Y-49388138D01*
X122533929Y-49388138D02*
X122533929Y-49102424D01*
X122533929Y-49102424D02*
X122581548Y-49007186D01*
X122581548Y-49007186D02*
X122629167Y-48959567D01*
X122629167Y-48959567D02*
X122724405Y-48911948D01*
X122724405Y-48911948D02*
X122914881Y-48911948D01*
X122914881Y-48911948D02*
X123010119Y-48959567D01*
%LPC*%
D11*
X119062500Y-80168750D03*
D12*
X113562500Y-80168750D03*
X113982500Y-80168750D03*
D13*
X114062500Y-83918750D03*
X114062500Y-83968750D03*
X114662500Y-84868750D03*
X116522500Y-85248750D03*
D14*
X119062500Y-80168750D03*
D13*
X119062500Y-86068750D03*
X121662500Y-85918750D03*
X122872500Y-82708750D03*
D12*
X124142500Y-80168750D03*
D15*
X124212500Y-75168750D03*
D12*
X124562500Y-80168750D03*
X113562500Y-102393750D03*
X113982500Y-102393750D03*
D13*
X114062500Y-106143750D03*
X114062500Y-106193750D03*
X114662500Y-107093750D03*
X116522500Y-107473750D03*
D14*
X119062500Y-102393750D03*
D13*
X119062500Y-108293750D03*
X121662500Y-108143750D03*
X122872500Y-104933750D03*
D12*
X124142500Y-102393750D03*
D15*
X124212500Y-97393750D03*
D12*
X124562500Y-102393750D03*
D16*
X119062500Y-57711234D03*
D12*
X113562500Y-57711234D03*
X113982500Y-57711234D03*
D13*
X114062500Y-61461234D03*
X114062500Y-61511234D03*
X114662500Y-62411234D03*
X116522500Y-62791234D03*
D14*
X119062500Y-57711234D03*
D13*
X119062500Y-63611234D03*
X121662500Y-63461234D03*
X122872500Y-60251234D03*
D12*
X124142500Y-57711234D03*
D15*
X124212500Y-52711234D03*
D12*
X124562500Y-57711234D03*
M02*
