M48
; DRILL file {KiCad (7.0.0)} date Fri Sep 22 15:52:32 2023
; FORMAT={-:-/ absolute / metric / decimal}
; #@! TF.CreationDate,2023-09-22T15:52:32-05:00
; #@! TF.GenerationSoftware,Kicad,Pcbnew,(7.0.0)
; #@! TF.FileFunction,NonPlated,1,2,NPTH
FMAT,2
METRIC
; #@! TA.AperFunction,NonPlated,NPTH,ComponentDrill
T1C1.000
; #@! TA.AperFunction,NonPlated,NPTH,ComponentDrill
T2C1.600
; #@! TA.AperFunction,NonPlated,NPTH,ComponentDrill
T3C1.702
; #@! TA.AperFunction,NonPlated,NPTH,ComponentDrill
T4C3.000
; #@! TA.AperFunction,NonPlated,NPTH,ComponentDrill
T5C3.400
; #@! TA.AperFunction,NonPlated,NPTH,ComponentDrill
T6C5.000
%
G90
G05
T1
X119.062Y-80.169
T2
X124.212Y-52.711
X124.212Y-75.169
X124.212Y-97.394
T3
X113.562Y-57.711
X113.562Y-80.169
X113.562Y-102.394
X113.983Y-57.711
X113.983Y-80.169
X113.983Y-102.394
X124.142Y-57.711
X124.142Y-80.169
X124.142Y-102.394
X124.562Y-57.711
X124.562Y-80.169
X124.562Y-102.394
T4
X114.062Y-61.461
X114.062Y-61.511
X114.062Y-83.919
X114.062Y-83.969
X114.062Y-106.144
X114.062Y-106.194
X114.662Y-62.411
X114.662Y-84.869
X114.662Y-107.094
X116.522Y-62.791
X116.522Y-85.249
X116.522Y-107.474
X119.062Y-63.611
X119.062Y-86.069
X119.062Y-108.294
X121.662Y-63.461
X121.662Y-85.919
X121.662Y-108.144
X122.872Y-60.251
X122.872Y-82.709
X122.872Y-104.934
T5
X119.062Y-57.711
T6
X119.062Y-57.711
X119.062Y-80.169
X119.062Y-102.394
T0
M30
