G04 #@! TF.GenerationSoftware,KiCad,Pcbnew,(7.0.0)*
G04 #@! TF.CreationDate,2023-09-22T15:52:12-05:00*
G04 #@! TF.ProjectId,stab_tester,73746162-5f74-4657-9374-65722e6b6963,rev?*
G04 #@! TF.SameCoordinates,Original*
G04 #@! TF.FileFunction,Soldermask,Top*
G04 #@! TF.FilePolarity,Negative*
%FSLAX46Y46*%
G04 Gerber Fmt 4.6, Leading zero omitted, Abs format (unit mm)*
G04 Created by KiCad (PCBNEW (7.0.0)) date 2023-09-22 15:52:12*
%MOMM*%
%LPD*%
G01*
G04 APERTURE LIST*
%ADD10C,1.000000*%
%ADD11C,1.701800*%
%ADD12C,3.000000*%
%ADD13C,5.000000*%
%ADD14C,0.990600*%
%ADD15C,3.400000*%
G04 APERTURE END LIST*
D10*
X119062500Y-80168750D03*
D11*
X113562500Y-80168750D03*
X113982500Y-80168750D03*
D12*
X114062500Y-83918750D03*
X114062500Y-83968750D03*
X114662500Y-84868750D03*
X116522500Y-85248750D03*
D13*
X119062500Y-80168750D03*
D12*
X119062500Y-86068750D03*
X121662500Y-85918750D03*
X122872500Y-82708750D03*
D11*
X124142500Y-80168750D03*
D14*
X124212500Y-75168750D03*
D11*
X124562500Y-80168750D03*
X113562500Y-102393750D03*
X113982500Y-102393750D03*
D12*
X114062500Y-106143750D03*
X114062500Y-106193750D03*
X114662500Y-107093750D03*
X116522500Y-107473750D03*
D13*
X119062500Y-102393750D03*
D12*
X119062500Y-108293750D03*
X121662500Y-108143750D03*
X122872500Y-104933750D03*
D11*
X124142500Y-102393750D03*
D14*
X124212500Y-97393750D03*
D11*
X124562500Y-102393750D03*
D15*
X119062500Y-57711234D03*
D11*
X113562500Y-57711234D03*
X113982500Y-57711234D03*
D12*
X114062500Y-61461234D03*
X114062500Y-61511234D03*
X114662500Y-62411234D03*
X116522500Y-62791234D03*
D13*
X119062500Y-57711234D03*
D12*
X119062500Y-63611234D03*
X121662500Y-63461234D03*
X122872500Y-60251234D03*
D11*
X124142500Y-57711234D03*
D14*
X124212500Y-52711234D03*
D11*
X124562500Y-57711234D03*
M02*
