<?xml version="1.0" encoding="UTF-8"?>
<!-- Generated by SVGo -->
<svg width="338.615mm" height="133.826mm" viewBox="0.000 0.000 338.615 133.826" xmlns="http://www.w3.org/2000/svg" xmlns:xlink="http://www.w3.org/1999/xlink">
<polygon points="333.614,128.826 5.001,128.826 5.001,5.000 333.614,5.000" style="fill:none;stroke-width:0.050000mm;stroke:black"/>
<polygon points="128.968,112.300 128.968,113.300 128.169,113.300 128.169,116.399 128.968,116.399 128.968,117.000 89.344,117.000 89.344,113.770 82.594,113.770 82.594,117.000 81.769,117.000 81.769,119.800 82.594,119.800 82.594,126.070 84.319,126.070 84.319,127.270 87.619,127.270 87.619,126.070 89.344,126.070 89.344,121.600 128.968,121.600 128.968,122.200 128.169,122.200 128.169,125.300 128.968,125.300 128.968,126.300 142.969,126.300 142.969,125.300 143.769,125.300 143.769,122.200 142.969,122.200 142.969,121.600 182.594,121.600 182.594,126.070 184.319,126.070 184.319,127.270 187.619,127.270 187.619,126.070 189.344,126.070 189.344,119.800 190.169,119.800 190.169,117.000 189.344,117.000 189.344,113.770 182.594,113.770 182.594,117.000 142.969,117.000 142.969,116.399 143.769,116.399 143.769,113.300 142.969,113.300 142.969,112.300" style="fill:none;stroke-width:0.050000mm;stroke:black"/>
<polygon points="9.907,112.300 9.907,113.300 9.107,113.300 9.107,116.399 9.907,116.399 9.907,122.200 9.107,122.200 9.107,125.300 9.907,125.300 9.907,126.300 23.907,126.300 23.907,125.300 24.707,125.300 24.707,122.200 23.907,122.200 23.907,116.399 24.707,116.399 24.707,113.300 23.907,113.300 23.907,112.300" style="fill:none;stroke-width:0.050000mm;stroke:black"/>
<polygon points="33.719,112.300 33.719,113.300 32.919,113.300 32.919,116.399 33.719,116.399 33.719,122.200 32.919,122.200 32.919,125.300 33.719,125.300 33.719,126.300 47.719,126.300 47.719,125.300 48.519,125.300 48.519,122.200 47.719,122.200 47.719,116.399 48.519,116.399 48.519,113.300 47.719,113.300 47.719,112.300" style="fill:none;stroke-width:0.050000mm;stroke:black"/>
<polygon points="57.532,112.300 57.532,113.300 56.732,113.300 56.732,116.399 57.532,116.399 57.532,122.200 56.732,122.200 56.732,125.300 57.532,125.300 57.532,126.300 71.532,126.300 71.532,125.300 72.332,125.300 72.332,122.200 71.532,122.200 71.532,116.399 72.332,116.399 72.332,113.300 71.532,113.300 71.532,112.300" style="fill:none;stroke-width:0.050000mm;stroke:black"/>
<polygon points="200.407,112.300 200.407,113.300 199.607,113.300 199.607,116.399 200.407,116.399 200.407,122.200 199.607,122.200 199.607,125.300 200.407,125.300 200.407,126.300 214.407,126.300 214.407,125.300 215.207,125.300 215.207,122.200 214.407,122.200 214.407,116.399 215.207,116.399 215.207,113.300 214.407,113.300 214.407,112.300" style="fill:none;stroke-width:0.050000mm;stroke:black"/>
<polygon points="224.219,112.300 224.219,113.300 223.419,113.300 223.419,116.399 224.219,116.399 224.219,122.200 223.419,122.200 223.419,125.300 224.219,125.300 224.219,126.300 238.219,126.300 238.219,125.300 239.019,125.300 239.019,122.200 238.219,122.200 238.219,116.399 239.019,116.399 239.019,113.300 238.219,113.300 238.219,112.300" style="fill:none;stroke-width:0.050000mm;stroke:black"/>
<polygon points="248.032,112.300 248.032,113.300 247.232,113.300 247.232,116.399 248.032,116.399 248.032,122.200 247.232,122.200 247.232,125.300 248.032,125.300 248.032,126.300 262.032,126.300 262.032,125.300 262.832,125.300 262.832,122.200 262.032,122.200 262.032,116.399 262.832,116.399 262.832,113.300 262.032,113.300 262.032,112.300" style="fill:none;stroke-width:0.050000mm;stroke:black"/>
<polygon points="278.988,112.300 278.988,113.300 278.188,113.300 278.188,116.399 278.988,116.399 278.988,122.200 278.188,122.200 278.188,125.300 278.988,125.300 278.988,126.300 292.988,126.300 292.988,125.300 293.788,125.300 293.788,122.200 292.988,122.200 292.988,116.399 293.788,116.399 293.788,113.300 292.988,113.300 292.988,112.300" style="fill:none;stroke-width:0.050000mm;stroke:black"/>
<polygon points="298.038,112.300 298.038,113.300 297.238,113.300 297.238,116.399 298.038,116.399 298.038,122.200 297.238,122.200 297.238,125.300 298.038,125.300 298.038,126.300 312.038,126.300 312.038,125.300 312.838,125.300 312.838,122.200 312.038,122.200 312.038,116.399 312.838,116.399 312.838,113.300 312.038,113.300 312.038,112.300" style="fill:none;stroke-width:0.050000mm;stroke:black"/>
<polygon points="317.088,112.300 317.088,113.300 316.288,113.300 316.288,116.399 317.088,116.399 317.088,122.200 316.288,122.200 316.288,125.300 317.088,125.300 317.088,126.300 331.088,126.300 331.088,125.300 331.888,125.300 331.888,122.200 331.088,122.200 331.088,116.399 331.888,116.399 331.888,113.300 331.088,113.300 331.088,112.300" style="fill:none;stroke-width:0.050000mm;stroke:black"/>
<polygon points="19.432,93.250 19.432,94.250 18.632,94.250 18.632,97.350 19.432,97.350 19.432,97.950 17.907,97.950 17.907,94.720 11.157,94.720 11.157,97.950 10.332,97.950 10.332,100.750 11.157,100.750 11.157,107.020 12.882,107.020 12.882,108.220 16.182,108.220 16.182,107.020 17.907,107.020 17.907,102.550 19.432,102.550 19.432,103.150 18.632,103.150 18.632,106.250 19.432,106.250 19.432,107.250 33.432,107.250 33.432,106.250 34.232,106.250 34.232,103.150 33.432,103.150 33.432,102.550 34.957,102.550 34.957,107.020 36.682,107.020 36.682,108.220 39.982,108.220 39.982,107.020 41.707,107.020 41.707,100.750 42.532,100.750 42.532,97.950 41.707,97.950 41.707,94.720 34.957,94.720 34.957,97.950 33.432,97.950 33.432,97.350 34.232,97.350 34.232,94.250 33.432,94.250 33.432,93.250" style="fill:none;stroke-width:0.050000mm;stroke:black"/>
<polygon points="257.556,93.250 257.556,94.250 256.756,94.250 256.756,97.350 257.556,97.350 257.556,97.950 256.032,97.950 256.032,94.720 249.282,94.720 249.282,97.950 248.457,97.950 248.457,100.750 249.282,100.750 249.282,107.020 251.007,107.020 251.007,108.220 254.307,108.220 254.307,107.020 256.032,107.020 256.032,102.550 257.556,102.550 257.556,103.150 256.756,103.150 256.756,106.250 257.556,106.250 257.556,107.250 271.557,107.250 271.557,106.250 272.357,106.250 272.357,103.150 271.557,103.150 271.557,102.550 273.082,102.550 273.082,107.020 274.807,107.020 274.807,108.220 278.107,108.220 278.107,107.020 279.832,107.020 279.832,100.750 280.657,100.750 280.657,97.950 279.832,97.950 279.832,94.720 273.082,94.720 273.082,97.950 271.557,97.950 271.557,97.350 272.357,97.350 272.357,94.250 271.557,94.250 271.557,93.250" style="fill:none;stroke-width:0.050000mm;stroke:black"/>
<polygon points="50.388,93.250 50.388,94.250 49.588,94.250 49.588,97.350 50.388,97.350 50.388,103.150 49.588,103.150 49.588,106.250 50.388,106.250 50.388,107.250 64.388,107.250 64.388,106.250 65.188,106.250 65.188,103.150 64.388,103.150 64.388,97.350 65.188,97.350 65.188,94.250 64.388,94.250 64.388,93.250" style="fill:none;stroke-width:0.050000mm;stroke:black"/>
<polygon points="69.438,93.250 69.438,94.250 68.638,94.250 68.638,97.350 69.438,97.350 69.438,103.150 68.638,103.150 68.638,106.250 69.438,106.250 69.438,107.250 83.438,107.250 83.438,106.250 84.238,106.250 84.238,103.150 83.438,103.150 83.438,97.350 84.238,97.350 84.238,94.250 83.438,94.250 83.438,93.250" style="fill:none;stroke-width:0.050000mm;stroke:black"/>
<polygon points="88.488,93.250 88.488,94.250 87.688,94.250 87.688,97.350 88.488,97.350 88.488,103.150 87.688,103.150 87.688,106.250 88.488,106.250 88.488,107.250 102.488,107.250 102.488,106.250 103.288,106.250 103.288,103.150 102.488,103.150 102.488,97.350 103.288,97.350 103.288,94.250 102.488,94.250 102.488,93.250" style="fill:none;stroke-width:0.050000mm;stroke:black"/>
<polygon points="107.538,93.250 107.538,94.250 106.738,94.250 106.738,97.350 107.538,97.350 107.538,103.150 106.738,103.150 106.738,106.250 107.538,106.250 107.538,107.250 121.538,107.250 121.538,106.250 122.338,106.250 122.338,103.150 121.538,103.150 121.538,97.350 122.338,97.350 122.338,94.250 121.538,94.250 121.538,93.250" style="fill:none;stroke-width:0.050000mm;stroke:black"/>
<polygon points="126.588,93.250 126.588,94.250 125.788,94.250 125.788,97.350 126.588,97.350 126.588,103.150 125.788,103.150 125.788,106.250 126.588,106.250 126.588,107.250 140.588,107.250 140.588,106.250 141.388,106.250 141.388,103.150 140.588,103.150 140.588,97.350 141.388,97.350 141.388,94.250 140.588,94.250 140.588,93.250" style="fill:none;stroke-width:0.050000mm;stroke:black"/>
<polygon points="145.638,93.250 145.638,94.250 144.838,94.250 144.838,97.350 145.638,97.350 145.638,103.150 144.838,103.150 144.838,106.250 145.638,106.250 145.638,107.250 159.638,107.250 159.638,106.250 160.438,106.250 160.438,103.150 159.638,103.150 159.638,97.350 160.438,97.350 160.438,94.250 159.638,94.250 159.638,93.250" style="fill:none;stroke-width:0.050000mm;stroke:black"/>
<polygon points="164.688,93.250 164.688,94.250 163.888,94.250 163.888,97.350 164.688,97.350 164.688,103.150 163.888,103.150 163.888,106.250 164.688,106.250 164.688,107.250 178.688,107.250 178.688,106.250 179.488,106.250 179.488,103.150 178.688,103.150 178.688,97.350 179.488,97.350 179.488,94.250 178.688,94.250 178.688,93.250" style="fill:none;stroke-width:0.050000mm;stroke:black"/>
<polygon points="183.738,93.250 183.738,94.250 182.938,94.250 182.938,97.350 183.738,97.350 183.738,103.150 182.938,103.150 182.938,106.250 183.738,106.250 183.738,107.250 197.738,107.250 197.738,106.250 198.538,106.250 198.538,103.150 197.738,103.150 197.738,97.350 198.538,97.350 198.538,94.250 197.738,94.250 197.738,93.250" style="fill:none;stroke-width:0.050000mm;stroke:black"/>
<polygon points="202.788,93.250 202.788,94.250 201.988,94.250 201.988,97.350 202.788,97.350 202.788,103.150 201.988,103.150 201.988,106.250 202.788,106.250 202.788,107.250 216.788,107.250 216.788,106.250 217.588,106.250 217.588,103.150 216.788,103.150 216.788,97.350 217.588,97.350 217.588,94.250 216.788,94.250 216.788,93.250" style="fill:none;stroke-width:0.050000mm;stroke:black"/>
<polygon points="221.838,93.250 221.838,94.250 221.038,94.250 221.038,97.350 221.838,97.350 221.838,103.150 221.038,103.150 221.038,106.250 221.838,106.250 221.838,107.250 235.838,107.250 235.838,106.250 236.638,106.250 236.638,103.150 235.838,103.150 235.838,97.350 236.638,97.350 236.638,94.250 235.838,94.250 235.838,93.250" style="fill:none;stroke-width:0.050000mm;stroke:black"/>
<polygon points="298.038,93.250 298.038,94.250 297.238,94.250 297.238,97.350 298.038,97.350 298.038,103.150 297.238,103.150 297.238,106.250 298.038,106.250 298.038,107.250 312.038,107.250 312.038,106.250 312.838,106.250 312.838,103.150 312.038,103.150 312.038,97.350 312.838,97.350 312.838,94.250 312.038,94.250 312.038,93.250" style="fill:none;stroke-width:0.050000mm;stroke:black"/>
<polygon points="262.319,74.200 262.319,75.200 261.518,75.200 261.518,78.300 262.319,78.300 262.319,78.900 260.794,78.900 260.794,75.670 254.044,75.670 254.044,78.900 253.219,78.900 253.219,81.700 254.044,81.700 254.044,87.970 255.769,87.970 255.769,89.170 259.068,89.170 259.068,87.970 260.794,87.970 260.794,83.500 262.319,83.500 262.319,84.100 261.518,84.100 261.518,87.200 262.319,87.200 262.319,88.200 276.319,88.200 276.319,87.200 277.119,87.200 277.119,84.100 276.319,84.100 276.319,83.500 277.844,83.500 277.844,87.970 279.569,87.970 279.569,89.170 282.869,89.170 282.869,87.970 284.594,87.970 284.594,81.700 285.419,81.700 285.419,78.900 284.594,78.900 284.594,75.670 277.844,75.670 277.844,78.900 276.319,78.900 276.319,78.300 277.119,78.300 277.119,75.200 276.319,75.200 276.319,74.200" style="fill:none;stroke-width:0.050000mm;stroke:black"/>
<polygon points="14.669,74.200 14.669,75.200 13.869,75.200 13.869,78.300 14.669,78.300 14.669,84.100 13.869,84.100 13.869,87.200 14.669,87.200 14.669,88.200 28.669,88.200 28.669,87.200 29.469,87.200 29.469,84.100 28.669,84.100 28.669,78.300 29.469,78.300 29.469,75.200 28.669,75.200 28.669,74.200" style="fill:none;stroke-width:0.050000mm;stroke:black"/>
<polygon points="40.863,74.200 40.863,75.200 40.063,75.200 40.063,78.300 40.863,78.300 40.863,84.100 40.063,84.100 40.063,87.200 40.863,87.200 40.863,88.200 54.863,88.200 54.863,87.200 55.663,87.200 55.663,84.100 54.863,84.100 54.863,78.300 55.663,78.300 55.663,75.200 54.863,75.200 54.863,74.200" style="fill:none;stroke-width:0.050000mm;stroke:black"/>
<polygon points="59.913,74.200 59.913,75.200 59.113,75.200 59.113,78.300 59.913,78.300 59.913,84.100 59.113,84.100 59.113,87.200 59.913,87.200 59.913,88.200 73.913,88.200 73.913,87.200 74.713,87.200 74.713,84.100 73.913,84.100 73.913,78.300 74.713,78.300 74.713,75.200 73.913,75.200 73.913,74.200" style="fill:none;stroke-width:0.050000mm;stroke:black"/>
<polygon points="78.963,74.200 78.963,75.200 78.163,75.200 78.163,78.300 78.963,78.300 78.963,84.100 78.163,84.100 78.163,87.200 78.963,87.200 78.963,88.200 92.963,88.200 92.963,87.200 93.763,87.200 93.763,84.100 92.963,84.100 92.963,78.300 93.763,78.300 93.763,75.200 92.963,75.200 92.963,74.200" style="fill:none;stroke-width:0.050000mm;stroke:black"/>
<polygon points="98.013,74.200 98.013,75.200 97.213,75.200 97.213,78.300 98.013,78.300 98.013,84.100 97.213,84.100 97.213,87.200 98.013,87.200 98.013,88.200 112.013,88.200 112.013,87.200 112.813,87.200 112.813,84.100 112.013,84.100 112.013,78.300 112.813,78.300 112.813,75.200 112.013,75.200 112.013,74.200" style="fill:none;stroke-width:0.050000mm;stroke:black"/>
<polygon points="117.063,74.200 117.063,75.200 116.263,75.200 116.263,78.300 117.063,78.300 117.063,84.100 116.263,84.100 116.263,87.200 117.063,87.200 117.063,88.200 131.063,88.200 131.063,87.200 131.863,87.200 131.863,84.100 131.063,84.100 131.063,78.300 131.863,78.300 131.863,75.200 131.063,75.200 131.063,74.200" style="fill:none;stroke-width:0.050000mm;stroke:black"/>
<polygon points="136.113,74.200 136.113,75.200 135.313,75.200 135.313,78.300 136.113,78.300 136.113,84.100 135.313,84.100 135.313,87.200 136.113,87.200 136.113,88.200 150.113,88.200 150.113,87.200 150.913,87.200 150.913,84.100 150.113,84.100 150.113,78.300 150.913,78.300 150.913,75.200 150.113,75.200 150.113,74.200" style="fill:none;stroke-width:0.050000mm;stroke:black"/>
<polygon points="155.163,74.200 155.163,75.200 154.363,75.200 154.363,78.300 155.163,78.300 155.163,84.100 154.363,84.100 154.363,87.200 155.163,87.200 155.163,88.200 169.163,88.200 169.163,87.200 169.963,87.200 169.963,84.100 169.163,84.100 169.163,78.300 169.963,78.300 169.963,75.200 169.163,75.200 169.163,74.200" style="fill:none;stroke-width:0.050000mm;stroke:black"/>
<polygon points="174.213,74.200 174.213,75.200 173.413,75.200 173.413,78.300 174.213,78.300 174.213,84.100 173.413,84.100 173.413,87.200 174.213,87.200 174.213,88.200 188.213,88.200 188.213,87.200 189.013,87.200 189.013,84.100 188.213,84.100 188.213,78.300 189.013,78.300 189.013,75.200 188.213,75.200 188.213,74.200" style="fill:none;stroke-width:0.050000mm;stroke:black"/>
<polygon points="193.263,74.200 193.263,75.200 192.463,75.200 192.463,78.300 193.263,78.300 193.263,84.100 192.463,84.100 192.463,87.200 193.263,87.200 193.263,88.200 207.263,88.200 207.263,87.200 208.063,87.200 208.063,84.100 207.263,84.100 207.263,78.300 208.063,78.300 208.063,75.200 207.263,75.200 207.263,74.200" style="fill:none;stroke-width:0.050000mm;stroke:black"/>
<polygon points="212.313,74.200 212.313,75.200 211.513,75.200 211.513,78.300 212.313,78.300 212.313,84.100 211.513,84.100 211.513,87.200 212.313,87.200 212.313,88.200 226.313,88.200 226.313,87.200 227.113,87.200 227.113,84.100 226.313,84.100 226.313,78.300 227.113,78.300 227.113,75.200 226.313,75.200 226.313,74.200" style="fill:none;stroke-width:0.050000mm;stroke:black"/>
<polygon points="231.363,74.200 231.363,75.200 230.563,75.200 230.563,78.300 231.363,78.300 231.363,84.100 230.563,84.100 230.563,87.200 231.363,87.200 231.363,88.200 245.363,88.200 245.363,87.200 246.163,87.200 246.163,84.100 245.363,84.100 245.363,78.300 246.163,78.300 246.163,75.200 245.363,75.200 245.363,74.200" style="fill:none;stroke-width:0.050000mm;stroke:black"/>
<polygon points="12.288,55.150 12.288,56.150 11.488,56.150 11.488,59.250 12.288,59.250 12.288,65.050 11.488,65.050 11.488,68.150 12.288,68.150 12.288,69.150 26.288,69.150 26.288,68.150 27.088,68.150 27.088,65.050 26.288,65.050 26.288,59.250 27.088,59.250 27.088,56.150 26.288,56.150 26.288,55.150" style="fill:none;stroke-width:0.050000mm;stroke:black"/>
<polygon points="36.101,55.150 36.101,56.150 35.301,56.150 35.301,59.250 36.101,59.250 36.101,65.050 35.301,65.050 35.301,68.150 36.101,68.150 36.101,69.150 50.101,69.150 50.101,68.150 50.901,68.150 50.901,65.050 50.101,65.050 50.101,59.250 50.901,59.250 50.901,56.150 50.101,56.150 50.101,55.150" style="fill:none;stroke-width:0.050000mm;stroke:black"/>
<polygon points="55.151,55.150 55.151,56.150 54.351,56.150 54.351,59.250 55.151,59.250 55.151,65.050 54.351,65.050 54.351,68.150 55.151,68.150 55.151,69.150 69.151,69.150 69.151,68.150 69.951,68.150 69.951,65.050 69.151,65.050 69.151,59.250 69.951,59.250 69.951,56.150 69.151,56.150 69.151,55.150" style="fill:none;stroke-width:0.050000mm;stroke:black"/>
<polygon points="74.201,55.150 74.201,56.150 73.401,56.150 73.401,59.250 74.201,59.250 74.201,65.050 73.401,65.050 73.401,68.150 74.201,68.150 74.201,69.150 88.201,69.150 88.201,68.150 89.001,68.150 89.001,65.050 88.201,65.050 88.201,59.250 89.001,59.250 89.001,56.150 88.201,56.150 88.201,55.150" style="fill:none;stroke-width:0.050000mm;stroke:black"/>
<polygon points="93.251,55.150 93.251,56.150 92.451,56.150 92.451,59.250 93.251,59.250 93.251,65.050 92.451,65.050 92.451,68.150 93.251,68.150 93.251,69.150 107.251,69.150 107.251,68.150 108.051,68.150 108.051,65.050 107.251,65.050 107.251,59.250 108.051,59.250 108.051,56.150 107.251,56.150 107.251,55.150" style="fill:none;stroke-width:0.050000mm;stroke:black"/>
<polygon points="112.301,55.150 112.301,56.150 111.501,56.150 111.501,59.250 112.301,59.250 112.301,65.050 111.501,65.050 111.501,68.150 112.301,68.150 112.301,69.150 126.301,69.150 126.301,68.150 127.101,68.150 127.101,65.050 126.301,65.050 126.301,59.250 127.101,59.250 127.101,56.150 126.301,56.150 126.301,55.150" style="fill:none;stroke-width:0.050000mm;stroke:black"/>
<polygon points="131.351,55.150 131.351,56.150 130.550,56.150 130.550,59.250 131.351,59.250 131.351,65.050 130.550,65.050 130.550,68.150 131.351,68.150 131.351,69.150 145.351,69.150 145.351,68.150 146.151,68.150 146.151,65.050 145.351,65.050 145.351,59.250 146.151,59.250 146.151,56.150 145.351,56.150 145.351,55.150" style="fill:none;stroke-width:0.050000mm;stroke:black"/>
<polygon points="150.401,55.150 150.401,56.150 149.601,56.150 149.601,59.250 150.401,59.250 150.401,65.050 149.601,65.050 149.601,68.150 150.401,68.150 150.401,69.150 164.401,69.150 164.401,68.150 165.201,68.150 165.201,65.050 164.401,65.050 164.401,59.250 165.201,59.250 165.201,56.150 164.401,56.150 164.401,55.150" style="fill:none;stroke-width:0.050000mm;stroke:black"/>
<polygon points="169.451,55.150 169.451,56.150 168.651,56.150 168.651,59.250 169.451,59.250 169.451,65.050 168.651,65.050 168.651,68.150 169.451,68.150 169.451,69.150 183.451,69.150 183.451,68.150 184.251,68.150 184.251,65.050 183.451,65.050 183.451,59.250 184.251,59.250 184.251,56.150 183.451,56.150 183.451,55.150" style="fill:none;stroke-width:0.050000mm;stroke:black"/>
<polygon points="188.501,55.150 188.501,56.150 187.701,56.150 187.701,59.250 188.501,59.250 188.501,65.050 187.701,65.050 187.701,68.150 188.501,68.150 188.501,69.150 202.501,69.150 202.501,68.150 203.301,68.150 203.301,65.050 202.501,65.050 202.501,59.250 203.301,59.250 203.301,56.150 202.501,56.150 202.501,55.150" style="fill:none;stroke-width:0.050000mm;stroke:black"/>
<polygon points="207.551,55.150 207.551,56.150 206.751,56.150 206.751,59.250 207.551,59.250 207.551,65.050 206.751,65.050 206.751,68.150 207.551,68.150 207.551,69.150 221.551,69.150 221.551,68.150 222.351,68.150 222.351,65.050 221.551,65.050 221.551,59.250 222.351,59.250 222.351,56.150 221.551,56.150 221.551,55.150" style="fill:none;stroke-width:0.050000mm;stroke:black"/>
<polygon points="226.601,55.150 226.601,56.150 225.801,56.150 225.801,59.250 226.601,59.250 226.601,65.050 225.801,65.050 225.801,68.150 226.601,68.150 226.601,69.150 240.601,69.150 240.601,68.150 241.401,68.150 241.401,65.050 240.601,65.050 240.601,59.250 241.401,59.250 241.401,56.150 240.601,56.150 240.601,55.150" style="fill:none;stroke-width:0.050000mm;stroke:black"/>
<polygon points="245.651,55.150 245.651,56.150 244.851,56.150 244.851,59.250 245.651,59.250 245.651,65.050 244.851,65.050 244.851,68.150 245.651,68.150 245.651,69.150 259.650,69.150 259.650,68.150 260.451,68.150 260.451,65.050 259.650,65.050 259.650,59.250 260.451,59.250 260.451,56.150 259.650,56.150 259.650,55.150" style="fill:none;stroke-width:0.050000mm;stroke:black"/>
<polygon points="269.463,55.150 269.463,56.150 268.663,56.150 268.663,59.250 269.463,59.250 269.463,65.050 268.663,65.050 268.663,68.150 269.463,68.150 269.463,69.150 283.463,69.150 283.463,68.150 284.263,68.150 284.263,65.050 283.463,65.050 283.463,59.250 284.263,59.250 284.263,56.150 283.463,56.150 283.463,55.150" style="fill:none;stroke-width:0.050000mm;stroke:black"/>
<polygon points="298.038,55.150 298.038,56.150 297.238,56.150 297.238,59.250 298.038,59.250 298.038,65.050 297.238,65.050 297.238,68.150 298.038,68.150 298.038,69.150 312.038,69.150 312.038,68.150 312.838,68.150 312.838,65.050 312.038,65.050 312.038,59.250 312.838,59.250 312.838,56.150 312.038,56.150 312.038,55.150" style="fill:none;stroke-width:0.050000mm;stroke:black"/>
<polygon points="317.088,55.150 317.088,56.150 316.288,56.150 316.288,59.250 317.088,59.250 317.088,65.050 316.288,65.050 316.288,68.150 317.088,68.150 317.088,69.150 331.088,69.150 331.088,68.150 331.888,68.150 331.888,65.050 331.088,65.050 331.088,59.250 331.888,59.250 331.888,56.150 331.088,56.150 331.088,55.150" style="fill:none;stroke-width:0.050000mm;stroke:black"/>
<polygon points="264.701,36.100 264.701,37.100 263.901,37.100 263.901,40.200 264.701,40.200 264.701,40.800 263.176,40.800 263.176,37.570 256.426,37.570 256.426,40.800 255.601,40.800 255.601,43.600 256.426,43.600 256.426,49.870 258.150,49.870 258.150,51.070 261.451,51.070 261.451,49.870 263.176,49.870 263.176,45.400 264.701,45.400 264.701,46.000 263.901,46.000 263.901,49.100 264.701,49.100 264.701,50.100 278.701,50.100 278.701,49.100 279.501,49.100 279.501,46.000 278.701,46.000 278.701,45.400 280.226,45.400 280.226,49.870 281.951,49.870 281.951,51.070 285.251,51.070 285.251,49.870 286.976,49.870 286.976,43.600 287.801,43.600 287.801,40.800 286.976,40.800 286.976,37.570 280.226,37.570 280.226,40.800 278.701,40.800 278.701,40.200 279.501,40.200 279.501,37.100 278.701,37.100 278.701,36.100" style="fill:none;stroke-width:0.050000mm;stroke:black"/>
<polygon points="7.526,36.100 7.526,37.100 6.726,37.100 6.726,40.200 7.526,40.200 7.526,46.000 6.726,46.000 6.726,49.100 7.526,49.100 7.526,50.100 21.526,50.100 21.526,49.100 22.326,49.100 22.326,46.000 21.526,46.000 21.526,40.200 22.326,40.200 22.326,37.100 21.526,37.100 21.526,36.100" style="fill:none;stroke-width:0.050000mm;stroke:black"/>
<polygon points="26.576,36.100 26.576,37.100 25.776,37.100 25.776,40.200 26.576,40.200 26.576,46.000 25.776,46.000 25.776,49.100 26.576,49.100 26.576,50.100 40.576,50.100 40.576,49.100 41.376,49.100 41.376,46.000 40.576,46.000 40.576,40.200 41.376,40.200 41.376,37.100 40.576,37.100 40.576,36.100" style="fill:none;stroke-width:0.050000mm;stroke:black"/>
<polygon points="45.626,36.100 45.626,37.100 44.826,37.100 44.826,40.200 45.626,40.200 45.626,46.000 44.826,46.000 44.826,49.100 45.626,49.100 45.626,50.100 59.626,50.100 59.626,49.100 60.426,49.100 60.426,46.000 59.626,46.000 59.626,40.200 60.426,40.200 60.426,37.100 59.626,37.100 59.626,36.100" style="fill:none;stroke-width:0.050000mm;stroke:black"/>
<polygon points="64.676,36.100 64.676,37.100 63.876,37.100 63.876,40.200 64.676,40.200 64.676,46.000 63.876,46.000 63.876,49.100 64.676,49.100 64.676,50.100 78.676,50.100 78.676,49.100 79.476,49.100 79.476,46.000 78.676,46.000 78.676,40.200 79.476,40.200 79.476,37.100 78.676,37.100 78.676,36.100" style="fill:none;stroke-width:0.050000mm;stroke:black"/>
<polygon points="83.726,36.100 83.726,37.100 82.926,37.100 82.926,40.200 83.726,40.200 83.726,46.000 82.926,46.000 82.926,49.100 83.726,49.100 83.726,50.100 97.726,50.100 97.726,49.100 98.525,49.100 98.525,46.000 97.726,46.000 97.726,40.200 98.525,40.200 98.525,37.100 97.726,37.100 97.726,36.100" style="fill:none;stroke-width:0.050000mm;stroke:black"/>
<polygon points="102.775,36.100 102.775,37.100 101.976,37.100 101.976,40.200 102.775,40.200 102.775,46.000 101.976,46.000 101.976,49.100 102.775,49.100 102.775,50.100 116.775,50.100 116.775,49.100 117.575,49.100 117.575,46.000 116.775,46.000 116.775,40.200 117.575,40.200 117.575,37.100 116.775,37.100 116.775,36.100" style="fill:none;stroke-width:0.050000mm;stroke:black"/>
<polygon points="121.825,36.100 121.825,37.100 121.025,37.100 121.025,40.200 121.825,40.200 121.825,46.000 121.025,46.000 121.025,49.100 121.825,49.100 121.825,50.100 135.826,50.100 135.826,49.100 136.626,49.100 136.626,46.000 135.826,46.000 135.826,40.200 136.626,40.200 136.626,37.100 135.826,37.100 135.826,36.100" style="fill:none;stroke-width:0.050000mm;stroke:black"/>
<polygon points="140.876,36.100 140.876,37.100 140.076,37.100 140.076,40.200 140.876,40.200 140.876,46.000 140.076,46.000 140.076,49.100 140.876,49.100 140.876,50.100 154.876,50.100 154.876,49.100 155.676,49.100 155.676,46.000 154.876,46.000 154.876,40.200 155.676,40.200 155.676,37.100 154.876,37.100 154.876,36.100" style="fill:none;stroke-width:0.050000mm;stroke:black"/>
<polygon points="159.926,36.100 159.926,37.100 159.126,37.100 159.126,40.200 159.926,40.200 159.926,46.000 159.126,46.000 159.126,49.100 159.926,49.100 159.926,50.100 173.926,50.100 173.926,49.100 174.726,49.100 174.726,46.000 173.926,46.000 173.926,40.200 174.726,40.200 174.726,37.100 173.926,37.100 173.926,36.100" style="fill:none;stroke-width:0.050000mm;stroke:black"/>
<polygon points="178.976,36.100 178.976,37.100 178.176,37.100 178.176,40.200 178.976,40.200 178.976,46.000 178.176,46.000 178.176,49.100 178.976,49.100 178.976,50.100 192.976,50.100 192.976,49.100 193.776,49.100 193.776,46.000 192.976,46.000 192.976,40.200 193.776,40.200 193.776,37.100 192.976,37.100 192.976,36.100" style="fill:none;stroke-width:0.050000mm;stroke:black"/>
<polygon points="198.026,36.100 198.026,37.100 197.226,37.100 197.226,40.200 198.026,40.200 198.026,46.000 197.226,46.000 197.226,49.100 198.026,49.100 198.026,50.100 212.026,50.100 212.026,49.100 212.826,49.100 212.826,46.000 212.026,46.000 212.026,40.200 212.826,40.200 212.826,37.100 212.026,37.100 212.026,36.100" style="fill:none;stroke-width:0.050000mm;stroke:black"/>
<polygon points="217.076,36.100 217.076,37.100 216.276,37.100 216.276,40.200 217.076,40.200 217.076,46.000 216.276,46.000 216.276,49.100 217.076,49.100 217.076,50.100 231.076,50.100 231.076,49.100 231.876,49.100 231.876,46.000 231.076,46.000 231.076,40.200 231.876,40.200 231.876,37.100 231.076,37.100 231.076,36.100" style="fill:none;stroke-width:0.050000mm;stroke:black"/>
<polygon points="236.126,36.100 236.126,37.100 235.326,37.100 235.326,40.200 236.126,40.200 236.126,46.000 235.326,46.000 235.326,49.100 236.126,49.100 236.126,50.100 250.126,50.100 250.126,49.100 250.926,49.100 250.926,46.000 250.126,46.000 250.126,40.200 250.926,40.200 250.926,37.100 250.126,37.100 250.126,36.100" style="fill:none;stroke-width:0.050000mm;stroke:black"/>
<polygon points="298.038,36.100 298.038,37.100 297.238,37.100 297.238,40.200 298.038,40.200 298.038,46.000 297.238,46.000 297.238,49.100 298.038,49.100 298.038,50.100 312.038,50.100 312.038,49.100 312.838,49.100 312.838,46.000 312.038,46.000 312.038,40.200 312.838,40.200 312.838,37.100 312.038,37.100 312.038,36.100" style="fill:none;stroke-width:0.050000mm;stroke:black"/>
<polygon points="317.088,36.100 317.088,37.100 316.288,37.100 316.288,40.200 317.088,40.200 317.088,46.000 316.288,46.000 316.288,49.100 317.088,49.100 317.088,50.100 331.088,50.100 331.088,49.100 331.888,49.100 331.888,46.000 331.088,46.000 331.088,40.200 331.888,40.200 331.888,37.100 331.088,37.100 331.088,36.100" style="fill:none;stroke-width:0.050000mm;stroke:black"/>
<polygon points="7.526,12.287 7.526,13.287 6.726,13.287 6.726,16.387 7.526,16.387 7.526,22.187 6.726,22.187 6.726,25.287 7.526,25.287 7.526,26.287 21.526,26.287 21.526,25.287 22.326,25.287 22.326,22.187 21.526,22.187 21.526,16.387 22.326,16.387 22.326,13.287 21.526,13.287 21.526,12.287" style="fill:none;stroke-width:0.050000mm;stroke:black"/>
<polygon points="45.626,12.287 45.626,13.287 44.826,13.287 44.826,16.387 45.626,16.387 45.626,22.187 44.826,22.187 44.826,25.287 45.626,25.287 45.626,26.287 59.626,26.287 59.626,25.287 60.426,25.287 60.426,22.187 59.626,22.187 59.626,16.387 60.426,16.387 60.426,13.287 59.626,13.287 59.626,12.287" style="fill:none;stroke-width:0.050000mm;stroke:black"/>
<polygon points="64.676,12.287 64.676,13.287 63.876,13.287 63.876,16.387 64.676,16.387 64.676,22.187 63.876,22.187 63.876,25.287 64.676,25.287 64.676,26.287 78.676,26.287 78.676,25.287 79.476,25.287 79.476,22.187 78.676,22.187 78.676,16.387 79.476,16.387 79.476,13.287 78.676,13.287 78.676,12.287" style="fill:none;stroke-width:0.050000mm;stroke:black"/>
<polygon points="83.726,12.287 83.726,13.287 82.926,13.287 82.926,16.387 83.726,16.387 83.726,22.187 82.926,22.187 82.926,25.287 83.726,25.287 83.726,26.287 97.726,26.287 97.726,25.287 98.525,25.287 98.525,22.187 97.726,22.187 97.726,16.387 98.525,16.387 98.525,13.287 97.726,13.287 97.726,12.287" style="fill:none;stroke-width:0.050000mm;stroke:black"/>
<polygon points="102.775,12.287 102.775,13.287 101.976,13.287 101.976,16.387 102.775,16.387 102.775,22.187 101.976,22.187 101.976,25.287 102.775,25.287 102.775,26.287 116.775,26.287 116.775,25.287 117.575,25.287 117.575,22.187 116.775,22.187 116.775,16.387 117.575,16.387 117.575,13.287 116.775,13.287 116.775,12.287" style="fill:none;stroke-width:0.050000mm;stroke:black"/>
<polygon points="131.351,12.287 131.351,13.287 130.550,13.287 130.550,16.387 131.351,16.387 131.351,22.187 130.550,22.187 130.550,25.287 131.351,25.287 131.351,26.287 145.351,26.287 145.351,25.287 146.151,25.287 146.151,22.187 145.351,22.187 145.351,16.387 146.151,16.387 146.151,13.287 145.351,13.287 145.351,12.287" style="fill:none;stroke-width:0.050000mm;stroke:black"/>
<polygon points="150.401,12.287 150.401,13.287 149.601,13.287 149.601,16.387 150.401,16.387 150.401,22.187 149.601,22.187 149.601,25.287 150.401,25.287 150.401,26.287 164.401,26.287 164.401,25.287 165.201,25.287 165.201,22.187 164.401,22.187 164.401,16.387 165.201,16.387 165.201,13.287 164.401,13.287 164.401,12.287" style="fill:none;stroke-width:0.050000mm;stroke:black"/>
<polygon points="169.451,12.287 169.451,13.287 168.651,13.287 168.651,16.387 169.451,16.387 169.451,22.187 168.651,22.187 168.651,25.287 169.451,25.287 169.451,26.287 183.451,26.287 183.451,25.287 184.251,25.287 184.251,22.187 183.451,22.187 183.451,16.387 184.251,16.387 184.251,13.287 183.451,13.287 183.451,12.287" style="fill:none;stroke-width:0.050000mm;stroke:black"/>
<polygon points="188.501,12.287 188.501,13.287 187.701,13.287 187.701,16.387 188.501,16.387 188.501,22.187 187.701,22.187 187.701,25.287 188.501,25.287 188.501,26.287 202.501,26.287 202.501,25.287 203.301,25.287 203.301,22.187 202.501,22.187 202.501,16.387 203.301,16.387 203.301,13.287 202.501,13.287 202.501,12.287" style="fill:none;stroke-width:0.050000mm;stroke:black"/>
<polygon points="217.076,12.287 217.076,13.287 216.276,13.287 216.276,16.387 217.076,16.387 217.076,22.187 216.276,22.187 216.276,25.287 217.076,25.287 217.076,26.287 231.076,26.287 231.076,25.287 231.876,25.287 231.876,22.187 231.076,22.187 231.076,16.387 231.876,16.387 231.876,13.287 231.076,13.287 231.076,12.287" style="fill:none;stroke-width:0.050000mm;stroke:black"/>
<polygon points="236.126,12.287 236.126,13.287 235.326,13.287 235.326,16.387 236.126,16.387 236.126,22.187 235.326,22.187 235.326,25.287 236.126,25.287 236.126,26.287 250.126,26.287 250.126,25.287 250.926,25.287 250.926,22.187 250.126,22.187 250.126,16.387 250.926,16.387 250.926,13.287 250.126,13.287 250.126,12.287" style="fill:none;stroke-width:0.050000mm;stroke:black"/>
<polygon points="255.176,12.287 255.176,13.287 254.376,13.287 254.376,16.387 255.176,16.387 255.176,22.187 254.376,22.187 254.376,25.287 255.176,25.287 255.176,26.287 269.176,26.287 269.176,25.287 269.976,25.287 269.976,22.187 269.176,22.187 269.176,16.387 269.976,16.387 269.976,13.287 269.176,13.287 269.176,12.287" style="fill:none;stroke-width:0.050000mm;stroke:black"/>
<polygon points="274.226,12.287 274.226,13.287 273.426,13.287 273.426,16.387 274.226,16.387 274.226,22.187 273.426,22.187 273.426,25.287 274.226,25.287 274.226,26.287 288.226,26.287 288.226,25.287 289.026,25.287 289.026,22.187 288.226,22.187 288.226,16.387 289.026,16.387 289.026,13.287 288.226,13.287 288.226,12.287" style="fill:none;stroke-width:0.050000mm;stroke:black"/>
<polygon points="298.038,12.287 298.038,13.287 297.238,13.287 297.238,16.387 298.038,16.387 298.038,22.187 297.238,22.187 297.238,25.287 298.038,25.287 298.038,26.287 312.038,26.287 312.038,25.287 312.838,25.287 312.838,22.187 312.038,22.187 312.038,16.387 312.838,16.387 312.838,13.287 312.038,13.287 312.038,12.287" style="fill:none;stroke-width:0.050000mm;stroke:black"/>
<polygon points="317.088,12.287 317.088,13.287 316.288,13.287 316.288,16.387 317.088,16.387 317.088,22.187 316.288,22.187 316.288,25.287 317.088,25.287 317.088,26.287 331.088,26.287 331.088,25.287 331.888,25.287 331.888,22.187 331.088,22.187 331.088,16.387 331.888,16.387 331.888,13.287 331.088,13.287 331.088,12.287" style="fill:none;stroke-width:0.050000mm;stroke:black"/>
</svg>