<?xml version="1.0" standalone="no"?>
 <!DOCTYPE svg PUBLIC "-//W3C//DTD SVG 1.1//EN" 
 "http://www.w3.org/Graphics/SVG/1.1/DTD/svg11.dtd"> 
<svg
  xmlns:svg="http://www.w3.org/2000/svg"
  xmlns="http://www.w3.org/2000/svg"
  xmlns:xlink="http://www.w3.org/1999/xlink"
  version="1.1"
  width="214.6808mm" height="154.0764mm" viewBox="0.0000 0.0000 214.6808 154.0764">
<title>SVG Image created as stab_tester-Edge_Cuts.svg date 2024/02/23 08:55:11 </title>
  <desc>Image generated by PCBNEW </desc>
<g style="fill:#000000; fill-opacity:1.0000;stroke:#000000; stroke-opacity:1.0000;
stroke-linecap:round; stroke-linejoin:round;"
 transform="translate(0 0) scale(1 1)">
</g>
<g style="fill:#000000; fill-opacity:0.0; 
stroke:#000000; stroke-width:0.0000; stroke-opacity:1; 
stroke-linecap:round; stroke-linejoin:round;">
</g>
<g style="fill:#000000; fill-opacity:0.0; 
stroke:#000000; stroke-width:0.1000; stroke-opacity:1; 
stroke-linecap:round; stroke-linejoin:round;">
<path d="M0.0500 0.0500
L164.1340 0.0500
" />
<path d="M164.1340 0.0500
L164.1340 32.0540
" />
<path d="M164.1340 32.0540
L0.0500 32.0540
" />
<path d="M0.0500 32.0540
L0.0500 0.0500
" />
</g>
<g style="fill:#000000; fill-opacity:0.0; 
stroke:#000000; stroke-width:0.1200; stroke-opacity:1; 
stroke-linecap:round; stroke-linejoin:round;">
<path d="M4.8032 11.9600
L10.8033 11.9600
" />
<path d="M4.8032 24.4600
L4.8032 11.9600
" />
<path d="M4.8032 24.4600
L6.9532 24.4600
" />
<path d="M6.9532 25.4595
L6.9532 24.4600
" />
<path d="M6.9532 25.4595
L8.6532 25.4595
" />
<path d="M8.6532 24.4600
L10.8033 24.4600
" />
<path d="M8.6532 25.4595
L8.6532 24.4600
" />
<path d="M10.8033 11.9600
L10.8033 16.6395
" />
<path d="M10.8033 18.6395
L10.8033 24.4600
" />
<path d="M10.8033 18.6395
L50.7532 18.6395
" />
<path d="M50.7532 10.5895
L50.7532 16.6395
" />
<path d="M50.7532 16.6395
L10.8033 16.6395
" />
<path d="M50.7532 18.6395
L50.7532 24.6895
" />
<path d="M50.7532 24.6895
L64.8533 24.6895
" />
<path d="M64.8533 10.5895
L50.7532 10.5895
" />
<path d="M64.8533 10.5895
L64.8533 16.6395
" />
<path d="M64.8533 16.6395
L104.8032 16.6395
" />
<path d="M64.8533 24.6895
L64.8533 18.6395
" />
<path d="M104.8032 11.9600
L104.8032 16.6395
" />
<path d="M104.8032 18.6395
L64.8533 18.6395
" />
<path d="M104.8032 18.6395
L104.8032 24.4600
" />
<path d="M106.9532 24.4600
L104.8032 24.4600
" />
<path d="M106.9532 25.4595
L106.9532 24.4600
" />
<path d="M108.6532 25.4595
L106.9532 25.4595
" />
<path d="M108.6532 25.4595
L108.6532 24.4600
" />
<path d="M110.8032 11.9600
L104.8032 11.9600
" />
<path d="M110.8032 24.4600
L108.6532 24.4600
" />
<path d="M110.8032 24.4600
L110.8032 11.9600
" />
<path d="M119.0032 11.9600
L125.0032 11.9600
" />
<path d="M119.0032 24.4600
L119.0032 11.9600
" />
<path d="M119.0032 24.4600
L121.1532 24.4600
" />
<path d="M121.1532 25.4995
L121.1532 24.4600
" />
<path d="M121.1532 25.4995
L122.8532 25.4995
" />
<path d="M122.8532 24.4600
L125.0032 24.4600
" />
<path d="M122.8532 25.4995
L122.8532 24.4600
" />
<path d="M125.0032 11.9600
L125.0032 16.6395
" />
<path d="M125.0032 18.6395
L125.0032 24.4600
" />
<path d="M125.0032 18.6395
L126.9932 18.6395
" />
<path d="M126.9932 10.6295
L126.9932 16.6395
" />
<path d="M126.9932 16.6395
L125.0032 16.6395
" />
<path d="M126.9932 18.6395
L126.9932 24.6495
" />
<path d="M126.9932 24.6495
L141.0132 24.6495
" />
<path d="M141.0132 10.6295
L126.9932 10.6295
" />
<path d="M141.0132 16.6395
L141.0132 10.6295
" />
<path d="M141.0132 16.6395
L143.0032 16.6395
" />
<path d="M141.0132 24.6495
L141.0132 18.6395
" />
<path d="M143.0032 11.9600
L143.0032 16.6395
" />
<path d="M143.0032 18.6395
L141.0132 18.6395
" />
<path d="M143.0032 18.6395
L143.0032 24.4600
" />
<path d="M145.1532 24.4600
L143.0032 24.4600
" />
<path d="M145.1532 25.4995
L145.1532 24.4600
" />
<path d="M146.8533 25.4995
L145.1532 25.4995
" />
<path d="M146.8533 25.4995
L146.8533 24.4600
" />
<path d="M149.0032 11.9600
L143.0032 11.9600
" />
<path d="M149.0032 24.4600
L146.8533 24.4600
" />
<path d="M149.0032 24.4600
L149.0032 11.9600
" />
<g >
</g>
<g >
</g>
<g >
</g>
<g >
</g>
<g >
</g>
</g> 
</svg>
