%TF.GenerationSoftware,KiCad,Pcbnew,(7.0.0)*%
%TF.CreationDate,2023-11-11T14:14:49-06:00*%
%TF.ProjectId,Every83_Plate,45766572-7938-4335-9f50-6c6174652e6b,rev?*%
%TF.SameCoordinates,Original*%
%TF.FileFunction,Profile,NP*%
%FSLAX46Y46*%
G04 Gerber Fmt 4.6, Leading zero omitted, Abs format (unit mm)*
G04 Created by KiCad (PCBNEW (7.0.0)) date 2023-11-11 14:14:49*
%MOMM*%
%LPD*%
G01*
G04 APERTURE LIST*
%TA.AperFunction,Profile*%
%ADD10C,0.100000*%
%TD*%
%TA.AperFunction,Profile*%
%ADD11C,0.120000*%
%TD*%
G04 APERTURE END LIST*
D10*
X315451750Y-161336000D02*
G75*
G03*
X315451750Y-160314000I50J511000D01*
G01*
X204264250Y-36322000D02*
G75*
G03*
X204264250Y-35300000I50J511000D01*
G01*
X42483000Y-160336000D02*
X42483000Y-36322000D01*
X325451750Y-35300000D02*
G75*
G03*
X325451750Y-36322000I50J-511000D01*
G01*
X126076750Y-165336000D02*
G75*
G03*
X126076750Y-161336000I0J2000000D01*
G01*
X93076750Y-36322000D02*
X42483000Y-36322000D01*
X348451750Y-161336000D02*
X325451750Y-161336000D01*
X70076750Y-31300000D02*
G75*
G03*
X70076750Y-35300000I0J-2000000D01*
G01*
X237264250Y-165336000D02*
G75*
G03*
X237264250Y-161336000I50J2000000D01*
G01*
X292451750Y-31300000D02*
X348451750Y-31300000D01*
X376045500Y-36322000D02*
X325451750Y-36322000D01*
X70076750Y-161336000D02*
X93076750Y-161336000D01*
X103076750Y-35300000D02*
G75*
G03*
X103076750Y-36322000I50J-511000D01*
G01*
X181264250Y-31300000D02*
X237264250Y-31300000D01*
X214264250Y-160314000D02*
G75*
G03*
X214264250Y-161336000I50J-511000D01*
G01*
X292451750Y-161336000D02*
X315451750Y-161336000D01*
X315451750Y-36322000D02*
X214264250Y-36322000D01*
X237264250Y-35300000D02*
X214264250Y-35300000D01*
X181264250Y-161336000D02*
X204264250Y-161336000D01*
X376045500Y-160334500D02*
X376045500Y-36322000D01*
X103076750Y-160314000D02*
G75*
G03*
X103076750Y-161336000I50J-511000D01*
G01*
X181264250Y-161336000D02*
G75*
G03*
X181264250Y-165336000I50J-2000000D01*
G01*
X292451750Y-31300000D02*
G75*
G03*
X292451750Y-35300000I50J-2000000D01*
G01*
X348451750Y-165336000D02*
G75*
G03*
X348451750Y-161336000I50J2000000D01*
G01*
X237264250Y-35300000D02*
G75*
G03*
X237264250Y-31300000I50J2000000D01*
G01*
X181264250Y-35300000D02*
X204264250Y-35300000D01*
X237264250Y-161336000D02*
X214264250Y-161336000D01*
X348451750Y-35300000D02*
G75*
G03*
X348451750Y-31300000I50J2000000D01*
G01*
X70076750Y-35300000D02*
X93076750Y-35300000D01*
X292451750Y-161336000D02*
G75*
G03*
X292451750Y-165336000I50J-2000000D01*
G01*
X93076750Y-161336000D02*
G75*
G03*
X93076750Y-160314000I50J511000D01*
G01*
X325451750Y-160314000D02*
G75*
G03*
X325451750Y-161336000I50J-511000D01*
G01*
X181264250Y-31300000D02*
G75*
G03*
X181264250Y-35300000I50J-2000000D01*
G01*
X126076750Y-161336000D02*
X103076750Y-161336000D01*
X292451750Y-35300000D02*
X315451750Y-35300000D01*
X70076750Y-31300000D02*
X126076750Y-31300000D01*
X315451750Y-36322000D02*
G75*
G03*
X315451750Y-35300000I50J511000D01*
G01*
X214264250Y-35300000D02*
G75*
G03*
X214264250Y-36322000I50J-511000D01*
G01*
X204264250Y-161336000D02*
G75*
G03*
X204264250Y-160314000I50J511000D01*
G01*
X348451750Y-35300000D02*
X325451750Y-35300000D01*
X237264250Y-165336000D02*
X181264250Y-165336000D01*
X70076750Y-161336000D02*
G75*
G03*
X70076750Y-165336000I0J-2000000D01*
G01*
X325451750Y-160314000D02*
X376045500Y-160334500D01*
X126076750Y-35300000D02*
G75*
G03*
X126076750Y-31300000I0J2000000D01*
G01*
X103076750Y-160314000D02*
X204264250Y-160314000D01*
X126076750Y-165336000D02*
X70076750Y-165336000D01*
X126076750Y-35300000D02*
X103076750Y-35300000D01*
X93076750Y-36322000D02*
G75*
G03*
X93076750Y-35300000I50J511000D01*
G01*
X348451750Y-165336000D02*
X292451750Y-165336000D01*
X42483000Y-160336000D02*
X93076750Y-160314000D01*
X214264250Y-160314000D02*
X315451750Y-160314000D01*
X204264250Y-36322000D02*
X103076750Y-36322000D01*
D11*
%TO.C,SW12*%
X309183000Y-55373500D02*
X295083000Y-55373500D01*
X295083000Y-55373500D02*
X295083000Y-41273500D01*
X295083000Y-41273500D02*
X309183000Y-41273500D01*
X309183000Y-41273500D02*
X309183000Y-55373500D01*
%TO.C,SW53*%
X171070500Y-117286000D02*
X156970500Y-117286000D01*
X156970500Y-117286000D02*
X156970500Y-103186000D01*
X156970500Y-103186000D02*
X171070500Y-103186000D01*
X171070500Y-103186000D02*
X171070500Y-117286000D01*
%TO.C,SW55*%
X209170500Y-117286000D02*
X195070500Y-117286000D01*
X195070500Y-117286000D02*
X195070500Y-103186000D01*
X195070500Y-103186000D02*
X209170500Y-103186000D01*
X209170500Y-103186000D02*
X209170500Y-117286000D01*
%TO.C,SW24*%
X213933000Y-79186000D02*
X199833000Y-79186000D01*
X199833000Y-79186000D02*
X199833000Y-65086000D01*
X199833000Y-65086000D02*
X213933000Y-65086000D01*
X213933000Y-65086000D02*
X213933000Y-79186000D01*
%TO.C,SW64*%
X142495500Y-136336000D02*
X128395500Y-136336000D01*
X128395500Y-136336000D02*
X128395500Y-122236000D01*
X128395500Y-122236000D02*
X142495500Y-122236000D01*
X142495500Y-122236000D02*
X142495500Y-136336000D01*
%TO.C,SW35*%
X128208000Y-98236000D02*
X114108000Y-98236000D01*
X114108000Y-98236000D02*
X114108000Y-84136000D01*
X114108000Y-84136000D02*
X128208000Y-84136000D01*
X128208000Y-84136000D02*
X128208000Y-98236000D01*
%TO.C,SW61*%
X81319250Y-134866000D02*
X81319250Y-122486000D01*
X81319250Y-122486000D02*
X75469250Y-122486000D01*
X75469250Y-134866000D02*
X81319250Y-134866000D01*
X75469250Y-130286000D02*
X75469250Y-134866000D01*
X75469250Y-128286000D02*
X73439250Y-128286000D01*
X75469250Y-122486000D02*
X75469250Y-128286000D01*
X73439250Y-136336000D02*
X73439250Y-130286000D01*
X73439250Y-130286000D02*
X75469250Y-130286000D01*
X73439250Y-128286000D02*
X73439250Y-122236000D01*
X73439250Y-122236000D02*
X59339250Y-122236000D01*
X59339250Y-136336000D02*
X73439250Y-136336000D01*
X59339250Y-130286000D02*
X59339250Y-136336000D01*
X59339250Y-130286000D02*
X57309250Y-130286000D01*
X59339250Y-122236000D02*
X59339250Y-128286000D01*
X57309250Y-134866000D02*
X57309250Y-130286000D01*
X57309250Y-128286000D02*
X59339250Y-128286000D01*
X57309250Y-128286000D02*
X57309250Y-122486000D01*
X57309250Y-122486000D02*
X51459250Y-122486000D01*
X51459250Y-134866000D02*
X57309250Y-134866000D01*
X51459250Y-122486000D02*
X51459250Y-134866000D01*
%TO.C,SW19*%
X118683000Y-79186000D02*
X104583000Y-79186000D01*
X104583000Y-79186000D02*
X104583000Y-65086000D01*
X104583000Y-65086000D02*
X118683000Y-65086000D01*
X118683000Y-65086000D02*
X118683000Y-79186000D01*
%TO.C,SW33*%
X90108000Y-98236000D02*
X76008000Y-98236000D01*
X76008000Y-98236000D02*
X76008000Y-84136000D01*
X76008000Y-84136000D02*
X90108000Y-84136000D01*
X90108000Y-84136000D02*
X90108000Y-98236000D01*
%TO.C,SW43*%
X280608000Y-98236000D02*
X266508000Y-98236000D01*
X266508000Y-98236000D02*
X266508000Y-84136000D01*
X266508000Y-84136000D02*
X280608000Y-84136000D01*
X280608000Y-84136000D02*
X280608000Y-98236000D01*
%TO.C,SW66*%
X180595500Y-136336000D02*
X166495500Y-136336000D01*
X166495500Y-136336000D02*
X166495500Y-122236000D01*
X166495500Y-122236000D02*
X180595500Y-122236000D01*
X180595500Y-122236000D02*
X180595500Y-136336000D01*
%TO.C,SW49*%
X94870500Y-117286000D02*
X80770500Y-117286000D01*
X80770500Y-117286000D02*
X80770500Y-103186000D01*
X80770500Y-103186000D02*
X94870500Y-103186000D01*
X94870500Y-103186000D02*
X94870500Y-117286000D01*
%TO.C,SW29*%
X326588000Y-77716000D02*
X326588000Y-65336000D01*
X326588000Y-65336000D02*
X320738000Y-65336000D01*
X320738000Y-77716000D02*
X326588000Y-77716000D01*
X320738000Y-73136000D02*
X320738000Y-77716000D01*
X320738000Y-71136000D02*
X318708000Y-71136000D01*
X320738000Y-65336000D02*
X320738000Y-71136000D01*
X318708000Y-79186000D02*
X318708000Y-73136000D01*
X318708000Y-73136000D02*
X320738000Y-73136000D01*
X318708000Y-71136000D02*
X318708000Y-65086000D01*
X318708000Y-65086000D02*
X304608000Y-65086000D01*
X304608000Y-79186000D02*
X318708000Y-79186000D01*
X304608000Y-73136000D02*
X304608000Y-79186000D01*
X304608000Y-73136000D02*
X302578000Y-73136000D01*
X304608000Y-65086000D02*
X304608000Y-71136000D01*
X302578000Y-77716000D02*
X302578000Y-73136000D01*
X302578000Y-71136000D02*
X304608000Y-71136000D01*
X302578000Y-71136000D02*
X302578000Y-65336000D01*
X302578000Y-65336000D02*
X296728000Y-65336000D01*
X296728000Y-77716000D02*
X302578000Y-77716000D01*
X296728000Y-65336000D02*
X296728000Y-77716000D01*
%TO.C,SW3*%
X118683000Y-55373500D02*
X104583000Y-55373500D01*
X104583000Y-55373500D02*
X104583000Y-41273500D01*
X104583000Y-41273500D02*
X118683000Y-41273500D01*
X118683000Y-41273500D02*
X118683000Y-55373500D01*
%TO.C,SW40*%
X223458000Y-98236000D02*
X209358000Y-98236000D01*
X209358000Y-98236000D02*
X209358000Y-84136000D01*
X209358000Y-84136000D02*
X223458000Y-84136000D01*
X223458000Y-84136000D02*
X223458000Y-98236000D01*
%TO.C,SW74*%
X63914250Y-155386000D02*
X49814250Y-155386000D01*
X49814250Y-155386000D02*
X49814250Y-141286000D01*
X49814250Y-141286000D02*
X63914250Y-141286000D01*
X63914250Y-141286000D02*
X63914250Y-155386000D01*
%TO.C,SW25*%
X232983000Y-79186000D02*
X218883000Y-79186000D01*
X218883000Y-79186000D02*
X218883000Y-65086000D01*
X218883000Y-65086000D02*
X232983000Y-65086000D01*
X232983000Y-65086000D02*
X232983000Y-79186000D01*
%TO.C,SW51*%
X132970500Y-117286000D02*
X118870500Y-117286000D01*
X118870500Y-117286000D02*
X118870500Y-103186000D01*
X118870500Y-103186000D02*
X132970500Y-103186000D01*
X132970500Y-103186000D02*
X132970500Y-117286000D01*
%TO.C,SW62*%
X104395500Y-136336000D02*
X90295500Y-136336000D01*
X90295500Y-136336000D02*
X90295500Y-122236000D01*
X90295500Y-122236000D02*
X104395500Y-122236000D01*
X104395500Y-122236000D02*
X104395500Y-136336000D01*
%TO.C,SW4*%
X137733000Y-55373500D02*
X123633000Y-55373500D01*
X123633000Y-55373500D02*
X123633000Y-41273500D01*
X123633000Y-41273500D02*
X137733000Y-41273500D01*
X137733000Y-41273500D02*
X137733000Y-55373500D01*
%TO.C,SW37*%
X166308000Y-98236000D02*
X152208000Y-98236000D01*
X152208000Y-98236000D02*
X152208000Y-84136000D01*
X152208000Y-84136000D02*
X166308000Y-84136000D01*
X166308000Y-84136000D02*
X166308000Y-98236000D01*
%TO.C,SW58*%
X266320500Y-117286000D02*
X252220500Y-117286000D01*
X252220500Y-117286000D02*
X252220500Y-103186000D01*
X252220500Y-103186000D02*
X266320500Y-103186000D01*
X266320500Y-103186000D02*
X266320500Y-117286000D01*
%TO.C,SW81*%
X332995500Y-155386000D02*
X318895500Y-155386000D01*
X318895500Y-155386000D02*
X318895500Y-141286000D01*
X318895500Y-141286000D02*
X332995500Y-141286000D01*
X332995500Y-141286000D02*
X332995500Y-155386000D01*
%TO.C,SW9*%
X242508000Y-55373500D02*
X228408000Y-55373500D01*
X228408000Y-55373500D02*
X228408000Y-41273500D01*
X228408000Y-41273500D02*
X242508000Y-41273500D01*
X242508000Y-41273500D02*
X242508000Y-55373500D01*
%TO.C,SW36*%
X147258000Y-98236000D02*
X133158000Y-98236000D01*
X133158000Y-98236000D02*
X133158000Y-84136000D01*
X133158000Y-84136000D02*
X147258000Y-84136000D01*
X147258000Y-84136000D02*
X147258000Y-98236000D01*
%TO.C,SW32*%
X66295500Y-98236000D02*
X52195500Y-98236000D01*
X52195500Y-98236000D02*
X52195500Y-84136000D01*
X52195500Y-84136000D02*
X66295500Y-84136000D01*
X66295500Y-84136000D02*
X66295500Y-98236000D01*
%TO.C,SW42*%
X261558000Y-98236000D02*
X247458000Y-98236000D01*
X247458000Y-98236000D02*
X247458000Y-84136000D01*
X247458000Y-84136000D02*
X261558000Y-84136000D01*
X261558000Y-84136000D02*
X261558000Y-98236000D01*
%TO.C,SW14*%
X352045500Y-55373500D02*
X337945500Y-55373500D01*
X337945500Y-55373500D02*
X337945500Y-41273500D01*
X337945500Y-41273500D02*
X352045500Y-41273500D01*
X352045500Y-41273500D02*
X352045500Y-55373500D01*
%TO.C,SW75*%
X87726750Y-155386000D02*
X73626750Y-155386000D01*
X73626750Y-155386000D02*
X73626750Y-141286000D01*
X73626750Y-141286000D02*
X87726750Y-141286000D01*
X87726750Y-141286000D02*
X87726750Y-155386000D01*
%TO.C,SW18*%
X99633000Y-79186000D02*
X85533000Y-79186000D01*
X85533000Y-79186000D02*
X85533000Y-65086000D01*
X85533000Y-65086000D02*
X99633000Y-65086000D01*
X99633000Y-65086000D02*
X99633000Y-79186000D01*
%TO.C,SW77*%
X228856750Y-153916000D02*
X228856750Y-141536000D01*
X228856750Y-141536000D02*
X223006750Y-141536000D01*
X223006750Y-153916000D02*
X228856750Y-153916000D01*
X223006750Y-149336000D02*
X223006750Y-153916000D01*
X223006750Y-147336000D02*
X182976750Y-147336000D01*
X223006750Y-141536000D02*
X223006750Y-147336000D01*
X182976750Y-155386000D02*
X182976750Y-149336000D01*
X182976750Y-155386000D02*
X168876750Y-155386000D01*
X182976750Y-149336000D02*
X223006750Y-149336000D01*
X182976750Y-141286000D02*
X182976750Y-147336000D01*
X182976750Y-141286000D02*
X168876750Y-141286000D01*
X168876750Y-155386000D02*
X168876750Y-149336000D01*
X168876750Y-149336000D02*
X128846750Y-149336000D01*
X168876750Y-141286000D02*
X168876750Y-147336000D01*
X128846750Y-153916000D02*
X122996750Y-153916000D01*
X128846750Y-149336000D02*
X128846750Y-153916000D01*
X128846750Y-147336000D02*
X168876750Y-147336000D01*
X128846750Y-141536000D02*
X128846750Y-147336000D01*
X122996750Y-153916000D02*
X122996750Y-141536000D01*
X122996750Y-141536000D02*
X128846750Y-141536000D01*
%TO.C,SW70*%
X256795500Y-136336000D02*
X242695500Y-136336000D01*
X242695500Y-136336000D02*
X242695500Y-122236000D01*
X242695500Y-122236000D02*
X256795500Y-122236000D01*
X256795500Y-122236000D02*
X256795500Y-136336000D01*
%TO.C,SW38*%
X185358000Y-98236000D02*
X171258000Y-98236000D01*
X171258000Y-98236000D02*
X171258000Y-84136000D01*
X171258000Y-84136000D02*
X185358000Y-84136000D01*
X185358000Y-84136000D02*
X185358000Y-98236000D01*
%TO.C,SW5*%
X156783000Y-55373500D02*
X142683000Y-55373500D01*
X142683000Y-55373500D02*
X142683000Y-41273500D01*
X142683000Y-41273500D02*
X156783000Y-41273500D01*
X156783000Y-41273500D02*
X156783000Y-55373500D01*
%TO.C,SW6*%
X185358000Y-55373500D02*
X171258000Y-55373500D01*
X171258000Y-55373500D02*
X171258000Y-41273500D01*
X171258000Y-41273500D02*
X185358000Y-41273500D01*
X185358000Y-41273500D02*
X185358000Y-55373500D01*
%TO.C,SW52*%
X152020500Y-117286000D02*
X137920500Y-117286000D01*
X137920500Y-117286000D02*
X137920500Y-103186000D01*
X137920500Y-103186000D02*
X152020500Y-103186000D01*
X152020500Y-103186000D02*
X152020500Y-117286000D01*
%TO.C,SW15*%
X371095500Y-55373500D02*
X356995500Y-55373500D01*
X356995500Y-55373500D02*
X356995500Y-41273500D01*
X356995500Y-41273500D02*
X371095500Y-41273500D01*
X371095500Y-41273500D02*
X371095500Y-55373500D01*
%TO.C,SW10*%
X271083000Y-55373500D02*
X256983000Y-55373500D01*
X256983000Y-55373500D02*
X256983000Y-41273500D01*
X256983000Y-41273500D02*
X271083000Y-41273500D01*
X271083000Y-41273500D02*
X271083000Y-55373500D01*
%TO.C,SW73*%
X352045500Y-136336000D02*
X337945500Y-136336000D01*
X337945500Y-136336000D02*
X337945500Y-122236000D01*
X337945500Y-122236000D02*
X352045500Y-122236000D01*
X352045500Y-122236000D02*
X352045500Y-136336000D01*
%TO.C,SW26*%
X252033000Y-79186000D02*
X237933000Y-79186000D01*
X237933000Y-79186000D02*
X237933000Y-65086000D01*
X237933000Y-65086000D02*
X252033000Y-65086000D01*
X252033000Y-65086000D02*
X252033000Y-79186000D01*
%TO.C,SW45*%
X323470500Y-98236000D02*
X309370500Y-98236000D01*
X309370500Y-98236000D02*
X309370500Y-84136000D01*
X309370500Y-84136000D02*
X323470500Y-84136000D01*
X323470500Y-84136000D02*
X323470500Y-98236000D01*
%TO.C,SW79*%
X278226750Y-155386000D02*
X264126750Y-155386000D01*
X264126750Y-155386000D02*
X264126750Y-141286000D01*
X264126750Y-141286000D02*
X278226750Y-141286000D01*
X278226750Y-141286000D02*
X278226750Y-155386000D01*
%TO.C,SW8*%
X223458000Y-55373500D02*
X209358000Y-55373500D01*
X209358000Y-55373500D02*
X209358000Y-41273500D01*
X209358000Y-41273500D02*
X223458000Y-41273500D01*
X223458000Y-41273500D02*
X223458000Y-55373500D01*
%TO.C,SW17*%
X80583000Y-79186000D02*
X66483000Y-79186000D01*
X66483000Y-79186000D02*
X66483000Y-65086000D01*
X66483000Y-65086000D02*
X80583000Y-65086000D01*
X80583000Y-65086000D02*
X80583000Y-79186000D01*
%TO.C,SW1*%
X61533000Y-55373500D02*
X47433000Y-55373500D01*
X47433000Y-55373500D02*
X47433000Y-41273500D01*
X47433000Y-41273500D02*
X61533000Y-41273500D01*
X61533000Y-41273500D02*
X61533000Y-55373500D01*
%TO.C,SW60*%
X324206750Y-115816000D02*
X324206750Y-103436000D01*
X324206750Y-103436000D02*
X318356750Y-103436000D01*
X318356750Y-115816000D02*
X324206750Y-115816000D01*
X318356750Y-111236000D02*
X318356750Y-115816000D01*
X318356750Y-109236000D02*
X316326750Y-109236000D01*
X318356750Y-103436000D02*
X318356750Y-109236000D01*
X316326750Y-117286000D02*
X316326750Y-111236000D01*
X316326750Y-111236000D02*
X318356750Y-111236000D01*
X316326750Y-109236000D02*
X316326750Y-103186000D01*
X316326750Y-103186000D02*
X302226750Y-103186000D01*
X302226750Y-117286000D02*
X316326750Y-117286000D01*
X302226750Y-111236000D02*
X302226750Y-117286000D01*
X302226750Y-111236000D02*
X300196750Y-111236000D01*
X302226750Y-103186000D02*
X302226750Y-109236000D01*
X300196750Y-115816000D02*
X300196750Y-111236000D01*
X300196750Y-109236000D02*
X302226750Y-109236000D01*
X300196750Y-109236000D02*
X300196750Y-103436000D01*
X300196750Y-103436000D02*
X294346750Y-103436000D01*
X294346750Y-115816000D02*
X300196750Y-115816000D01*
X294346750Y-103436000D02*
X294346750Y-115816000D01*
%TO.C,SW83*%
X371095500Y-155386000D02*
X356995500Y-155386000D01*
X356995500Y-155386000D02*
X356995500Y-141286000D01*
X356995500Y-141286000D02*
X371095500Y-141286000D01*
X371095500Y-141286000D02*
X371095500Y-155386000D01*
%TO.C,SW39*%
X204408000Y-98236000D02*
X190308000Y-98236000D01*
X190308000Y-98236000D02*
X190308000Y-84136000D01*
X190308000Y-84136000D02*
X204408000Y-84136000D01*
X204408000Y-84136000D02*
X204408000Y-98236000D01*
%TO.C,SW44*%
X299658000Y-98236000D02*
X285558000Y-98236000D01*
X285558000Y-98236000D02*
X285558000Y-84136000D01*
X285558000Y-84136000D02*
X299658000Y-84136000D01*
X299658000Y-84136000D02*
X299658000Y-98236000D01*
%TO.C,SW78*%
X254414250Y-155386000D02*
X240314250Y-155386000D01*
X240314250Y-155386000D02*
X240314250Y-141286000D01*
X240314250Y-141286000D02*
X254414250Y-141286000D01*
X254414250Y-141286000D02*
X254414250Y-155386000D01*
%TO.C,SW57*%
X247270500Y-117286000D02*
X233170500Y-117286000D01*
X233170500Y-117286000D02*
X233170500Y-103186000D01*
X233170500Y-103186000D02*
X247270500Y-103186000D01*
X247270500Y-103186000D02*
X247270500Y-117286000D01*
%TO.C,SW59*%
X285370500Y-117286000D02*
X271270500Y-117286000D01*
X271270500Y-117286000D02*
X271270500Y-103186000D01*
X271270500Y-103186000D02*
X285370500Y-103186000D01*
X285370500Y-103186000D02*
X285370500Y-117286000D01*
%TO.C,SW65*%
X161545500Y-136336000D02*
X147445500Y-136336000D01*
X147445500Y-136336000D02*
X147445500Y-122236000D01*
X147445500Y-122236000D02*
X161545500Y-122236000D01*
X161545500Y-122236000D02*
X161545500Y-136336000D01*
%TO.C,SW72*%
X319444250Y-134866000D02*
X319444250Y-122486000D01*
X319444250Y-122486000D02*
X313594250Y-122486000D01*
X313594250Y-134866000D02*
X319444250Y-134866000D01*
X313594250Y-130286000D02*
X313594250Y-134866000D01*
X313594250Y-128286000D02*
X311564250Y-128286000D01*
X313594250Y-122486000D02*
X313594250Y-128286000D01*
X311564250Y-136336000D02*
X311564250Y-130286000D01*
X311564250Y-130286000D02*
X313594250Y-130286000D01*
X311564250Y-128286000D02*
X311564250Y-122236000D01*
X311564250Y-122236000D02*
X297464250Y-122236000D01*
X297464250Y-136336000D02*
X311564250Y-136336000D01*
X297464250Y-130286000D02*
X297464250Y-136336000D01*
X297464250Y-130286000D02*
X295434250Y-130286000D01*
X297464250Y-122236000D02*
X297464250Y-128286000D01*
X295434250Y-134866000D02*
X295434250Y-130286000D01*
X295434250Y-128286000D02*
X297464250Y-128286000D01*
X295434250Y-128286000D02*
X295434250Y-122486000D01*
X295434250Y-122486000D02*
X289584250Y-122486000D01*
X289584250Y-134866000D02*
X295434250Y-134866000D01*
X289584250Y-122486000D02*
X289584250Y-134866000D01*
%TO.C,SW2*%
X99633000Y-55373500D02*
X85533000Y-55373500D01*
X85533000Y-55373500D02*
X85533000Y-41273500D01*
X85533000Y-41273500D02*
X99633000Y-41273500D01*
X99633000Y-41273500D02*
X99633000Y-55373500D01*
%TO.C,SW28*%
X290133000Y-79186000D02*
X276033000Y-79186000D01*
X276033000Y-79186000D02*
X276033000Y-65086000D01*
X276033000Y-65086000D02*
X290133000Y-65086000D01*
X290133000Y-65086000D02*
X290133000Y-79186000D01*
%TO.C,SW16*%
X61533000Y-79186000D02*
X47433000Y-79186000D01*
X47433000Y-79186000D02*
X47433000Y-65086000D01*
X47433000Y-65086000D02*
X61533000Y-65086000D01*
X61533000Y-65086000D02*
X61533000Y-79186000D01*
%TO.C,SW56*%
X228220500Y-117286000D02*
X214120500Y-117286000D01*
X214120500Y-117286000D02*
X214120500Y-103186000D01*
X214120500Y-103186000D02*
X228220500Y-103186000D01*
X228220500Y-103186000D02*
X228220500Y-117286000D01*
%TO.C,SW63*%
X123445500Y-136336000D02*
X109345500Y-136336000D01*
X109345500Y-136336000D02*
X109345500Y-122236000D01*
X109345500Y-122236000D02*
X123445500Y-122236000D01*
X123445500Y-122236000D02*
X123445500Y-136336000D01*
%TO.C,SW67*%
X199645500Y-136336000D02*
X185545500Y-136336000D01*
X185545500Y-136336000D02*
X185545500Y-122236000D01*
X185545500Y-122236000D02*
X199645500Y-122236000D01*
X199645500Y-122236000D02*
X199645500Y-136336000D01*
%TO.C,SW47*%
X371095500Y-98236000D02*
X356995500Y-98236000D01*
X356995500Y-98236000D02*
X356995500Y-84136000D01*
X356995500Y-84136000D02*
X371095500Y-84136000D01*
X371095500Y-84136000D02*
X371095500Y-98236000D01*
%TO.C,SW68*%
X218695500Y-136336000D02*
X204595500Y-136336000D01*
X204595500Y-136336000D02*
X204595500Y-122236000D01*
X204595500Y-122236000D02*
X218695500Y-122236000D01*
X218695500Y-122236000D02*
X218695500Y-136336000D01*
%TO.C,SW41*%
X242508000Y-98236000D02*
X228408000Y-98236000D01*
X228408000Y-98236000D02*
X228408000Y-84136000D01*
X228408000Y-84136000D02*
X242508000Y-84136000D01*
X242508000Y-84136000D02*
X242508000Y-98236000D01*
%TO.C,SW71*%
X275845500Y-136336000D02*
X261745500Y-136336000D01*
X261745500Y-136336000D02*
X261745500Y-122236000D01*
X261745500Y-122236000D02*
X275845500Y-122236000D01*
X275845500Y-122236000D02*
X275845500Y-136336000D01*
%TO.C,SW11*%
X290133000Y-55373500D02*
X276033000Y-55373500D01*
X276033000Y-55373500D02*
X276033000Y-41273500D01*
X276033000Y-41273500D02*
X290133000Y-41273500D01*
X290133000Y-41273500D02*
X290133000Y-55373500D01*
%TO.C,SW7*%
X204408000Y-55373500D02*
X190308000Y-55373500D01*
X190308000Y-55373500D02*
X190308000Y-41273500D01*
X190308000Y-41273500D02*
X204408000Y-41273500D01*
X204408000Y-41273500D02*
X204408000Y-55373500D01*
%TO.C,SW82*%
X352045500Y-155386000D02*
X337945500Y-155386000D01*
X337945500Y-155386000D02*
X337945500Y-141286000D01*
X337945500Y-141286000D02*
X352045500Y-141286000D01*
X352045500Y-141286000D02*
X352045500Y-155386000D01*
%TO.C,SW80*%
X302039250Y-155386000D02*
X287939250Y-155386000D01*
X287939250Y-155386000D02*
X287939250Y-141286000D01*
X287939250Y-141286000D02*
X302039250Y-141286000D01*
X302039250Y-141286000D02*
X302039250Y-155386000D01*
%TO.C,SW30*%
X352045500Y-79186000D02*
X337945500Y-79186000D01*
X337945500Y-79186000D02*
X337945500Y-65086000D01*
X337945500Y-65086000D02*
X352045500Y-65086000D01*
X352045500Y-65086000D02*
X352045500Y-79186000D01*
%TO.C,SW27*%
X271083000Y-79186000D02*
X256983000Y-79186000D01*
X256983000Y-79186000D02*
X256983000Y-65086000D01*
X256983000Y-65086000D02*
X271083000Y-65086000D01*
X271083000Y-65086000D02*
X271083000Y-79186000D01*
%TO.C,SW54*%
X190120500Y-117286000D02*
X176020500Y-117286000D01*
X176020500Y-117286000D02*
X176020500Y-103186000D01*
X176020500Y-103186000D02*
X190120500Y-103186000D01*
X190120500Y-103186000D02*
X190120500Y-117286000D01*
%TO.C,SW13*%
X328233000Y-55373500D02*
X314133000Y-55373500D01*
X314133000Y-55373500D02*
X314133000Y-41273500D01*
X314133000Y-41273500D02*
X328233000Y-41273500D01*
X328233000Y-41273500D02*
X328233000Y-55373500D01*
%TO.C,SW23*%
X194883000Y-79186000D02*
X180783000Y-79186000D01*
X180783000Y-79186000D02*
X180783000Y-65086000D01*
X180783000Y-65086000D02*
X194883000Y-65086000D01*
X194883000Y-65086000D02*
X194883000Y-79186000D01*
%TO.C,SW20*%
X137733000Y-79186000D02*
X123633000Y-79186000D01*
X123633000Y-79186000D02*
X123633000Y-65086000D01*
X123633000Y-65086000D02*
X137733000Y-65086000D01*
X137733000Y-65086000D02*
X137733000Y-79186000D01*
%TO.C,SW31*%
X371095500Y-79186000D02*
X356995500Y-79186000D01*
X356995500Y-79186000D02*
X356995500Y-65086000D01*
X356995500Y-65086000D02*
X371095500Y-65086000D01*
X371095500Y-65086000D02*
X371095500Y-79186000D01*
%TO.C,SW46*%
X352045500Y-98236000D02*
X337945500Y-98236000D01*
X337945500Y-98236000D02*
X337945500Y-84136000D01*
X337945500Y-84136000D02*
X352045500Y-84136000D01*
X352045500Y-84136000D02*
X352045500Y-98236000D01*
%TO.C,SW48*%
X76556750Y-115816000D02*
X76556750Y-103436000D01*
X76556750Y-103436000D02*
X70706750Y-103436000D01*
X70706750Y-115816000D02*
X76556750Y-115816000D01*
X70706750Y-111236000D02*
X70706750Y-115816000D01*
X70706750Y-109236000D02*
X68676750Y-109236000D01*
X70706750Y-103436000D02*
X70706750Y-109236000D01*
X68676750Y-117286000D02*
X68676750Y-111236000D01*
X68676750Y-111236000D02*
X70706750Y-111236000D01*
X68676750Y-109236000D02*
X68676750Y-103186000D01*
X68676750Y-103186000D02*
X54576750Y-103186000D01*
X54576750Y-117286000D02*
X68676750Y-117286000D01*
X54576750Y-111236000D02*
X54576750Y-117286000D01*
X54576750Y-111236000D02*
X52546750Y-111236000D01*
X54576750Y-103186000D02*
X54576750Y-109236000D01*
X52546750Y-115816000D02*
X52546750Y-111236000D01*
X52546750Y-109236000D02*
X54576750Y-109236000D01*
X52546750Y-109236000D02*
X52546750Y-103436000D01*
X52546750Y-103436000D02*
X46696750Y-103436000D01*
X46696750Y-115816000D02*
X52546750Y-115816000D01*
X46696750Y-103436000D02*
X46696750Y-115816000D01*
%TO.C,SW50*%
X113920500Y-117286000D02*
X99820500Y-117286000D01*
X99820500Y-117286000D02*
X99820500Y-103186000D01*
X99820500Y-103186000D02*
X113920500Y-103186000D01*
X113920500Y-103186000D02*
X113920500Y-117286000D01*
%TO.C,SW34*%
X109158000Y-98236000D02*
X95058000Y-98236000D01*
X95058000Y-98236000D02*
X95058000Y-84136000D01*
X95058000Y-84136000D02*
X109158000Y-84136000D01*
X109158000Y-84136000D02*
X109158000Y-98236000D01*
%TO.C,SW69*%
X237745500Y-136336000D02*
X223645500Y-136336000D01*
X223645500Y-136336000D02*
X223645500Y-122236000D01*
X223645500Y-122236000D02*
X237745500Y-122236000D01*
X237745500Y-122236000D02*
X237745500Y-136336000D01*
%TO.C,SW22*%
X175833000Y-79186000D02*
X161733000Y-79186000D01*
X161733000Y-79186000D02*
X161733000Y-65086000D01*
X161733000Y-65086000D02*
X175833000Y-65086000D01*
X175833000Y-65086000D02*
X175833000Y-79186000D01*
%TO.C,SW21*%
X156783000Y-79186000D02*
X142683000Y-79186000D01*
X142683000Y-79186000D02*
X142683000Y-65086000D01*
X142683000Y-65086000D02*
X156783000Y-65086000D01*
X156783000Y-65086000D02*
X156783000Y-79186000D01*
%TO.C,SW76*%
X111539250Y-155386000D02*
X97439250Y-155386000D01*
X97439250Y-155386000D02*
X97439250Y-141286000D01*
X97439250Y-141286000D02*
X111539250Y-141286000D01*
X111539250Y-141286000D02*
X111539250Y-155386000D01*
%TD*%
M02*
