<?xml version="1.0" standalone="no"?>
 <!DOCTYPE svg PUBLIC "-//W3C//DTD SVG 1.1//EN" 
 "http://www.w3.org/Graphics/SVG/1.1/DTD/svg11.dtd"> 
<svg
  xmlns:svg="http://www.w3.org/2000/svg"
  xmlns="http://www.w3.org/2000/svg"
  xmlns:xlink="http://www.w3.org/1999/xlink"
  version="1.1"
  width="338.6074mm" height="134.6708mm" viewBox="0.0000 0.0000 338.6074 134.6708">
<title>SVG Image created as Every83_Plate-Edge_Cuts.svg date 2024/06/28 13:21:17 </title>
  <desc>Image generated by PCBNEW </desc>
<g style="fill:#000000; fill-opacity:1.0000;stroke:#000000; stroke-opacity:1.0000;
stroke-linecap:round; stroke-linejoin:round;"
 transform="translate(0 0) scale(1 1)">
</g>
<g style="fill:none; 
stroke:#000000; stroke-width:0.0500; stroke-opacity:1; 
stroke-linecap:round; stroke-linejoin:round;">
<path d="M216.7428 3.6094
L216.7712 6.6290
" />
<path d="M223.9116 3.6094
L223.8832 6.6290
" />
<circle cx="220.3272" cy="3.6094" r="1.0000" /> 
<path d="M223.9116 3.6094 A3.5844 3.5844 0.0 0 0 216.7428 3.6094" />
</g>
<g style="fill:none; 
stroke:#000000; stroke-width:0.1000; stroke-opacity:1; 
stroke-linecap:round; stroke-linejoin:round;">
<path d="M278.9849 129.6270 A0.5110 0.5110 0.0 1 0 278.9849 128.6050" />
<path d="M167.7974 6.6130 A0.5110 0.5110 0.0 1 0 167.7974 5.5910" />
<path d="M7.0162 128.6050
L7.0162 6.6130
" />
<path d="M288.9849 5.5910 A0.5110 0.5110 0.0 0 0 288.9849 6.6130" />
<path d="M89.6099 134.6270 A2.5000 2.5000 0.0 0 0 89.6099 129.6270" />
<path d="M56.6099 6.6130
L7.0162 6.6130
" />
<path d="M311.9849 129.6270
L288.9849 129.6270
" />
<path d="M33.6099 0.5910 A2.5000 2.5000 0.0 0 0 33.6099 5.5910" />
<path d="M200.7974 134.6270 A2.5000 2.5000 0.0 1 0 200.7974 129.6270" />
<path d="M255.9849 0.5910
L311.9849 0.5910
" />
<path d="M338.5787 6.6130
L288.9849 6.6130
" />
<path d="M33.6099 129.6270
L56.6099 129.6270
" />
<path d="M66.6099 5.5910 A0.5110 0.5110 0.0 0 0 66.6099 6.6130" />
<path d="M144.7974 0.5910
L200.7974 0.5910
" />
<path d="M177.7974 128.6050 A0.5110 0.5110 0.0 0 0 177.7974 129.6270" />
<path d="M255.9849 129.6270
L278.9849 129.6270
" />
<path d="M278.9849 6.6130
L177.7974 6.6130
" />
<path d="M200.7974 5.5910
L177.7974 5.5910
" />
<path d="M144.7974 129.6270
L167.7974 129.6270
" />
<path d="M338.5787 128.6050
L338.5787 6.6130
" />
<path d="M66.6099 128.6050 A0.5110 0.5110 0.0 0 0 66.6099 129.6270" />
<path d="M144.7974 129.6270 A2.5000 2.5000 0.0 0 0 144.7974 134.6270" />
<path d="M255.9849 0.5910 A2.5000 2.5000 0.0 0 0 255.9849 5.5910" />
<path d="M311.9849 134.6270 A2.5000 2.5000 0.0 1 0 311.9849 129.6270" />
<path d="M200.7974 5.5910 A2.5000 2.5000 0.0 1 0 200.7974 0.5910" />
<path d="M144.7974 5.5910
L167.7974 5.5910
" />
<path d="M200.7974 129.6270
L177.7974 129.6270
" />
<path d="M311.9849 5.5910 A2.5000 2.5000 0.0 1 0 311.9849 0.5910" />
<path d="M33.6099 5.5910
L56.6099 5.5910
" />
<path d="M255.9849 129.6270 A2.5000 2.5000 0.0 0 0 255.9849 134.6270" />
<path d="M56.6099 129.6270 A0.5110 0.5110 0.0 1 0 56.6099 128.6050" />
<path d="M288.9849 128.6050 A0.5110 0.5110 0.0 0 0 288.9849 129.6270" />
<path d="M144.7974 0.5910 A2.5000 2.5000 0.0 0 0 144.7974 5.5910" />
<path d="M89.6099 129.6270
L66.6099 129.6270
" />
<path d="M255.9849 5.5910
L278.9849 5.5910
" />
<path d="M33.6099 0.5910
L89.6099 0.5910
" />
<path d="M278.9849 6.6130 A0.5110 0.5110 0.0 1 0 278.9849 5.5910" />
<path d="M177.7974 5.5910 A0.5110 0.5110 0.0 0 0 177.7974 6.6130" />
<path d="M167.7974 129.6270 A0.5110 0.5110 0.0 1 0 167.7974 128.6050" />
<path d="M311.9849 5.5910
L288.9849 5.5910
" />
<path d="M200.7974 134.6270
L144.7974 134.6270
" />
<path d="M33.6099 129.6270 A2.5000 2.5000 0.0 0 0 33.6099 134.6270" />
<path d="M288.9849 128.6050
L338.5787 128.6050
" />
<path d="M89.6099 5.5910 A2.5000 2.5000 0.0 0 0 89.6099 0.5910" />
<path d="M66.6099 128.6050
L167.7974 128.6050
" />
<path d="M89.6099 134.6270
L33.6099 134.6270
" />
<path d="M89.6099 5.5910
L66.6099 5.5910
" />
<path d="M56.6099 6.6130 A0.5110 0.5110 0.0 1 0 56.6099 5.5910" />
<path d="M311.9849 134.6270
L255.9849 134.6270
" />
<path d="M7.0162 128.6050
L56.6099 128.6050
" />
<path d="M177.7974 128.6050
L278.9849 128.6050
" />
<path d="M167.7974 6.6130
L66.6099 6.6130
" />
<path style="fill:none; 
stroke:#000000; stroke-width:0.1200; stroke-opacity:1; 
stroke-linecap:round; stroke-linejoin:round;fill:none"
d="M 272.7162,24.6645
258.6162,24.6645
258.6162,10.5645
272.7162,10.5645
Z" /> 
<path style="fill:none; 
stroke:#000000; stroke-width:0.1200; stroke-opacity:1; 
stroke-linecap:round; stroke-linejoin:round;fill:none"
d="M 134.6037,86.5770
120.5037,86.5770
120.5037,72.4770
134.6037,72.4770
Z" /> 
<path style="fill:none; 
stroke:#000000; stroke-width:0.1200; stroke-opacity:1; 
stroke-linecap:round; stroke-linejoin:round;fill:none"
d="M 172.7037,86.5770
158.6037,86.5770
158.6037,72.4770
172.7037,72.4770
Z" /> 
<path style="fill:none; 
stroke:#000000; stroke-width:0.1200; stroke-opacity:1; 
stroke-linecap:round; stroke-linejoin:round;fill:none"
d="M 177.4662,48.4770
163.3662,48.4770
163.3662,34.3770
177.4662,34.3770
Z" /> 
<path style="fill:none; 
stroke:#000000; stroke-width:0.1200; stroke-opacity:1; 
stroke-linecap:round; stroke-linejoin:round;fill:none"
d="M 106.0287,105.6270
91.9287,105.6270
91.9287,91.5270
106.0287,91.5270
Z" /> 
<path style="fill:none; 
stroke:#000000; stroke-width:0.1200; stroke-opacity:1; 
stroke-linecap:round; stroke-linejoin:round;fill:none"
d="M 91.7412,67.5270
77.6412,67.5270
77.6412,53.4270
91.7412,53.4270
Z" /> 
</g>
<g style="fill:none; 
stroke:#000000; stroke-width:0.1200; stroke-opacity:1; 
stroke-linecap:round; stroke-linejoin:round;">
<path d="M14.9224 91.7565
L14.9224 104.2565
" />
<path d="M14.9224 91.7565
L17.0724 91.7565
" />
<path d="M14.9224 104.2565
L20.9224 104.2565
" />
<path d="M17.0724 90.7170
L17.0724 91.7565
" />
<path d="M17.0724 90.7170
L18.7724 90.7170
" />
<path d="M18.7724 90.7170
L18.7724 91.7565
" />
<path d="M18.7724 91.7565
L20.9224 91.7565
" />
<path d="M20.9224 97.5770
L20.9224 91.7565
" />
<path d="M20.9224 97.5770
L22.9124 97.5770
" />
<path d="M20.9224 104.2565
L20.9224 99.5770
" />
<path d="M22.9124 91.5670
L22.9124 97.5770
" />
<path d="M22.9124 99.5770
L20.9224 99.5770
" />
<path d="M22.9124 99.5770
L22.9124 105.5870
" />
<path d="M22.9124 105.5870
L36.9324 105.5870
" />
<path d="M36.9324 91.5670
L22.9124 91.5670
" />
<path d="M36.9324 97.5770
L36.9324 91.5670
" />
<path d="M36.9324 99.5770
L38.9224 99.5770
" />
<path d="M36.9324 105.5870
L36.9324 99.5770
" />
<path d="M38.9224 97.5770
L36.9324 97.5770
" />
<path d="M38.9224 97.5770
L38.9224 91.7565
" />
<path d="M38.9224 104.2565
L38.9224 99.5770
" />
<path d="M41.0724 90.7170
L41.0724 91.7565
" />
<path d="M41.0724 91.7565
L38.9224 91.7565
" />
<path d="M42.7724 90.7170
L41.0724 90.7170
" />
<path d="M42.7724 90.7170
L42.7724 91.7565
" />
<path d="M44.9224 91.7565
L42.7724 91.7565
" />
<path d="M44.9224 91.7565
L44.9224 104.2565
" />
<path d="M44.9224 104.2565
L38.9224 104.2565
" />
<path style="fill:none; 
stroke:#000000; stroke-width:0.1200; stroke-opacity:1; 
stroke-linecap:round; stroke-linejoin:round;fill:none"
d="M 82.2162,48.4770
68.1162,48.4770
68.1162,34.3770
82.2162,34.3770
Z" /> 
<path style="fill:none; 
stroke:#000000; stroke-width:0.1200; stroke-opacity:1; 
stroke-linecap:round; stroke-linejoin:round;fill:none"
d="M 53.6412,67.5270
39.5412,67.5270
39.5412,53.4270
53.6412,53.4270
Z" /> 
<path style="fill:none; 
stroke:#000000; stroke-width:0.1200; stroke-opacity:1; 
stroke-linecap:round; stroke-linejoin:round;fill:none"
d="M 244.1412,67.5270
230.0412,67.5270
230.0412,53.4270
244.1412,53.4270
Z" /> 
<path style="fill:none; 
stroke:#000000; stroke-width:0.1200; stroke-opacity:1; 
stroke-linecap:round; stroke-linejoin:round;fill:none"
d="M 144.1287,105.6270
130.0287,105.6270
130.0287,91.5270
144.1287,91.5270
Z" /> 
<path style="fill:none; 
stroke:#000000; stroke-width:0.1200; stroke-opacity:1; 
stroke-linecap:round; stroke-linejoin:round;fill:none"
d="M 58.4037,86.5770
44.3037,86.5770
44.3037,72.4770
58.4037,72.4770
Z" /> 
<path d="M260.1912 34.6065
L260.1912 47.1065
" />
<path d="M260.1912 34.6065
L262.3412 34.6065
" />
<path d="M260.1912 47.1065
L266.1912 47.1065
" />
<path d="M262.3412 33.5670
L262.3412 34.6065
" />
<path d="M262.3412 33.5670
L264.0412 33.5670
" />
<path d="M264.0412 33.5670
L264.0412 34.6065
" />
<path d="M264.0412 34.6065
L266.1912 34.6065
" />
<path d="M266.1912 40.4270
L266.1912 34.6065
" />
<path d="M266.1912 40.4270
L268.1812 40.4270
" />
<path d="M266.1912 47.1065
L266.1912 42.4270
" />
<path d="M268.1812 34.4170
L268.1812 40.4270
" />
<path d="M268.1812 42.4270
L266.1912 42.4270
" />
<path d="M268.1812 42.4270
L268.1812 48.4370
" />
<path d="M268.1812 48.4370
L282.2012 48.4370
" />
<path d="M282.2012 34.4170
L268.1812 34.4170
" />
<path d="M282.2012 40.4270
L282.2012 34.4170
" />
<path d="M282.2012 42.4270
L284.1912 42.4270
" />
<path d="M282.2012 48.4370
L282.2012 42.4270
" />
<path d="M284.1912 40.4270
L282.2012 40.4270
" />
<path d="M284.1912 40.4270
L284.1912 34.6065
" />
<path d="M284.1912 47.1065
L284.1912 42.4270
" />
<path d="M286.3412 33.5670
L286.3412 34.6065
" />
<path d="M286.3412 34.6065
L284.1912 34.6065
" />
<path d="M288.0412 33.5670
L286.3412 33.5670
" />
<path d="M288.0412 33.5670
L288.0412 34.6065
" />
<path d="M290.1912 34.6065
L288.0412 34.6065
" />
<path d="M290.1912 34.6065
L290.1912 47.1065
" />
<path d="M290.1912 47.1065
L284.1912 47.1065
" />
<path style="fill:none; 
stroke:#000000; stroke-width:0.1200; stroke-opacity:1; 
stroke-linecap:round; stroke-linejoin:round;fill:none"
d="M 82.2162,24.6645
68.1162,24.6645
68.1162,10.5645
82.2162,10.5645
Z" /> 
<path style="fill:none; 
stroke:#000000; stroke-width:0.1200; stroke-opacity:1; 
stroke-linecap:round; stroke-linejoin:round;fill:none"
d="M 186.9912,67.5270
172.8912,67.5270
172.8912,53.4270
186.9912,53.4270
Z" /> 
<path style="fill:none; 
stroke:#000000; stroke-width:0.1200; stroke-opacity:1; 
stroke-linecap:round; stroke-linejoin:round;fill:none"
d="M 27.4474,124.6770
13.3474,124.6770
13.3474,110.5770
27.4474,110.5770
Z" /> 
<path style="fill:none; 
stroke:#000000; stroke-width:0.1200; stroke-opacity:1; 
stroke-linecap:round; stroke-linejoin:round;fill:none"
d="M 196.5162,48.4770
182.4162,48.4770
182.4162,34.3770
196.5162,34.3770
Z" /> 
<path style="fill:none; 
stroke:#000000; stroke-width:0.1200; stroke-opacity:1; 
stroke-linecap:round; stroke-linejoin:round;fill:none"
d="M 96.5037,86.5770
82.4037,86.5770
82.4037,72.4770
96.5037,72.4770
Z" /> 
<path style="fill:none; 
stroke:#000000; stroke-width:0.1200; stroke-opacity:1; 
stroke-linecap:round; stroke-linejoin:round;fill:none"
d="M 67.9287,105.6270
53.8287,105.6270
53.8287,91.5270
67.9287,91.5270
Z" /> 
<path style="fill:none; 
stroke:#000000; stroke-width:0.1200; stroke-opacity:1; 
stroke-linecap:round; stroke-linejoin:round;fill:none"
d="M 101.2662,24.6645
87.1662,24.6645
87.1662,10.5645
101.2662,10.5645
Z" /> 
<path style="fill:none; 
stroke:#000000; stroke-width:0.1200; stroke-opacity:1; 
stroke-linecap:round; stroke-linejoin:round;fill:none"
d="M 129.8412,67.5270
115.7412,67.5270
115.7412,53.4270
129.8412,53.4270
Z" /> 
<path style="fill:none; 
stroke:#000000; stroke-width:0.1200; stroke-opacity:1; 
stroke-linecap:round; stroke-linejoin:round;fill:none"
d="M 229.8537,86.5770
215.7537,86.5770
215.7537,72.4770
229.8537,72.4770
Z" /> 
<path style="fill:none; 
stroke:#000000; stroke-width:0.1200; stroke-opacity:1; 
stroke-linecap:round; stroke-linejoin:round;fill:none"
d="M 296.5287,124.6770
282.4287,124.6770
282.4287,110.5770
296.5287,110.5770
Z" /> 
<path style="fill:none; 
stroke:#000000; stroke-width:0.1200; stroke-opacity:1; 
stroke-linecap:round; stroke-linejoin:round;fill:none"
d="M 206.0412,24.6645
191.9412,24.6645
191.9412,10.5645
206.0412,10.5645
Z" /> 
<path style="fill:none; 
stroke:#000000; stroke-width:0.1200; stroke-opacity:1; 
stroke-linecap:round; stroke-linejoin:round;fill:none"
d="M 110.7912,67.5270
96.6912,67.5270
96.6912,53.4270
110.7912,53.4270
Z" /> 
<path style="fill:none; 
stroke:#000000; stroke-width:0.1200; stroke-opacity:1; 
stroke-linecap:round; stroke-linejoin:round;fill:none"
d="M 29.8287,67.5270
15.7287,67.5270
15.7287,53.4270
29.8287,53.4270
Z" /> 
<path style="fill:none; 
stroke:#000000; stroke-width:0.1200; stroke-opacity:1; 
stroke-linecap:round; stroke-linejoin:round;fill:none"
d="M 225.0912,67.5270
210.9912,67.5270
210.9912,53.4270
225.0912,53.4270
Z" /> 
<path style="fill:none; 
stroke:#000000; stroke-width:0.1200; stroke-opacity:1; 
stroke-linecap:round; stroke-linejoin:round;fill:none"
d="M 315.5787,24.6645
301.4787,24.6645
301.4787,10.5645
315.5787,10.5645
Z" /> 
<path style="fill:none; 
stroke:#000000; stroke-width:0.1200; stroke-opacity:1; 
stroke-linecap:round; stroke-linejoin:round;fill:none"
d="M 51.2599,124.6770
37.1599,124.6770
37.1599,110.5770
51.2599,110.5770
Z" /> 
<path style="fill:none; 
stroke:#000000; stroke-width:0.1200; stroke-opacity:1; 
stroke-linecap:round; stroke-linejoin:round;fill:none"
d="M 63.1662,48.4770
49.0662,48.4770
49.0662,34.3770
63.1662,34.3770
Z" /> 
<path d="M86.4599 110.8065
L86.4599 123.3065
" />
<path d="M86.4599 110.8065
L88.6099 110.8065
" />
<path d="M86.4599 123.3065
L92.4599 123.3065
" />
<path d="M88.6099 109.8070
L88.6099 110.8065
" />
<path d="M88.6099 109.8070
L90.3099 109.8070
" />
<path d="M90.3099 109.8070
L90.3099 110.8065
" />
<path d="M90.3099 110.8065
L92.4599 110.8065
" />
<path d="M92.4599 116.6270
L92.4599 110.8065
" />
<path d="M92.4599 116.6270
L132.4099 116.6270
" />
<path d="M92.4599 123.3065
L92.4599 118.6270
" />
<path d="M132.4099 110.5770
L132.4099 116.6270
" />
<path d="M132.4099 118.6270
L92.4599 118.6270
" />
<path d="M132.4099 124.6770
L132.4099 118.6270
" />
<path d="M132.4099 124.6770
L146.5099 124.6770
" />
<path d="M146.5099 110.5770
L132.4099 110.5770
" />
<path d="M146.5099 116.6270
L146.5099 110.5770
" />
<path d="M146.5099 118.6270
L186.4599 118.6270
" />
<path d="M146.5099 124.6770
L146.5099 118.6270
" />
<path d="M186.4599 116.6270
L146.5099 116.6270
" />
<path d="M186.4599 116.6270
L186.4599 110.8065
" />
<path d="M186.4599 123.3065
L186.4599 118.6270
" />
<path d="M188.6099 109.8070
L188.6099 110.8065
" />
<path d="M188.6099 110.8065
L186.4599 110.8065
" />
<path d="M190.3099 109.8070
L188.6099 109.8070
" />
<path d="M190.3099 109.8070
L190.3099 110.8065
" />
<path d="M192.4599 110.8065
L190.3099 110.8065
" />
<path d="M192.4599 110.8065
L192.4599 123.3065
" />
<path d="M192.4599 123.3065
L186.4599 123.3065
" />
<path style="fill:none; 
stroke:#000000; stroke-width:0.1200; stroke-opacity:1; 
stroke-linecap:round; stroke-linejoin:round;fill:none"
d="M 220.3287,105.6270
206.2287,105.6270
206.2287,91.5270
220.3287,91.5270
Z" /> 
<path style="fill:none; 
stroke:#000000; stroke-width:0.1200; stroke-opacity:1; 
stroke-linecap:round; stroke-linejoin:round;fill:none"
d="M 148.8912,67.5270
134.7912,67.5270
134.7912,53.4270
148.8912,53.4270
Z" /> 
<path style="fill:none; 
stroke:#000000; stroke-width:0.1200; stroke-opacity:1; 
stroke-linecap:round; stroke-linejoin:round;fill:none"
d="M 120.3162,24.6645
106.2162,24.6645
106.2162,10.5645
120.3162,10.5645
Z" /> 
<path style="fill:none; 
stroke:#000000; stroke-width:0.1200; stroke-opacity:1; 
stroke-linecap:round; stroke-linejoin:round;fill:none"
d="M 148.8912,24.6645
134.7912,24.6645
134.7912,10.5645
148.8912,10.5645
Z" /> 
<path style="fill:none; 
stroke:#000000; stroke-width:0.1200; stroke-opacity:1; 
stroke-linecap:round; stroke-linejoin:round;fill:none"
d="M 115.5537,86.5770
101.4537,86.5770
101.4537,72.4770
115.5537,72.4770
Z" /> 
<path style="fill:none; 
stroke:#000000; stroke-width:0.1200; stroke-opacity:1; 
stroke-linecap:round; stroke-linejoin:round;fill:none"
d="M 334.6287,24.6645
320.5287,24.6645
320.5287,10.5645
334.6287,10.5645
Z" /> 
<path style="fill:none; 
stroke:#000000; stroke-width:0.1200; stroke-opacity:1; 
stroke-linecap:round; stroke-linejoin:round;fill:none"
d="M 234.6162,24.6645
220.5162,24.6645
220.5162,10.5645
234.6162,10.5645
Z" /> 
<path style="fill:none; 
stroke:#000000; stroke-width:0.1200; stroke-opacity:1; 
stroke-linecap:round; stroke-linejoin:round;fill:none"
d="M 315.5787,105.6270
301.4787,105.6270
301.4787,91.5270
315.5787,91.5270
Z" /> 
<path style="fill:none; 
stroke:#000000; stroke-width:0.1200; stroke-opacity:1; 
stroke-linecap:round; stroke-linejoin:round;fill:none"
d="M 215.5662,48.4770
201.4662,48.4770
201.4662,34.3770
215.5662,34.3770
Z" /> 
<path style="fill:none; 
stroke:#000000; stroke-width:0.1200; stroke-opacity:1; 
stroke-linecap:round; stroke-linejoin:round;fill:none"
d="M 287.0037,67.5270
272.9037,67.5270
272.9037,53.4270
287.0037,53.4270
Z" /> 
<path style="fill:none; 
stroke:#000000; stroke-width:0.1200; stroke-opacity:1; 
stroke-linecap:round; stroke-linejoin:round;fill:none"
d="M 241.7599,124.6770
227.6599,124.6770
227.6599,110.5770
241.7599,110.5770
Z" /> 
<path style="fill:none; 
stroke:#000000; stroke-width:0.1200; stroke-opacity:1; 
stroke-linecap:round; stroke-linejoin:round;fill:none"
d="M 186.9912,24.6645
172.8912,24.6645
172.8912,10.5645
186.9912,10.5645
Z" /> 
<path style="fill:none; 
stroke:#000000; stroke-width:0.1200; stroke-opacity:1; 
stroke-linecap:round; stroke-linejoin:round;fill:none"
d="M 44.1162,48.4770
30.0162,48.4770
30.0162,34.3770
44.1162,34.3770
Z" /> 
<path style="fill:none; 
stroke:#000000; stroke-width:0.1200; stroke-opacity:1; 
stroke-linecap:round; stroke-linejoin:round;fill:none"
d="M 25.0662,24.6645
10.9662,24.6645
10.9662,10.5645
25.0662,10.5645
Z" /> 
<path d="M257.8099 72.7065
L257.8099 85.2065
" />
<path d="M257.8099 72.7065
L259.9599 72.7065
" />
<path d="M257.8099 85.2065
L263.8099 85.2065
" />
<path d="M259.9599 71.6670
L259.9599 72.7065
" />
<path d="M259.9599 71.6670
L261.6599 71.6670
" />
<path d="M261.6599 71.6670
L261.6599 72.7065
" />
<path d="M261.6599 72.7065
L263.8099 72.7065
" />
<path d="M263.8099 78.5270
L263.8099 72.7065
" />
<path d="M263.8099 78.5270
L265.7999 78.5270
" />
<path d="M263.8099 85.2065
L263.8099 80.5270
" />
<path d="M265.7999 72.5170
L265.7999 78.5270
" />
<path d="M265.7999 80.5270
L263.8099 80.5270
" />
<path d="M265.7999 80.5270
L265.7999 86.5370
" />
<path d="M265.7999 86.5370
L279.8199 86.5370
" />
<path d="M279.8199 72.5170
L265.7999 72.5170
" />
<path d="M279.8199 78.5270
L279.8199 72.5170
" />
<path d="M279.8199 80.5270
L281.8099 80.5270
" />
<path d="M279.8199 86.5370
L279.8199 80.5270
" />
<path d="M281.8099 78.5270
L279.8199 78.5270
" />
<path d="M281.8099 78.5270
L281.8099 72.7065
" />
<path d="M281.8099 85.2065
L281.8099 80.5270
" />
<path d="M283.9599 71.6670
L283.9599 72.7065
" />
<path d="M283.9599 72.7065
L281.8099 72.7065
" />
<path d="M285.6599 71.6670
L283.9599 71.6670
" />
<path d="M285.6599 71.6670
L285.6599 72.7065
" />
<path d="M287.8099 72.7065
L285.6599 72.7065
" />
<path d="M287.8099 72.7065
L287.8099 85.2065
" />
<path d="M287.8099 85.2065
L281.8099 85.2065
" />
<path style="fill:none; 
stroke:#000000; stroke-width:0.1200; stroke-opacity:1; 
stroke-linecap:round; stroke-linejoin:round;fill:none"
d="M 334.6287,124.6770
320.5287,124.6770
320.5287,110.5770
334.6287,110.5770
Z" /> 
<path style="fill:none; 
stroke:#000000; stroke-width:0.1200; stroke-opacity:1; 
stroke-linecap:round; stroke-linejoin:round;fill:none"
d="M 167.9412,67.5270
153.8412,67.5270
153.8412,53.4270
167.9412,53.4270
Z" /> 
<path style="fill:none; 
stroke:#000000; stroke-width:0.1200; stroke-opacity:1; 
stroke-linecap:round; stroke-linejoin:round;fill:none"
d="M 263.1912,67.5270
249.0912,67.5270
249.0912,53.4270
263.1912,53.4270
Z" /> 
<path style="fill:none; 
stroke:#000000; stroke-width:0.1200; stroke-opacity:1; 
stroke-linecap:round; stroke-linejoin:round;fill:none"
d="M 217.9474,124.6770
203.8474,124.6770
203.8474,110.5770
217.9474,110.5770
Z" /> 
<path style="fill:none; 
stroke:#000000; stroke-width:0.1200; stroke-opacity:1; 
stroke-linecap:round; stroke-linejoin:round;fill:none"
d="M 210.8037,86.5770
196.7037,86.5770
196.7037,72.4770
210.8037,72.4770
Z" /> 
<path style="fill:none; 
stroke:#000000; stroke-width:0.1200; stroke-opacity:1; 
stroke-linecap:round; stroke-linejoin:round;fill:none"
d="M 248.9037,86.5770
234.8037,86.5770
234.8037,72.4770
248.9037,72.4770
Z" /> 
<path style="fill:none; 
stroke:#000000; stroke-width:0.1200; stroke-opacity:1; 
stroke-linecap:round; stroke-linejoin:round;fill:none"
d="M 125.0787,105.6270
110.9787,105.6270
110.9787,91.5270
125.0787,91.5270
Z" /> 
<path d="M253.0474 91.7565
L253.0474 104.2565
" />
<path d="M253.0474 91.7565
L255.1974 91.7565
" />
<path d="M253.0474 104.2565
L259.0474 104.2565
" />
<path d="M255.1974 90.7170
L255.1974 91.7565
" />
<path d="M255.1974 90.7170
L256.8974 90.7170
" />
<path d="M256.8974 90.7170
L256.8974 91.7565
" />
<path d="M256.8974 91.7565
L259.0474 91.7565
" />
<path d="M259.0474 97.5770
L259.0474 91.7565
" />
<path d="M259.0474 97.5770
L261.0374 97.5770
" />
<path d="M259.0474 104.2565
L259.0474 99.5770
" />
<path d="M261.0374 91.5670
L261.0374 97.5770
" />
<path d="M261.0374 99.5770
L259.0474 99.5770
" />
<path d="M261.0374 99.5770
L261.0374 105.5870
" />
<path d="M261.0374 105.5870
L275.0574 105.5870
" />
<path d="M275.0574 91.5670
L261.0374 91.5670
" />
<path d="M275.0574 97.5770
L275.0574 91.5670
" />
<path d="M275.0574 99.5770
L277.0474 99.5770
" />
<path d="M275.0574 105.5870
L275.0574 99.5770
" />
<path d="M277.0474 97.5770
L275.0574 97.5770
" />
<path d="M277.0474 97.5770
L277.0474 91.7565
" />
<path d="M277.0474 104.2565
L277.0474 99.5770
" />
<path d="M279.1974 90.7170
L279.1974 91.7565
" />
<path d="M279.1974 91.7565
L277.0474 91.7565
" />
<path d="M280.8974 90.7170
L279.1974 90.7170
" />
<path d="M280.8974 90.7170
L280.8974 91.7565
" />
<path d="M283.0474 91.7565
L280.8974 91.7565
" />
<path d="M283.0474 91.7565
L283.0474 104.2565
" />
<path d="M283.0474 104.2565
L277.0474 104.2565
" />
<path style="fill:none; 
stroke:#000000; stroke-width:0.1200; stroke-opacity:1; 
stroke-linecap:round; stroke-linejoin:round;fill:none"
d="M 63.1662,24.6645
49.0662,24.6645
49.0662,10.5645
63.1662,10.5645
Z" /> 
<path style="fill:none; 
stroke:#000000; stroke-width:0.1200; stroke-opacity:1; 
stroke-linecap:round; stroke-linejoin:round;fill:none"
d="M 253.6662,48.4770
239.5662,48.4770
239.5662,34.3770
253.6662,34.3770
Z" /> 
<path style="fill:none; 
stroke:#000000; stroke-width:0.1200; stroke-opacity:1; 
stroke-linecap:round; stroke-linejoin:round;fill:none"
d="M 25.0662,48.4770
10.9662,48.4770
10.9662,34.3770
25.0662,34.3770
Z" /> 
<path style="fill:none; 
stroke:#000000; stroke-width:0.1200; stroke-opacity:1; 
stroke-linecap:round; stroke-linejoin:round;fill:none"
d="M 191.7537,86.5770
177.6537,86.5770
177.6537,72.4770
191.7537,72.4770
Z" /> 
<path style="fill:none; 
stroke:#000000; stroke-width:0.1200; stroke-opacity:1; 
stroke-linecap:round; stroke-linejoin:round;fill:none"
d="M 86.9787,105.6270
72.8787,105.6270
72.8787,91.5270
86.9787,91.5270
Z" /> 
<path style="fill:none; 
stroke:#000000; stroke-width:0.1200; stroke-opacity:1; 
stroke-linecap:round; stroke-linejoin:round;fill:none"
d="M 163.1787,105.6270
149.0787,105.6270
149.0787,91.5270
163.1787,91.5270
Z" /> 
<path style="fill:none; 
stroke:#000000; stroke-width:0.1200; stroke-opacity:1; 
stroke-linecap:round; stroke-linejoin:round;fill:none"
d="M 334.6287,67.5270
320.5287,67.5270
320.5287,53.4270
334.6287,53.4270
Z" /> 
<path style="fill:none; 
stroke:#000000; stroke-width:0.1200; stroke-opacity:1; 
stroke-linecap:round; stroke-linejoin:round;fill:none"
d="M 182.2287,105.6270
168.1287,105.6270
168.1287,91.5270
182.2287,91.5270
Z" /> 
<path style="fill:none; 
stroke:#000000; stroke-width:0.1200; stroke-opacity:1; 
stroke-linecap:round; stroke-linejoin:round;fill:none"
d="M 206.0412,67.5270
191.9412,67.5270
191.9412,53.4270
206.0412,53.4270
Z" /> 
<path style="fill:none; 
stroke:#000000; stroke-width:0.1200; stroke-opacity:1; 
stroke-linecap:round; stroke-linejoin:round;fill:none"
d="M 239.3787,105.6270
225.2787,105.6270
225.2787,91.5270
239.3787,91.5270
Z" /> 
<path style="fill:none; 
stroke:#000000; stroke-width:0.1200; stroke-opacity:1; 
stroke-linecap:round; stroke-linejoin:round;fill:none"
d="M 253.6662,24.6645
239.5662,24.6645
239.5662,10.5645
253.6662,10.5645
Z" /> 
<path style="fill:none; 
stroke:#000000; stroke-width:0.1200; stroke-opacity:1; 
stroke-linecap:round; stroke-linejoin:round;fill:none"
d="M 167.9412,24.6645
153.8412,24.6645
153.8412,10.5645
167.9412,10.5645
Z" /> 
<path style="fill:none; 
stroke:#000000; stroke-width:0.1200; stroke-opacity:1; 
stroke-linecap:round; stroke-linejoin:round;fill:none"
d="M 315.5787,124.6770
301.4787,124.6770
301.4787,110.5770
315.5787,110.5770
Z" /> 
<path style="fill:none; 
stroke:#000000; stroke-width:0.1200; stroke-opacity:1; 
stroke-linecap:round; stroke-linejoin:round;fill:none"
d="M 265.5724,124.6770
251.4724,124.6770
251.4724,110.5770
265.5724,110.5770
Z" /> 
<path style="fill:none; 
stroke:#000000; stroke-width:0.1200; stroke-opacity:1; 
stroke-linecap:round; stroke-linejoin:round;fill:none"
d="M 315.5787,48.4770
301.4787,48.4770
301.4787,34.3770
315.5787,34.3770
Z" /> 
<path style="fill:none; 
stroke:#000000; stroke-width:0.1200; stroke-opacity:1; 
stroke-linecap:round; stroke-linejoin:round;fill:none"
d="M 234.6162,48.4770
220.5162,48.4770
220.5162,34.3770
234.6162,34.3770
Z" /> 
<path style="fill:none; 
stroke:#000000; stroke-width:0.1200; stroke-opacity:1; 
stroke-linecap:round; stroke-linejoin:round;fill:none"
d="M 153.6537,86.5770
139.5537,86.5770
139.5537,72.4770
153.6537,72.4770
Z" /> 
<path style="fill:none; 
stroke:#000000; stroke-width:0.1200; stroke-opacity:1; 
stroke-linecap:round; stroke-linejoin:round;fill:none"
d="M 291.7662,24.6645
277.6662,24.6645
277.6662,10.5645
291.7662,10.5645
Z" /> 
<path style="fill:none; 
stroke:#000000; stroke-width:0.1200; stroke-opacity:1; 
stroke-linecap:round; stroke-linejoin:round;fill:none"
d="M 158.4162,48.4770
144.3162,48.4770
144.3162,34.3770
158.4162,34.3770
Z" /> 
<path style="fill:none; 
stroke:#000000; stroke-width:0.1200; stroke-opacity:1; 
stroke-linecap:round; stroke-linejoin:round;fill:none"
d="M 101.2662,48.4770
87.1662,48.4770
87.1662,34.3770
101.2662,34.3770
Z" /> 
<path style="fill:none; 
stroke:#000000; stroke-width:0.1200; stroke-opacity:1; 
stroke-linecap:round; stroke-linejoin:round;fill:none"
d="M 334.6287,48.4770
320.5287,48.4770
320.5287,34.3770
334.6287,34.3770
Z" /> 
<path style="fill:none; 
stroke:#000000; stroke-width:0.1200; stroke-opacity:1; 
stroke-linecap:round; stroke-linejoin:round;fill:none"
d="M 315.5787,67.5270
301.4787,67.5270
301.4787,53.4270
315.5787,53.4270
Z" /> 
<path d="M10.1599 72.7065
L10.1599 85.2065
" />
<path d="M10.1599 72.7065
L12.3099 72.7065
" />
<path d="M10.1599 85.2065
L16.1599 85.2065
" />
<path d="M12.3099 71.6670
L12.3099 72.7065
" />
<path d="M12.3099 71.6670
L14.0099 71.6670
" />
<path d="M14.0099 71.6670
L14.0099 72.7065
" />
<path d="M14.0099 72.7065
L16.1599 72.7065
" />
<path d="M16.1599 78.5270
L16.1599 72.7065
" />
<path d="M16.1599 78.5270
L18.1499 78.5270
" />
<path d="M16.1599 85.2065
L16.1599 80.5270
" />
<path d="M18.1499 72.5170
L18.1499 78.5270
" />
<path d="M18.1499 80.5270
L16.1599 80.5270
" />
<path d="M18.1499 80.5270
L18.1499 86.5370
" />
<path d="M18.1499 86.5370
L32.1699 86.5370
" />
<path d="M32.1699 72.5170
L18.1499 72.5170
" />
<path d="M32.1699 78.5270
L32.1699 72.5170
" />
<path d="M32.1699 80.5270
L34.1599 80.5270
" />
<path d="M32.1699 86.5370
L32.1699 80.5270
" />
<path d="M34.1599 78.5270
L32.1699 78.5270
" />
<path d="M34.1599 78.5270
L34.1599 72.7065
" />
<path d="M34.1599 85.2065
L34.1599 80.5270
" />
<path d="M36.3099 71.6670
L36.3099 72.7065
" />
<path d="M36.3099 72.7065
L34.1599 72.7065
" />
<path d="M38.0099 71.6670
L36.3099 71.6670
" />
<path d="M38.0099 71.6670
L38.0099 72.7065
" />
<path d="M40.1599 72.7065
L38.0099 72.7065
" />
<path d="M40.1599 72.7065
L40.1599 85.2065
" />
<path d="M40.1599 85.2065
L34.1599 85.2065
" />
<path style="fill:none; 
stroke:#000000; stroke-width:0.1200; stroke-opacity:1; 
stroke-linecap:round; stroke-linejoin:round;fill:none"
d="M 77.4537,86.5770
63.3537,86.5770
63.3537,72.4770
77.4537,72.4770
Z" /> 
<path style="fill:none; 
stroke:#000000; stroke-width:0.1200; stroke-opacity:1; 
stroke-linecap:round; stroke-linejoin:round;fill:none"
d="M 72.6912,67.5270
58.5912,67.5270
58.5912,53.4270
72.6912,53.4270
Z" /> 
<path style="fill:none; 
stroke:#000000; stroke-width:0.1200; stroke-opacity:1; 
stroke-linecap:round; stroke-linejoin:round;fill:none"
d="M 201.2787,105.6270
187.1787,105.6270
187.1787,91.5270
201.2787,91.5270
Z" /> 
<path style="fill:none; 
stroke:#000000; stroke-width:0.1200; stroke-opacity:1; 
stroke-linecap:round; stroke-linejoin:round;fill:none"
d="M 139.3662,48.4770
125.2662,48.4770
125.2662,34.3770
139.3662,34.3770
Z" /> 
<path style="fill:none; 
stroke:#000000; stroke-width:0.1200; stroke-opacity:1; 
stroke-linecap:round; stroke-linejoin:round;fill:none"
d="M 120.3162,48.4770
106.2162,48.4770
106.2162,34.3770
120.3162,34.3770
Z" /> 
<path style="fill:none; 
stroke:#000000; stroke-width:0.1200; stroke-opacity:1; 
stroke-linecap:round; stroke-linejoin:round;fill:none"
d="M 75.0724,124.6770
60.9724,124.6770
60.9724,110.5770
75.0724,110.5770
Z" /> 
</g> 
</svg>
