  0
SECTION
  2
HEADER
  9
$ANGBASE
  50
0.0
  9
$ANGDIR
  70
1
  9
$MEASUREMENT
  70
1
  0
ENDSEC
  0
SECTION
  2
TABLES
  0
TABLE
  2
LTYPE
  70
4
  0
LTYPE
  5
40F
  2
CONTINUOUS
  70
0
  3
Solid line
  72
65
  73
0
  40
0.0
  0
LTYPE
  5
410
  2
DASHDOT
 70
0
  3
Dash Dot ____ _ ____ _
 72
65
 73
4
 40
2.0
 49
1.25
 49
-0.25
 49
0.25
 49
-0.25
  0
LTYPE
  5
411
  2
DASHED
 70
0
  3
Dashed __ __ __ __ __
 72
65
 73
2
 40
0.75
 49
0.5
 49
-0.25
  0
LTYPE
  5
43B
  2
DOTTED
 70
0
  3
Dotted .  .  .  .
 72
65
 73
2
 40
0.2
 49
0.0
 49
-0.2
  0
ENDTAB
  0
TABLE
  2
STYLE
  70
4
  0
STYLE
  2
KICAD
  70
0
  40
0
  41
1
  42
1
  50
0
  71
0
  3
isocp.shx
  0
STYLE
  2
KICADB
  70
0
  40
0
  41
1
  42
1
  50
0
  71
0
  3
isocp.shx
  0
STYLE
  2
KICADI
  70
0
  40
0
  41
1
  42
1
  50
15
  71
0
  3
isocp.shx
  0
STYLE
  2
KICADBI
  70
0
  40
0
  41
1
  42
1
  50
15
  71
0
  3
isocp.shx
  0
ENDTAB
  0
TABLE
  2
LAYER
  70
1
  0
LAYER
  2
BLACK
  70
0
  62
7
  6
CONTINUOUS
  0
ENDTAB
  0
ENDSEC
  0
SECTION
  2
ENTITIES
0
ARC
8
BLACK
10
98.1234389999999905
20
-34.0360000000000014
40
2.5481149999999997
50
0.00000000
51
180.00000000
0
LINE
8
BLACK
6
CONTINUOUS
10
100.6715540000000004
20
-34.0360000000000014
11
100.6715540000000004
21
-35.3432579999999987
0
LINE
8
BLACK
6
CONTINUOUS
10
43.4848009999999974
20
-157.5860439999999869
11
43.482999999999997
21
-39.0509999999999948
0
LINE
8
BLACK
6
CONTINUOUS
10
93.5946869999999933
20
-37.3416119999999978
11
45.2119999999999962
21
-37.3219999999999956
0
ARC
8
BLACK
10
209.354914999999977
20
-34.0360000000000014
40
2.5481149999999997
50
0.00000000
51
180.00000000
0
ARC
8
BLACK
10
325.0322999999999638
20
-35.4075999999999951
40
1.9119954206705096
50
-182.03677400
51
-92.03632159
0
LINE
8
BLACK
6
CONTINUOUS
10
373.3258119999999849
20
-37.3395879999999991
11
324.9643609999999967
21
-37.3183879999999988
0
ARC
8
BLACK
10
209.2642500000000041
20
-162.6201999999999828
40
2.5481149999999997
50
-180.00000000
51
-0.00000000
0
LINE
8
BLACK
6
CONTINUOUS
10
316.0446479999999951
20
-37.338000000000001
11
213.7458759999999813
21
-37.3219999999999956
0
LINE
8
BLACK
6
CONTINUOUS
10
322.9998649999999998
20
-162.6144119999999873
11
323.0017599999999902
21
-161.1516459999999995
0
LINE
8
BLACK
6
CONTINUOUS
10
375.0548119999999699
20
-157.5782119999999793
11
375.0548119999999699
21
-39.0685879999999983
0
LINE
8
BLACK
6
CONTINUOUS
10
100.6248649999999998
20
-162.5947999999999922
11
100.6267599999999902
21
-161.1320340000000044
0
ARC
8
BLACK
10
373.3257999999999583
20
-157.5781999999999812
40
1.7290120000416422
50
-89.99960235
51
-0.00039765
0
ARC
8
BLACK
10
204.8052999999999884
20
-161.2450000000000045
40
1.9120091903861236
50
-2.03636139
51
87.96219382
0
ARC
8
BLACK
10
93.6625999999999976
20
-35.4307999999999979
40
1.9120373543414364
50
-92.03551741
51
-2.03708651
0
ARC
8
BLACK
10
316.1125999999999863
20
-35.4271999999999991
40
1.9119979524612467
50
-92.03669813
51
-2.03676868
0
CIRCLE
8
BLACK
10
320.5733999999999924
20
-34.0323879999999974
40
1.5
0
ARC
8
BLACK
10
324.9124999999999659
20
-161.2195999999999856
40
1.9119479840508213
50
87.96180450
51
177.96317807
0
ARC
8
BLACK
10
98.0767499999999899
20
-162.5947999999999922
40
2.5481149999999997
50
-180.00000000
51
-0.00000000
0
LINE
8
BLACK
6
CONTINUOUS
10
317.9036350000000084
20
-162.6144119999999873
11
317.9036350000000084
21
-161.307153999999997
0
CIRCLE
8
BLACK
10
209.2642500000000041
20
-162.6201999999999828
40
1.5
0
ARC
8
BLACK
10
45.2106999999999957
20
-157.5862999999999943
40
1.7259000191346541
50
-180.00849860
51
-90.00853179
0
CIRCLE
8
BLACK
10
98.0767499999999899
20
-162.5947999999999922
40
1.5
0
LINE
8
BLACK
6
CONTINUOUS
10
211.9030300000000011
20
-34.0360000000000014
11
211.9030300000000011
21
-35.3432579999999987
0
ARC
8
BLACK
10
315.9927999999999884
20
-161.2391999999999825
40
1.9119971979751955
50
-2.03672075
51
87.96218103
0
LINE
8
BLACK
6
CONTINUOUS
10
206.71613499999998
20
-162.6201999999999828
11
206.71613499999998
21
-161.3129419999999925
0
ARC
8
BLACK
10
45.2119999999999962
20
-39.0509999999999948
40
1.7289999999999999
50
90.00000000
51
180.00000000
0
LINE
8
BLACK
6
CONTINUOUS
10
95.5753239999999948
20
-34.0360000000000014
11
95.5734289999999902
21
-35.4987659999999963
0
ARC
8
BLACK
10
102.5822999999999894
20
-35.4112000000000009
40
1.9120060277101638
50
-182.03645616
51
-92.03514087
0
ARC
8
BLACK
10
320.5733999999999924
20
-34.0323879999999974
40
2.5481149999999997
50
0.00000000
51
180.00000000
0
ARC
8
BLACK
10
213.8137999999999863
20
-35.4112000000000009
40
1.9120068801591692
50
-182.03643060
51
-92.03585961
0
LINE
8
BLACK
6
CONTINUOUS
10
206.8067999999999813
20
-34.0360000000000014
11
206.8049049999999909
21
-35.4987659999999963
0
ARC
8
BLACK
10
204.8940999999999804
20
-35.4307999999999979
40
1.9120133695089581
50
-92.03623615
51
-2.03711207
0
ARC
8
BLACK
10
320.4517500000000041
20
-162.6144119999999873
40
2.5481149999999997
50
-180.00000000
51
-0.00000000
0
LINE
8
BLACK
6
CONTINUOUS
10
318.0252849999999967
20
-34.0323879999999974
11
318.0233900000000062
21
-35.4951539999999994
0
CIRCLE
8
BLACK
10
98.1234389999999905
20
-34.0360000000000014
40
1.5
0
LINE
8
BLACK
6
CONTINUOUS
10
323.121514999999988
20
-34.0323879999999974
11
323.121514999999988
21
-35.3396460000000019
0
CIRCLE
8
BLACK
10
209.354914999999977
20
-34.0360000000000014
40
1.5
0
ARC
8
BLACK
10
213.7249999999999943
20
-161.2253999999999792
40
1.9119484105895743
50
87.96181729
51
177.96281869
0
LINE
8
BLACK
6
CONTINUOUS
10
324.9805020000000013
20
-159.3087999999999909
11
373.3258119999999849
21
-159.3072119999999927
0
ARC
8
BLACK
10
93.6178000000000026
20
-161.2195999999999856
40
1.9120091903861236
50
-2.03636139
51
87.96219382
0
LINE
8
BLACK
6
CONTINUOUS
10
102.6055020000000013
20
-159.2891879999999958
11
204.8732889999999998
21
-159.3341999999999814
0
LINE
8
BLACK
6
CONTINUOUS
10
211.8123649999999998
20
-162.6201999999999828
11
211.8142599999999902
21
-161.157433999999995
0
ARC
8
BLACK
10
102.5374999999999943
20
-161.1999999999999886
40
1.9119484105895743
50
87.96181729
51
177.96281869
0
LINE
8
BLACK
6
CONTINUOUS
10
45.2104429999999979
20
-159.31219999999999
11
93.6857889999999998
21
-159.3087999999999909
0
LINE
8
BLACK
6
CONTINUOUS
10
213.7930020000000013
20
-159.3145879999999863
11
316.0607889999999998
21
-159.3284119999999859
0
ARC
8
BLACK
10
373.3257999999999583
20
-39.0685999999999964
40
1.7290120000416422
50
0.00039765
51
89.99960235
0
CIRCLE
8
BLACK
10
320.4517500000000041
20
-162.6144119999999873
40
1.5
0
LINE
8
BLACK
6
CONTINUOUS
10
204.8261629999999798
20
-37.3416119999999978
11
102.5143999999999949
21
-37.3219999999999956
0
LINE
8
BLACK
6
CONTINUOUS
10
95.5286349999999942
20
-162.5947999999999922
11
95.5286349999999942
21
-161.287542000000002
0
LINE
8
BLACK
6
CONTINUOUS
10
309.1829999999999927
20
-55.3734999999999999
11
295.08299999999997
21
-55.3734999999999999
0
LINE
8
BLACK
6
CONTINUOUS
10
295.08299999999997
20
-55.3734999999999999
11
295.08299999999997
21
-41.2734999999999985
0
LINE
8
BLACK
6
CONTINUOUS
10
295.08299999999997
20
-41.2734999999999985
11
309.1829999999999927
21
-41.2734999999999985
0
LINE
8
BLACK
6
CONTINUOUS
10
309.1829999999999927
20
-41.2734999999999985
11
309.1829999999999927
21
-55.3734999999999999
0
LINE
8
BLACK
6
CONTINUOUS
10
171.0704999999999814
20
-117.2860000000000014
11
156.970499999999987
21
-117.2860000000000014
0
LINE
8
BLACK
6
CONTINUOUS
10
156.970499999999987
20
-117.2860000000000014
11
156.970499999999987
21
-103.1859999999999928
0
LINE
8
BLACK
6
CONTINUOUS
10
156.970499999999987
20
-103.1859999999999928
11
171.0704999999999814
21
-103.1859999999999928
0
LINE
8
BLACK
6
CONTINUOUS
10
171.0704999999999814
20
-103.1859999999999928
11
171.0704999999999814
21
-117.2860000000000014
0
LINE
8
BLACK
6
CONTINUOUS
10
209.1705000000000041
20
-117.2860000000000014
11
195.0704999999999814
21
-117.2860000000000014
0
LINE
8
BLACK
6
CONTINUOUS
10
195.0704999999999814
20
-117.2860000000000014
11
195.0704999999999814
21
-103.1859999999999928
0
LINE
8
BLACK
6
CONTINUOUS
10
195.0704999999999814
20
-103.1859999999999928
11
209.1705000000000041
21
-103.1859999999999928
0
LINE
8
BLACK
6
CONTINUOUS
10
209.1705000000000041
20
-103.1859999999999928
11
209.1705000000000041
21
-117.2860000000000014
0
LINE
8
BLACK
6
CONTINUOUS
10
213.9329999999999927
20
-79.1859999999999928
11
199.8329999999999984
21
-79.1859999999999928
0
LINE
8
BLACK
6
CONTINUOUS
10
199.8329999999999984
20
-79.1859999999999928
11
199.8329999999999984
21
-65.0859999999999985
0
LINE
8
BLACK
6
CONTINUOUS
10
199.8329999999999984
20
-65.0859999999999985
11
213.9329999999999927
21
-65.0859999999999985
0
LINE
8
BLACK
6
CONTINUOUS
10
213.9329999999999927
20
-65.0859999999999985
11
213.9329999999999927
21
-79.1859999999999928
0
LINE
8
BLACK
6
CONTINUOUS
10
142.4954999999999927
20
-136.3359999999999843
11
128.3954999999999984
21
-136.3359999999999843
0
LINE
8
BLACK
6
CONTINUOUS
10
128.3954999999999984
20
-136.3359999999999843
11
128.3954999999999984
21
-122.23599999999999
0
LINE
8
BLACK
6
CONTINUOUS
10
128.3954999999999984
20
-122.23599999999999
11
142.4954999999999927
21
-122.23599999999999
0
LINE
8
BLACK
6
CONTINUOUS
10
142.4954999999999927
20
-122.23599999999999
11
142.4954999999999927
21
-136.3359999999999843
0
LINE
8
BLACK
6
CONTINUOUS
10
128.2079999999999984
20
-98.23599999999999
11
114.1079999999999899
21
-98.23599999999999
0
LINE
8
BLACK
6
CONTINUOUS
10
114.1079999999999899
20
-98.23599999999999
11
114.1079999999999899
21
-84.1359999999999957
0
LINE
8
BLACK
6
CONTINUOUS
10
114.1079999999999899
20
-84.1359999999999957
11
128.2079999999999984
21
-84.1359999999999957
0
LINE
8
BLACK
6
CONTINUOUS
10
128.2079999999999984
20
-84.1359999999999957
11
128.2079999999999984
21
-98.23599999999999
0
LINE
8
BLACK
6
CONTINUOUS
10
51.389249999999997
20
-122.4654999999999916
11
51.389249999999997
21
-134.9654999999999916
0
LINE
8
BLACK
6
CONTINUOUS
10
51.389249999999997
20
-122.4654999999999916
11
53.5392499999999956
21
-122.4654999999999916
0
LINE
8
BLACK
6
CONTINUOUS
10
51.389249999999997
20
-134.9654999999999916
11
57.389249999999997
21
-134.9654999999999916
0
LINE
8
BLACK
6
CONTINUOUS
10
53.5392499999999956
20
-121.4259999999999877
11
53.5392499999999956
21
-122.4654999999999916
0
LINE
8
BLACK
6
CONTINUOUS
10
53.5392499999999956
20
-121.4259999999999877
11
55.2392499999999984
21
-121.4259999999999877
0
LINE
8
BLACK
6
CONTINUOUS
10
55.2392499999999984
20
-121.4259999999999877
11
55.2392499999999984
21
-122.4654999999999916
0
LINE
8
BLACK
6
CONTINUOUS
10
55.2392499999999984
20
-122.4654999999999916
11
57.389249999999997
21
-122.4654999999999916
0
LINE
8
BLACK
6
CONTINUOUS
10
57.389249999999997
20
-128.2860000000000014
11
57.389249999999997
21
-122.4654999999999916
0
LINE
8
BLACK
6
CONTINUOUS
10
57.389249999999997
20
-128.2860000000000014
11
59.379249999999999
21
-128.2860000000000014
0
LINE
8
BLACK
6
CONTINUOUS
10
57.389249999999997
20
-134.9654999999999916
11
57.389249999999997
21
-130.2860000000000014
0
LINE
8
BLACK
6
CONTINUOUS
10
59.379249999999999
20
-122.2759999999999962
11
59.379249999999999
21
-128.2860000000000014
0
LINE
8
BLACK
6
CONTINUOUS
10
59.379249999999999
20
-130.2860000000000014
11
57.389249999999997
21
-130.2860000000000014
0
LINE
8
BLACK
6
CONTINUOUS
10
59.379249999999999
20
-130.2860000000000014
11
59.379249999999999
21
-136.2959999999999923
0
LINE
8
BLACK
6
CONTINUOUS
10
59.379249999999999
20
-136.2959999999999923
11
73.399249999999995
21
-136.2959999999999923
0
LINE
8
BLACK
6
CONTINUOUS
10
73.399249999999995
20
-122.2759999999999962
11
59.379249999999999
21
-122.2759999999999962
0
LINE
8
BLACK
6
CONTINUOUS
10
73.399249999999995
20
-128.2860000000000014
11
73.399249999999995
21
-122.2759999999999962
0
LINE
8
BLACK
6
CONTINUOUS
10
73.399249999999995
20
-130.2860000000000014
11
75.3892499999999899
21
-130.2860000000000014
0
LINE
8
BLACK
6
CONTINUOUS
10
73.399249999999995
20
-136.2959999999999923
11
73.399249999999995
21
-130.2860000000000014
0
LINE
8
BLACK
6
CONTINUOUS
10
75.3892499999999899
20
-128.2860000000000014
11
73.399249999999995
21
-128.2860000000000014
0
LINE
8
BLACK
6
CONTINUOUS
10
75.3892499999999899
20
-128.2860000000000014
11
75.3892499999999899
21
-122.4654999999999916
0
LINE
8
BLACK
6
CONTINUOUS
10
75.3892499999999899
20
-134.9654999999999916
11
75.3892499999999899
21
-130.2860000000000014
0
LINE
8
BLACK
6
CONTINUOUS
10
77.5392499999999956
20
-121.4259999999999877
11
77.5392499999999956
21
-122.4654999999999916
0
LINE
8
BLACK
6
CONTINUOUS
10
77.5392499999999956
20
-122.4654999999999916
11
75.3892499999999899
21
-122.4654999999999916
0
LINE
8
BLACK
6
CONTINUOUS
10
79.2392499999999984
20
-121.4259999999999877
11
77.5392499999999956
21
-121.4259999999999877
0
LINE
8
BLACK
6
CONTINUOUS
10
79.2392499999999984
20
-121.4259999999999877
11
79.2392499999999984
21
-122.4654999999999916
0
LINE
8
BLACK
6
CONTINUOUS
10
81.3892499999999899
20
-122.4654999999999916
11
79.2392499999999984
21
-122.4654999999999916
0
LINE
8
BLACK
6
CONTINUOUS
10
81.3892499999999899
20
-122.4654999999999916
11
81.3892499999999899
21
-134.9654999999999916
0
LINE
8
BLACK
6
CONTINUOUS
10
81.3892499999999899
20
-134.9654999999999916
11
75.3892499999999899
21
-134.9654999999999916
0
LINE
8
BLACK
6
CONTINUOUS
10
118.6829999999999927
20
-79.1859999999999928
11
104.5829999999999984
21
-79.1859999999999928
0
LINE
8
BLACK
6
CONTINUOUS
10
104.5829999999999984
20
-79.1859999999999928
11
104.5829999999999984
21
-65.0859999999999985
0
LINE
8
BLACK
6
CONTINUOUS
10
104.5829999999999984
20
-65.0859999999999985
11
118.6829999999999927
21
-65.0859999999999985
0
LINE
8
BLACK
6
CONTINUOUS
10
118.6829999999999927
20
-65.0859999999999985
11
118.6829999999999927
21
-79.1859999999999928
0
LINE
8
BLACK
6
CONTINUOUS
10
90.1079999999999899
20
-98.23599999999999
11
76.0079999999999956
21
-98.23599999999999
0
LINE
8
BLACK
6
CONTINUOUS
10
76.0079999999999956
20
-98.23599999999999
11
76.0079999999999956
21
-84.1359999999999957
0
LINE
8
BLACK
6
CONTINUOUS
10
76.0079999999999956
20
-84.1359999999999957
11
90.1079999999999899
21
-84.1359999999999957
0
LINE
8
BLACK
6
CONTINUOUS
10
90.1079999999999899
20
-84.1359999999999957
11
90.1079999999999899
21
-98.23599999999999
0
LINE
8
BLACK
6
CONTINUOUS
10
280.6080000000000041
20
-98.23599999999999
11
266.5079999999999814
21
-98.23599999999999
0
LINE
8
BLACK
6
CONTINUOUS
10
266.5079999999999814
20
-98.23599999999999
11
266.5079999999999814
21
-84.1359999999999957
0
LINE
8
BLACK
6
CONTINUOUS
10
266.5079999999999814
20
-84.1359999999999957
11
280.6080000000000041
21
-84.1359999999999957
0
LINE
8
BLACK
6
CONTINUOUS
10
280.6080000000000041
20
-84.1359999999999957
11
280.6080000000000041
21
-98.23599999999999
0
LINE
8
BLACK
6
CONTINUOUS
10
180.595499999999987
20
-136.3359999999999843
11
166.4954999999999927
21
-136.3359999999999843
0
LINE
8
BLACK
6
CONTINUOUS
10
166.4954999999999927
20
-136.3359999999999843
11
166.4954999999999927
21
-122.23599999999999
0
LINE
8
BLACK
6
CONTINUOUS
10
166.4954999999999927
20
-122.23599999999999
11
180.595499999999987
21
-122.23599999999999
0
LINE
8
BLACK
6
CONTINUOUS
10
180.595499999999987
20
-122.23599999999999
11
180.595499999999987
21
-136.3359999999999843
0
LINE
8
BLACK
6
CONTINUOUS
10
94.8704999999999927
20
-117.2860000000000014
11
80.7704999999999984
21
-117.2860000000000014
0
LINE
8
BLACK
6
CONTINUOUS
10
80.7704999999999984
20
-117.2860000000000014
11
80.7704999999999984
21
-103.1859999999999928
0
LINE
8
BLACK
6
CONTINUOUS
10
80.7704999999999984
20
-103.1859999999999928
11
94.8704999999999927
21
-103.1859999999999928
0
LINE
8
BLACK
6
CONTINUOUS
10
94.8704999999999927
20
-103.1859999999999928
11
94.8704999999999927
21
-117.2860000000000014
0
LINE
8
BLACK
6
CONTINUOUS
10
296.6579999999999586
20
-65.3155000000000001
11
296.6579999999999586
21
-77.8155000000000001
0
LINE
8
BLACK
6
CONTINUOUS
10
296.6579999999999586
20
-65.3155000000000001
11
298.8079999999999927
21
-65.3155000000000001
0
LINE
8
BLACK
6
CONTINUOUS
10
296.6579999999999586
20
-77.8155000000000001
11
302.6579999999999586
21
-77.8155000000000001
0
LINE
8
BLACK
6
CONTINUOUS
10
298.8079999999999927
20
-64.2759999999999962
11
298.8079999999999927
21
-65.3155000000000001
0
LINE
8
BLACK
6
CONTINUOUS
10
298.8079999999999927
20
-64.2759999999999962
11
300.5079999999999814
21
-64.2759999999999962
0
LINE
8
BLACK
6
CONTINUOUS
10
300.5079999999999814
20
-64.2759999999999962
11
300.5079999999999814
21
-65.3155000000000001
0
LINE
8
BLACK
6
CONTINUOUS
10
300.5079999999999814
20
-65.3155000000000001
11
302.6579999999999586
21
-65.3155000000000001
0
LINE
8
BLACK
6
CONTINUOUS
10
302.6579999999999586
20
-71.1359999999999957
11
302.6579999999999586
21
-65.3155000000000001
0
LINE
8
BLACK
6
CONTINUOUS
10
302.6579999999999586
20
-71.1359999999999957
11
304.6479999999999677
21
-71.1359999999999957
0
LINE
8
BLACK
6
CONTINUOUS
10
302.6579999999999586
20
-77.8155000000000001
11
302.6579999999999586
21
-73.1359999999999957
0
LINE
8
BLACK
6
CONTINUOUS
10
304.6479999999999677
20
-65.1259999999999906
11
304.6479999999999677
21
-71.1359999999999957
0
LINE
8
BLACK
6
CONTINUOUS
10
304.6479999999999677
20
-73.1359999999999957
11
302.6579999999999586
21
-73.1359999999999957
0
LINE
8
BLACK
6
CONTINUOUS
10
304.6479999999999677
20
-73.1359999999999957
11
304.6479999999999677
21
-79.1460000000000008
0
LINE
8
BLACK
6
CONTINUOUS
10
304.6479999999999677
20
-79.1460000000000008
11
318.6680000000000064
21
-79.1460000000000008
0
LINE
8
BLACK
6
CONTINUOUS
10
318.6680000000000064
20
-65.1259999999999906
11
304.6479999999999677
21
-65.1259999999999906
0
LINE
8
BLACK
6
CONTINUOUS
10
318.6680000000000064
20
-71.1359999999999957
11
318.6680000000000064
21
-65.1259999999999906
0
LINE
8
BLACK
6
CONTINUOUS
10
318.6680000000000064
20
-73.1359999999999957
11
320.6579999999999586
21
-73.1359999999999957
0
LINE
8
BLACK
6
CONTINUOUS
10
318.6680000000000064
20
-79.1460000000000008
11
318.6680000000000064
21
-73.1359999999999957
0
LINE
8
BLACK
6
CONTINUOUS
10
320.6579999999999586
20
-71.1359999999999957
11
318.6680000000000064
21
-71.1359999999999957
0
LINE
8
BLACK
6
CONTINUOUS
10
320.6579999999999586
20
-71.1359999999999957
11
320.6579999999999586
21
-65.3155000000000001
0
LINE
8
BLACK
6
CONTINUOUS
10
320.6579999999999586
20
-77.8155000000000001
11
320.6579999999999586
21
-73.1359999999999957
0
LINE
8
BLACK
6
CONTINUOUS
10
322.8079999999999927
20
-64.2759999999999962
11
322.8079999999999927
21
-65.3155000000000001
0
LINE
8
BLACK
6
CONTINUOUS
10
322.8079999999999927
20
-65.3155000000000001
11
320.6579999999999586
21
-65.3155000000000001
0
LINE
8
BLACK
6
CONTINUOUS
10
324.5079999999999814
20
-64.2759999999999962
11
322.8079999999999927
21
-64.2759999999999962
0
LINE
8
BLACK
6
CONTINUOUS
10
324.5079999999999814
20
-64.2759999999999962
11
324.5079999999999814
21
-65.3155000000000001
0
LINE
8
BLACK
6
CONTINUOUS
10
326.6579999999999586
20
-65.3155000000000001
11
324.5079999999999814
21
-65.3155000000000001
0
LINE
8
BLACK
6
CONTINUOUS
10
326.6579999999999586
20
-65.3155000000000001
11
326.6579999999999586
21
-77.8155000000000001
0
LINE
8
BLACK
6
CONTINUOUS
10
326.6579999999999586
20
-77.8155000000000001
11
320.6579999999999586
21
-77.8155000000000001
0
LINE
8
BLACK
6
CONTINUOUS
10
118.6829999999999927
20
-55.3734999999999999
11
104.5829999999999984
21
-55.3734999999999999
0
LINE
8
BLACK
6
CONTINUOUS
10
104.5829999999999984
20
-55.3734999999999999
11
104.5829999999999984
21
-41.2734999999999985
0
LINE
8
BLACK
6
CONTINUOUS
10
104.5829999999999984
20
-41.2734999999999985
11
118.6829999999999927
21
-41.2734999999999985
0
LINE
8
BLACK
6
CONTINUOUS
10
118.6829999999999927
20
-41.2734999999999985
11
118.6829999999999927
21
-55.3734999999999999
0
LINE
8
BLACK
6
CONTINUOUS
10
223.4579999999999984
20
-98.23599999999999
11
209.3580000000000041
21
-98.23599999999999
0
LINE
8
BLACK
6
CONTINUOUS
10
209.3580000000000041
20
-98.23599999999999
11
209.3580000000000041
21
-84.1359999999999957
0
LINE
8
BLACK
6
CONTINUOUS
10
209.3580000000000041
20
-84.1359999999999957
11
223.4579999999999984
21
-84.1359999999999957
0
LINE
8
BLACK
6
CONTINUOUS
10
223.4579999999999984
20
-84.1359999999999957
11
223.4579999999999984
21
-98.23599999999999
0
LINE
8
BLACK
6
CONTINUOUS
10
63.9142499999999956
20
-155.3859999999999957
11
49.8142500000000013
21
-155.3859999999999957
0
LINE
8
BLACK
6
CONTINUOUS
10
49.8142500000000013
20
-155.3859999999999957
11
49.8142500000000013
21
-141.2860000000000014
0
LINE
8
BLACK
6
CONTINUOUS
10
49.8142500000000013
20
-141.2860000000000014
11
63.9142499999999956
21
-141.2860000000000014
0
LINE
8
BLACK
6
CONTINUOUS
10
63.9142499999999956
20
-141.2860000000000014
11
63.9142499999999956
21
-155.3859999999999957
0
LINE
8
BLACK
6
CONTINUOUS
10
232.9829999999999757
20
-79.1859999999999928
11
218.8829999999999814
21
-79.1859999999999928
0
LINE
8
BLACK
6
CONTINUOUS
10
218.8829999999999814
20
-79.1859999999999928
11
218.8829999999999814
21
-65.0859999999999985
0
LINE
8
BLACK
6
CONTINUOUS
10
218.8829999999999814
20
-65.0859999999999985
11
232.9829999999999757
21
-65.0859999999999985
0
LINE
8
BLACK
6
CONTINUOUS
10
232.9829999999999757
20
-65.0859999999999985
11
232.9829999999999757
21
-79.1859999999999928
0
LINE
8
BLACK
6
CONTINUOUS
10
132.970499999999987
20
-117.2860000000000014
11
118.8704999999999927
21
-117.2860000000000014
0
LINE
8
BLACK
6
CONTINUOUS
10
118.8704999999999927
20
-117.2860000000000014
11
118.8704999999999927
21
-103.1859999999999928
0
LINE
8
BLACK
6
CONTINUOUS
10
118.8704999999999927
20
-103.1859999999999928
11
132.970499999999987
21
-103.1859999999999928
0
LINE
8
BLACK
6
CONTINUOUS
10
132.970499999999987
20
-103.1859999999999928
11
132.970499999999987
21
-117.2860000000000014
0
LINE
8
BLACK
6
CONTINUOUS
10
104.3954999999999984
20
-136.3359999999999843
11
90.2954999999999899
21
-136.3359999999999843
0
LINE
8
BLACK
6
CONTINUOUS
10
90.2954999999999899
20
-136.3359999999999843
11
90.2954999999999899
21
-122.23599999999999
0
LINE
8
BLACK
6
CONTINUOUS
10
90.2954999999999899
20
-122.23599999999999
11
104.3954999999999984
21
-122.23599999999999
0
LINE
8
BLACK
6
CONTINUOUS
10
104.3954999999999984
20
-122.23599999999999
11
104.3954999999999984
21
-136.3359999999999843
0
LINE
8
BLACK
6
CONTINUOUS
10
137.7330000000000041
20
-55.3734999999999999
11
123.6329999999999956
21
-55.3734999999999999
0
LINE
8
BLACK
6
CONTINUOUS
10
123.6329999999999956
20
-55.3734999999999999
11
123.6329999999999956
21
-41.2734999999999985
0
LINE
8
BLACK
6
CONTINUOUS
10
123.6329999999999956
20
-41.2734999999999985
11
137.7330000000000041
21
-41.2734999999999985
0
LINE
8
BLACK
6
CONTINUOUS
10
137.7330000000000041
20
-41.2734999999999985
11
137.7330000000000041
21
-55.3734999999999999
0
LINE
8
BLACK
6
CONTINUOUS
10
166.3079999999999927
20
-98.23599999999999
11
152.2079999999999984
21
-98.23599999999999
0
LINE
8
BLACK
6
CONTINUOUS
10
152.2079999999999984
20
-98.23599999999999
11
152.2079999999999984
21
-84.1359999999999957
0
LINE
8
BLACK
6
CONTINUOUS
10
152.2079999999999984
20
-84.1359999999999957
11
166.3079999999999927
21
-84.1359999999999957
0
LINE
8
BLACK
6
CONTINUOUS
10
166.3079999999999927
20
-84.1359999999999957
11
166.3079999999999927
21
-98.23599999999999
0
LINE
8
BLACK
6
CONTINUOUS
10
266.3204999999999814
20
-117.2860000000000014
11
252.220499999999987
21
-117.2860000000000014
0
LINE
8
BLACK
6
CONTINUOUS
10
252.220499999999987
20
-117.2860000000000014
11
252.220499999999987
21
-103.1859999999999928
0
LINE
8
BLACK
6
CONTINUOUS
10
252.220499999999987
20
-103.1859999999999928
11
266.3204999999999814
21
-103.1859999999999928
0
LINE
8
BLACK
6
CONTINUOUS
10
266.3204999999999814
20
-103.1859999999999928
11
266.3204999999999814
21
-117.2860000000000014
0
LINE
8
BLACK
6
CONTINUOUS
10
332.9954999999999927
20
-155.3859999999999957
11
318.89549999999997
21
-155.3859999999999957
0
LINE
8
BLACK
6
CONTINUOUS
10
318.89549999999997
20
-155.3859999999999957
11
318.89549999999997
21
-141.2860000000000014
0
LINE
8
BLACK
6
CONTINUOUS
10
318.89549999999997
20
-141.2860000000000014
11
332.9954999999999927
21
-141.2860000000000014
0
LINE
8
BLACK
6
CONTINUOUS
10
332.9954999999999927
20
-141.2860000000000014
11
332.9954999999999927
21
-155.3859999999999957
0
LINE
8
BLACK
6
CONTINUOUS
10
242.5079999999999814
20
-55.3734999999999999
11
228.407999999999987
21
-55.3734999999999999
0
LINE
8
BLACK
6
CONTINUOUS
10
228.407999999999987
20
-55.3734999999999999
11
228.407999999999987
21
-41.2734999999999985
0
LINE
8
BLACK
6
CONTINUOUS
10
228.407999999999987
20
-41.2734999999999985
11
242.5079999999999814
21
-41.2734999999999985
0
LINE
8
BLACK
6
CONTINUOUS
10
242.5079999999999814
20
-41.2734999999999985
11
242.5079999999999814
21
-55.3734999999999999
0
LINE
8
BLACK
6
CONTINUOUS
10
147.2579999999999814
20
-98.23599999999999
11
133.157999999999987
21
-98.23599999999999
0
LINE
8
BLACK
6
CONTINUOUS
10
133.157999999999987
20
-98.23599999999999
11
133.157999999999987
21
-84.1359999999999957
0
LINE
8
BLACK
6
CONTINUOUS
10
133.157999999999987
20
-84.1359999999999957
11
147.2579999999999814
21
-84.1359999999999957
0
LINE
8
BLACK
6
CONTINUOUS
10
147.2579999999999814
20
-84.1359999999999957
11
147.2579999999999814
21
-98.23599999999999
0
LINE
8
BLACK
6
CONTINUOUS
10
66.2955000000000041
20
-98.23599999999999
11
52.1954999999999956
21
-98.23599999999999
0
LINE
8
BLACK
6
CONTINUOUS
10
52.1954999999999956
20
-98.23599999999999
11
52.1954999999999956
21
-84.1359999999999957
0
LINE
8
BLACK
6
CONTINUOUS
10
52.1954999999999956
20
-84.1359999999999957
11
66.2955000000000041
21
-84.1359999999999957
0
LINE
8
BLACK
6
CONTINUOUS
10
66.2955000000000041
20
-84.1359999999999957
11
66.2955000000000041
21
-98.23599999999999
0
LINE
8
BLACK
6
CONTINUOUS
10
261.5579999999999927
20
-98.23599999999999
11
247.4579999999999984
21
-98.23599999999999
0
LINE
8
BLACK
6
CONTINUOUS
10
247.4579999999999984
20
-98.23599999999999
11
247.4579999999999984
21
-84.1359999999999957
0
LINE
8
BLACK
6
CONTINUOUS
10
247.4579999999999984
20
-84.1359999999999957
11
261.5579999999999927
21
-84.1359999999999957
0
LINE
8
BLACK
6
CONTINUOUS
10
261.5579999999999927
20
-84.1359999999999957
11
261.5579999999999927
21
-98.23599999999999
0
LINE
8
BLACK
6
CONTINUOUS
10
352.0455000000000041
20
-55.3734999999999999
11
337.9454999999999814
21
-55.3734999999999999
0
LINE
8
BLACK
6
CONTINUOUS
10
337.9454999999999814
20
-55.3734999999999999
11
337.9454999999999814
21
-41.2734999999999985
0
LINE
8
BLACK
6
CONTINUOUS
10
337.9454999999999814
20
-41.2734999999999985
11
352.0455000000000041
21
-41.2734999999999985
0
LINE
8
BLACK
6
CONTINUOUS
10
352.0455000000000041
20
-41.2734999999999985
11
352.0455000000000041
21
-55.3734999999999999
0
LINE
8
BLACK
6
CONTINUOUS
10
87.7267499999999956
20
-155.3859999999999957
11
73.6267500000000013
21
-155.3859999999999957
0
LINE
8
BLACK
6
CONTINUOUS
10
73.6267500000000013
20
-155.3859999999999957
11
73.6267500000000013
21
-141.2860000000000014
0
LINE
8
BLACK
6
CONTINUOUS
10
73.6267500000000013
20
-141.2860000000000014
11
87.7267499999999956
21
-141.2860000000000014
0
LINE
8
BLACK
6
CONTINUOUS
10
87.7267499999999956
20
-141.2860000000000014
11
87.7267499999999956
21
-155.3859999999999957
0
LINE
8
BLACK
6
CONTINUOUS
10
99.6329999999999956
20
-79.1859999999999928
11
85.5330000000000013
21
-79.1859999999999928
0
LINE
8
BLACK
6
CONTINUOUS
10
85.5330000000000013
20
-79.1859999999999928
11
85.5330000000000013
21
-65.0859999999999985
0
LINE
8
BLACK
6
CONTINUOUS
10
85.5330000000000013
20
-65.0859999999999985
11
99.6329999999999956
21
-65.0859999999999985
0
LINE
8
BLACK
6
CONTINUOUS
10
99.6329999999999956
20
-65.0859999999999985
11
99.6329999999999956
21
-79.1859999999999928
0
LINE
8
BLACK
6
CONTINUOUS
10
122.9267499999999984
20
-141.515500000000003
11
122.9267499999999984
21
-154.015500000000003
0
LINE
8
BLACK
6
CONTINUOUS
10
122.9267499999999984
20
-141.515500000000003
11
125.0767499999999899
21
-141.515500000000003
0
LINE
8
BLACK
6
CONTINUOUS
10
122.9267499999999984
20
-154.015500000000003
11
128.9267499999999984
21
-154.015500000000003
0
LINE
8
BLACK
6
CONTINUOUS
10
125.0767499999999899
20
-140.5159999999999911
11
125.0767499999999899
21
-141.515500000000003
0
LINE
8
BLACK
6
CONTINUOUS
10
125.0767499999999899
20
-140.5159999999999911
11
126.7767499999999927
21
-140.5159999999999911
0
LINE
8
BLACK
6
CONTINUOUS
10
126.7767499999999927
20
-140.5159999999999911
11
126.7767499999999927
21
-141.515500000000003
0
LINE
8
BLACK
6
CONTINUOUS
10
126.7767499999999927
20
-141.515500000000003
11
128.9267499999999984
21
-141.515500000000003
0
LINE
8
BLACK
6
CONTINUOUS
10
128.9267499999999984
20
-147.3359999999999843
11
128.9267499999999984
21
-141.515500000000003
0
LINE
8
BLACK
6
CONTINUOUS
10
128.9267499999999984
20
-147.3359999999999843
11
168.876749999999987
21
-147.3359999999999843
0
LINE
8
BLACK
6
CONTINUOUS
10
128.9267499999999984
20
-154.015500000000003
11
128.9267499999999984
21
-149.3359999999999843
0
LINE
8
BLACK
6
CONTINUOUS
10
168.876749999999987
20
-141.2860000000000014
11
168.876749999999987
21
-147.3359999999999843
0
LINE
8
BLACK
6
CONTINUOUS
10
168.876749999999987
20
-149.3359999999999843
11
128.9267499999999984
21
-149.3359999999999843
0
LINE
8
BLACK
6
CONTINUOUS
10
168.876749999999987
20
-155.3859999999999957
11
168.876749999999987
21
-149.3359999999999843
0
LINE
8
BLACK
6
CONTINUOUS
10
168.876749999999987
20
-155.3859999999999957
11
182.9767499999999814
21
-155.3859999999999957
0
LINE
8
BLACK
6
CONTINUOUS
10
182.9767499999999814
20
-141.2860000000000014
11
168.876749999999987
21
-141.2860000000000014
0
LINE
8
BLACK
6
CONTINUOUS
10
182.9767499999999814
20
-147.3359999999999843
11
182.9767499999999814
21
-141.2860000000000014
0
LINE
8
BLACK
6
CONTINUOUS
10
182.9767499999999814
20
-149.3359999999999843
11
222.9267499999999984
21
-149.3359999999999843
0
LINE
8
BLACK
6
CONTINUOUS
10
182.9767499999999814
20
-155.3859999999999957
11
182.9767499999999814
21
-149.3359999999999843
0
LINE
8
BLACK
6
CONTINUOUS
10
222.9267499999999984
20
-147.3359999999999843
11
182.9767499999999814
21
-147.3359999999999843
0
LINE
8
BLACK
6
CONTINUOUS
10
222.9267499999999984
20
-147.3359999999999843
11
222.9267499999999984
21
-141.515500000000003
0
LINE
8
BLACK
6
CONTINUOUS
10
222.9267499999999984
20
-154.015500000000003
11
222.9267499999999984
21
-149.3359999999999843
0
LINE
8
BLACK
6
CONTINUOUS
10
225.0767499999999757
20
-140.5159999999999911
11
225.0767499999999757
21
-141.515500000000003
0
LINE
8
BLACK
6
CONTINUOUS
10
225.0767499999999757
20
-141.515500000000003
11
222.9267499999999984
21
-141.515500000000003
0
LINE
8
BLACK
6
CONTINUOUS
10
226.7767499999999927
20
-140.5159999999999911
11
225.0767499999999757
21
-140.5159999999999911
0
LINE
8
BLACK
6
CONTINUOUS
10
226.7767499999999927
20
-140.5159999999999911
11
226.7767499999999927
21
-141.515500000000003
0
LINE
8
BLACK
6
CONTINUOUS
10
228.9267499999999984
20
-141.515500000000003
11
226.7767499999999927
21
-141.515500000000003
0
LINE
8
BLACK
6
CONTINUOUS
10
228.9267499999999984
20
-141.515500000000003
11
228.9267499999999984
21
-154.015500000000003
0
LINE
8
BLACK
6
CONTINUOUS
10
228.9267499999999984
20
-154.015500000000003
11
222.9267499999999984
21
-154.015500000000003
0
LINE
8
BLACK
6
CONTINUOUS
10
256.7955000000000041
20
-136.3359999999999843
11
242.6954999999999814
21
-136.3359999999999843
0
LINE
8
BLACK
6
CONTINUOUS
10
242.6954999999999814
20
-136.3359999999999843
11
242.6954999999999814
21
-122.23599999999999
0
LINE
8
BLACK
6
CONTINUOUS
10
242.6954999999999814
20
-122.23599999999999
11
256.7955000000000041
21
-122.23599999999999
0
LINE
8
BLACK
6
CONTINUOUS
10
256.7955000000000041
20
-122.23599999999999
11
256.7955000000000041
21
-136.3359999999999843
0
LINE
8
BLACK
6
CONTINUOUS
10
185.3580000000000041
20
-98.23599999999999
11
171.2579999999999814
21
-98.23599999999999
0
LINE
8
BLACK
6
CONTINUOUS
10
171.2579999999999814
20
-98.23599999999999
11
171.2579999999999814
21
-84.1359999999999957
0
LINE
8
BLACK
6
CONTINUOUS
10
171.2579999999999814
20
-84.1359999999999957
11
185.3580000000000041
21
-84.1359999999999957
0
LINE
8
BLACK
6
CONTINUOUS
10
185.3580000000000041
20
-84.1359999999999957
11
185.3580000000000041
21
-98.23599999999999
0
LINE
8
BLACK
6
CONTINUOUS
10
156.782999999999987
20
-55.3734999999999999
11
142.6829999999999927
21
-55.3734999999999999
0
LINE
8
BLACK
6
CONTINUOUS
10
142.6829999999999927
20
-55.3734999999999999
11
142.6829999999999927
21
-41.2734999999999985
0
LINE
8
BLACK
6
CONTINUOUS
10
142.6829999999999927
20
-41.2734999999999985
11
156.782999999999987
21
-41.2734999999999985
0
LINE
8
BLACK
6
CONTINUOUS
10
156.782999999999987
20
-41.2734999999999985
11
156.782999999999987
21
-55.3734999999999999
0
LINE
8
BLACK
6
CONTINUOUS
10
185.3580000000000041
20
-55.3734999999999999
11
171.2579999999999814
21
-55.3734999999999999
0
LINE
8
BLACK
6
CONTINUOUS
10
171.2579999999999814
20
-55.3734999999999999
11
171.2579999999999814
21
-41.2734999999999985
0
LINE
8
BLACK
6
CONTINUOUS
10
171.2579999999999814
20
-41.2734999999999985
11
185.3580000000000041
21
-41.2734999999999985
0
LINE
8
BLACK
6
CONTINUOUS
10
185.3580000000000041
20
-41.2734999999999985
11
185.3580000000000041
21
-55.3734999999999999
0
LINE
8
BLACK
6
CONTINUOUS
10
152.0204999999999984
20
-117.2860000000000014
11
137.9205000000000041
21
-117.2860000000000014
0
LINE
8
BLACK
6
CONTINUOUS
10
137.9205000000000041
20
-117.2860000000000014
11
137.9205000000000041
21
-103.1859999999999928
0
LINE
8
BLACK
6
CONTINUOUS
10
137.9205000000000041
20
-103.1859999999999928
11
152.0204999999999984
21
-103.1859999999999928
0
LINE
8
BLACK
6
CONTINUOUS
10
152.0204999999999984
20
-103.1859999999999928
11
152.0204999999999984
21
-117.2860000000000014
0
LINE
8
BLACK
6
CONTINUOUS
10
371.0954999999999586
20
-55.3734999999999999
11
356.9954999999999927
21
-55.3734999999999999
0
LINE
8
BLACK
6
CONTINUOUS
10
356.9954999999999927
20
-55.3734999999999999
11
356.9954999999999927
21
-41.2734999999999985
0
LINE
8
BLACK
6
CONTINUOUS
10
356.9954999999999927
20
-41.2734999999999985
11
371.0954999999999586
21
-41.2734999999999985
0
LINE
8
BLACK
6
CONTINUOUS
10
371.0954999999999586
20
-41.2734999999999985
11
371.0954999999999586
21
-55.3734999999999999
0
LINE
8
BLACK
6
CONTINUOUS
10
271.08299999999997
20
-55.3734999999999999
11
256.9830000000000041
21
-55.3734999999999999
0
LINE
8
BLACK
6
CONTINUOUS
10
256.9830000000000041
20
-55.3734999999999999
11
256.9830000000000041
21
-41.2734999999999985
0
LINE
8
BLACK
6
CONTINUOUS
10
256.9830000000000041
20
-41.2734999999999985
11
271.08299999999997
21
-41.2734999999999985
0
LINE
8
BLACK
6
CONTINUOUS
10
271.08299999999997
20
-41.2734999999999985
11
271.08299999999997
21
-55.3734999999999999
0
LINE
8
BLACK
6
CONTINUOUS
10
352.0455000000000041
20
-136.3359999999999843
11
337.9454999999999814
21
-136.3359999999999843
0
LINE
8
BLACK
6
CONTINUOUS
10
337.9454999999999814
20
-136.3359999999999843
11
337.9454999999999814
21
-122.23599999999999
0
LINE
8
BLACK
6
CONTINUOUS
10
337.9454999999999814
20
-122.23599999999999
11
352.0455000000000041
21
-122.23599999999999
0
LINE
8
BLACK
6
CONTINUOUS
10
352.0455000000000041
20
-122.23599999999999
11
352.0455000000000041
21
-136.3359999999999843
0
LINE
8
BLACK
6
CONTINUOUS
10
252.032999999999987
20
-79.1859999999999928
11
237.9329999999999927
21
-79.1859999999999928
0
LINE
8
BLACK
6
CONTINUOUS
10
237.9329999999999927
20
-79.1859999999999928
11
237.9329999999999927
21
-65.0859999999999985
0
LINE
8
BLACK
6
CONTINUOUS
10
237.9329999999999927
20
-65.0859999999999985
11
252.032999999999987
21
-65.0859999999999985
0
LINE
8
BLACK
6
CONTINUOUS
10
252.032999999999987
20
-65.0859999999999985
11
252.032999999999987
21
-79.1859999999999928
0
LINE
8
BLACK
6
CONTINUOUS
10
323.4704999999999586
20
-98.23599999999999
11
309.3704999999999927
21
-98.23599999999999
0
LINE
8
BLACK
6
CONTINUOUS
10
309.3704999999999927
20
-98.23599999999999
11
309.3704999999999927
21
-84.1359999999999957
0
LINE
8
BLACK
6
CONTINUOUS
10
309.3704999999999927
20
-84.1359999999999957
11
323.4704999999999586
21
-84.1359999999999957
0
LINE
8
BLACK
6
CONTINUOUS
10
323.4704999999999586
20
-84.1359999999999957
11
323.4704999999999586
21
-98.23599999999999
0
LINE
8
BLACK
6
CONTINUOUS
10
278.2267499999999814
20
-155.3859999999999957
11
264.1267500000000155
21
-155.3859999999999957
0
LINE
8
BLACK
6
CONTINUOUS
10
264.1267500000000155
20
-155.3859999999999957
11
264.1267500000000155
21
-141.2860000000000014
0
LINE
8
BLACK
6
CONTINUOUS
10
264.1267500000000155
20
-141.2860000000000014
11
278.2267499999999814
21
-141.2860000000000014
0
LINE
8
BLACK
6
CONTINUOUS
10
278.2267499999999814
20
-141.2860000000000014
11
278.2267499999999814
21
-155.3859999999999957
0
LINE
8
BLACK
6
CONTINUOUS
10
223.4579999999999984
20
-55.3734999999999999
11
209.3580000000000041
21
-55.3734999999999999
0
LINE
8
BLACK
6
CONTINUOUS
10
209.3580000000000041
20
-55.3734999999999999
11
209.3580000000000041
21
-41.2734999999999985
0
LINE
8
BLACK
6
CONTINUOUS
10
209.3580000000000041
20
-41.2734999999999985
11
223.4579999999999984
21
-41.2734999999999985
0
LINE
8
BLACK
6
CONTINUOUS
10
223.4579999999999984
20
-41.2734999999999985
11
223.4579999999999984
21
-55.3734999999999999
0
LINE
8
BLACK
6
CONTINUOUS
10
80.5829999999999984
20
-79.1859999999999928
11
66.4830000000000041
21
-79.1859999999999928
0
LINE
8
BLACK
6
CONTINUOUS
10
66.4830000000000041
20
-79.1859999999999928
11
66.4830000000000041
21
-65.0859999999999985
0
LINE
8
BLACK
6
CONTINUOUS
10
66.4830000000000041
20
-65.0859999999999985
11
80.5829999999999984
21
-65.0859999999999985
0
LINE
8
BLACK
6
CONTINUOUS
10
80.5829999999999984
20
-65.0859999999999985
11
80.5829999999999984
21
-79.1859999999999928
0
LINE
8
BLACK
6
CONTINUOUS
10
61.5329999999999941
20
-55.3734999999999999
11
47.4329999999999998
21
-55.3734999999999999
0
LINE
8
BLACK
6
CONTINUOUS
10
47.4329999999999998
20
-55.3734999999999999
11
47.4329999999999998
21
-41.2734999999999985
0
LINE
8
BLACK
6
CONTINUOUS
10
47.4329999999999998
20
-41.2734999999999985
11
61.5329999999999941
21
-41.2734999999999985
0
LINE
8
BLACK
6
CONTINUOUS
10
61.5329999999999941
20
-41.2734999999999985
11
61.5329999999999941
21
-55.3734999999999999
0
LINE
8
BLACK
6
CONTINUOUS
10
294.2767499999999927
20
-103.4154999999999944
11
294.2767499999999927
21
-115.9154999999999944
0
LINE
8
BLACK
6
CONTINUOUS
10
294.2767499999999927
20
-103.4154999999999944
11
296.42674999999997
21
-103.4154999999999944
0
LINE
8
BLACK
6
CONTINUOUS
10
294.2767499999999927
20
-115.9154999999999944
11
300.2767499999999927
21
-115.9154999999999944
0
LINE
8
BLACK
6
CONTINUOUS
10
296.42674999999997
20
-102.3759999999999906
11
296.42674999999997
21
-103.4154999999999944
0
LINE
8
BLACK
6
CONTINUOUS
10
296.42674999999997
20
-102.3759999999999906
11
298.1267499999999586
21
-102.3759999999999906
0
LINE
8
BLACK
6
CONTINUOUS
10
298.1267499999999586
20
-102.3759999999999906
11
298.1267499999999586
21
-103.4154999999999944
0
LINE
8
BLACK
6
CONTINUOUS
10
298.1267499999999586
20
-103.4154999999999944
11
300.2767499999999927
21
-103.4154999999999944
0
LINE
8
BLACK
6
CONTINUOUS
10
300.2767499999999927
20
-109.23599999999999
11
300.2767499999999927
21
-103.4154999999999944
0
LINE
8
BLACK
6
CONTINUOUS
10
300.2767499999999927
20
-109.23599999999999
11
302.2667500000000018
21
-109.23599999999999
0
LINE
8
BLACK
6
CONTINUOUS
10
300.2767499999999927
20
-115.9154999999999944
11
300.2767499999999927
21
-111.23599999999999
0
LINE
8
BLACK
6
CONTINUOUS
10
302.2667500000000018
20
-103.2259999999999991
11
302.2667500000000018
21
-109.23599999999999
0
LINE
8
BLACK
6
CONTINUOUS
10
302.2667500000000018
20
-111.23599999999999
11
300.2767499999999927
21
-111.23599999999999
0
LINE
8
BLACK
6
CONTINUOUS
10
302.2667500000000018
20
-111.23599999999999
11
302.2667500000000018
21
-117.2459999999999951
0
LINE
8
BLACK
6
CONTINUOUS
10
302.2667500000000018
20
-117.2459999999999951
11
316.2867499999999836
21
-117.2459999999999951
0
LINE
8
BLACK
6
CONTINUOUS
10
316.2867499999999836
20
-103.2259999999999991
11
302.2667500000000018
21
-103.2259999999999991
0
LINE
8
BLACK
6
CONTINUOUS
10
316.2867499999999836
20
-109.23599999999999
11
316.2867499999999836
21
-103.2259999999999991
0
LINE
8
BLACK
6
CONTINUOUS
10
316.2867499999999836
20
-111.23599999999999
11
318.2767499999999927
21
-111.23599999999999
0
LINE
8
BLACK
6
CONTINUOUS
10
316.2867499999999836
20
-117.2459999999999951
11
316.2867499999999836
21
-111.23599999999999
0
LINE
8
BLACK
6
CONTINUOUS
10
318.2767499999999927
20
-109.23599999999999
11
316.2867499999999836
21
-109.23599999999999
0
LINE
8
BLACK
6
CONTINUOUS
10
318.2767499999999927
20
-109.23599999999999
11
318.2767499999999927
21
-103.4154999999999944
0
LINE
8
BLACK
6
CONTINUOUS
10
318.2767499999999927
20
-115.9154999999999944
11
318.2767499999999927
21
-111.23599999999999
0
LINE
8
BLACK
6
CONTINUOUS
10
320.42674999999997
20
-102.3759999999999906
11
320.42674999999997
21
-103.4154999999999944
0
LINE
8
BLACK
6
CONTINUOUS
10
320.42674999999997
20
-103.4154999999999944
11
318.2767499999999927
21
-103.4154999999999944
0
LINE
8
BLACK
6
CONTINUOUS
10
322.1267499999999586
20
-102.3759999999999906
11
320.42674999999997
21
-102.3759999999999906
0
LINE
8
BLACK
6
CONTINUOUS
10
322.1267499999999586
20
-102.3759999999999906
11
322.1267499999999586
21
-103.4154999999999944
0
LINE
8
BLACK
6
CONTINUOUS
10
324.2767499999999927
20
-103.4154999999999944
11
322.1267499999999586
21
-103.4154999999999944
0
LINE
8
BLACK
6
CONTINUOUS
10
324.2767499999999927
20
-103.4154999999999944
11
324.2767499999999927
21
-115.9154999999999944
0
LINE
8
BLACK
6
CONTINUOUS
10
324.2767499999999927
20
-115.9154999999999944
11
318.2767499999999927
21
-115.9154999999999944
0
LINE
8
BLACK
6
CONTINUOUS
10
371.0954999999999586
20
-155.3859999999999957
11
356.9954999999999927
21
-155.3859999999999957
0
LINE
8
BLACK
6
CONTINUOUS
10
356.9954999999999927
20
-155.3859999999999957
11
356.9954999999999927
21
-141.2860000000000014
0
LINE
8
BLACK
6
CONTINUOUS
10
356.9954999999999927
20
-141.2860000000000014
11
371.0954999999999586
21
-141.2860000000000014
0
LINE
8
BLACK
6
CONTINUOUS
10
371.0954999999999586
20
-141.2860000000000014
11
371.0954999999999586
21
-155.3859999999999957
0
LINE
8
BLACK
6
CONTINUOUS
10
204.407999999999987
20
-98.23599999999999
11
190.3079999999999927
21
-98.23599999999999
0
LINE
8
BLACK
6
CONTINUOUS
10
190.3079999999999927
20
-98.23599999999999
11
190.3079999999999927
21
-84.1359999999999957
0
LINE
8
BLACK
6
CONTINUOUS
10
190.3079999999999927
20
-84.1359999999999957
11
204.407999999999987
21
-84.1359999999999957
0
LINE
8
BLACK
6
CONTINUOUS
10
204.407999999999987
20
-84.1359999999999957
11
204.407999999999987
21
-98.23599999999999
0
LINE
8
BLACK
6
CONTINUOUS
10
299.6579999999999586
20
-98.23599999999999
11
285.5579999999999927
21
-98.23599999999999
0
LINE
8
BLACK
6
CONTINUOUS
10
285.5579999999999927
20
-98.23599999999999
11
285.5579999999999927
21
-84.1359999999999957
0
LINE
8
BLACK
6
CONTINUOUS
10
285.5579999999999927
20
-84.1359999999999957
11
299.6579999999999586
21
-84.1359999999999957
0
LINE
8
BLACK
6
CONTINUOUS
10
299.6579999999999586
20
-84.1359999999999957
11
299.6579999999999586
21
-98.23599999999999
0
LINE
8
BLACK
6
CONTINUOUS
10
254.4142499999999814
20
-155.3859999999999957
11
240.314249999999987
21
-155.3859999999999957
0
LINE
8
BLACK
6
CONTINUOUS
10
240.314249999999987
20
-155.3859999999999957
11
240.314249999999987
21
-141.2860000000000014
0
LINE
8
BLACK
6
CONTINUOUS
10
240.314249999999987
20
-141.2860000000000014
11
254.4142499999999814
21
-141.2860000000000014
0
LINE
8
BLACK
6
CONTINUOUS
10
254.4142499999999814
20
-141.2860000000000014
11
254.4142499999999814
21
-155.3859999999999957
0
LINE
8
BLACK
6
CONTINUOUS
10
247.2704999999999984
20
-117.2860000000000014
11
233.1704999999999757
21
-117.2860000000000014
0
LINE
8
BLACK
6
CONTINUOUS
10
233.1704999999999757
20
-117.2860000000000014
11
233.1704999999999757
21
-103.1859999999999928
0
LINE
8
BLACK
6
CONTINUOUS
10
233.1704999999999757
20
-103.1859999999999928
11
247.2704999999999984
21
-103.1859999999999928
0
LINE
8
BLACK
6
CONTINUOUS
10
247.2704999999999984
20
-103.1859999999999928
11
247.2704999999999984
21
-117.2860000000000014
0
LINE
8
BLACK
6
CONTINUOUS
10
285.3704999999999927
20
-117.2860000000000014
11
271.27049999999997
21
-117.2860000000000014
0
LINE
8
BLACK
6
CONTINUOUS
10
271.27049999999997
20
-117.2860000000000014
11
271.27049999999997
21
-103.1859999999999928
0
LINE
8
BLACK
6
CONTINUOUS
10
271.27049999999997
20
-103.1859999999999928
11
285.3704999999999927
21
-103.1859999999999928
0
LINE
8
BLACK
6
CONTINUOUS
10
285.3704999999999927
20
-103.1859999999999928
11
285.3704999999999927
21
-117.2860000000000014
0
LINE
8
BLACK
6
CONTINUOUS
10
161.5455000000000041
20
-136.3359999999999843
11
147.4454999999999814
21
-136.3359999999999843
0
LINE
8
BLACK
6
CONTINUOUS
10
147.4454999999999814
20
-136.3359999999999843
11
147.4454999999999814
21
-122.23599999999999
0
LINE
8
BLACK
6
CONTINUOUS
10
147.4454999999999814
20
-122.23599999999999
11
161.5455000000000041
21
-122.23599999999999
0
LINE
8
BLACK
6
CONTINUOUS
10
161.5455000000000041
20
-122.23599999999999
11
161.5455000000000041
21
-136.3359999999999843
0
LINE
8
BLACK
6
CONTINUOUS
10
289.5142500000000041
20
-122.4654999999999916
11
289.5142500000000041
21
-134.9654999999999916
0
LINE
8
BLACK
6
CONTINUOUS
10
289.5142500000000041
20
-122.4654999999999916
11
291.6642499999999814
21
-122.4654999999999916
0
LINE
8
BLACK
6
CONTINUOUS
10
289.5142500000000041
20
-134.9654999999999916
11
295.5142500000000041
21
-134.9654999999999916
0
LINE
8
BLACK
6
CONTINUOUS
10
291.6642499999999814
20
-121.4259999999999877
11
291.6642499999999814
21
-122.4654999999999916
0
LINE
8
BLACK
6
CONTINUOUS
10
291.6642499999999814
20
-121.4259999999999877
11
293.36424999999997
21
-121.4259999999999877
0
LINE
8
BLACK
6
CONTINUOUS
10
293.36424999999997
20
-121.4259999999999877
11
293.36424999999997
21
-122.4654999999999916
0
LINE
8
BLACK
6
CONTINUOUS
10
293.36424999999997
20
-122.4654999999999916
11
295.5142500000000041
21
-122.4654999999999916
0
LINE
8
BLACK
6
CONTINUOUS
10
295.5142500000000041
20
-128.2860000000000014
11
295.5142500000000041
21
-122.4654999999999916
0
LINE
8
BLACK
6
CONTINUOUS
10
295.5142500000000041
20
-128.2860000000000014
11
297.5042500000000132
21
-128.2860000000000014
0
LINE
8
BLACK
6
CONTINUOUS
10
295.5142500000000041
20
-134.9654999999999916
11
295.5142500000000041
21
-130.2860000000000014
0
LINE
8
BLACK
6
CONTINUOUS
10
297.5042500000000132
20
-122.2759999999999962
11
297.5042500000000132
21
-128.2860000000000014
0
LINE
8
BLACK
6
CONTINUOUS
10
297.5042500000000132
20
-130.2860000000000014
11
295.5142500000000041
21
-130.2860000000000014
0
LINE
8
BLACK
6
CONTINUOUS
10
297.5042500000000132
20
-130.2860000000000014
11
297.5042500000000132
21
-136.2959999999999923
0
LINE
8
BLACK
6
CONTINUOUS
10
297.5042500000000132
20
-136.2959999999999923
11
311.524249999999995
21
-136.2959999999999923
0
LINE
8
BLACK
6
CONTINUOUS
10
311.524249999999995
20
-122.2759999999999962
11
297.5042500000000132
21
-122.2759999999999962
0
LINE
8
BLACK
6
CONTINUOUS
10
311.524249999999995
20
-128.2860000000000014
11
311.524249999999995
21
-122.2759999999999962
0
LINE
8
BLACK
6
CONTINUOUS
10
311.524249999999995
20
-130.2860000000000014
11
313.5142500000000041
21
-130.2860000000000014
0
LINE
8
BLACK
6
CONTINUOUS
10
311.524249999999995
20
-136.2959999999999923
11
311.524249999999995
21
-130.2860000000000014
0
LINE
8
BLACK
6
CONTINUOUS
10
313.5142500000000041
20
-128.2860000000000014
11
311.524249999999995
21
-128.2860000000000014
0
LINE
8
BLACK
6
CONTINUOUS
10
313.5142500000000041
20
-128.2860000000000014
11
313.5142500000000041
21
-122.4654999999999916
0
LINE
8
BLACK
6
CONTINUOUS
10
313.5142500000000041
20
-134.9654999999999916
11
313.5142500000000041
21
-130.2860000000000014
0
LINE
8
BLACK
6
CONTINUOUS
10
315.6642499999999814
20
-121.4259999999999877
11
315.6642499999999814
21
-122.4654999999999916
0
LINE
8
BLACK
6
CONTINUOUS
10
315.6642499999999814
20
-122.4654999999999916
11
313.5142500000000041
21
-122.4654999999999916
0
LINE
8
BLACK
6
CONTINUOUS
10
317.36424999999997
20
-121.4259999999999877
11
315.6642499999999814
21
-121.4259999999999877
0
LINE
8
BLACK
6
CONTINUOUS
10
317.36424999999997
20
-121.4259999999999877
11
317.36424999999997
21
-122.4654999999999916
0
LINE
8
BLACK
6
CONTINUOUS
10
319.5142500000000041
20
-122.4654999999999916
11
317.36424999999997
21
-122.4654999999999916
0
LINE
8
BLACK
6
CONTINUOUS
10
319.5142500000000041
20
-122.4654999999999916
11
319.5142500000000041
21
-134.9654999999999916
0
LINE
8
BLACK
6
CONTINUOUS
10
319.5142500000000041
20
-134.9654999999999916
11
313.5142500000000041
21
-134.9654999999999916
0
LINE
8
BLACK
6
CONTINUOUS
10
99.6329999999999956
20
-55.3734999999999999
11
85.5330000000000013
21
-55.3734999999999999
0
LINE
8
BLACK
6
CONTINUOUS
10
85.5330000000000013
20
-55.3734999999999999
11
85.5330000000000013
21
-41.2734999999999985
0
LINE
8
BLACK
6
CONTINUOUS
10
85.5330000000000013
20
-41.2734999999999985
11
99.6329999999999956
21
-41.2734999999999985
0
LINE
8
BLACK
6
CONTINUOUS
10
99.6329999999999956
20
-41.2734999999999985
11
99.6329999999999956
21
-55.3734999999999999
0
LINE
8
BLACK
6
CONTINUOUS
10
290.1329999999999814
20
-79.1859999999999928
11
276.0330000000000155
21
-79.1859999999999928
0
LINE
8
BLACK
6
CONTINUOUS
10
276.0330000000000155
20
-79.1859999999999928
11
276.0330000000000155
21
-65.0859999999999985
0
LINE
8
BLACK
6
CONTINUOUS
10
276.0330000000000155
20
-65.0859999999999985
11
290.1329999999999814
21
-65.0859999999999985
0
LINE
8
BLACK
6
CONTINUOUS
10
290.1329999999999814
20
-65.0859999999999985
11
290.1329999999999814
21
-79.1859999999999928
0
LINE
8
BLACK
6
CONTINUOUS
10
61.5329999999999941
20
-79.1859999999999928
11
47.4329999999999998
21
-79.1859999999999928
0
LINE
8
BLACK
6
CONTINUOUS
10
47.4329999999999998
20
-79.1859999999999928
11
47.4329999999999998
21
-65.0859999999999985
0
LINE
8
BLACK
6
CONTINUOUS
10
47.4329999999999998
20
-65.0859999999999985
11
61.5329999999999941
21
-65.0859999999999985
0
LINE
8
BLACK
6
CONTINUOUS
10
61.5329999999999941
20
-65.0859999999999985
11
61.5329999999999941
21
-79.1859999999999928
0
LINE
8
BLACK
6
CONTINUOUS
10
228.220499999999987
20
-117.2860000000000014
11
214.1204999999999927
21
-117.2860000000000014
0
LINE
8
BLACK
6
CONTINUOUS
10
214.1204999999999927
20
-117.2860000000000014
11
214.1204999999999927
21
-103.1859999999999928
0
LINE
8
BLACK
6
CONTINUOUS
10
214.1204999999999927
20
-103.1859999999999928
11
228.220499999999987
21
-103.1859999999999928
0
LINE
8
BLACK
6
CONTINUOUS
10
228.220499999999987
20
-103.1859999999999928
11
228.220499999999987
21
-117.2860000000000014
0
LINE
8
BLACK
6
CONTINUOUS
10
123.4454999999999956
20
-136.3359999999999843
11
109.3455000000000013
21
-136.3359999999999843
0
LINE
8
BLACK
6
CONTINUOUS
10
109.3455000000000013
20
-136.3359999999999843
11
109.3455000000000013
21
-122.23599999999999
0
LINE
8
BLACK
6
CONTINUOUS
10
109.3455000000000013
20
-122.23599999999999
11
123.4454999999999956
21
-122.23599999999999
0
LINE
8
BLACK
6
CONTINUOUS
10
123.4454999999999956
20
-122.23599999999999
11
123.4454999999999956
21
-136.3359999999999843
0
LINE
8
BLACK
6
CONTINUOUS
10
199.6454999999999984
20
-136.3359999999999843
11
185.5455000000000041
21
-136.3359999999999843
0
LINE
8
BLACK
6
CONTINUOUS
10
185.5455000000000041
20
-136.3359999999999843
11
185.5455000000000041
21
-122.23599999999999
0
LINE
8
BLACK
6
CONTINUOUS
10
185.5455000000000041
20
-122.23599999999999
11
199.6454999999999984
21
-122.23599999999999
0
LINE
8
BLACK
6
CONTINUOUS
10
199.6454999999999984
20
-122.23599999999999
11
199.6454999999999984
21
-136.3359999999999843
0
LINE
8
BLACK
6
CONTINUOUS
10
371.0954999999999586
20
-98.23599999999999
11
356.9954999999999927
21
-98.23599999999999
0
LINE
8
BLACK
6
CONTINUOUS
10
356.9954999999999927
20
-98.23599999999999
11
356.9954999999999927
21
-84.1359999999999957
0
LINE
8
BLACK
6
CONTINUOUS
10
356.9954999999999927
20
-84.1359999999999957
11
371.0954999999999586
21
-84.1359999999999957
0
LINE
8
BLACK
6
CONTINUOUS
10
371.0954999999999586
20
-84.1359999999999957
11
371.0954999999999586
21
-98.23599999999999
0
LINE
8
BLACK
6
CONTINUOUS
10
218.6954999999999814
20
-136.3359999999999843
11
204.595499999999987
21
-136.3359999999999843
0
LINE
8
BLACK
6
CONTINUOUS
10
204.595499999999987
20
-136.3359999999999843
11
204.595499999999987
21
-122.23599999999999
0
LINE
8
BLACK
6
CONTINUOUS
10
204.595499999999987
20
-122.23599999999999
11
218.6954999999999814
21
-122.23599999999999
0
LINE
8
BLACK
6
CONTINUOUS
10
218.6954999999999814
20
-122.23599999999999
11
218.6954999999999814
21
-136.3359999999999843
0
LINE
8
BLACK
6
CONTINUOUS
10
242.5079999999999814
20
-98.23599999999999
11
228.407999999999987
21
-98.23599999999999
0
LINE
8
BLACK
6
CONTINUOUS
10
228.407999999999987
20
-98.23599999999999
11
228.407999999999987
21
-84.1359999999999957
0
LINE
8
BLACK
6
CONTINUOUS
10
228.407999999999987
20
-84.1359999999999957
11
242.5079999999999814
21
-84.1359999999999957
0
LINE
8
BLACK
6
CONTINUOUS
10
242.5079999999999814
20
-84.1359999999999957
11
242.5079999999999814
21
-98.23599999999999
0
LINE
8
BLACK
6
CONTINUOUS
10
275.8455000000000155
20
-136.3359999999999843
11
261.7454999999999927
21
-136.3359999999999843
0
LINE
8
BLACK
6
CONTINUOUS
10
261.7454999999999927
20
-136.3359999999999843
11
261.7454999999999927
21
-122.23599999999999
0
LINE
8
BLACK
6
CONTINUOUS
10
261.7454999999999927
20
-122.23599999999999
11
275.8455000000000155
21
-122.23599999999999
0
LINE
8
BLACK
6
CONTINUOUS
10
275.8455000000000155
20
-122.23599999999999
11
275.8455000000000155
21
-136.3359999999999843
0
LINE
8
BLACK
6
CONTINUOUS
10
290.1329999999999814
20
-55.3734999999999999
11
276.0330000000000155
21
-55.3734999999999999
0
LINE
8
BLACK
6
CONTINUOUS
10
276.0330000000000155
20
-55.3734999999999999
11
276.0330000000000155
21
-41.2734999999999985
0
LINE
8
BLACK
6
CONTINUOUS
10
276.0330000000000155
20
-41.2734999999999985
11
290.1329999999999814
21
-41.2734999999999985
0
LINE
8
BLACK
6
CONTINUOUS
10
290.1329999999999814
20
-41.2734999999999985
11
290.1329999999999814
21
-55.3734999999999999
0
LINE
8
BLACK
6
CONTINUOUS
10
204.407999999999987
20
-55.3734999999999999
11
190.3079999999999927
21
-55.3734999999999999
0
LINE
8
BLACK
6
CONTINUOUS
10
190.3079999999999927
20
-55.3734999999999999
11
190.3079999999999927
21
-41.2734999999999985
0
LINE
8
BLACK
6
CONTINUOUS
10
190.3079999999999927
20
-41.2734999999999985
11
204.407999999999987
21
-41.2734999999999985
0
LINE
8
BLACK
6
CONTINUOUS
10
204.407999999999987
20
-41.2734999999999985
11
204.407999999999987
21
-55.3734999999999999
0
LINE
8
BLACK
6
CONTINUOUS
10
352.0455000000000041
20
-155.3859999999999957
11
337.9454999999999814
21
-155.3859999999999957
0
LINE
8
BLACK
6
CONTINUOUS
10
337.9454999999999814
20
-155.3859999999999957
11
337.9454999999999814
21
-141.2860000000000014
0
LINE
8
BLACK
6
CONTINUOUS
10
337.9454999999999814
20
-141.2860000000000014
11
352.0455000000000041
21
-141.2860000000000014
0
LINE
8
BLACK
6
CONTINUOUS
10
352.0455000000000041
20
-141.2860000000000014
11
352.0455000000000041
21
-155.3859999999999957
0
LINE
8
BLACK
6
CONTINUOUS
10
302.0392499999999814
20
-155.3859999999999957
11
287.9392499999999586
21
-155.3859999999999957
0
LINE
8
BLACK
6
CONTINUOUS
10
287.9392499999999586
20
-155.3859999999999957
11
287.9392499999999586
21
-141.2860000000000014
0
LINE
8
BLACK
6
CONTINUOUS
10
287.9392499999999586
20
-141.2860000000000014
11
302.0392499999999814
21
-141.2860000000000014
0
LINE
8
BLACK
6
CONTINUOUS
10
302.0392499999999814
20
-141.2860000000000014
11
302.0392499999999814
21
-155.3859999999999957
0
LINE
8
BLACK
6
CONTINUOUS
10
352.0455000000000041
20
-79.1859999999999928
11
337.9454999999999814
21
-79.1859999999999928
0
LINE
8
BLACK
6
CONTINUOUS
10
337.9454999999999814
20
-79.1859999999999928
11
337.9454999999999814
21
-65.0859999999999985
0
LINE
8
BLACK
6
CONTINUOUS
10
337.9454999999999814
20
-65.0859999999999985
11
352.0455000000000041
21
-65.0859999999999985
0
LINE
8
BLACK
6
CONTINUOUS
10
352.0455000000000041
20
-65.0859999999999985
11
352.0455000000000041
21
-79.1859999999999928
0
LINE
8
BLACK
6
CONTINUOUS
10
271.08299999999997
20
-79.1859999999999928
11
256.9830000000000041
21
-79.1859999999999928
0
LINE
8
BLACK
6
CONTINUOUS
10
256.9830000000000041
20
-79.1859999999999928
11
256.9830000000000041
21
-65.0859999999999985
0
LINE
8
BLACK
6
CONTINUOUS
10
256.9830000000000041
20
-65.0859999999999985
11
271.08299999999997
21
-65.0859999999999985
0
LINE
8
BLACK
6
CONTINUOUS
10
271.08299999999997
20
-65.0859999999999985
11
271.08299999999997
21
-79.1859999999999928
0
LINE
8
BLACK
6
CONTINUOUS
10
190.1204999999999927
20
-117.2860000000000014
11
176.0204999999999984
21
-117.2860000000000014
0
LINE
8
BLACK
6
CONTINUOUS
10
176.0204999999999984
20
-117.2860000000000014
11
176.0204999999999984
21
-103.1859999999999928
0
LINE
8
BLACK
6
CONTINUOUS
10
176.0204999999999984
20
-103.1859999999999928
11
190.1204999999999927
21
-103.1859999999999928
0
LINE
8
BLACK
6
CONTINUOUS
10
190.1204999999999927
20
-103.1859999999999928
11
190.1204999999999927
21
-117.2860000000000014
0
LINE
8
BLACK
6
CONTINUOUS
10
328.2330000000000041
20
-55.3734999999999999
11
314.1329999999999814
21
-55.3734999999999999
0
LINE
8
BLACK
6
CONTINUOUS
10
314.1329999999999814
20
-55.3734999999999999
11
314.1329999999999814
21
-41.2734999999999985
0
LINE
8
BLACK
6
CONTINUOUS
10
314.1329999999999814
20
-41.2734999999999985
11
328.2330000000000041
21
-41.2734999999999985
0
LINE
8
BLACK
6
CONTINUOUS
10
328.2330000000000041
20
-41.2734999999999985
11
328.2330000000000041
21
-55.3734999999999999
0
LINE
8
BLACK
6
CONTINUOUS
10
194.8829999999999814
20
-79.1859999999999928
11
180.782999999999987
21
-79.1859999999999928
0
LINE
8
BLACK
6
CONTINUOUS
10
180.782999999999987
20
-79.1859999999999928
11
180.782999999999987
21
-65.0859999999999985
0
LINE
8
BLACK
6
CONTINUOUS
10
180.782999999999987
20
-65.0859999999999985
11
194.8829999999999814
21
-65.0859999999999985
0
LINE
8
BLACK
6
CONTINUOUS
10
194.8829999999999814
20
-65.0859999999999985
11
194.8829999999999814
21
-79.1859999999999928
0
LINE
8
BLACK
6
CONTINUOUS
10
137.7330000000000041
20
-79.1859999999999928
11
123.6329999999999956
21
-79.1859999999999928
0
LINE
8
BLACK
6
CONTINUOUS
10
123.6329999999999956
20
-79.1859999999999928
11
123.6329999999999956
21
-65.0859999999999985
0
LINE
8
BLACK
6
CONTINUOUS
10
123.6329999999999956
20
-65.0859999999999985
11
137.7330000000000041
21
-65.0859999999999985
0
LINE
8
BLACK
6
CONTINUOUS
10
137.7330000000000041
20
-65.0859999999999985
11
137.7330000000000041
21
-79.1859999999999928
0
LINE
8
BLACK
6
CONTINUOUS
10
371.0954999999999586
20
-79.1859999999999928
11
356.9954999999999927
21
-79.1859999999999928
0
LINE
8
BLACK
6
CONTINUOUS
10
356.9954999999999927
20
-79.1859999999999928
11
356.9954999999999927
21
-65.0859999999999985
0
LINE
8
BLACK
6
CONTINUOUS
10
356.9954999999999927
20
-65.0859999999999985
11
371.0954999999999586
21
-65.0859999999999985
0
LINE
8
BLACK
6
CONTINUOUS
10
371.0954999999999586
20
-65.0859999999999985
11
371.0954999999999586
21
-79.1859999999999928
0
LINE
8
BLACK
6
CONTINUOUS
10
352.0455000000000041
20
-98.23599999999999
11
337.9454999999999814
21
-98.23599999999999
0
LINE
8
BLACK
6
CONTINUOUS
10
337.9454999999999814
20
-98.23599999999999
11
337.9454999999999814
21
-84.1359999999999957
0
LINE
8
BLACK
6
CONTINUOUS
10
337.9454999999999814
20
-84.1359999999999957
11
352.0455000000000041
21
-84.1359999999999957
0
LINE
8
BLACK
6
CONTINUOUS
10
352.0455000000000041
20
-84.1359999999999957
11
352.0455000000000041
21
-98.23599999999999
0
LINE
8
BLACK
6
CONTINUOUS
10
46.6267500000000013
20
-103.4154999999999944
11
46.6267500000000013
21
-115.9154999999999944
0
LINE
8
BLACK
6
CONTINUOUS
10
46.6267500000000013
20
-103.4154999999999944
11
48.7767499999999998
21
-103.4154999999999944
0
LINE
8
BLACK
6
CONTINUOUS
10
46.6267500000000013
20
-115.9154999999999944
11
52.6267499999999941
21
-115.9154999999999944
0
LINE
8
BLACK
6
CONTINUOUS
10
48.7767499999999998
20
-102.3759999999999906
11
48.7767499999999998
21
-103.4154999999999944
0
LINE
8
BLACK
6
CONTINUOUS
10
48.7767499999999998
20
-102.3759999999999906
11
50.4767499999999956
21
-102.3759999999999906
0
LINE
8
BLACK
6
CONTINUOUS
10
50.4767499999999956
20
-102.3759999999999906
11
50.4767499999999956
21
-103.4154999999999944
0
LINE
8
BLACK
6
CONTINUOUS
10
50.4767499999999956
20
-103.4154999999999944
11
52.6267499999999941
21
-103.4154999999999944
0
LINE
8
BLACK
6
CONTINUOUS
10
52.6267499999999941
20
-109.23599999999999
11
52.6267499999999941
21
-103.4154999999999944
0
LINE
8
BLACK
6
CONTINUOUS
10
52.6267499999999941
20
-109.23599999999999
11
54.6167499999999961
21
-109.23599999999999
0
LINE
8
BLACK
6
CONTINUOUS
10
52.6267499999999941
20
-115.9154999999999944
11
52.6267499999999941
21
-111.23599999999999
0
LINE
8
BLACK
6
CONTINUOUS
10
54.6167499999999961
20
-103.2259999999999991
11
54.6167499999999961
21
-109.23599999999999
0
LINE
8
BLACK
6
CONTINUOUS
10
54.6167499999999961
20
-111.23599999999999
11
52.6267499999999941
21
-111.23599999999999
0
LINE
8
BLACK
6
CONTINUOUS
10
54.6167499999999961
20
-111.23599999999999
11
54.6167499999999961
21
-117.2459999999999951
0
LINE
8
BLACK
6
CONTINUOUS
10
54.6167499999999961
20
-117.2459999999999951
11
68.6367499999999922
21
-117.2459999999999951
0
LINE
8
BLACK
6
CONTINUOUS
10
68.6367499999999922
20
-103.2259999999999991
11
54.6167499999999961
21
-103.2259999999999991
0
LINE
8
BLACK
6
CONTINUOUS
10
68.6367499999999922
20
-109.23599999999999
11
68.6367499999999922
21
-103.2259999999999991
0
LINE
8
BLACK
6
CONTINUOUS
10
68.6367499999999922
20
-111.23599999999999
11
70.6267500000000013
21
-111.23599999999999
0
LINE
8
BLACK
6
CONTINUOUS
10
68.6367499999999922
20
-117.2459999999999951
11
68.6367499999999922
21
-111.23599999999999
0
LINE
8
BLACK
6
CONTINUOUS
10
70.6267500000000013
20
-109.23599999999999
11
68.6367499999999922
21
-109.23599999999999
0
LINE
8
BLACK
6
CONTINUOUS
10
70.6267500000000013
20
-109.23599999999999
11
70.6267500000000013
21
-103.4154999999999944
0
LINE
8
BLACK
6
CONTINUOUS
10
70.6267500000000013
20
-115.9154999999999944
11
70.6267500000000013
21
-111.23599999999999
0
LINE
8
BLACK
6
CONTINUOUS
10
72.7767499999999927
20
-102.3759999999999906
11
72.7767499999999927
21
-103.4154999999999944
0
LINE
8
BLACK
6
CONTINUOUS
10
72.7767499999999927
20
-103.4154999999999944
11
70.6267500000000013
21
-103.4154999999999944
0
LINE
8
BLACK
6
CONTINUOUS
10
74.4767499999999956
20
-102.3759999999999906
11
72.7767499999999927
21
-102.3759999999999906
0
LINE
8
BLACK
6
CONTINUOUS
10
74.4767499999999956
20
-102.3759999999999906
11
74.4767499999999956
21
-103.4154999999999944
0
LINE
8
BLACK
6
CONTINUOUS
10
76.6267500000000013
20
-103.4154999999999944
11
74.4767499999999956
21
-103.4154999999999944
0
LINE
8
BLACK
6
CONTINUOUS
10
76.6267500000000013
20
-103.4154999999999944
11
76.6267500000000013
21
-115.9154999999999944
0
LINE
8
BLACK
6
CONTINUOUS
10
76.6267500000000013
20
-115.9154999999999944
11
70.6267500000000013
21
-115.9154999999999944
0
LINE
8
BLACK
6
CONTINUOUS
10
113.9204999999999899
20
-117.2860000000000014
11
99.8204999999999956
21
-117.2860000000000014
0
LINE
8
BLACK
6
CONTINUOUS
10
99.8204999999999956
20
-117.2860000000000014
11
99.8204999999999956
21
-103.1859999999999928
0
LINE
8
BLACK
6
CONTINUOUS
10
99.8204999999999956
20
-103.1859999999999928
11
113.9204999999999899
21
-103.1859999999999928
0
LINE
8
BLACK
6
CONTINUOUS
10
113.9204999999999899
20
-103.1859999999999928
11
113.9204999999999899
21
-117.2860000000000014
0
LINE
8
BLACK
6
CONTINUOUS
10
109.1580000000000013
20
-98.23599999999999
11
95.0579999999999927
21
-98.23599999999999
0
LINE
8
BLACK
6
CONTINUOUS
10
95.0579999999999927
20
-98.23599999999999
11
95.0579999999999927
21
-84.1359999999999957
0
LINE
8
BLACK
6
CONTINUOUS
10
95.0579999999999927
20
-84.1359999999999957
11
109.1580000000000013
21
-84.1359999999999957
0
LINE
8
BLACK
6
CONTINUOUS
10
109.1580000000000013
20
-84.1359999999999957
11
109.1580000000000013
21
-98.23599999999999
0
LINE
8
BLACK
6
CONTINUOUS
10
237.7454999999999927
20
-136.3359999999999843
11
223.6454999999999984
21
-136.3359999999999843
0
LINE
8
BLACK
6
CONTINUOUS
10
223.6454999999999984
20
-136.3359999999999843
11
223.6454999999999984
21
-122.23599999999999
0
LINE
8
BLACK
6
CONTINUOUS
10
223.6454999999999984
20
-122.23599999999999
11
237.7454999999999927
21
-122.23599999999999
0
LINE
8
BLACK
6
CONTINUOUS
10
237.7454999999999927
20
-122.23599999999999
11
237.7454999999999927
21
-136.3359999999999843
0
LINE
8
BLACK
6
CONTINUOUS
10
175.8329999999999984
20
-79.1859999999999928
11
161.7330000000000041
21
-79.1859999999999928
0
LINE
8
BLACK
6
CONTINUOUS
10
161.7330000000000041
20
-79.1859999999999928
11
161.7330000000000041
21
-65.0859999999999985
0
LINE
8
BLACK
6
CONTINUOUS
10
161.7330000000000041
20
-65.0859999999999985
11
175.8329999999999984
21
-65.0859999999999985
0
LINE
8
BLACK
6
CONTINUOUS
10
175.8329999999999984
20
-65.0859999999999985
11
175.8329999999999984
21
-79.1859999999999928
0
LINE
8
BLACK
6
CONTINUOUS
10
156.782999999999987
20
-79.1859999999999928
11
142.6829999999999927
21
-79.1859999999999928
0
LINE
8
BLACK
6
CONTINUOUS
10
142.6829999999999927
20
-79.1859999999999928
11
142.6829999999999927
21
-65.0859999999999985
0
LINE
8
BLACK
6
CONTINUOUS
10
142.6829999999999927
20
-65.0859999999999985
11
156.782999999999987
21
-65.0859999999999985
0
LINE
8
BLACK
6
CONTINUOUS
10
156.782999999999987
20
-65.0859999999999985
11
156.782999999999987
21
-79.1859999999999928
0
LINE
8
BLACK
6
CONTINUOUS
10
111.5392499999999956
20
-155.3859999999999957
11
97.4392500000000013
21
-155.3859999999999957
0
LINE
8
BLACK
6
CONTINUOUS
10
97.4392500000000013
20
-155.3859999999999957
11
97.4392500000000013
21
-141.2860000000000014
0
LINE
8
BLACK
6
CONTINUOUS
10
97.4392500000000013
20
-141.2860000000000014
11
111.5392499999999956
21
-141.2860000000000014
0
LINE
8
BLACK
6
CONTINUOUS
10
111.5392499999999956
20
-141.2860000000000014
11
111.5392499999999956
21
-155.3859999999999957
  0
ENDSEC
  0
EOF
