  0
SECTION
  2
HEADER
  9
$ANGBASE
  50
0.0
  9
$ANGDIR
  70
1
  9
$MEASUREMENT
  70
1
  0
ENDSEC
  0
SECTION
  2
TABLES
  0
TABLE
  2
LTYPE
  70
4
  0
LTYPE
  5
40F
  2
CONTINUOUS
  70
0
  3
Solid line
  72
65
  73
0
  40
0.0
  0
LTYPE
  5
410
  2
DASHDOT
 70
0
  3
Dash Dot ____ _ ____ _
 72
65
 73
4
 40
2.0
 49
1.25
 49
-0.25
 49
0.25
 49
-0.25
  0
LTYPE
  5
411
  2
DASHED
 70
0
  3
Dashed __ __ __ __ __
 72
65
 73
2
 40
0.75
 49
0.5
 49
-0.25
  0
LTYPE
  5
43B
  2
DOTTED
 70
0
  3
Dotted .  .  .  .
 72
65
 73
2
 40
0.2
 49
0.0
 49
-0.2
  0
ENDTAB
  0
TABLE
  2
STYLE
  70
4
  0
STYLE
  2
KICAD
  70
0
  40
0
  41
1
  42
1
  50
0
  71
0
  3
isocp.shx
  0
STYLE
  2
KICADB
  70
0
  40
0
  41
1
  42
1
  50
0
  71
0
  3
isocp.shx
  0
STYLE
  2
KICADI
  70
0
  40
0
  41
1
  42
1
  50
15
  71
0
  3
isocp.shx
  0
STYLE
  2
KICADBI
  70
0
  40
0
  41
1
  42
1
  50
15
  71
0
  3
isocp.shx
  0
ENDTAB
  0
TABLE
  2
LAYER
  70
1
  0
LAYER
  2
BLACK
  70
0
  62
7
  6
CONTINUOUS
  0
ENDTAB
  0
ENDSEC
  0
SECTION
  2
ENTITIES
0
LINE
8
BLACK
6
CONTINUOUS
10
42.418
20
-160.274
11
42.386
21
-129.722
0
LINE
8
BLACK
6
CONTINUOUS
10
68.0767
20
-160.336
11
42.418
21
-160.274
0
LINE
8
BLACK
6
CONTINUOUS
10
179.264
20
-160.336
11
128.077
21
-160.336
0
LINE
8
BLACK
6
CONTINUOUS
10
290.452
20
-160.336
11
239.264
21
-160.336
0
LINE
8
BLACK
6
CONTINUOUS
10
376.047
20
-160.401
11
350.452
21
-160.336
0
LINE
8
BLACK
6
CONTINUOUS
10
376.046
20
-128.329
11
376.047
21
-160.401
0
LINE
8
BLACK
6
CONTINUOUS
10
376.047
20
-36.322
11
376.046
21
-68.33
0
LINE
8
BLACK
6
CONTINUOUS
10
350.452
20
-36.3
11
376.047
21
-36.322
0
LINE
8
BLACK
6
CONTINUOUS
10
239.264
20
-36.3
11
290.452
21
-36.3
0
LINE
8
BLACK
6
CONTINUOUS
10
128.077
20
-36.3
11
179.264
21
-36.3
0
LINE
8
BLACK
6
CONTINUOUS
10
42.418
20
-36.322
11
68.0767
21
-36.3
0
LINE
8
BLACK
6
CONTINUOUS
10
42.386
20
-69.723
11
42.418
21
-36.322
0
LINE
8
BLACK
6
CONTINUOUS
10
350.452
20
-31.3
11
350.452
21
-36.3
0
LINE
8
BLACK
6
CONTINUOUS
10
290.452
20
-31.3
11
290.452
21
-36.3
0
LINE
8
BLACK
6
CONTINUOUS
10
239.264
20
-31.3
11
239.264
21
-36.3
0
LINE
8
BLACK
6
CONTINUOUS
10
179.264
20
-31.3
11
179.264
21
-36.3
0
LINE
8
BLACK
6
CONTINUOUS
10
128.077
20
-31.3
11
128.077
21
-36.3
0
LINE
8
BLACK
6
CONTINUOUS
10
68.0767
20
-31.3
11
68.0767
21
-36.3
0
LINE
8
BLACK
6
CONTINUOUS
10
350.452
20
-165.336
11
350.452
21
-160.336
0
LINE
8
BLACK
6
CONTINUOUS
10
290.452
20
-165.336
11
290.452
21
-160.336
0
LINE
8
BLACK
6
CONTINUOUS
10
239.264
20
-165.336
11
239.264
21
-160.336
0
LINE
8
BLACK
6
CONTINUOUS
10
179.264
20
-165.336
11
179.264
21
-160.336
0
LINE
8
BLACK
6
CONTINUOUS
10
128.077
20
-165.336
11
128.077
21
-160.336
0
LINE
8
BLACK
6
CONTINUOUS
10
68.0767
20
-165.336
11
68.0767
21
-160.336
0
LINE
8
BLACK
6
CONTINUOUS
10
179.264
20
-165.336
11
239.264
21
-165.336
0
LINE
8
BLACK
6
CONTINUOUS
10
68.0767
20
-165.336
11
128.077
21
-165.336
0
LINE
8
BLACK
6
CONTINUOUS
10
290.452
20
-165.336
11
350.452
21
-165.336
0
LINE
8
BLACK
6
CONTINUOUS
10
290.452
20
-31.3
11
350.452
21
-31.3
0
LINE
8
BLACK
6
CONTINUOUS
10
179.264
20
-31.3
11
239.264
21
-31.3
0
LINE
8
BLACK
6
CONTINUOUS
10
68.0767
20
-31.3
11
128.077
21
-31.3
0
LINE
8
BLACK
6
CONTINUOUS
10
37.386
20
-69.723
11
42.386
21
-69.723
0
LINE
8
BLACK
6
CONTINUOUS
10
37.386
20
-129.722
11
37.386
21
-69.723
0
LINE
8
BLACK
6
CONTINUOUS
10
42.386
20
-129.722
11
37.386
21
-129.722
0
LINE
8
BLACK
6
CONTINUOUS
10
381.046
20
-128.329
11
376.046
21
-128.329
0
LINE
8
BLACK
6
CONTINUOUS
10
381.046
20
-68.33
11
381.046
21
-128.329
0
LINE
8
BLACK
6
CONTINUOUS
10
376.046
20
-68.33
11
381.046
21
-68.33
  0
TEXT
  7
KICADB
  8
BLACK
  10
61.6267
  11
61.6267
  20
-102.636
  21
-102.636
  40
1
  41
1
  50
0
  51
0
  71
0
  72
1
  73
2
  1
18x17 spacing
0
LINE
8
BLACK
6
CONTINUOUS
10
309.133
20
-55.3235
11
309.133
21
-41.3235
0
LINE
8
BLACK
6
CONTINUOUS
10
309.133
20
-41.3235
11
295.133
21
-41.3235
0
LINE
8
BLACK
6
CONTINUOUS
10
295.133
20
-55.3235
11
309.133
21
-55.3235
0
LINE
8
BLACK
6
CONTINUOUS
10
295.133
20
-41.3235
11
295.133
21
-55.3235
0
LINE
8
BLACK
6
CONTINUOUS
10
171.02
20
-117.236
11
171.02
21
-103.236
0
LINE
8
BLACK
6
CONTINUOUS
10
171.02
20
-103.236
11
157.02
21
-103.236
0
LINE
8
BLACK
6
CONTINUOUS
10
157.02
20
-117.236
11
171.02
21
-117.236
0
LINE
8
BLACK
6
CONTINUOUS
10
157.02
20
-103.236
11
157.02
21
-117.236
0
LINE
8
BLACK
6
CONTINUOUS
10
209.12
20
-117.236
11
209.12
21
-103.236
0
LINE
8
BLACK
6
CONTINUOUS
10
209.12
20
-103.236
11
195.12
21
-103.236
0
LINE
8
BLACK
6
CONTINUOUS
10
195.12
20
-117.236
11
209.12
21
-117.236
0
LINE
8
BLACK
6
CONTINUOUS
10
195.12
20
-103.236
11
195.12
21
-117.236
0
LINE
8
BLACK
6
CONTINUOUS
10
213.883
20
-79.136
11
213.883
21
-65.136
0
LINE
8
BLACK
6
CONTINUOUS
10
213.883
20
-65.136
11
199.883
21
-65.136
0
LINE
8
BLACK
6
CONTINUOUS
10
199.883
20
-79.136
11
213.883
21
-79.136
0
LINE
8
BLACK
6
CONTINUOUS
10
199.883
20
-65.136
11
199.883
21
-79.136
0
LINE
8
BLACK
6
CONTINUOUS
10
142.445
20
-136.286
11
142.445
21
-122.286
0
LINE
8
BLACK
6
CONTINUOUS
10
142.445
20
-122.286
11
128.445
21
-122.286
0
LINE
8
BLACK
6
CONTINUOUS
10
128.445
20
-136.286
11
142.445
21
-136.286
0
LINE
8
BLACK
6
CONTINUOUS
10
128.445
20
-122.286
11
128.445
21
-136.286
0
LINE
8
BLACK
6
CONTINUOUS
10
128.158
20
-98.186
11
128.158
21
-84.186
0
LINE
8
BLACK
6
CONTINUOUS
10
128.158
20
-84.186
11
114.158
21
-84.186
0
LINE
8
BLACK
6
CONTINUOUS
10
114.158
20
-98.186
11
128.158
21
-98.186
0
LINE
8
BLACK
6
CONTINUOUS
10
114.158
20
-84.186
11
114.158
21
-98.186
0
LINE
8
BLACK
6
CONTINUOUS
10
73.3892
20
-136.286
11
73.3892
21
-122.286
0
LINE
8
BLACK
6
CONTINUOUS
10
73.3892
20
-122.286
11
59.3892
21
-122.286
0
LINE
8
BLACK
6
CONTINUOUS
10
59.3892
20
-136.286
11
73.3892
21
-136.286
0
LINE
8
BLACK
6
CONTINUOUS
10
59.3892
20
-122.286
11
59.3892
21
-136.286
0
LINE
8
BLACK
6
CONTINUOUS
10
118.633
20
-79.136
11
118.633
21
-65.136
0
LINE
8
BLACK
6
CONTINUOUS
10
118.633
20
-65.136
11
104.633
21
-65.136
0
LINE
8
BLACK
6
CONTINUOUS
10
104.633
20
-79.136
11
118.633
21
-79.136
0
LINE
8
BLACK
6
CONTINUOUS
10
104.633
20
-65.136
11
104.633
21
-79.136
0
LINE
8
BLACK
6
CONTINUOUS
10
90.058
20
-98.186
11
90.058
21
-84.186
0
LINE
8
BLACK
6
CONTINUOUS
10
90.058
20
-84.186
11
76.058
21
-84.186
0
LINE
8
BLACK
6
CONTINUOUS
10
76.058
20
-98.186
11
90.058
21
-98.186
0
LINE
8
BLACK
6
CONTINUOUS
10
76.058
20
-84.186
11
76.058
21
-98.186
0
LINE
8
BLACK
6
CONTINUOUS
10
280.558
20
-98.186
11
280.558
21
-84.186
0
LINE
8
BLACK
6
CONTINUOUS
10
280.558
20
-84.186
11
266.558
21
-84.186
0
LINE
8
BLACK
6
CONTINUOUS
10
266.558
20
-98.186
11
280.558
21
-98.186
0
LINE
8
BLACK
6
CONTINUOUS
10
266.558
20
-84.186
11
266.558
21
-98.186
0
LINE
8
BLACK
6
CONTINUOUS
10
180.546
20
-136.286
11
180.546
21
-122.286
0
LINE
8
BLACK
6
CONTINUOUS
10
180.546
20
-122.286
11
166.546
21
-122.286
0
LINE
8
BLACK
6
CONTINUOUS
10
166.546
20
-136.286
11
180.546
21
-136.286
0
LINE
8
BLACK
6
CONTINUOUS
10
166.546
20
-122.286
11
166.546
21
-136.286
0
LINE
8
BLACK
6
CONTINUOUS
10
94.8205
20
-117.236
11
94.8205
21
-103.236
0
LINE
8
BLACK
6
CONTINUOUS
10
94.8205
20
-103.236
11
80.8205
21
-103.236
0
LINE
8
BLACK
6
CONTINUOUS
10
80.8205
20
-117.236
11
94.8205
21
-117.236
0
LINE
8
BLACK
6
CONTINUOUS
10
80.8205
20
-103.236
11
80.8205
21
-117.236
0
LINE
8
BLACK
6
CONTINUOUS
10
318.658
20
-79.136
11
318.658
21
-65.136
0
LINE
8
BLACK
6
CONTINUOUS
10
318.658
20
-65.136
11
304.658
21
-65.136
0
LINE
8
BLACK
6
CONTINUOUS
10
304.658
20
-79.136
11
318.658
21
-79.136
0
LINE
8
BLACK
6
CONTINUOUS
10
304.658
20
-65.136
11
304.658
21
-79.136
0
LINE
8
BLACK
6
CONTINUOUS
10
118.633
20
-55.3235
11
118.633
21
-41.3235
0
LINE
8
BLACK
6
CONTINUOUS
10
118.633
20
-41.3235
11
104.633
21
-41.3235
0
LINE
8
BLACK
6
CONTINUOUS
10
104.633
20
-55.3235
11
118.633
21
-55.3235
0
LINE
8
BLACK
6
CONTINUOUS
10
104.633
20
-41.3235
11
104.633
21
-55.3235
0
LINE
8
BLACK
6
CONTINUOUS
10
223.408
20
-98.186
11
223.408
21
-84.186
0
LINE
8
BLACK
6
CONTINUOUS
10
223.408
20
-84.186
11
209.408
21
-84.186
0
LINE
8
BLACK
6
CONTINUOUS
10
209.408
20
-98.186
11
223.408
21
-98.186
0
LINE
8
BLACK
6
CONTINUOUS
10
209.408
20
-84.186
11
209.408
21
-98.186
0
LINE
8
BLACK
6
CONTINUOUS
10
63.8642
20
-155.336
11
63.8642
21
-141.336
0
LINE
8
BLACK
6
CONTINUOUS
10
63.8642
20
-141.336
11
49.8642
21
-141.336
0
LINE
8
BLACK
6
CONTINUOUS
10
49.8642
20
-155.336
11
63.8642
21
-155.336
0
LINE
8
BLACK
6
CONTINUOUS
10
49.8642
20
-141.336
11
49.8642
21
-155.336
0
LINE
8
BLACK
6
CONTINUOUS
10
232.933
20
-79.136
11
232.933
21
-65.136
0
LINE
8
BLACK
6
CONTINUOUS
10
232.933
20
-65.136
11
218.933
21
-65.136
0
LINE
8
BLACK
6
CONTINUOUS
10
218.933
20
-79.136
11
232.933
21
-79.136
0
LINE
8
BLACK
6
CONTINUOUS
10
218.933
20
-65.136
11
218.933
21
-79.136
0
LINE
8
BLACK
6
CONTINUOUS
10
132.921
20
-117.236
11
132.921
21
-103.236
0
LINE
8
BLACK
6
CONTINUOUS
10
132.921
20
-103.236
11
118.92
21
-103.236
0
LINE
8
BLACK
6
CONTINUOUS
10
118.92
20
-117.236
11
132.921
21
-117.236
0
LINE
8
BLACK
6
CONTINUOUS
10
118.92
20
-103.236
11
118.92
21
-117.236
0
LINE
8
BLACK
6
CONTINUOUS
10
104.346
20
-136.286
11
104.346
21
-122.286
0
LINE
8
BLACK
6
CONTINUOUS
10
104.346
20
-122.286
11
90.3455
21
-122.286
0
LINE
8
BLACK
6
CONTINUOUS
10
90.3455
20
-136.286
11
104.346
21
-136.286
0
LINE
8
BLACK
6
CONTINUOUS
10
90.3455
20
-122.286
11
90.3455
21
-136.286
0
LINE
8
BLACK
6
CONTINUOUS
10
137.683
20
-55.3235
11
137.683
21
-41.3235
0
LINE
8
BLACK
6
CONTINUOUS
10
137.683
20
-41.3235
11
123.683
21
-41.3235
0
LINE
8
BLACK
6
CONTINUOUS
10
123.683
20
-55.3235
11
137.683
21
-55.3235
0
LINE
8
BLACK
6
CONTINUOUS
10
123.683
20
-41.3235
11
123.683
21
-55.3235
0
LINE
8
BLACK
6
CONTINUOUS
10
166.258
20
-98.186
11
166.258
21
-84.186
0
LINE
8
BLACK
6
CONTINUOUS
10
166.258
20
-84.186
11
152.258
21
-84.186
0
LINE
8
BLACK
6
CONTINUOUS
10
152.258
20
-98.186
11
166.258
21
-98.186
0
LINE
8
BLACK
6
CONTINUOUS
10
152.258
20
-84.186
11
152.258
21
-98.186
0
LINE
8
BLACK
6
CONTINUOUS
10
266.27
20
-117.236
11
266.27
21
-103.236
0
LINE
8
BLACK
6
CONTINUOUS
10
266.27
20
-103.236
11
252.27
21
-103.236
0
LINE
8
BLACK
6
CONTINUOUS
10
252.27
20
-117.236
11
266.27
21
-117.236
0
LINE
8
BLACK
6
CONTINUOUS
10
252.27
20
-103.236
11
252.27
21
-117.236
0
LINE
8
BLACK
6
CONTINUOUS
10
332.945
20
-155.336
11
332.945
21
-141.336
0
LINE
8
BLACK
6
CONTINUOUS
10
332.945
20
-141.336
11
318.945
21
-141.336
0
LINE
8
BLACK
6
CONTINUOUS
10
318.945
20
-155.336
11
332.945
21
-155.336
0
LINE
8
BLACK
6
CONTINUOUS
10
318.945
20
-141.336
11
318.945
21
-155.336
0
LINE
8
BLACK
6
CONTINUOUS
10
242.458
20
-55.3235
11
242.458
21
-41.3235
0
LINE
8
BLACK
6
CONTINUOUS
10
242.458
20
-41.3235
11
228.458
21
-41.3235
0
LINE
8
BLACK
6
CONTINUOUS
10
228.458
20
-55.3235
11
242.458
21
-55.3235
0
LINE
8
BLACK
6
CONTINUOUS
10
228.458
20
-41.3235
11
228.458
21
-55.3235
0
LINE
8
BLACK
6
CONTINUOUS
10
147.208
20
-98.186
11
147.208
21
-84.186
0
LINE
8
BLACK
6
CONTINUOUS
10
147.208
20
-84.186
11
133.208
21
-84.186
0
LINE
8
BLACK
6
CONTINUOUS
10
133.208
20
-98.186
11
147.208
21
-98.186
0
LINE
8
BLACK
6
CONTINUOUS
10
133.208
20
-84.186
11
133.208
21
-98.186
0
LINE
8
BLACK
6
CONTINUOUS
10
66.2455
20
-98.186
11
66.2455
21
-84.186
0
LINE
8
BLACK
6
CONTINUOUS
10
66.2455
20
-84.186
11
52.2455
21
-84.186
0
LINE
8
BLACK
6
CONTINUOUS
10
52.2455
20
-98.186
11
66.2455
21
-98.186
0
LINE
8
BLACK
6
CONTINUOUS
10
52.2455
20
-84.186
11
52.2455
21
-98.186
0
LINE
8
BLACK
6
CONTINUOUS
10
261.508
20
-98.186
11
261.508
21
-84.186
0
LINE
8
BLACK
6
CONTINUOUS
10
261.508
20
-84.186
11
247.508
21
-84.186
0
LINE
8
BLACK
6
CONTINUOUS
10
247.508
20
-98.186
11
261.508
21
-98.186
0
LINE
8
BLACK
6
CONTINUOUS
10
247.508
20
-84.186
11
247.508
21
-98.186
0
LINE
8
BLACK
6
CONTINUOUS
10
351.995
20
-55.3235
11
351.995
21
-41.3235
0
LINE
8
BLACK
6
CONTINUOUS
10
351.995
20
-41.3235
11
337.995
21
-41.3235
0
LINE
8
BLACK
6
CONTINUOUS
10
337.995
20
-55.3235
11
351.995
21
-55.3235
0
LINE
8
BLACK
6
CONTINUOUS
10
337.995
20
-41.3235
11
337.995
21
-55.3235
0
LINE
8
BLACK
6
CONTINUOUS
10
87.6767
20
-155.336
11
87.6767
21
-141.336
0
LINE
8
BLACK
6
CONTINUOUS
10
87.6767
20
-141.336
11
73.6767
21
-141.336
0
LINE
8
BLACK
6
CONTINUOUS
10
73.6767
20
-155.336
11
87.6767
21
-155.336
0
LINE
8
BLACK
6
CONTINUOUS
10
73.6767
20
-141.336
11
73.6767
21
-155.336
0
LINE
8
BLACK
6
CONTINUOUS
10
99.583
20
-79.136
11
99.583
21
-65.136
0
LINE
8
BLACK
6
CONTINUOUS
10
99.583
20
-65.136
11
85.583
21
-65.136
0
LINE
8
BLACK
6
CONTINUOUS
10
85.583
20
-79.136
11
99.583
21
-79.136
0
LINE
8
BLACK
6
CONTINUOUS
10
85.583
20
-65.136
11
85.583
21
-79.136
0
LINE
8
BLACK
6
CONTINUOUS
10
182.927
20
-155.336
11
182.927
21
-141.336
0
LINE
8
BLACK
6
CONTINUOUS
10
182.927
20
-141.336
11
168.927
21
-141.336
0
LINE
8
BLACK
6
CONTINUOUS
10
168.927
20
-155.336
11
182.927
21
-155.336
0
LINE
8
BLACK
6
CONTINUOUS
10
168.927
20
-141.336
11
168.927
21
-155.336
0
LINE
8
BLACK
6
CONTINUOUS
10
256.745
20
-136.286
11
256.745
21
-122.286
0
LINE
8
BLACK
6
CONTINUOUS
10
256.745
20
-122.286
11
242.745
21
-122.286
0
LINE
8
BLACK
6
CONTINUOUS
10
242.745
20
-136.286
11
256.745
21
-136.286
0
LINE
8
BLACK
6
CONTINUOUS
10
242.745
20
-122.286
11
242.745
21
-136.286
0
LINE
8
BLACK
6
CONTINUOUS
10
185.308
20
-98.186
11
185.308
21
-84.186
0
LINE
8
BLACK
6
CONTINUOUS
10
185.308
20
-84.186
11
171.308
21
-84.186
0
LINE
8
BLACK
6
CONTINUOUS
10
171.308
20
-98.186
11
185.308
21
-98.186
0
LINE
8
BLACK
6
CONTINUOUS
10
171.308
20
-84.186
11
171.308
21
-98.186
0
LINE
8
BLACK
6
CONTINUOUS
10
156.733
20
-55.3235
11
156.733
21
-41.3235
0
LINE
8
BLACK
6
CONTINUOUS
10
156.733
20
-41.3235
11
142.733
21
-41.3235
0
LINE
8
BLACK
6
CONTINUOUS
10
142.733
20
-55.3235
11
156.733
21
-55.3235
0
LINE
8
BLACK
6
CONTINUOUS
10
142.733
20
-41.3235
11
142.733
21
-55.3235
0
LINE
8
BLACK
6
CONTINUOUS
10
185.308
20
-55.3235
11
185.308
21
-41.3235
0
LINE
8
BLACK
6
CONTINUOUS
10
185.308
20
-41.3235
11
171.308
21
-41.3235
0
LINE
8
BLACK
6
CONTINUOUS
10
171.308
20
-55.3235
11
185.308
21
-55.3235
0
LINE
8
BLACK
6
CONTINUOUS
10
171.308
20
-41.3235
11
171.308
21
-55.3235
0
LINE
8
BLACK
6
CONTINUOUS
10
151.97
20
-117.236
11
151.97
21
-103.236
0
LINE
8
BLACK
6
CONTINUOUS
10
151.97
20
-103.236
11
137.97
21
-103.236
0
LINE
8
BLACK
6
CONTINUOUS
10
137.97
20
-117.236
11
151.97
21
-117.236
0
LINE
8
BLACK
6
CONTINUOUS
10
137.97
20
-103.236
11
137.97
21
-117.236
0
LINE
8
BLACK
6
CONTINUOUS
10
371.046
20
-55.3235
11
371.046
21
-41.3235
0
LINE
8
BLACK
6
CONTINUOUS
10
371.046
20
-41.3235
11
357.046
21
-41.3235
0
LINE
8
BLACK
6
CONTINUOUS
10
357.046
20
-55.3235
11
371.046
21
-55.3235
0
LINE
8
BLACK
6
CONTINUOUS
10
357.046
20
-41.3235
11
357.046
21
-55.3235
0
LINE
8
BLACK
6
CONTINUOUS
10
271.033
20
-55.3235
11
271.033
21
-41.3235
0
LINE
8
BLACK
6
CONTINUOUS
10
271.033
20
-41.3235
11
257.033
21
-41.3235
0
LINE
8
BLACK
6
CONTINUOUS
10
257.033
20
-55.3235
11
271.033
21
-55.3235
0
LINE
8
BLACK
6
CONTINUOUS
10
257.033
20
-41.3235
11
257.033
21
-55.3235
0
LINE
8
BLACK
6
CONTINUOUS
10
351.995
20
-136.286
11
351.995
21
-122.286
0
LINE
8
BLACK
6
CONTINUOUS
10
351.995
20
-122.286
11
337.995
21
-122.286
0
LINE
8
BLACK
6
CONTINUOUS
10
337.995
20
-136.286
11
351.995
21
-136.286
0
LINE
8
BLACK
6
CONTINUOUS
10
337.995
20
-122.286
11
337.995
21
-136.286
0
LINE
8
BLACK
6
CONTINUOUS
10
251.983
20
-79.136
11
251.983
21
-65.136
0
LINE
8
BLACK
6
CONTINUOUS
10
251.983
20
-65.136
11
237.983
21
-65.136
0
LINE
8
BLACK
6
CONTINUOUS
10
237.983
20
-79.136
11
251.983
21
-79.136
0
LINE
8
BLACK
6
CONTINUOUS
10
237.983
20
-65.136
11
237.983
21
-79.136
0
LINE
8
BLACK
6
CONTINUOUS
10
323.421
20
-98.186
11
323.421
21
-84.186
0
LINE
8
BLACK
6
CONTINUOUS
10
323.421
20
-84.186
11
309.421
21
-84.186
0
LINE
8
BLACK
6
CONTINUOUS
10
309.421
20
-98.186
11
323.421
21
-98.186
0
LINE
8
BLACK
6
CONTINUOUS
10
309.421
20
-84.186
11
309.421
21
-98.186
0
LINE
8
BLACK
6
CONTINUOUS
10
278.177
20
-155.336
11
278.177
21
-141.336
0
LINE
8
BLACK
6
CONTINUOUS
10
278.177
20
-141.336
11
264.177
21
-141.336
0
LINE
8
BLACK
6
CONTINUOUS
10
264.177
20
-155.336
11
278.177
21
-155.336
0
LINE
8
BLACK
6
CONTINUOUS
10
264.177
20
-141.336
11
264.177
21
-155.336
0
LINE
8
BLACK
6
CONTINUOUS
10
223.408
20
-55.3235
11
223.408
21
-41.3235
0
LINE
8
BLACK
6
CONTINUOUS
10
223.408
20
-41.3235
11
209.408
21
-41.3235
0
LINE
8
BLACK
6
CONTINUOUS
10
209.408
20
-55.3235
11
223.408
21
-55.3235
0
LINE
8
BLACK
6
CONTINUOUS
10
209.408
20
-41.3235
11
209.408
21
-55.3235
0
LINE
8
BLACK
6
CONTINUOUS
10
80.533
20
-79.136
11
80.533
21
-65.136
0
LINE
8
BLACK
6
CONTINUOUS
10
80.533
20
-65.136
11
66.533
21
-65.136
0
LINE
8
BLACK
6
CONTINUOUS
10
66.533
20
-79.136
11
80.533
21
-79.136
0
LINE
8
BLACK
6
CONTINUOUS
10
66.533
20
-65.136
11
66.533
21
-79.136
0
LINE
8
BLACK
6
CONTINUOUS
10
61.483
20
-55.3235
11
61.483
21
-41.3235
0
LINE
8
BLACK
6
CONTINUOUS
10
61.483
20
-41.3235
11
47.483
21
-41.3235
0
LINE
8
BLACK
6
CONTINUOUS
10
47.483
20
-55.3235
11
61.483
21
-55.3235
0
LINE
8
BLACK
6
CONTINUOUS
10
47.483
20
-41.3235
11
47.483
21
-55.3235
0
LINE
8
BLACK
6
CONTINUOUS
10
316.277
20
-117.236
11
316.277
21
-103.236
0
LINE
8
BLACK
6
CONTINUOUS
10
316.277
20
-103.236
11
302.277
21
-103.236
0
LINE
8
BLACK
6
CONTINUOUS
10
302.277
20
-117.236
11
316.277
21
-117.236
0
LINE
8
BLACK
6
CONTINUOUS
10
302.277
20
-103.236
11
302.277
21
-117.236
0
LINE
8
BLACK
6
CONTINUOUS
10
371.046
20
-155.336
11
371.046
21
-141.336
0
LINE
8
BLACK
6
CONTINUOUS
10
371.046
20
-141.336
11
357.046
21
-141.336
0
LINE
8
BLACK
6
CONTINUOUS
10
357.046
20
-155.336
11
371.046
21
-155.336
0
LINE
8
BLACK
6
CONTINUOUS
10
357.046
20
-141.336
11
357.046
21
-155.336
0
LINE
8
BLACK
6
CONTINUOUS
10
204.358
20
-98.186
11
204.358
21
-84.186
0
LINE
8
BLACK
6
CONTINUOUS
10
204.358
20
-84.186
11
190.358
21
-84.186
0
LINE
8
BLACK
6
CONTINUOUS
10
190.358
20
-98.186
11
204.358
21
-98.186
0
LINE
8
BLACK
6
CONTINUOUS
10
190.358
20
-84.186
11
190.358
21
-98.186
0
LINE
8
BLACK
6
CONTINUOUS
10
299.608
20
-98.186
11
299.608
21
-84.186
0
LINE
8
BLACK
6
CONTINUOUS
10
299.608
20
-84.186
11
285.608
21
-84.186
0
LINE
8
BLACK
6
CONTINUOUS
10
285.608
20
-98.186
11
299.608
21
-98.186
0
LINE
8
BLACK
6
CONTINUOUS
10
285.608
20
-84.186
11
285.608
21
-98.186
0
LINE
8
BLACK
6
CONTINUOUS
10
254.364
20
-155.336
11
254.364
21
-141.336
0
LINE
8
BLACK
6
CONTINUOUS
10
254.364
20
-141.336
11
240.364
21
-141.336
0
LINE
8
BLACK
6
CONTINUOUS
10
240.364
20
-155.336
11
254.364
21
-155.336
0
LINE
8
BLACK
6
CONTINUOUS
10
240.364
20
-141.336
11
240.364
21
-155.336
0
LINE
8
BLACK
6
CONTINUOUS
10
247.22
20
-117.236
11
247.22
21
-103.236
0
LINE
8
BLACK
6
CONTINUOUS
10
247.22
20
-103.236
11
233.22
21
-103.236
0
LINE
8
BLACK
6
CONTINUOUS
10
233.22
20
-117.236
11
247.22
21
-117.236
0
LINE
8
BLACK
6
CONTINUOUS
10
233.22
20
-103.236
11
233.22
21
-117.236
0
LINE
8
BLACK
6
CONTINUOUS
10
285.32
20
-117.236
11
285.32
21
-103.236
0
LINE
8
BLACK
6
CONTINUOUS
10
285.32
20
-103.236
11
271.32
21
-103.236
0
LINE
8
BLACK
6
CONTINUOUS
10
271.32
20
-117.236
11
285.32
21
-117.236
0
LINE
8
BLACK
6
CONTINUOUS
10
271.32
20
-103.236
11
271.32
21
-117.236
0
LINE
8
BLACK
6
CONTINUOUS
10
161.495
20
-136.286
11
161.495
21
-122.286
0
LINE
8
BLACK
6
CONTINUOUS
10
161.495
20
-122.286
11
147.495
21
-122.286
0
LINE
8
BLACK
6
CONTINUOUS
10
147.495
20
-136.286
11
161.495
21
-136.286
0
LINE
8
BLACK
6
CONTINUOUS
10
147.495
20
-122.286
11
147.495
21
-136.286
0
LINE
8
BLACK
6
CONTINUOUS
10
311.514
20
-136.286
11
311.514
21
-122.286
0
LINE
8
BLACK
6
CONTINUOUS
10
311.514
20
-122.286
11
297.514
21
-122.286
0
LINE
8
BLACK
6
CONTINUOUS
10
297.514
20
-136.286
11
311.514
21
-136.286
0
LINE
8
BLACK
6
CONTINUOUS
10
297.514
20
-122.286
11
297.514
21
-136.286
0
LINE
8
BLACK
6
CONTINUOUS
10
99.583
20
-55.3235
11
99.583
21
-41.3235
0
LINE
8
BLACK
6
CONTINUOUS
10
99.583
20
-41.3235
11
85.583
21
-41.3235
0
LINE
8
BLACK
6
CONTINUOUS
10
85.583
20
-55.3235
11
99.583
21
-55.3235
0
LINE
8
BLACK
6
CONTINUOUS
10
85.583
20
-41.3235
11
85.583
21
-55.3235
0
LINE
8
BLACK
6
CONTINUOUS
10
290.083
20
-79.136
11
290.083
21
-65.136
0
LINE
8
BLACK
6
CONTINUOUS
10
290.083
20
-65.136
11
276.083
21
-65.136
0
LINE
8
BLACK
6
CONTINUOUS
10
276.083
20
-79.136
11
290.083
21
-79.136
0
LINE
8
BLACK
6
CONTINUOUS
10
276.083
20
-65.136
11
276.083
21
-79.136
0
LINE
8
BLACK
6
CONTINUOUS
10
61.483
20
-79.136
11
61.483
21
-65.136
0
LINE
8
BLACK
6
CONTINUOUS
10
61.483
20
-65.136
11
47.483
21
-65.136
0
LINE
8
BLACK
6
CONTINUOUS
10
47.483
20
-79.136
11
61.483
21
-79.136
0
LINE
8
BLACK
6
CONTINUOUS
10
47.483
20
-65.136
11
47.483
21
-79.136
0
LINE
8
BLACK
6
CONTINUOUS
10
228.17
20
-117.236
11
228.17
21
-103.236
0
LINE
8
BLACK
6
CONTINUOUS
10
228.17
20
-103.236
11
214.171
21
-103.236
0
LINE
8
BLACK
6
CONTINUOUS
10
214.171
20
-117.236
11
228.17
21
-117.236
0
LINE
8
BLACK
6
CONTINUOUS
10
214.171
20
-103.236
11
214.171
21
-117.236
0
LINE
8
BLACK
6
CONTINUOUS
10
123.395
20
-136.286
11
123.395
21
-122.286
0
LINE
8
BLACK
6
CONTINUOUS
10
123.395
20
-122.286
11
109.395
21
-122.286
0
LINE
8
BLACK
6
CONTINUOUS
10
109.395
20
-136.286
11
123.395
21
-136.286
0
LINE
8
BLACK
6
CONTINUOUS
10
109.395
20
-122.286
11
109.395
21
-136.286
0
LINE
8
BLACK
6
CONTINUOUS
10
199.595
20
-136.286
11
199.595
21
-122.286
0
LINE
8
BLACK
6
CONTINUOUS
10
199.595
20
-122.286
11
185.595
21
-122.286
0
LINE
8
BLACK
6
CONTINUOUS
10
185.595
20
-136.286
11
199.595
21
-136.286
0
LINE
8
BLACK
6
CONTINUOUS
10
185.595
20
-122.286
11
185.595
21
-136.286
0
LINE
8
BLACK
6
CONTINUOUS
10
371.046
20
-98.186
11
371.046
21
-84.186
0
LINE
8
BLACK
6
CONTINUOUS
10
371.046
20
-84.186
11
357.046
21
-84.186
0
LINE
8
BLACK
6
CONTINUOUS
10
357.046
20
-98.186
11
371.046
21
-98.186
0
LINE
8
BLACK
6
CONTINUOUS
10
357.046
20
-84.186
11
357.046
21
-98.186
0
LINE
8
BLACK
6
CONTINUOUS
10
218.645
20
-136.286
11
218.645
21
-122.286
0
LINE
8
BLACK
6
CONTINUOUS
10
218.645
20
-122.286
11
204.645
21
-122.286
0
LINE
8
BLACK
6
CONTINUOUS
10
204.645
20
-136.286
11
218.645
21
-136.286
0
LINE
8
BLACK
6
CONTINUOUS
10
204.645
20
-122.286
11
204.645
21
-136.286
0
LINE
8
BLACK
6
CONTINUOUS
10
242.458
20
-98.186
11
242.458
21
-84.186
0
LINE
8
BLACK
6
CONTINUOUS
10
242.458
20
-84.186
11
228.458
21
-84.186
0
LINE
8
BLACK
6
CONTINUOUS
10
228.458
20
-98.186
11
242.458
21
-98.186
0
LINE
8
BLACK
6
CONTINUOUS
10
228.458
20
-84.186
11
228.458
21
-98.186
0
LINE
8
BLACK
6
CONTINUOUS
10
275.796
20
-136.286
11
275.796
21
-122.286
0
LINE
8
BLACK
6
CONTINUOUS
10
275.796
20
-122.286
11
261.796
21
-122.286
0
LINE
8
BLACK
6
CONTINUOUS
10
261.796
20
-136.286
11
275.796
21
-136.286
0
LINE
8
BLACK
6
CONTINUOUS
10
261.796
20
-122.286
11
261.796
21
-136.286
0
LINE
8
BLACK
6
CONTINUOUS
10
290.083
20
-55.3235
11
290.083
21
-41.3235
0
LINE
8
BLACK
6
CONTINUOUS
10
290.083
20
-41.3235
11
276.083
21
-41.3235
0
LINE
8
BLACK
6
CONTINUOUS
10
276.083
20
-55.3235
11
290.083
21
-55.3235
0
LINE
8
BLACK
6
CONTINUOUS
10
276.083
20
-41.3235
11
276.083
21
-55.3235
0
LINE
8
BLACK
6
CONTINUOUS
10
204.358
20
-55.3235
11
204.358
21
-41.3235
0
LINE
8
BLACK
6
CONTINUOUS
10
204.358
20
-41.3235
11
190.358
21
-41.3235
0
LINE
8
BLACK
6
CONTINUOUS
10
190.358
20
-55.3235
11
204.358
21
-55.3235
0
LINE
8
BLACK
6
CONTINUOUS
10
190.358
20
-41.3235
11
190.358
21
-55.3235
0
LINE
8
BLACK
6
CONTINUOUS
10
351.995
20
-155.336
11
351.995
21
-141.336
0
LINE
8
BLACK
6
CONTINUOUS
10
351.995
20
-141.336
11
337.995
21
-141.336
0
LINE
8
BLACK
6
CONTINUOUS
10
337.995
20
-155.336
11
351.995
21
-155.336
0
LINE
8
BLACK
6
CONTINUOUS
10
337.995
20
-141.336
11
337.995
21
-155.336
0
LINE
8
BLACK
6
CONTINUOUS
10
301.989
20
-155.336
11
301.989
21
-141.336
0
LINE
8
BLACK
6
CONTINUOUS
10
301.989
20
-141.336
11
287.989
21
-141.336
0
LINE
8
BLACK
6
CONTINUOUS
10
287.989
20
-155.336
11
301.989
21
-155.336
0
LINE
8
BLACK
6
CONTINUOUS
10
287.989
20
-141.336
11
287.989
21
-155.336
0
LINE
8
BLACK
6
CONTINUOUS
10
351.995
20
-79.136
11
351.995
21
-65.136
0
LINE
8
BLACK
6
CONTINUOUS
10
351.995
20
-65.136
11
337.995
21
-65.136
0
LINE
8
BLACK
6
CONTINUOUS
10
337.995
20
-79.136
11
351.995
21
-79.136
0
LINE
8
BLACK
6
CONTINUOUS
10
337.995
20
-65.136
11
337.995
21
-79.136
0
LINE
8
BLACK
6
CONTINUOUS
10
271.033
20
-79.136
11
271.033
21
-65.136
0
LINE
8
BLACK
6
CONTINUOUS
10
271.033
20
-65.136
11
257.033
21
-65.136
0
LINE
8
BLACK
6
CONTINUOUS
10
257.033
20
-79.136
11
271.033
21
-79.136
0
LINE
8
BLACK
6
CONTINUOUS
10
257.033
20
-65.136
11
257.033
21
-79.136
0
LINE
8
BLACK
6
CONTINUOUS
10
190.07
20
-117.236
11
190.07
21
-103.236
0
LINE
8
BLACK
6
CONTINUOUS
10
190.07
20
-103.236
11
176.07
21
-103.236
0
LINE
8
BLACK
6
CONTINUOUS
10
176.07
20
-117.236
11
190.07
21
-117.236
0
LINE
8
BLACK
6
CONTINUOUS
10
176.07
20
-103.236
11
176.07
21
-117.236
0
LINE
8
BLACK
6
CONTINUOUS
10
328.183
20
-55.3235
11
328.183
21
-41.3235
0
LINE
8
BLACK
6
CONTINUOUS
10
328.183
20
-41.3235
11
314.183
21
-41.3235
0
LINE
8
BLACK
6
CONTINUOUS
10
314.183
20
-55.3235
11
328.183
21
-55.3235
0
LINE
8
BLACK
6
CONTINUOUS
10
314.183
20
-41.3235
11
314.183
21
-55.3235
0
LINE
8
BLACK
6
CONTINUOUS
10
194.833
20
-79.136
11
194.833
21
-65.136
0
LINE
8
BLACK
6
CONTINUOUS
10
194.833
20
-65.136
11
180.833
21
-65.136
0
LINE
8
BLACK
6
CONTINUOUS
10
180.833
20
-79.136
11
194.833
21
-79.136
0
LINE
8
BLACK
6
CONTINUOUS
10
180.833
20
-65.136
11
180.833
21
-79.136
0
LINE
8
BLACK
6
CONTINUOUS
10
137.683
20
-79.136
11
137.683
21
-65.136
0
LINE
8
BLACK
6
CONTINUOUS
10
137.683
20
-65.136
11
123.683
21
-65.136
0
LINE
8
BLACK
6
CONTINUOUS
10
123.683
20
-79.136
11
137.683
21
-79.136
0
LINE
8
BLACK
6
CONTINUOUS
10
123.683
20
-65.136
11
123.683
21
-79.136
0
LINE
8
BLACK
6
CONTINUOUS
10
371.046
20
-79.136
11
371.046
21
-65.136
0
LINE
8
BLACK
6
CONTINUOUS
10
371.046
20
-65.136
11
357.046
21
-65.136
0
LINE
8
BLACK
6
CONTINUOUS
10
357.046
20
-79.136
11
371.046
21
-79.136
0
LINE
8
BLACK
6
CONTINUOUS
10
357.046
20
-65.136
11
357.046
21
-79.136
0
LINE
8
BLACK
6
CONTINUOUS
10
351.995
20
-98.186
11
351.995
21
-84.186
0
LINE
8
BLACK
6
CONTINUOUS
10
351.995
20
-84.186
11
337.995
21
-84.186
0
LINE
8
BLACK
6
CONTINUOUS
10
337.995
20
-98.186
11
351.995
21
-98.186
0
LINE
8
BLACK
6
CONTINUOUS
10
337.995
20
-84.186
11
337.995
21
-98.186
0
LINE
8
BLACK
6
CONTINUOUS
10
68.6268
20
-117.236
11
68.6268
21
-103.236
0
LINE
8
BLACK
6
CONTINUOUS
10
68.6268
20
-103.236
11
54.6267
21
-103.236
0
LINE
8
BLACK
6
CONTINUOUS
10
54.6267
20
-117.236
11
68.6268
21
-117.236
0
LINE
8
BLACK
6
CONTINUOUS
10
54.6267
20
-103.236
11
54.6267
21
-117.236
0
LINE
8
BLACK
6
CONTINUOUS
10
113.87
20
-117.236
11
113.87
21
-103.236
0
LINE
8
BLACK
6
CONTINUOUS
10
113.87
20
-103.236
11
99.8705
21
-103.236
0
LINE
8
BLACK
6
CONTINUOUS
10
99.8705
20
-117.236
11
113.87
21
-117.236
0
LINE
8
BLACK
6
CONTINUOUS
10
99.8705
20
-103.236
11
99.8705
21
-117.236
0
LINE
8
BLACK
6
CONTINUOUS
10
109.108
20
-98.186
11
109.108
21
-84.186
0
LINE
8
BLACK
6
CONTINUOUS
10
109.108
20
-84.186
11
95.108
21
-84.186
0
LINE
8
BLACK
6
CONTINUOUS
10
95.108
20
-98.186
11
109.108
21
-98.186
0
LINE
8
BLACK
6
CONTINUOUS
10
95.108
20
-84.186
11
95.108
21
-98.186
0
LINE
8
BLACK
6
CONTINUOUS
10
237.695
20
-136.286
11
237.695
21
-122.286
0
LINE
8
BLACK
6
CONTINUOUS
10
237.695
20
-122.286
11
223.695
21
-122.286
0
LINE
8
BLACK
6
CONTINUOUS
10
223.695
20
-136.286
11
237.695
21
-136.286
0
LINE
8
BLACK
6
CONTINUOUS
10
223.695
20
-122.286
11
223.695
21
-136.286
0
LINE
8
BLACK
6
CONTINUOUS
10
175.783
20
-79.136
11
175.783
21
-65.136
0
LINE
8
BLACK
6
CONTINUOUS
10
175.783
20
-65.136
11
161.783
21
-65.136
0
LINE
8
BLACK
6
CONTINUOUS
10
161.783
20
-79.136
11
175.783
21
-79.136
0
LINE
8
BLACK
6
CONTINUOUS
10
161.783
20
-65.136
11
161.783
21
-79.136
0
LINE
8
BLACK
6
CONTINUOUS
10
156.733
20
-79.136
11
156.733
21
-65.136
0
LINE
8
BLACK
6
CONTINUOUS
10
156.733
20
-65.136
11
142.733
21
-65.136
0
LINE
8
BLACK
6
CONTINUOUS
10
142.733
20
-79.136
11
156.733
21
-79.136
0
LINE
8
BLACK
6
CONTINUOUS
10
142.733
20
-65.136
11
142.733
21
-79.136
0
LINE
8
BLACK
6
CONTINUOUS
10
111.489
20
-155.336
11
111.489
21
-141.336
0
LINE
8
BLACK
6
CONTINUOUS
10
111.489
20
-141.336
11
97.4892
21
-141.336
0
LINE
8
BLACK
6
CONTINUOUS
10
97.4892
20
-155.336
11
111.489
21
-155.336
0
LINE
8
BLACK
6
CONTINUOUS
10
97.4892
20
-141.336
11
97.4892
21
-155.336
  0
ENDSEC
  0
EOF
