G04 #@! TF.GenerationSoftware,KiCad,Pcbnew,8.0.1*
G04 #@! TF.CreationDate,2024-04-21T21:17:43-05:00*
G04 #@! TF.ProjectId,uC_test_PCB,75435f74-6573-4745-9f50-43422e6b6963,rev?*
G04 #@! TF.SameCoordinates,Original*
G04 #@! TF.FileFunction,Copper,L4,Bot*
G04 #@! TF.FilePolarity,Positive*
%FSLAX46Y46*%
G04 Gerber Fmt 4.6, Leading zero omitted, Abs format (unit mm)*
G04 Created by KiCad (PCBNEW 8.0.1) date 2024-04-21 21:17:43*
%MOMM*%
%LPD*%
G01*
G04 APERTURE LIST*
G04 Aperture macros list*
%AMRoundRect*
0 Rectangle with rounded corners*
0 $1 Rounding radius*
0 $2 $3 $4 $5 $6 $7 $8 $9 X,Y pos of 4 corners*
0 Add a 4 corners polygon primitive as box body*
4,1,4,$2,$3,$4,$5,$6,$7,$8,$9,$2,$3,0*
0 Add four circle primitives for the rounded corners*
1,1,$1+$1,$2,$3*
1,1,$1+$1,$4,$5*
1,1,$1+$1,$6,$7*
1,1,$1+$1,$8,$9*
0 Add four rect primitives between the rounded corners*
20,1,$1+$1,$2,$3,$4,$5,0*
20,1,$1+$1,$4,$5,$6,$7,0*
20,1,$1+$1,$6,$7,$8,$9,0*
20,1,$1+$1,$8,$9,$2,$3,0*%
G04 Aperture macros list end*
G04 #@! TA.AperFunction,SMDPad,CuDef*
%ADD10R,2.600000X2.600000*%
G04 #@! TD*
G04 #@! TA.AperFunction,SMDPad,CuDef*
%ADD11R,2.550000X2.500000*%
G04 #@! TD*
G04 #@! TA.AperFunction,SMDPad,CuDef*
%ADD12RoundRect,0.082000X-0.618000X0.328000X-0.618000X-0.328000X0.618000X-0.328000X0.618000X0.328000X0*%
G04 #@! TD*
G04 #@! TA.AperFunction,ComponentPad*
%ADD13R,1.700000X1.700000*%
G04 #@! TD*
G04 #@! TA.AperFunction,ComponentPad*
%ADD14O,1.700000X1.700000*%
G04 #@! TD*
G04 #@! TA.AperFunction,SMDPad,CuDef*
%ADD15R,1.600000X0.800000*%
G04 #@! TD*
G04 #@! TA.AperFunction,SMDPad,CuDef*
%ADD16R,1.000000X0.700000*%
G04 #@! TD*
G04 #@! TA.AperFunction,SMDPad,CuDef*
%ADD17R,0.800000X1.600000*%
G04 #@! TD*
G04 #@! TA.AperFunction,SMDPad,CuDef*
%ADD18R,0.600000X0.850000*%
G04 #@! TD*
G04 #@! TA.AperFunction,SMDPad,CuDef*
%ADD19R,0.700000X0.800000*%
G04 #@! TD*
G04 #@! TA.AperFunction,SMDPad,CuDef*
%ADD20R,0.609600X1.549400*%
G04 #@! TD*
G04 #@! TA.AperFunction,SMDPad,CuDef*
%ADD21R,1.193800X1.803400*%
G04 #@! TD*
G04 #@! TA.AperFunction,SMDPad,CuDef*
%ADD22RoundRect,0.150000X-0.150000X0.512500X-0.150000X-0.512500X0.150000X-0.512500X0.150000X0.512500X0*%
G04 #@! TD*
G04 #@! TA.AperFunction,SMDPad,CuDef*
%ADD23RoundRect,0.200000X0.200000X0.275000X-0.200000X0.275000X-0.200000X-0.275000X0.200000X-0.275000X0*%
G04 #@! TD*
G04 #@! TA.AperFunction,SMDPad,CuDef*
%ADD24RoundRect,0.250000X0.250000X-0.250000X0.250000X0.250000X-0.250000X0.250000X-0.250000X-0.250000X0*%
G04 #@! TD*
G04 #@! TA.AperFunction,SMDPad,CuDef*
%ADD25RoundRect,0.225000X0.225000X0.250000X-0.225000X0.250000X-0.225000X-0.250000X0.225000X-0.250000X0*%
G04 #@! TD*
G04 #@! TA.AperFunction,SMDPad,CuDef*
%ADD26RoundRect,0.200000X0.275000X-0.200000X0.275000X0.200000X-0.275000X0.200000X-0.275000X-0.200000X0*%
G04 #@! TD*
G04 #@! TA.AperFunction,SMDPad,CuDef*
%ADD27RoundRect,0.250000X0.475000X-0.250000X0.475000X0.250000X-0.475000X0.250000X-0.475000X-0.250000X0*%
G04 #@! TD*
G04 #@! TA.AperFunction,SMDPad,CuDef*
%ADD28RoundRect,0.250000X-0.475000X0.250000X-0.475000X-0.250000X0.475000X-0.250000X0.475000X0.250000X0*%
G04 #@! TD*
G04 #@! TA.AperFunction,SMDPad,CuDef*
%ADD29RoundRect,0.250000X-0.475000X0.337500X-0.475000X-0.337500X0.475000X-0.337500X0.475000X0.337500X0*%
G04 #@! TD*
G04 #@! TA.AperFunction,SMDPad,CuDef*
%ADD30RoundRect,0.200000X-0.275000X0.200000X-0.275000X-0.200000X0.275000X-0.200000X0.275000X0.200000X0*%
G04 #@! TD*
G04 #@! TA.AperFunction,SMDPad,CuDef*
%ADD31RoundRect,0.200000X0.053033X-0.335876X0.335876X-0.053033X-0.053033X0.335876X-0.335876X0.053033X0*%
G04 #@! TD*
G04 #@! TA.AperFunction,SMDPad,CuDef*
%ADD32RoundRect,0.237500X-0.237500X0.300000X-0.237500X-0.300000X0.237500X-0.300000X0.237500X0.300000X0*%
G04 #@! TD*
G04 #@! TA.AperFunction,SMDPad,CuDef*
%ADD33R,1.000000X4.600000*%
G04 #@! TD*
G04 #@! TA.AperFunction,SMDPad,CuDef*
%ADD34R,1.600000X3.400000*%
G04 #@! TD*
G04 #@! TA.AperFunction,SMDPad,CuDef*
%ADD35RoundRect,0.200000X-0.200000X-0.275000X0.200000X-0.275000X0.200000X0.275000X-0.200000X0.275000X0*%
G04 #@! TD*
G04 #@! TA.AperFunction,SMDPad,CuDef*
%ADD36RoundRect,0.225000X-0.250000X0.225000X-0.250000X-0.225000X0.250000X-0.225000X0.250000X0.225000X0*%
G04 #@! TD*
G04 #@! TA.AperFunction,SMDPad,CuDef*
%ADD37RoundRect,0.225000X0.375000X-0.225000X0.375000X0.225000X-0.375000X0.225000X-0.375000X-0.225000X0*%
G04 #@! TD*
G04 #@! TA.AperFunction,SMDPad,CuDef*
%ADD38RoundRect,0.250000X0.475000X-0.337500X0.475000X0.337500X-0.475000X0.337500X-0.475000X-0.337500X0*%
G04 #@! TD*
G04 #@! TA.AperFunction,SMDPad,CuDef*
%ADD39RoundRect,0.150000X0.150000X-0.587500X0.150000X0.587500X-0.150000X0.587500X-0.150000X-0.587500X0*%
G04 #@! TD*
G04 #@! TA.AperFunction,ViaPad*
%ADD40C,0.800100*%
G04 #@! TD*
G04 #@! TA.AperFunction,ViaPad*
%ADD41C,0.600000*%
G04 #@! TD*
G04 #@! TA.AperFunction,Conductor*
%ADD42C,0.200000*%
G04 #@! TD*
G04 #@! TA.AperFunction,Conductor*
%ADD43C,1.000000*%
G04 #@! TD*
G04 #@! TA.AperFunction,Conductor*
%ADD44C,0.150000*%
G04 #@! TD*
G04 #@! TA.AperFunction,Conductor*
%ADD45C,0.275000*%
G04 #@! TD*
G04 #@! TA.AperFunction,Conductor*
%ADD46C,0.130000*%
G04 #@! TD*
G04 #@! TA.AperFunction,Conductor*
%ADD47C,0.400000*%
G04 #@! TD*
G04 #@! TA.AperFunction,Conductor*
%ADD48C,0.800000*%
G04 #@! TD*
G04 #@! TA.AperFunction,Conductor*
%ADD49C,0.600000*%
G04 #@! TD*
G04 #@! TA.AperFunction,Conductor*
%ADD50C,0.254000*%
G04 #@! TD*
G04 APERTURE END LIST*
D10*
X168501481Y-114516268D03*
X167901481Y-113616268D03*
D11*
X166516481Y-113236268D03*
D10*
X156951481Y-112416268D03*
X154351481Y-112566268D03*
D11*
X152666481Y-115776268D03*
D12*
X157526481Y-122265267D03*
X157526481Y-123765267D03*
X162926481Y-123765267D03*
X162926481Y-122265267D03*
D13*
X105410000Y-112776000D03*
D14*
X105410000Y-115316000D03*
X105410000Y-117856000D03*
X105410000Y-120396000D03*
X105410000Y-122936000D03*
X105410000Y-125476000D03*
D13*
X171958000Y-106426000D03*
D14*
X174498000Y-106426000D03*
X177038000Y-106426000D03*
X179578000Y-106426000D03*
D13*
X170180000Y-125222000D03*
D15*
X118841731Y-127030268D03*
X118841731Y-125930168D03*
X118841731Y-124830368D03*
X118841731Y-123730268D03*
X118841731Y-122630268D03*
X118841731Y-121530368D03*
X118841731Y-120430368D03*
X118841731Y-119330268D03*
X118841731Y-118230168D03*
X118841731Y-117130368D03*
X118841731Y-116030268D03*
X118841731Y-114930168D03*
X118841731Y-113830168D03*
D16*
X121341631Y-124830368D03*
X121341631Y-123730268D03*
X121341631Y-122630268D03*
X121341631Y-121530168D03*
X121341631Y-120430368D03*
X121341631Y-119330268D03*
X121341631Y-118230168D03*
X121341631Y-117130368D03*
X121341631Y-116030268D03*
X129841731Y-124830368D03*
X129841731Y-123730268D03*
X129841731Y-122630268D03*
X129841731Y-121530168D03*
X129841731Y-120430368D03*
X129841731Y-119330268D03*
X129841731Y-118230168D03*
X129841731Y-117130368D03*
X129841731Y-116030268D03*
D15*
X132341831Y-127030268D03*
X132341831Y-125930168D03*
X132341831Y-124830368D03*
X132341831Y-123730268D03*
X132341831Y-122630268D03*
X132341831Y-121530368D03*
X132341831Y-120430368D03*
X132341831Y-119330268D03*
X132341831Y-118230168D03*
X132341831Y-117130368D03*
X132341831Y-116030268D03*
X132341831Y-114930168D03*
X132341831Y-113830168D03*
D17*
X131091631Y-112330268D03*
X129991831Y-112330268D03*
X128891731Y-112330268D03*
X127791631Y-112330268D03*
X126691831Y-112330268D03*
X125591831Y-112330268D03*
X124491731Y-112330268D03*
X123391631Y-112330268D03*
X122291831Y-112330268D03*
X121191731Y-112330268D03*
X120091631Y-112330268D03*
D13*
X116332000Y-100330000D03*
D14*
X118872000Y-100330000D03*
X121412000Y-100330000D03*
X123952000Y-100330000D03*
X126492000Y-100330000D03*
X129032000Y-100330000D03*
X131572000Y-100330000D03*
X134112000Y-100330000D03*
X136652000Y-100330000D03*
X139192000Y-100330000D03*
X141732000Y-100330000D03*
X144272000Y-100330000D03*
X146812000Y-100330000D03*
X149352000Y-100330000D03*
X151892000Y-100330000D03*
X154432000Y-100330000D03*
D18*
X145821730Y-112278267D03*
X147021730Y-112278267D03*
X148221730Y-112278267D03*
X149421730Y-112278267D03*
D19*
X144671730Y-108503266D03*
X150571731Y-108503266D03*
D20*
X139731732Y-122312268D03*
X138731731Y-122312268D03*
X137731730Y-122312268D03*
D21*
X141031731Y-126187269D03*
X136431731Y-126187269D03*
D22*
X182178731Y-117033818D03*
X183128731Y-117033818D03*
X184078731Y-117033818D03*
X184078731Y-119308818D03*
X182178731Y-119308818D03*
D23*
X194994800Y-121767600D03*
X193344800Y-121767600D03*
D24*
X165937231Y-123480268D03*
X165937231Y-120980268D03*
D25*
X155508731Y-124412268D03*
X153958731Y-124412268D03*
D20*
X147888181Y-122245718D03*
X146888180Y-122245718D03*
X145888179Y-122245718D03*
D21*
X149188180Y-126120719D03*
X144588180Y-126120719D03*
D26*
X189785731Y-116386268D03*
X189785731Y-114736268D03*
D27*
X175891931Y-112484468D03*
X175891931Y-110584468D03*
D28*
X118005331Y-109289068D03*
X118005331Y-111189068D03*
D29*
X195119731Y-112071768D03*
X195119731Y-114146768D03*
D22*
X191309731Y-114326768D03*
X192259731Y-114326768D03*
X193209731Y-114326768D03*
X193209731Y-116601768D03*
X191309731Y-116601768D03*
D30*
X148332931Y-116944668D03*
X148332931Y-118594668D03*
X137791931Y-116818668D03*
X137791931Y-118468668D03*
D31*
X132052368Y-110517631D03*
X133219094Y-109350905D03*
X130020368Y-109501631D03*
X131187094Y-108334905D03*
D32*
X115947931Y-109401968D03*
X115947931Y-111126968D03*
D33*
X191220600Y-107205000D03*
X189220600Y-107205000D03*
D34*
X193620600Y-102005000D03*
X186820600Y-102005000D03*
D35*
X191310731Y-118773468D03*
X192960731Y-118773468D03*
D36*
X177136531Y-119928868D03*
X177136531Y-121478868D03*
D30*
X186610731Y-112665268D03*
X186610731Y-114315268D03*
D37*
X178609731Y-113870268D03*
X178609731Y-110570268D03*
D23*
X190994800Y-121767600D03*
X189344800Y-121767600D03*
D29*
X179628731Y-117133818D03*
X179628731Y-119208818D03*
D38*
X176196731Y-116940768D03*
X176196731Y-114865768D03*
D35*
X182229731Y-114887268D03*
X183879731Y-114887268D03*
D39*
X184065731Y-112601268D03*
X182165731Y-112601268D03*
X183115731Y-110726268D03*
D40*
X129663931Y-114150668D03*
D41*
X123444000Y-122936000D03*
X128825731Y-120424468D03*
X117522731Y-115242868D03*
X127606531Y-123370868D03*
X190217531Y-118748068D03*
X128800331Y-121516668D03*
D40*
X180895731Y-110569268D03*
D41*
X128851131Y-117122468D03*
X192344800Y-121767600D03*
X135124931Y-115053868D03*
X165414431Y-108905568D03*
X148307531Y-116081068D03*
X144497531Y-123370868D03*
X184959731Y-112601268D03*
X128825731Y-119306868D03*
X163903131Y-107394268D03*
X137791931Y-116030268D03*
X164614331Y-108080068D03*
X134286731Y-119637068D03*
X130781531Y-115166668D03*
X128851131Y-118214668D03*
X166265331Y-109731068D03*
D40*
X145869131Y-113388668D03*
X194027531Y-116639868D03*
D41*
X172221731Y-117681268D03*
X129003531Y-116030268D03*
X147888181Y-121021118D03*
X165937231Y-122253268D03*
X127525082Y-122156918D03*
X116836931Y-111229668D03*
X156549731Y-124480268D03*
X182128731Y-120671318D03*
X181128731Y-120671318D03*
X180128731Y-123671318D03*
X181128731Y-122671318D03*
X182128731Y-121671318D03*
X180128731Y-121671318D03*
X179117731Y-123618268D03*
X180128731Y-122671318D03*
X181128731Y-123671318D03*
X182128731Y-123671318D03*
X179117731Y-122618268D03*
X179117731Y-120618268D03*
X180128731Y-120671318D03*
X181128731Y-119471418D03*
X181128731Y-121671318D03*
X119092631Y-111331268D03*
X120091631Y-112330268D03*
X179117731Y-121618268D03*
X182128731Y-122671318D03*
X116379731Y-112601268D03*
X177546000Y-116840000D03*
X119605531Y-109324668D03*
X114601731Y-110137468D03*
X114652531Y-110950268D03*
X173990000Y-117348000D03*
X118132331Y-112499668D03*
X115566931Y-112575868D03*
X176022000Y-118364000D03*
X114652531Y-111763068D03*
X114652531Y-112601268D03*
X164592000Y-122174000D03*
X119554731Y-108461068D03*
X117294131Y-112550468D03*
X183134000Y-118364000D03*
X119630931Y-110213668D03*
X114601731Y-109324668D03*
X114601731Y-108511868D03*
D42*
X118841731Y-118230168D02*
X116198168Y-118230168D01*
X195119731Y-121642669D02*
X195119731Y-120241768D01*
X194994800Y-121767600D02*
X195119731Y-121642669D01*
X195119731Y-120241768D02*
X195119731Y-114146768D01*
D43*
X189230000Y-110726268D02*
X189230000Y-107214400D01*
X189230000Y-110726268D02*
X191752268Y-110726268D01*
X183115731Y-110726268D02*
X189230000Y-110726268D01*
X189230000Y-107214400D02*
X189220600Y-107205000D01*
D42*
X174498000Y-106426000D02*
X174498000Y-110570268D01*
D44*
X129003531Y-116030268D02*
X129841731Y-116030268D01*
X128866631Y-118230168D02*
X128851131Y-118214668D01*
D45*
X139156473Y-115977268D02*
X146434989Y-115977268D01*
D44*
X112776000Y-108712000D02*
X114300000Y-107188000D01*
D45*
X133219094Y-108619162D02*
X133734988Y-108103268D01*
D42*
X113284000Y-105156000D02*
X124460000Y-105156000D01*
D46*
X123444000Y-122936000D02*
X122038168Y-121530168D01*
D42*
X132403281Y-120368918D02*
X132341831Y-120430368D01*
X192062931Y-115767468D02*
X192062931Y-117872468D01*
X109728000Y-107188000D02*
X112776000Y-104140000D01*
X108712000Y-106680000D02*
X112268000Y-103124000D01*
X156024080Y-122265267D02*
X151088281Y-117329468D01*
D47*
X130020368Y-109501631D02*
X130020368Y-112301731D01*
D43*
X184959731Y-112601268D02*
X186546731Y-112601268D01*
D45*
X135346473Y-108103268D02*
X137006731Y-109763526D01*
D42*
X109728000Y-114046000D02*
X109728000Y-107188000D01*
D48*
X145869131Y-112325668D02*
X145821730Y-112278267D01*
D44*
X129841731Y-119330268D02*
X128849131Y-119330268D01*
D42*
X154351481Y-112566268D02*
X154351481Y-114091268D01*
X117550268Y-122630268D02*
X109220000Y-114300000D01*
X118841731Y-125930168D02*
X118056168Y-125930168D01*
X144272000Y-102870000D02*
X144272000Y-100330000D01*
D47*
X131091631Y-111478368D02*
X132052368Y-110517631D01*
D42*
X152447731Y-107648268D02*
X151733463Y-106934000D01*
X190201831Y-116764368D02*
X189848731Y-116411268D01*
X191050731Y-118960268D02*
X191250731Y-118760268D01*
D46*
X129734953Y-115166668D02*
X127791631Y-113223346D01*
D44*
X128859031Y-117130368D02*
X128851131Y-117122468D01*
D42*
X115522268Y-116030268D02*
X112268000Y-112776000D01*
X120650000Y-103632000D02*
X123952000Y-100330000D01*
D44*
X148307531Y-116081068D02*
X148307531Y-116919268D01*
D42*
X113030000Y-104648000D02*
X124206000Y-104648000D01*
X125591831Y-112330268D02*
X125591831Y-110628169D01*
X125591831Y-110628169D02*
X129794000Y-106426000D01*
X167901481Y-113582018D02*
X167901481Y-113616268D01*
D45*
X146268473Y-115575268D02*
X147420730Y-114423011D01*
D43*
X193247831Y-116639868D02*
X193209731Y-116601768D01*
D42*
X111760000Y-108204000D02*
X113792000Y-106172000D01*
D46*
X152666481Y-117910756D02*
X155762809Y-121007084D01*
D44*
X129841731Y-118230168D02*
X128866631Y-118230168D01*
D42*
X124491731Y-112330268D02*
X124491731Y-111093269D01*
X181864000Y-109474537D02*
X183115731Y-110726268D01*
D45*
X137408731Y-109597010D02*
X137408731Y-113661010D01*
D42*
X138684000Y-103378000D02*
X139192000Y-102870000D01*
D44*
X139731732Y-121387568D02*
X138774532Y-120430368D01*
D43*
X191752268Y-110726268D02*
X193389731Y-112363731D01*
D42*
X128016000Y-101346000D02*
X129032000Y-100330000D01*
D44*
X134286731Y-119637068D02*
X134286731Y-117025168D01*
D42*
X191259731Y-116814368D02*
X191309731Y-116764368D01*
D46*
X159420548Y-121144742D02*
X161032382Y-121144742D01*
D43*
X163903131Y-107394268D02*
X163928531Y-107394268D01*
D44*
X135124931Y-115053868D02*
X135001231Y-114930168D01*
D42*
X165937231Y-122253268D02*
X165937231Y-123480268D01*
D44*
X114084168Y-113830168D02*
X112776000Y-112522000D01*
D42*
X164383214Y-125222000D02*
X170180000Y-125222000D01*
X111760000Y-102108000D02*
X114808000Y-102108000D01*
D46*
X161032382Y-121144742D02*
X161196856Y-120980268D01*
D42*
X177038000Y-106426000D02*
X179832000Y-109220000D01*
D44*
X134286731Y-117025168D02*
X133291831Y-116030268D01*
D48*
X128891731Y-112330268D02*
X128891731Y-113378468D01*
D42*
X111252000Y-107950000D02*
X113538000Y-105664000D01*
X116332000Y-100584000D02*
X116332000Y-100330000D01*
D44*
X126691831Y-111306169D02*
X126691831Y-112330268D01*
D42*
X107696000Y-115570000D02*
X107696000Y-106172000D01*
X123391631Y-112330268D02*
X123391631Y-111558369D01*
D45*
X137006731Y-113827526D02*
X139156473Y-115977268D01*
D44*
X190217531Y-118748068D02*
X191285331Y-118748068D01*
D45*
X139322989Y-115575268D02*
X146268473Y-115575268D01*
D43*
X163928531Y-107394268D02*
X164614331Y-108080068D01*
D44*
X129841731Y-121530168D02*
X128813831Y-121530168D01*
D42*
X118841731Y-123730268D02*
X117888268Y-123730268D01*
X108204000Y-106426000D02*
X112014000Y-102616000D01*
X139192000Y-102870000D02*
X139192000Y-100330000D01*
X110744000Y-113538000D02*
X110744000Y-107696000D01*
X117212368Y-121530368D02*
X109728000Y-114046000D01*
D45*
X148221730Y-112915768D02*
X148221730Y-112278267D01*
D42*
X113538000Y-105664000D02*
X124714000Y-105664000D01*
X131318000Y-101854000D02*
X131572000Y-101600000D01*
X128524000Y-103378000D02*
X138684000Y-103378000D01*
D45*
X135512989Y-107701268D02*
X137408731Y-109597010D01*
D43*
X177192231Y-113870268D02*
X176196731Y-114865768D01*
D42*
X124460000Y-105156000D02*
X127762000Y-101854000D01*
X118841731Y-117130368D02*
X115860368Y-117130368D01*
X118841731Y-116030268D02*
X115522268Y-116030268D01*
D48*
X128891731Y-113378468D02*
X129663931Y-114150668D01*
D44*
X148307531Y-116919268D02*
X148332931Y-116944668D01*
D43*
X180894731Y-110570268D02*
X180895731Y-110569268D01*
X194027531Y-116639868D02*
X193247831Y-116639868D01*
X164614331Y-108080068D02*
X164588931Y-108080068D01*
D42*
X166542457Y-112910292D02*
X166542457Y-113210292D01*
X146812000Y-104140000D02*
X146812000Y-100330000D01*
X192344800Y-121767600D02*
X190994800Y-121767600D01*
X110236000Y-113792000D02*
X110236000Y-107442000D01*
X129286000Y-104902000D02*
X146050000Y-104902000D01*
X149352000Y-104394000D02*
X149352000Y-100330000D01*
D47*
X130020368Y-112301731D02*
X129991831Y-112330268D01*
D42*
X142748000Y-104394000D02*
X144272000Y-102870000D01*
D46*
X159282890Y-121007084D02*
X159420548Y-121144742D01*
D42*
X116536268Y-119330268D02*
X110744000Y-113538000D01*
X127762000Y-101854000D02*
X131318000Y-101854000D01*
X112776000Y-104140000D02*
X122682000Y-104140000D01*
X191309731Y-115014268D02*
X191309731Y-114164168D01*
X152447731Y-112863618D02*
X152447731Y-107648268D01*
X112522000Y-103632000D02*
X120650000Y-103632000D01*
X124206000Y-104648000D02*
X127508000Y-101346000D01*
D44*
X133291831Y-116030268D02*
X132341831Y-116030268D01*
D48*
X145869131Y-113388668D02*
X145869131Y-112325668D01*
D42*
X193344800Y-121767600D02*
X192344800Y-121767600D01*
D44*
X139731732Y-122312268D02*
X139731732Y-121387568D01*
D45*
X146434989Y-115977268D02*
X147822730Y-114589527D01*
X133734988Y-108103268D02*
X135346473Y-108103268D01*
D44*
X125476000Y-107188000D02*
X128778000Y-103886000D01*
D42*
X114046000Y-106680000D02*
X125222000Y-106680000D01*
X183879731Y-114887268D02*
X183879731Y-116834818D01*
D44*
X128778000Y-103886000D02*
X140970000Y-103886000D01*
D42*
X118226368Y-124830368D02*
X108204000Y-114808000D01*
X110744000Y-107696000D02*
X113284000Y-105156000D01*
D43*
X193389731Y-114146768D02*
X195119731Y-114146768D01*
D42*
X192062931Y-117872468D02*
X192950731Y-118760268D01*
X122465830Y-118230168D02*
X121341631Y-118230168D01*
X128270000Y-102870000D02*
X136144000Y-102870000D01*
D45*
X133568474Y-107701268D02*
X135512989Y-107701268D01*
X133219094Y-109350905D02*
X133219094Y-108619162D01*
D43*
X182165731Y-112601268D02*
X182125531Y-112641468D01*
D42*
X116874368Y-120430368D02*
X110236000Y-113792000D01*
X115860368Y-117130368D02*
X111760000Y-113030000D01*
D43*
X184065731Y-112601268D02*
X184959731Y-112601268D01*
D42*
X109220000Y-114300000D02*
X109220000Y-106934000D01*
X136652000Y-102362000D02*
X136652000Y-100330000D01*
X154351481Y-114091268D02*
X152666481Y-115776268D01*
D43*
X178609731Y-113870268D02*
X177192231Y-113870268D01*
D42*
X116586000Y-102616000D02*
X118872000Y-100330000D01*
X191309731Y-116764368D02*
X190201831Y-116764368D01*
D44*
X191285331Y-118748068D02*
X191310731Y-118773468D01*
D43*
X178609731Y-110570268D02*
X180894731Y-110570268D01*
D49*
X117835431Y-114930168D02*
X118841731Y-114930168D01*
D45*
X132934837Y-108334905D02*
X133568474Y-107701268D01*
D42*
X151892000Y-104648000D02*
X151892000Y-100330000D01*
X122291831Y-112330268D02*
X122291831Y-111896169D01*
D44*
X118841731Y-113830168D02*
X114084168Y-113830168D01*
D43*
X166265331Y-109731068D02*
X167104531Y-110570268D01*
D47*
X131091631Y-112330268D02*
X131091631Y-111478368D01*
D42*
X121191731Y-112330268D02*
X121191731Y-112234269D01*
X151733463Y-106934000D02*
X130556000Y-106934000D01*
D45*
X147420730Y-114423011D02*
X147420730Y-113314768D01*
D42*
X151088281Y-114223068D02*
X152447731Y-112863618D01*
X110236000Y-107442000D02*
X113030000Y-104648000D01*
D44*
X129841731Y-120430368D02*
X128831631Y-120430368D01*
D42*
X129540000Y-105410000D02*
X148336000Y-105410000D01*
D44*
X117891731Y-113830168D02*
X118841731Y-113830168D01*
D42*
X123391631Y-111558369D02*
X129540000Y-105410000D01*
X154432000Y-104648000D02*
X154432000Y-100330000D01*
X148336000Y-105410000D02*
X149352000Y-104394000D01*
D44*
X137791931Y-116030268D02*
X137791931Y-116818668D01*
D42*
X121191731Y-112234269D02*
X129032000Y-104394000D01*
D43*
X167104531Y-110570268D02*
X171958000Y-110570268D01*
D42*
X118841731Y-120430368D02*
X116874368Y-120430368D01*
X181864000Y-109474000D02*
X181864000Y-109474537D01*
X118841731Y-121530368D02*
X117212368Y-121530368D01*
D44*
X141732000Y-103124000D02*
X141732000Y-100330000D01*
D49*
X117522731Y-115242868D02*
X117835431Y-114930168D01*
D42*
X122682000Y-104140000D02*
X126492000Y-100330000D01*
X122498532Y-117130368D02*
X121341631Y-117130368D01*
X131572000Y-101600000D02*
X131572000Y-100330000D01*
X118056168Y-125930168D02*
X107696000Y-115570000D01*
D43*
X174498000Y-110570268D02*
X178609731Y-110570268D01*
D42*
X126691831Y-110798169D02*
X126691831Y-112330268D01*
X128016000Y-102362000D02*
X133858000Y-102362000D01*
D43*
X186546731Y-112601268D02*
X186610731Y-112665268D01*
D46*
X155762809Y-121007084D02*
X159282890Y-121007084D01*
D42*
X108204000Y-114808000D02*
X108204000Y-106426000D01*
D46*
X152666481Y-115776268D02*
X152666481Y-117910756D01*
D42*
X112014000Y-102616000D02*
X116586000Y-102616000D01*
X130119831Y-112202268D02*
X129991831Y-112330268D01*
X112268000Y-108458000D02*
X114046000Y-106680000D01*
X181610000Y-109220000D02*
X181864000Y-109474000D01*
X109220000Y-106934000D02*
X112522000Y-103632000D01*
X117888268Y-123730268D02*
X108712000Y-114554000D01*
D45*
X147822730Y-114589527D02*
X147822730Y-113314768D01*
D46*
X122038168Y-121530168D02*
X121341631Y-121530168D01*
D42*
X112268000Y-112776000D02*
X112268000Y-108458000D01*
D43*
X182125531Y-112641468D02*
X182125531Y-117033818D01*
D42*
X116198168Y-118230168D02*
X111252000Y-113284000D01*
D44*
X144497531Y-123370868D02*
X144763029Y-123370868D01*
D43*
X193389731Y-112363731D02*
X193389731Y-114146768D01*
D44*
X128831631Y-120430368D02*
X128825731Y-120424468D01*
D42*
X111252000Y-113284000D02*
X111252000Y-107950000D01*
X179832000Y-109220000D02*
X181610000Y-109220000D01*
X127525082Y-122156918D02*
X122498532Y-117130368D01*
D43*
X164588931Y-108080068D02*
X163903131Y-107394268D01*
D42*
X133858000Y-102362000D02*
X134112000Y-102108000D01*
X151088281Y-117329468D02*
X151088281Y-114223068D01*
D46*
X127791631Y-113223346D02*
X127791631Y-112330268D01*
D42*
X150622000Y-105918000D02*
X151892000Y-104648000D01*
D45*
X147822730Y-113314768D02*
X148221730Y-112915768D01*
D42*
X125222000Y-106680000D02*
X128524000Y-103378000D01*
X107696000Y-106172000D02*
X111760000Y-102108000D01*
X192062931Y-115767468D02*
X191309731Y-115014268D01*
D45*
X137006731Y-109763526D02*
X137006731Y-113827526D01*
D42*
X130556000Y-106934000D02*
X126691831Y-110798169D01*
X127508000Y-101346000D02*
X128016000Y-101346000D01*
X162926481Y-123765267D02*
X164383214Y-125222000D01*
X118841731Y-122630268D02*
X117550268Y-122630268D01*
X152654000Y-106426000D02*
X154432000Y-104648000D01*
X124968000Y-106172000D02*
X128270000Y-102870000D01*
X136144000Y-102870000D02*
X136652000Y-102362000D01*
X112268000Y-103124000D02*
X118618000Y-103124000D01*
X108712000Y-114554000D02*
X108712000Y-106680000D01*
D44*
X128813831Y-121530168D02*
X128800331Y-121516668D01*
X137731730Y-122312268D02*
X136949830Y-121530368D01*
D42*
X118618000Y-103124000D02*
X121412000Y-100330000D01*
D44*
X138774532Y-120430368D02*
X132341831Y-120430368D01*
X128849131Y-119330268D02*
X128825731Y-119306868D01*
D42*
X132341831Y-120430368D02*
X132407281Y-120364918D01*
X122291831Y-111896169D02*
X129286000Y-104902000D01*
X183879731Y-116834818D02*
X184078731Y-117033818D01*
X157526481Y-122265267D02*
X156024080Y-122265267D01*
X118841731Y-119330268D02*
X116536268Y-119330268D01*
D44*
X144763029Y-123370868D02*
X145888179Y-122245718D01*
D43*
X181212731Y-113870268D02*
X182229731Y-114887268D01*
D45*
X147021730Y-112915768D02*
X147021730Y-112278267D01*
X147420730Y-113314768D02*
X147021730Y-112915768D01*
X131187094Y-108334905D02*
X132934837Y-108334905D01*
D44*
X129841731Y-117130368D02*
X128859031Y-117130368D01*
D42*
X118841731Y-124830368D02*
X118226368Y-124830368D01*
X129032000Y-104394000D02*
X142748000Y-104394000D01*
X129794000Y-106426000D02*
X152654000Y-106426000D01*
X127606531Y-123370868D02*
X122465830Y-118230168D01*
D44*
X147888181Y-121021118D02*
X147888181Y-122245718D01*
D42*
X129667000Y-105918000D02*
X150622000Y-105918000D01*
D43*
X171958000Y-110570268D02*
X174498000Y-110570268D01*
X164614331Y-108080068D02*
X166265331Y-109731068D01*
D44*
X112776000Y-112522000D02*
X112776000Y-108712000D01*
X136949830Y-121530368D02*
X132341831Y-121530368D01*
D42*
X124491731Y-111093269D02*
X129667000Y-105918000D01*
D44*
X140970000Y-103886000D02*
X141732000Y-103124000D01*
D42*
X146050000Y-104902000D02*
X146812000Y-104140000D01*
D46*
X130781531Y-115166668D02*
X129734953Y-115166668D01*
X161196856Y-120980268D02*
X165937231Y-120980268D01*
D45*
X137408731Y-113661010D02*
X139322989Y-115575268D01*
D44*
X135001231Y-114930168D02*
X132341831Y-114930168D01*
D42*
X124714000Y-105664000D02*
X128016000Y-102362000D01*
X111760000Y-113030000D02*
X111760000Y-108204000D01*
X114808000Y-102108000D02*
X116332000Y-100584000D01*
D44*
X114300000Y-107188000D02*
X125476000Y-107188000D01*
D43*
X178609731Y-113870268D02*
X181212731Y-113870268D01*
D42*
X134112000Y-102108000D02*
X134112000Y-100330000D01*
X113792000Y-106172000D02*
X124968000Y-106172000D01*
D50*
X179978831Y-119471418D02*
X179628731Y-119121318D01*
X181628731Y-119471418D02*
X181128731Y-119471418D01*
X156879480Y-124412268D02*
X157526481Y-123765267D01*
D48*
X116877531Y-111189068D02*
X116836931Y-111229668D01*
D50*
X156617731Y-124412268D02*
X156879480Y-124412268D01*
D48*
X119092631Y-111331268D02*
X120091631Y-112330268D01*
D50*
X155508731Y-124412268D02*
X156481731Y-124412268D01*
D48*
X116836931Y-111229668D02*
X116796331Y-111189068D01*
X177136531Y-121478868D02*
X178978331Y-121478868D01*
X116796331Y-111189068D02*
X116139831Y-111189068D01*
D50*
X180628731Y-119471418D02*
X179978831Y-119471418D01*
X156481731Y-124412268D02*
X156549731Y-124480268D01*
X156549731Y-124480268D02*
X156617731Y-124412268D01*
D48*
X178978331Y-121478868D02*
X179117731Y-121618268D01*
X118950431Y-111189068D02*
X116877531Y-111189068D01*
X119092631Y-111331268D02*
X118950431Y-111189068D01*
D50*
X181128731Y-119471418D02*
X180628731Y-119471418D01*
X182178731Y-119471418D02*
X181628731Y-119471418D01*
G04 #@! TA.AperFunction,Conductor*
G36*
X115256730Y-98818185D02*
G01*
X115302485Y-98870989D01*
X115312429Y-98940147D01*
X115283404Y-99003703D01*
X115246151Y-99029567D01*
X115247454Y-99031953D01*
X115239664Y-99036206D01*
X115124455Y-99122452D01*
X115124452Y-99122455D01*
X115038206Y-99237664D01*
X115038202Y-99237671D01*
X114987908Y-99372517D01*
X114981501Y-99432116D01*
X114981500Y-99432135D01*
X114981500Y-101033902D01*
X114961815Y-101100941D01*
X114945181Y-101121583D01*
X114595584Y-101471181D01*
X114534261Y-101504666D01*
X114507903Y-101507500D01*
X111846669Y-101507500D01*
X111846653Y-101507499D01*
X111839057Y-101507499D01*
X111680943Y-101507499D01*
X111573587Y-101536265D01*
X111528210Y-101548424D01*
X111528209Y-101548425D01*
X111478096Y-101577359D01*
X111478095Y-101577360D01*
X111434689Y-101602420D01*
X111391285Y-101627479D01*
X111391282Y-101627481D01*
X107215481Y-105803282D01*
X107215479Y-105803285D01*
X107165361Y-105890094D01*
X107165359Y-105890096D01*
X107136425Y-105940209D01*
X107136424Y-105940210D01*
X107136423Y-105940215D01*
X107095499Y-106092943D01*
X107095499Y-106092945D01*
X107095499Y-106261046D01*
X107095500Y-106261059D01*
X107095500Y-115483330D01*
X107095499Y-115483348D01*
X107095499Y-115649054D01*
X107095498Y-115649054D01*
X107122836Y-115751078D01*
X107136423Y-115801785D01*
X107149399Y-115824259D01*
X107186247Y-115888082D01*
X107215479Y-115938715D01*
X107334349Y-116057585D01*
X107334355Y-116057590D01*
X117504912Y-126228147D01*
X117538397Y-126289470D01*
X117541231Y-126315826D01*
X117541231Y-126378037D01*
X117541232Y-126378044D01*
X117547639Y-126437647D01*
X117549423Y-126445194D01*
X117548185Y-126445486D01*
X117552605Y-126507293D01*
X117548580Y-126521000D01*
X117548132Y-126522894D01*
X117541731Y-126582423D01*
X117541731Y-126780268D01*
X117793930Y-126780268D01*
X117837263Y-126788086D01*
X117934248Y-126824259D01*
X117934247Y-126824259D01*
X117941175Y-126825003D01*
X117993858Y-126830668D01*
X119689603Y-126830667D01*
X119749214Y-126824259D01*
X119846199Y-126788086D01*
X119889532Y-126780268D01*
X120141731Y-126780268D01*
X120141731Y-126582440D01*
X120141730Y-126582423D01*
X120135329Y-126522895D01*
X120133544Y-126515338D01*
X120135175Y-126514952D01*
X120130857Y-126454571D01*
X120135804Y-126437724D01*
X120135819Y-126437657D01*
X120135822Y-126437651D01*
X120142231Y-126378041D01*
X120142230Y-125482296D01*
X120135822Y-125422685D01*
X120135822Y-125422684D01*
X120135243Y-125417297D01*
X120147650Y-125348538D01*
X120195261Y-125297401D01*
X120262961Y-125280123D01*
X120329254Y-125302189D01*
X120373095Y-125356593D01*
X120374715Y-125360712D01*
X120397832Y-125422694D01*
X120397837Y-125422703D01*
X120484083Y-125537912D01*
X120484086Y-125537915D01*
X120599295Y-125624161D01*
X120599302Y-125624165D01*
X120734148Y-125674459D01*
X120734147Y-125674459D01*
X120741075Y-125675203D01*
X120793758Y-125680868D01*
X121889503Y-125680867D01*
X121949114Y-125674459D01*
X122083962Y-125624164D01*
X122199177Y-125537914D01*
X122285427Y-125422699D01*
X122335722Y-125287851D01*
X122342131Y-125228241D01*
X122342130Y-124432496D01*
X122335722Y-124372885D01*
X122317536Y-124324128D01*
X122317359Y-124323652D01*
X122312373Y-124253960D01*
X122317358Y-124236987D01*
X122335722Y-124187751D01*
X122342131Y-124128141D01*
X122342130Y-123332396D01*
X122335722Y-123272785D01*
X122331725Y-123262068D01*
X122317378Y-123223602D01*
X122312393Y-123153911D01*
X122317378Y-123136933D01*
X122320748Y-123127898D01*
X122335722Y-123087751D01*
X122342131Y-123028141D01*
X122342130Y-122933228D01*
X122361814Y-122866192D01*
X122414617Y-122820436D01*
X122483776Y-122810492D01*
X122547332Y-122839516D01*
X122553811Y-122845549D01*
X122607013Y-122898751D01*
X122640498Y-122960074D01*
X122642552Y-122972548D01*
X122658630Y-123115250D01*
X122658631Y-123115254D01*
X122718211Y-123285523D01*
X122789931Y-123399664D01*
X122814184Y-123438262D01*
X122941738Y-123565816D01*
X123094478Y-123661789D01*
X123248824Y-123715797D01*
X123264745Y-123721368D01*
X123264750Y-123721369D01*
X123443996Y-123741565D01*
X123444000Y-123741565D01*
X123444004Y-123741565D01*
X123623249Y-123721369D01*
X123623252Y-123721368D01*
X123623255Y-123721368D01*
X123793522Y-123661789D01*
X123946262Y-123565816D01*
X124073816Y-123438262D01*
X124169789Y-123285522D01*
X124229368Y-123115255D01*
X124231586Y-123095569D01*
X124249565Y-122936003D01*
X124249565Y-122935996D01*
X124229369Y-122756750D01*
X124229368Y-122756745D01*
X124205636Y-122688922D01*
X124169789Y-122586478D01*
X124169174Y-122585500D01*
X124119497Y-122506439D01*
X124073816Y-122433738D01*
X123946262Y-122306184D01*
X123934388Y-122298723D01*
X123793523Y-122210211D01*
X123623254Y-122150631D01*
X123623250Y-122150630D01*
X123480548Y-122134552D01*
X123416134Y-122107485D01*
X123406751Y-122099013D01*
X122385395Y-121077657D01*
X122385393Y-121077655D01*
X122385390Y-121077653D01*
X122385386Y-121077650D01*
X122377108Y-121072871D01*
X122328893Y-121022304D01*
X122315671Y-120953696D01*
X122322925Y-120922158D01*
X122335722Y-120887851D01*
X122342131Y-120828241D01*
X122342130Y-120032496D01*
X122335722Y-119972885D01*
X122334591Y-119969853D01*
X122317359Y-119923652D01*
X122312373Y-119853960D01*
X122317356Y-119836989D01*
X122335722Y-119787751D01*
X122342131Y-119728141D01*
X122342130Y-119255062D01*
X122361814Y-119188025D01*
X122414618Y-119142270D01*
X122483777Y-119132326D01*
X122547333Y-119161351D01*
X122553811Y-119167383D01*
X126775829Y-123389401D01*
X126809314Y-123450724D01*
X126811368Y-123463198D01*
X126821161Y-123550117D01*
X126880741Y-123720389D01*
X126926456Y-123793143D01*
X126976715Y-123873130D01*
X127104269Y-124000684D01*
X127182125Y-124049604D01*
X127250784Y-124092746D01*
X127257009Y-124096657D01*
X127346994Y-124128144D01*
X127427276Y-124156236D01*
X127427281Y-124156237D01*
X127606527Y-124176433D01*
X127606531Y-124176433D01*
X127606535Y-124176433D01*
X127785780Y-124156237D01*
X127785783Y-124156236D01*
X127785786Y-124156236D01*
X127956053Y-124096657D01*
X128108793Y-124000684D01*
X128236347Y-123873130D01*
X128332320Y-123720390D01*
X128391899Y-123550123D01*
X128394080Y-123530765D01*
X128412096Y-123370871D01*
X128412096Y-123370864D01*
X128391900Y-123191618D01*
X128391899Y-123191613D01*
X128387929Y-123180268D01*
X128332320Y-123021346D01*
X128328500Y-123015267D01*
X128273953Y-122928455D01*
X128236347Y-122868606D01*
X128175438Y-122807697D01*
X128141953Y-122746374D01*
X128146937Y-122676682D01*
X128158125Y-122654044D01*
X128168485Y-122637556D01*
X128250871Y-122506440D01*
X128310450Y-122336173D01*
X128310450Y-122336172D01*
X128312750Y-122329600D01*
X128314740Y-122330296D01*
X128343847Y-122278229D01*
X128405499Y-122245355D01*
X128471608Y-122249735D01*
X128621076Y-122302036D01*
X128621080Y-122302037D01*
X128702874Y-122311252D01*
X128731114Y-122314434D01*
X128795528Y-122341500D01*
X128835083Y-122399094D01*
X128841231Y-122437654D01*
X128841231Y-123028138D01*
X128841232Y-123028144D01*
X128847639Y-123087750D01*
X128857896Y-123115249D01*
X128865983Y-123136933D01*
X128865984Y-123136934D01*
X128870968Y-123206626D01*
X128865984Y-123223599D01*
X128847640Y-123272782D01*
X128847639Y-123272784D01*
X128841564Y-123329296D01*
X128841232Y-123332391D01*
X128841231Y-123332403D01*
X128841231Y-124128138D01*
X128841232Y-124128144D01*
X128847639Y-124187750D01*
X128866003Y-124236987D01*
X128870986Y-124306678D01*
X128866003Y-124323649D01*
X128847639Y-124372885D01*
X128841232Y-124432484D01*
X128841232Y-124432491D01*
X128841231Y-124432503D01*
X128841231Y-125228238D01*
X128841232Y-125228244D01*
X128847639Y-125287851D01*
X128897933Y-125422696D01*
X128897937Y-125422703D01*
X128984183Y-125537912D01*
X128984186Y-125537915D01*
X129099395Y-125624161D01*
X129099402Y-125624165D01*
X129234248Y-125674459D01*
X129234247Y-125674459D01*
X129241175Y-125675203D01*
X129293858Y-125680868D01*
X130389603Y-125680867D01*
X130449214Y-125674459D01*
X130584062Y-125624164D01*
X130699277Y-125537914D01*
X130785527Y-125422699D01*
X130789468Y-125412133D01*
X130808929Y-125359956D01*
X130850800Y-125304022D01*
X130916264Y-125279604D01*
X130984537Y-125294455D01*
X131033943Y-125343860D01*
X131048795Y-125412133D01*
X131048401Y-125416543D01*
X131047740Y-125422682D01*
X131047740Y-125422685D01*
X131041331Y-125482295D01*
X131041331Y-125482302D01*
X131041331Y-125482303D01*
X131041331Y-126378038D01*
X131041332Y-126378044D01*
X131047739Y-126437647D01*
X131049523Y-126445194D01*
X131048285Y-126445486D01*
X131052705Y-126507293D01*
X131048680Y-126521000D01*
X131048232Y-126522894D01*
X131041831Y-126582423D01*
X131041831Y-126780268D01*
X131294030Y-126780268D01*
X131337363Y-126788086D01*
X131434348Y-126824259D01*
X131434347Y-126824259D01*
X131441275Y-126825003D01*
X131493958Y-126830668D01*
X133189703Y-126830667D01*
X133249314Y-126824259D01*
X133346299Y-126788086D01*
X133389632Y-126780268D01*
X133641831Y-126780268D01*
X133641831Y-126582440D01*
X133641830Y-126582423D01*
X133635429Y-126522895D01*
X133633644Y-126515338D01*
X133635275Y-126514952D01*
X133630957Y-126454571D01*
X133635904Y-126437724D01*
X133635919Y-126437657D01*
X133635922Y-126437651D01*
X133642331Y-126378041D01*
X133642331Y-125937269D01*
X135334831Y-125937269D01*
X136181731Y-125937269D01*
X136181731Y-124785569D01*
X136681731Y-124785569D01*
X136681731Y-125937269D01*
X137528631Y-125937269D01*
X139934831Y-125937269D01*
X140781731Y-125937269D01*
X140781731Y-124785569D01*
X141281731Y-124785569D01*
X141281731Y-125937269D01*
X142128631Y-125937269D01*
X142128631Y-125870719D01*
X143491280Y-125870719D01*
X144338180Y-125870719D01*
X144338180Y-124719019D01*
X144838180Y-124719019D01*
X144838180Y-125870719D01*
X145685080Y-125870719D01*
X148091280Y-125870719D01*
X148938180Y-125870719D01*
X148938180Y-124719019D01*
X149438180Y-124719019D01*
X149438180Y-125870719D01*
X150285080Y-125870719D01*
X150285080Y-125171191D01*
X150285079Y-125171174D01*
X150278678Y-125111646D01*
X150278676Y-125111639D01*
X150228434Y-124976932D01*
X150228430Y-124976925D01*
X150142270Y-124861831D01*
X150142267Y-124861828D01*
X150027173Y-124775668D01*
X150027166Y-124775664D01*
X149892459Y-124725422D01*
X149892452Y-124725420D01*
X149832924Y-124719019D01*
X149438180Y-124719019D01*
X148938180Y-124719019D01*
X148543435Y-124719019D01*
X148483907Y-124725420D01*
X148483900Y-124725422D01*
X148349193Y-124775664D01*
X148349186Y-124775668D01*
X148234092Y-124861828D01*
X148234089Y-124861831D01*
X148147929Y-124976925D01*
X148147925Y-124976932D01*
X148097683Y-125111639D01*
X148097681Y-125111646D01*
X148091280Y-125171174D01*
X148091280Y-125870719D01*
X145685080Y-125870719D01*
X145685080Y-125171191D01*
X145685079Y-125171174D01*
X145678678Y-125111646D01*
X145678676Y-125111639D01*
X145628434Y-124976932D01*
X145628430Y-124976925D01*
X145542270Y-124861831D01*
X145542267Y-124861828D01*
X145427173Y-124775668D01*
X145427166Y-124775664D01*
X145292459Y-124725422D01*
X145292452Y-124725420D01*
X145232924Y-124719019D01*
X144838180Y-124719019D01*
X144338180Y-124719019D01*
X143943435Y-124719019D01*
X143883907Y-124725420D01*
X143883900Y-124725422D01*
X143749193Y-124775664D01*
X143749186Y-124775668D01*
X143634092Y-124861828D01*
X143634089Y-124861831D01*
X143547929Y-124976925D01*
X143547925Y-124976932D01*
X143497683Y-125111639D01*
X143497681Y-125111646D01*
X143491280Y-125171174D01*
X143491280Y-125870719D01*
X142128631Y-125870719D01*
X142128631Y-125237741D01*
X142128630Y-125237724D01*
X142122229Y-125178196D01*
X142122227Y-125178189D01*
X142071985Y-125043482D01*
X142071981Y-125043475D01*
X141985821Y-124928381D01*
X141985818Y-124928378D01*
X141870724Y-124842218D01*
X141870717Y-124842214D01*
X141736010Y-124791972D01*
X141736003Y-124791970D01*
X141676475Y-124785569D01*
X141281731Y-124785569D01*
X140781731Y-124785569D01*
X140386986Y-124785569D01*
X140327458Y-124791970D01*
X140327451Y-124791972D01*
X140192744Y-124842214D01*
X140192737Y-124842218D01*
X140077643Y-124928378D01*
X140077640Y-124928381D01*
X139991480Y-125043475D01*
X139991476Y-125043482D01*
X139941234Y-125178189D01*
X139941232Y-125178196D01*
X139934831Y-125237724D01*
X139934831Y-125937269D01*
X137528631Y-125937269D01*
X137528631Y-125237741D01*
X137528630Y-125237724D01*
X137522229Y-125178196D01*
X137522227Y-125178189D01*
X137471985Y-125043482D01*
X137471981Y-125043475D01*
X137385821Y-124928381D01*
X137385818Y-124928378D01*
X137270724Y-124842218D01*
X137270717Y-124842214D01*
X137136010Y-124791972D01*
X137136003Y-124791970D01*
X137076475Y-124785569D01*
X136681731Y-124785569D01*
X136181731Y-124785569D01*
X135786986Y-124785569D01*
X135727458Y-124791970D01*
X135727451Y-124791972D01*
X135592744Y-124842214D01*
X135592737Y-124842218D01*
X135477643Y-124928378D01*
X135477640Y-124928381D01*
X135391480Y-125043475D01*
X135391476Y-125043482D01*
X135341234Y-125178189D01*
X135341232Y-125178196D01*
X135334831Y-125237724D01*
X135334831Y-125937269D01*
X133642331Y-125937269D01*
X133642330Y-125482296D01*
X133635922Y-125422685D01*
X133635922Y-125422684D01*
X133634138Y-125415134D01*
X133635634Y-125414780D01*
X133631277Y-125353915D01*
X133635621Y-125339122D01*
X133635919Y-125337857D01*
X133635922Y-125337851D01*
X133642331Y-125278241D01*
X133642330Y-124662268D01*
X153008732Y-124662268D01*
X153008732Y-124710590D01*
X153018875Y-124809875D01*
X153072183Y-124970749D01*
X153072188Y-124970760D01*
X153161155Y-125114996D01*
X153161158Y-125115000D01*
X153280998Y-125234840D01*
X153281002Y-125234843D01*
X153425238Y-125323810D01*
X153425249Y-125323815D01*
X153586124Y-125377123D01*
X153685414Y-125387267D01*
X153708731Y-125387266D01*
X153708731Y-124662268D01*
X153008732Y-124662268D01*
X133642330Y-124662268D01*
X133642330Y-124382496D01*
X133636054Y-124324116D01*
X133635922Y-124322884D01*
X133634138Y-124315334D01*
X133635589Y-124314991D01*
X133631221Y-124253966D01*
X133635670Y-124238814D01*
X133635919Y-124237757D01*
X133635922Y-124237751D01*
X133642331Y-124178141D01*
X133642330Y-123282396D01*
X133635922Y-123222785D01*
X133635921Y-123222783D01*
X133635921Y-123222780D01*
X133634139Y-123215237D01*
X133635604Y-123214890D01*
X133631240Y-123153919D01*
X133635650Y-123138901D01*
X133635920Y-123137756D01*
X133635922Y-123137751D01*
X133642331Y-123078141D01*
X133642330Y-122229867D01*
X133662014Y-122162829D01*
X133714818Y-122117074D01*
X133766330Y-122105868D01*
X136660088Y-122105868D01*
X136727127Y-122125553D01*
X136747769Y-122142187D01*
X136890111Y-122284529D01*
X136923596Y-122345852D01*
X136926430Y-122372210D01*
X136926430Y-123134838D01*
X136926431Y-123134844D01*
X136932838Y-123194451D01*
X136983132Y-123329296D01*
X136983136Y-123329303D01*
X137069382Y-123444512D01*
X137069385Y-123444515D01*
X137184594Y-123530761D01*
X137184601Y-123530765D01*
X137229548Y-123547529D01*
X137319447Y-123581059D01*
X137379057Y-123587468D01*
X138084402Y-123587467D01*
X138144013Y-123581059D01*
X138189113Y-123564237D01*
X138258802Y-123559252D01*
X138275781Y-123564238D01*
X138319555Y-123580565D01*
X138319558Y-123580566D01*
X138379086Y-123586967D01*
X138379103Y-123586968D01*
X138481731Y-123586968D01*
X138481731Y-123347903D01*
X138489549Y-123304570D01*
X138530621Y-123194451D01*
X138537030Y-123134841D01*
X138537029Y-122186266D01*
X138556713Y-122119229D01*
X138609517Y-122073474D01*
X138661029Y-122062268D01*
X138802432Y-122062268D01*
X138869471Y-122081953D01*
X138915226Y-122134757D01*
X138926432Y-122186268D01*
X138926432Y-123134838D01*
X138926433Y-123134844D01*
X138932840Y-123194451D01*
X138962057Y-123272784D01*
X138973912Y-123304569D01*
X138973913Y-123304570D01*
X138981731Y-123347903D01*
X138981731Y-123586968D01*
X139084359Y-123586968D01*
X139084375Y-123586967D01*
X139143904Y-123580566D01*
X139187680Y-123564238D01*
X139257371Y-123559252D01*
X139274335Y-123564232D01*
X139319449Y-123581059D01*
X139379059Y-123587468D01*
X140084404Y-123587467D01*
X140144015Y-123581059D01*
X140278863Y-123530764D01*
X140394078Y-123444514D01*
X140449207Y-123370871D01*
X143691966Y-123370871D01*
X143712161Y-123550117D01*
X143712162Y-123550122D01*
X143771742Y-123720391D01*
X143826415Y-123807402D01*
X143867715Y-123873130D01*
X143995269Y-124000684D01*
X144073125Y-124049604D01*
X144141784Y-124092746D01*
X144148009Y-124096657D01*
X144237994Y-124128144D01*
X144318276Y-124156236D01*
X144318281Y-124156237D01*
X144497527Y-124176433D01*
X144497531Y-124176433D01*
X144497535Y-124176433D01*
X144623253Y-124162268D01*
X153008731Y-124162268D01*
X153708731Y-124162268D01*
X153708731Y-123437267D01*
X153685424Y-123437268D01*
X153685405Y-123437269D01*
X153586123Y-123447412D01*
X153425249Y-123500720D01*
X153425238Y-123500725D01*
X153281002Y-123589692D01*
X153280998Y-123589695D01*
X153161158Y-123709535D01*
X153161155Y-123709539D01*
X153072188Y-123853775D01*
X153072183Y-123853786D01*
X153018875Y-124014661D01*
X153008731Y-124113945D01*
X153008731Y-124162268D01*
X144623253Y-124162268D01*
X144676780Y-124156237D01*
X144676783Y-124156236D01*
X144676786Y-124156236D01*
X144847053Y-124096657D01*
X144999793Y-124000684D01*
X145127347Y-123873130D01*
X145139509Y-123853775D01*
X145183350Y-123784001D01*
X145209012Y-123743158D01*
X145226320Y-123721455D01*
X145395457Y-123552318D01*
X145456778Y-123518835D01*
X145496388Y-123516712D01*
X145535506Y-123520918D01*
X146240851Y-123520917D01*
X146300462Y-123514509D01*
X146345562Y-123497687D01*
X146415251Y-123492702D01*
X146432230Y-123497688D01*
X146476004Y-123514015D01*
X146476007Y-123514016D01*
X146535535Y-123520417D01*
X146535552Y-123520418D01*
X146638180Y-123520418D01*
X146638180Y-123281353D01*
X146645998Y-123238020D01*
X146687070Y-123127901D01*
X146693479Y-123068291D01*
X146693478Y-121423146D01*
X146687482Y-121367364D01*
X146687070Y-121363534D01*
X146645998Y-121253415D01*
X146638180Y-121210082D01*
X146638180Y-121021121D01*
X147082616Y-121021121D01*
X147102811Y-121200367D01*
X147102812Y-121200372D01*
X147110923Y-121223550D01*
X147114484Y-121293329D01*
X147110063Y-121307837D01*
X147089290Y-121363532D01*
X147089289Y-121363534D01*
X147083959Y-121413119D01*
X147082882Y-121423141D01*
X147082881Y-121423153D01*
X147082881Y-123068288D01*
X147082882Y-123068294D01*
X147089289Y-123127901D01*
X147114112Y-123194452D01*
X147130361Y-123238019D01*
X147130362Y-123238020D01*
X147138180Y-123281353D01*
X147138180Y-123520418D01*
X147240808Y-123520418D01*
X147240824Y-123520417D01*
X147300353Y-123514016D01*
X147344129Y-123497688D01*
X147413820Y-123492702D01*
X147430784Y-123497682D01*
X147475898Y-123514509D01*
X147535508Y-123520918D01*
X148240853Y-123520917D01*
X148300464Y-123514509D01*
X148435312Y-123464214D01*
X148550527Y-123377964D01*
X148636777Y-123262749D01*
X148687072Y-123127901D01*
X148693481Y-123068291D01*
X148693480Y-121423146D01*
X148687484Y-121367364D01*
X148687072Y-121363534D01*
X148666298Y-121307837D01*
X148661314Y-121238146D01*
X148665435Y-121223557D01*
X148673549Y-121200373D01*
X148680601Y-121137784D01*
X148693746Y-121021121D01*
X148693746Y-121021114D01*
X148673550Y-120841868D01*
X148673549Y-120841863D01*
X148658553Y-120799008D01*
X148613970Y-120671596D01*
X148517997Y-120518856D01*
X148390443Y-120391302D01*
X148357159Y-120370388D01*
X148237704Y-120295329D01*
X148067435Y-120235749D01*
X148067430Y-120235748D01*
X147888185Y-120215553D01*
X147888177Y-120215553D01*
X147708931Y-120235748D01*
X147708926Y-120235749D01*
X147538657Y-120295329D01*
X147385918Y-120391302D01*
X147258365Y-120518855D01*
X147162392Y-120671594D01*
X147102812Y-120841863D01*
X147102811Y-120841868D01*
X147082616Y-121021114D01*
X147082616Y-121021121D01*
X146638180Y-121021121D01*
X146638180Y-120971018D01*
X146535535Y-120971018D01*
X146476007Y-120977419D01*
X146476001Y-120977421D01*
X146432224Y-120993748D01*
X146362532Y-120998731D01*
X146345560Y-120993747D01*
X146300465Y-120976928D01*
X146300464Y-120976927D01*
X146300462Y-120976927D01*
X146240852Y-120970518D01*
X146240842Y-120970518D01*
X145535508Y-120970518D01*
X145535502Y-120970519D01*
X145475895Y-120976926D01*
X145341050Y-121027220D01*
X145341043Y-121027224D01*
X145225834Y-121113470D01*
X145225831Y-121113473D01*
X145139585Y-121228682D01*
X145139581Y-121228689D01*
X145089287Y-121363535D01*
X145083957Y-121413119D01*
X145082880Y-121423141D01*
X145082879Y-121423153D01*
X145082879Y-122185775D01*
X145063194Y-122252814D01*
X145046560Y-122273456D01*
X144770895Y-122549120D01*
X144709572Y-122582605D01*
X144669331Y-122584659D01*
X144497535Y-122565303D01*
X144497527Y-122565303D01*
X144318281Y-122585498D01*
X144318276Y-122585499D01*
X144148007Y-122645079D01*
X143995268Y-122741052D01*
X143867715Y-122868605D01*
X143771742Y-123021344D01*
X143712162Y-123191613D01*
X143712161Y-123191618D01*
X143691966Y-123370864D01*
X143691966Y-123370871D01*
X140449207Y-123370871D01*
X140480328Y-123329299D01*
X140530623Y-123194451D01*
X140537032Y-123134841D01*
X140537031Y-121489696D01*
X140530623Y-121430085D01*
X140528035Y-121423147D01*
X140480329Y-121295239D01*
X140480325Y-121295232D01*
X140394079Y-121180023D01*
X140394076Y-121180020D01*
X140278867Y-121093774D01*
X140278864Y-121093773D01*
X140278863Y-121093772D01*
X140254067Y-121084523D01*
X140198136Y-121042651D01*
X140194500Y-121037139D01*
X140192250Y-121034207D01*
X140192248Y-121034205D01*
X140192247Y-121034203D01*
X140085097Y-120927053D01*
X140085096Y-120927052D01*
X140080766Y-120922722D01*
X140080755Y-120922712D01*
X139127899Y-119969855D01*
X139127898Y-119969854D01*
X139127897Y-119969853D01*
X139048282Y-119923887D01*
X138996668Y-119894087D01*
X138923482Y-119874477D01*
X138850298Y-119854868D01*
X138850297Y-119854868D01*
X135206512Y-119854868D01*
X135139473Y-119835183D01*
X135093718Y-119782379D01*
X135083292Y-119716984D01*
X135092296Y-119637070D01*
X135092296Y-119637064D01*
X135072100Y-119457818D01*
X135072099Y-119457813D01*
X135048562Y-119390548D01*
X135012520Y-119287546D01*
X134989641Y-119251135D01*
X134942217Y-119175660D01*
X134916547Y-119134806D01*
X134898550Y-119116809D01*
X134865065Y-119055486D01*
X134862231Y-119029128D01*
X134862231Y-118718668D01*
X136816932Y-118718668D01*
X136816932Y-118725250D01*
X136823339Y-118795770D01*
X136823340Y-118795775D01*
X136873912Y-118958064D01*
X136961858Y-119103545D01*
X137082053Y-119223740D01*
X137227535Y-119311687D01*
X137227534Y-119311687D01*
X137389825Y-119362258D01*
X137389823Y-119362258D01*
X137460349Y-119368667D01*
X137541930Y-119368666D01*
X137541931Y-119368666D01*
X137541931Y-118718668D01*
X138041931Y-118718668D01*
X138041931Y-119368667D01*
X138123512Y-119368667D01*
X138194033Y-119362259D01*
X138194038Y-119362258D01*
X138356327Y-119311686D01*
X138501808Y-119223740D01*
X138622003Y-119103545D01*
X138709950Y-118958063D01*
X138745285Y-118844668D01*
X147357932Y-118844668D01*
X147357932Y-118851250D01*
X147364339Y-118921770D01*
X147364340Y-118921775D01*
X147414912Y-119084064D01*
X147502858Y-119229545D01*
X147623053Y-119349740D01*
X147768535Y-119437687D01*
X147768534Y-119437687D01*
X147930825Y-119488258D01*
X147930823Y-119488258D01*
X148001349Y-119494667D01*
X148082930Y-119494666D01*
X148082931Y-119494666D01*
X148082931Y-118844668D01*
X148582931Y-118844668D01*
X148582931Y-119494667D01*
X148664512Y-119494667D01*
X148735033Y-119488259D01*
X148735038Y-119488258D01*
X148897327Y-119437686D01*
X149042808Y-119349740D01*
X149163003Y-119229545D01*
X149250950Y-119084063D01*
X149301521Y-118921774D01*
X149307931Y-118851240D01*
X149307931Y-118844668D01*
X148582931Y-118844668D01*
X148082931Y-118844668D01*
X147357932Y-118844668D01*
X138745285Y-118844668D01*
X138760521Y-118795774D01*
X138766931Y-118725240D01*
X138766931Y-118718668D01*
X138041931Y-118718668D01*
X137541931Y-118718668D01*
X136816932Y-118718668D01*
X134862231Y-118718668D01*
X134862231Y-116949404D01*
X134862231Y-116949402D01*
X134847895Y-116895900D01*
X134823012Y-116803033D01*
X134747246Y-116671803D01*
X133792792Y-115717349D01*
X133759307Y-115656026D01*
X133764291Y-115586334D01*
X133806163Y-115530401D01*
X133871627Y-115505984D01*
X133880473Y-115505668D01*
X134395158Y-115505668D01*
X134462197Y-115525353D01*
X134492105Y-115552355D01*
X134495113Y-115556127D01*
X134495115Y-115556130D01*
X134622669Y-115683684D01*
X134698838Y-115731544D01*
X134775405Y-115779655D01*
X134775409Y-115779657D01*
X134902874Y-115824259D01*
X134945676Y-115839236D01*
X134945681Y-115839237D01*
X135124927Y-115859433D01*
X135124931Y-115859433D01*
X135124935Y-115859433D01*
X135304180Y-115839237D01*
X135304183Y-115839236D01*
X135304186Y-115839236D01*
X135474453Y-115779657D01*
X135627193Y-115683684D01*
X135754747Y-115556130D01*
X135850720Y-115403390D01*
X135910299Y-115233123D01*
X135910983Y-115227055D01*
X135930496Y-115053871D01*
X135930496Y-115053864D01*
X135910300Y-114874618D01*
X135910299Y-114874613D01*
X135884768Y-114801650D01*
X135850720Y-114704346D01*
X135844771Y-114694879D01*
X135809138Y-114638169D01*
X135754747Y-114551606D01*
X135627193Y-114424052D01*
X135584831Y-114397434D01*
X135474454Y-114328079D01*
X135304185Y-114268499D01*
X135304180Y-114268498D01*
X135124935Y-114248303D01*
X135124927Y-114248303D01*
X134945681Y-114268498D01*
X134945676Y-114268499D01*
X134775405Y-114328080D01*
X134763339Y-114335662D01*
X134697368Y-114354668D01*
X133765831Y-114354668D01*
X133698792Y-114334983D01*
X133653037Y-114282179D01*
X133641831Y-114230668D01*
X133641831Y-114080168D01*
X133389900Y-114080168D01*
X133346567Y-114072350D01*
X133249313Y-114036076D01*
X133249314Y-114036076D01*
X133189714Y-114029669D01*
X133189712Y-114029668D01*
X133189704Y-114029668D01*
X133189695Y-114029668D01*
X131493960Y-114029668D01*
X131493954Y-114029669D01*
X131434347Y-114036076D01*
X131337095Y-114072350D01*
X131293762Y-114080168D01*
X131041831Y-114080168D01*
X131041831Y-114251675D01*
X131022146Y-114318714D01*
X130969342Y-114364469D01*
X130903948Y-114374895D01*
X130781535Y-114361103D01*
X130781527Y-114361103D01*
X130702178Y-114370043D01*
X130633356Y-114357988D01*
X130581977Y-114310639D01*
X130564985Y-114245452D01*
X130564431Y-114245452D01*
X130564431Y-114243327D01*
X130564353Y-114243028D01*
X130564431Y-114241825D01*
X130564431Y-114204834D01*
X130565110Y-114191872D01*
X130565132Y-114191659D01*
X130569441Y-114150668D01*
X130565110Y-114109461D01*
X130564431Y-114096500D01*
X130564431Y-114061976D01*
X130559279Y-114036076D01*
X130556395Y-114021578D01*
X130554693Y-114010359D01*
X130554453Y-114008076D01*
X130549653Y-113962402D01*
X130538942Y-113929438D01*
X130535262Y-113915333D01*
X130529826Y-113888002D01*
X130511520Y-113843810D01*
X130508160Y-113834701D01*
X130493749Y-113790347D01*
X130491757Y-113720507D01*
X130527839Y-113660675D01*
X130590541Y-113629849D01*
X130624934Y-113628744D01*
X130643758Y-113630768D01*
X131539503Y-113630767D01*
X131599114Y-113624359D01*
X131696635Y-113587985D01*
X131739968Y-113580168D01*
X132091831Y-113580168D01*
X132091831Y-112930168D01*
X132591831Y-112930168D01*
X132591831Y-113580168D01*
X133641831Y-113580168D01*
X133641831Y-113382340D01*
X133641830Y-113382323D01*
X133635429Y-113322795D01*
X133635427Y-113322788D01*
X133585185Y-113188081D01*
X133585181Y-113188074D01*
X133499021Y-113072980D01*
X133499018Y-113072977D01*
X133383924Y-112986817D01*
X133383917Y-112986813D01*
X133249210Y-112936571D01*
X133249203Y-112936569D01*
X133189675Y-112930168D01*
X132591831Y-112930168D01*
X132091831Y-112930168D01*
X132081729Y-112920066D01*
X132049092Y-112910483D01*
X132003337Y-112857679D01*
X131992131Y-112806168D01*
X131992130Y-111678007D01*
X132011815Y-111610968D01*
X132064618Y-111565213D01*
X132116130Y-111554007D01*
X132190457Y-111554007D01*
X132355626Y-111513297D01*
X132506253Y-111434241D01*
X132560696Y-111388869D01*
X132923606Y-111025959D01*
X132968978Y-110971516D01*
X133048034Y-110820889D01*
X133088744Y-110655720D01*
X133088744Y-110511281D01*
X133108429Y-110444242D01*
X133161233Y-110398487D01*
X133212744Y-110387281D01*
X133357183Y-110387281D01*
X133522352Y-110346571D01*
X133672979Y-110267515D01*
X133727422Y-110222143D01*
X134090332Y-109859233D01*
X134135704Y-109804790D01*
X134214760Y-109654163D01*
X134255470Y-109488994D01*
X134255470Y-109318882D01*
X134214760Y-109153713D01*
X134135704Y-109003086D01*
X134090332Y-108948643D01*
X134090328Y-108948639D01*
X134088533Y-108946485D01*
X134089134Y-108945983D01*
X134059881Y-108886105D01*
X134068021Y-108816711D01*
X134112385Y-108762734D01*
X134178889Y-108741310D01*
X134182118Y-108741268D01*
X135030843Y-108741268D01*
X135097882Y-108760953D01*
X135118524Y-108777587D01*
X136332412Y-109991475D01*
X136365897Y-110052798D01*
X136368731Y-110079156D01*
X136368731Y-113890368D01*
X136393247Y-114013616D01*
X136393249Y-114013624D01*
X136441341Y-114129728D01*
X136441346Y-114129738D01*
X136511163Y-114234226D01*
X136511166Y-114234230D01*
X137417827Y-115140890D01*
X137451312Y-115202213D01*
X137446328Y-115271904D01*
X137404456Y-115327838D01*
X137396119Y-115333564D01*
X137289670Y-115400450D01*
X137162115Y-115528005D01*
X137066142Y-115680744D01*
X137006562Y-115851013D01*
X137006561Y-115851018D01*
X136986366Y-116030264D01*
X136986366Y-116030271D01*
X136992672Y-116086243D01*
X136980617Y-116155065D01*
X136965055Y-116176773D01*
X136966084Y-116177579D01*
X136961458Y-116183482D01*
X136873453Y-116329061D01*
X136822844Y-116491475D01*
X136816431Y-116562054D01*
X136816431Y-117075281D01*
X136822844Y-117145860D01*
X136822844Y-117145862D01*
X136822845Y-117145864D01*
X136873453Y-117308274D01*
X136951528Y-117437426D01*
X136961461Y-117453856D01*
X137063946Y-117556341D01*
X137097431Y-117617664D01*
X137092447Y-117687356D01*
X137063946Y-117731703D01*
X136961859Y-117833789D01*
X136961858Y-117833790D01*
X136873911Y-117979272D01*
X136823340Y-118141561D01*
X136816931Y-118212095D01*
X136816931Y-118218668D01*
X138766930Y-118218668D01*
X138766930Y-118212085D01*
X138760522Y-118141565D01*
X138760521Y-118141560D01*
X138709949Y-117979271D01*
X138622003Y-117833790D01*
X138519915Y-117731702D01*
X138486430Y-117670379D01*
X138491414Y-117600687D01*
X138519914Y-117556341D01*
X138622403Y-117453853D01*
X138710409Y-117308274D01*
X138761017Y-117145864D01*
X138767431Y-117075284D01*
X138767431Y-116692266D01*
X138787116Y-116625227D01*
X138839920Y-116579472D01*
X138909078Y-116569528D01*
X138938881Y-116577704D01*
X138970375Y-116590750D01*
X139093630Y-116615267D01*
X139093633Y-116615268D01*
X139093635Y-116615268D01*
X146497829Y-116615268D01*
X146497830Y-116615267D01*
X146621087Y-116590750D01*
X146737195Y-116542656D01*
X146841690Y-116472835D01*
X147292704Y-116021819D01*
X147354027Y-115988335D01*
X147423718Y-115993319D01*
X147479652Y-116035190D01*
X147503605Y-116095618D01*
X147519011Y-116232360D01*
X147506956Y-116301182D01*
X147501908Y-116310392D01*
X147414454Y-116455059D01*
X147414453Y-116455061D01*
X147414453Y-116455062D01*
X147402700Y-116492781D01*
X147363844Y-116617475D01*
X147358994Y-116670855D01*
X147357431Y-116688052D01*
X147357431Y-117201284D01*
X147358667Y-117214882D01*
X147363844Y-117271860D01*
X147363844Y-117271862D01*
X147363845Y-117271864D01*
X147414453Y-117434274D01*
X147499005Y-117574140D01*
X147502461Y-117579856D01*
X147604946Y-117682341D01*
X147638431Y-117743664D01*
X147633447Y-117813356D01*
X147604946Y-117857703D01*
X147502859Y-117959789D01*
X147502858Y-117959790D01*
X147414911Y-118105272D01*
X147364340Y-118267561D01*
X147357931Y-118338095D01*
X147357931Y-118344668D01*
X149307930Y-118344668D01*
X149307930Y-118338085D01*
X149301522Y-118267565D01*
X149301521Y-118267560D01*
X149250949Y-118105271D01*
X149163003Y-117959790D01*
X149060915Y-117857702D01*
X149027430Y-117796379D01*
X149032414Y-117726687D01*
X149060914Y-117682341D01*
X149163403Y-117579853D01*
X149251409Y-117434274D01*
X149302017Y-117271864D01*
X149308431Y-117201284D01*
X149308431Y-116688052D01*
X149302017Y-116617472D01*
X149251409Y-116455062D01*
X149163403Y-116309483D01*
X149163401Y-116309481D01*
X149163400Y-116309479D01*
X149137285Y-116283364D01*
X149103800Y-116222041D01*
X149101746Y-116181799D01*
X149102313Y-116176773D01*
X149108772Y-116119447D01*
X149113096Y-116081070D01*
X149113096Y-116081064D01*
X149092900Y-115901818D01*
X149092899Y-115901813D01*
X149091096Y-115896661D01*
X149033320Y-115731546D01*
X149024399Y-115717349D01*
X148989332Y-115661540D01*
X148937347Y-115578806D01*
X148809793Y-115451252D01*
X148788602Y-115437937D01*
X148657054Y-115355279D01*
X148486785Y-115295699D01*
X148486780Y-115295698D01*
X148322082Y-115277142D01*
X148257668Y-115250076D01*
X148218112Y-115192481D01*
X148215975Y-115122644D01*
X148248282Y-115066241D01*
X148318297Y-114996228D01*
X148388118Y-114891733D01*
X148400374Y-114862145D01*
X148436212Y-114775625D01*
X148460730Y-114652365D01*
X148460730Y-113630398D01*
X148480415Y-113563359D01*
X148497049Y-113542717D01*
X148717295Y-113322471D01*
X148717297Y-113322469D01*
X148787118Y-113217974D01*
X148787120Y-113217968D01*
X148789232Y-113214808D01*
X148842844Y-113170003D01*
X148912169Y-113161294D01*
X148935670Y-113167517D01*
X149014349Y-113196863D01*
X149014357Y-113196865D01*
X149073885Y-113203266D01*
X149073902Y-113203267D01*
X149171730Y-113203267D01*
X149171730Y-112528267D01*
X149671730Y-112528267D01*
X149671730Y-113203267D01*
X149769558Y-113203267D01*
X149769574Y-113203266D01*
X149829102Y-113196865D01*
X149829109Y-113196863D01*
X149963816Y-113146621D01*
X149963823Y-113146617D01*
X150078917Y-113060457D01*
X150078920Y-113060454D01*
X150165080Y-112945360D01*
X150165084Y-112945353D01*
X150215326Y-112810646D01*
X150215328Y-112810639D01*
X150221729Y-112751111D01*
X150221730Y-112751094D01*
X150221730Y-112528267D01*
X149671730Y-112528267D01*
X149171730Y-112528267D01*
X149171730Y-111353267D01*
X149671730Y-111353267D01*
X149671730Y-112028267D01*
X150221730Y-112028267D01*
X150221730Y-111805439D01*
X150221729Y-111805422D01*
X150215328Y-111745894D01*
X150215326Y-111745887D01*
X150165084Y-111611180D01*
X150165080Y-111611173D01*
X150078920Y-111496079D01*
X150078917Y-111496076D01*
X149963823Y-111409916D01*
X149963816Y-111409912D01*
X149829109Y-111359670D01*
X149829102Y-111359668D01*
X149769574Y-111353267D01*
X149671730Y-111353267D01*
X149171730Y-111353267D01*
X149073885Y-111353267D01*
X149014357Y-111359668D01*
X149014350Y-111359670D01*
X148871331Y-111413013D01*
X148870654Y-111411198D01*
X148813404Y-111423650D01*
X148772697Y-111411695D01*
X148772371Y-111412570D01*
X148629216Y-111359177D01*
X148629215Y-111359176D01*
X148629213Y-111359176D01*
X148569603Y-111352767D01*
X148569593Y-111352767D01*
X147873859Y-111352767D01*
X147873853Y-111352768D01*
X147814246Y-111359175D01*
X147671089Y-111412570D01*
X147670444Y-111410842D01*
X147612877Y-111423362D01*
X147572741Y-111411577D01*
X147572371Y-111412570D01*
X147429216Y-111359177D01*
X147429215Y-111359176D01*
X147429213Y-111359176D01*
X147369603Y-111352767D01*
X147369593Y-111352767D01*
X146673859Y-111352767D01*
X146673853Y-111352768D01*
X146614246Y-111359175D01*
X146471089Y-111412570D01*
X146470444Y-111410842D01*
X146412877Y-111423362D01*
X146372741Y-111411577D01*
X146372371Y-111412570D01*
X146229216Y-111359177D01*
X146229215Y-111359176D01*
X146229213Y-111359176D01*
X146169603Y-111352767D01*
X146169593Y-111352767D01*
X145473859Y-111352767D01*
X145473853Y-111352768D01*
X145414246Y-111359175D01*
X145279401Y-111409469D01*
X145279394Y-111409473D01*
X145164185Y-111495719D01*
X145164182Y-111495722D01*
X145077936Y-111610931D01*
X145077932Y-111610938D01*
X145027638Y-111745784D01*
X145021231Y-111805383D01*
X145021230Y-111805402D01*
X145021230Y-111833060D01*
X145011791Y-111880513D01*
X144955835Y-112015600D01*
X144955833Y-112015608D01*
X144921231Y-112189567D01*
X144921230Y-112189574D01*
X144921230Y-112366963D01*
X144955833Y-112540926D01*
X144955834Y-112540929D01*
X144955835Y-112540933D01*
X144959190Y-112549034D01*
X144968631Y-112596489D01*
X144968631Y-113334500D01*
X144967952Y-113347461D01*
X144963621Y-113388667D01*
X144967952Y-113429872D01*
X144968631Y-113442834D01*
X144968631Y-113477362D01*
X144976663Y-113517741D01*
X144978366Y-113528967D01*
X144983408Y-113576932D01*
X144994116Y-113609889D01*
X144997801Y-113624010D01*
X145003236Y-113651331D01*
X145003237Y-113651336D01*
X145021532Y-113695503D01*
X145024901Y-113704636D01*
X145041906Y-113756972D01*
X145053913Y-113777768D01*
X145055844Y-113781113D01*
X145063018Y-113795661D01*
X145071114Y-113815208D01*
X145071121Y-113815221D01*
X145101340Y-113860446D01*
X145105625Y-113867336D01*
X145136558Y-113920913D01*
X145150679Y-113936596D01*
X145161627Y-113950671D01*
X145169667Y-113962703D01*
X145169669Y-113962705D01*
X145169672Y-113962709D01*
X145212740Y-114005776D01*
X145217210Y-114010486D01*
X145260617Y-114058695D01*
X145263227Y-114061593D01*
X145274827Y-114070021D01*
X145289615Y-114082651D01*
X145295096Y-114088132D01*
X145351075Y-114125536D01*
X145355043Y-114128301D01*
X145416376Y-114172863D01*
X145416377Y-114172863D01*
X145416378Y-114172864D01*
X145423280Y-114175937D01*
X145441735Y-114186114D01*
X145442584Y-114186681D01*
X145486126Y-114204716D01*
X145510417Y-114214778D01*
X145513386Y-114216054D01*
X145589313Y-114249859D01*
X145590066Y-114250019D01*
X145600493Y-114253260D01*
X145600635Y-114252793D01*
X145606462Y-114254560D01*
X145606465Y-114254562D01*
X145683229Y-114269830D01*
X145684663Y-114270126D01*
X145774479Y-114289218D01*
X145774481Y-114289218D01*
X145963782Y-114289218D01*
X145963783Y-114289218D01*
X146053579Y-114270129D01*
X146055108Y-114269816D01*
X146090919Y-114262692D01*
X146131797Y-114254562D01*
X146131802Y-114254559D01*
X146137634Y-114252791D01*
X146137776Y-114253262D01*
X146148200Y-114250018D01*
X146148949Y-114249859D01*
X146224947Y-114216021D01*
X146227843Y-114214778D01*
X146295678Y-114186681D01*
X146296519Y-114186118D01*
X146314981Y-114175937D01*
X146321886Y-114172863D01*
X146383243Y-114128282D01*
X146387150Y-114125559D01*
X146443166Y-114088132D01*
X146448647Y-114082649D01*
X146463438Y-114070018D01*
X146475035Y-114061593D01*
X146476821Y-114059610D01*
X146487337Y-114047930D01*
X146521070Y-114010464D01*
X146525503Y-114005793D01*
X146568595Y-113962703D01*
X146568595Y-113962702D01*
X146571051Y-113960247D01*
X146632375Y-113926763D01*
X146702066Y-113931749D01*
X146757999Y-113973622D01*
X146782414Y-114039087D01*
X146782730Y-114047930D01*
X146782730Y-114107381D01*
X146763045Y-114174420D01*
X146746411Y-114195062D01*
X146040524Y-114900949D01*
X145979201Y-114934434D01*
X145952843Y-114937268D01*
X139638620Y-114937268D01*
X139571581Y-114917583D01*
X139550939Y-114900949D01*
X138083050Y-113433060D01*
X138049565Y-113371737D01*
X138046731Y-113345379D01*
X138046731Y-109534169D01*
X138046730Y-109534167D01*
X138043411Y-109517482D01*
X138022213Y-109410912D01*
X137974119Y-109294804D01*
X137974117Y-109294801D01*
X137974115Y-109294797D01*
X137904299Y-109190310D01*
X137861342Y-109147353D01*
X137815432Y-109101443D01*
X137467255Y-108753266D01*
X143821730Y-108753266D01*
X143821730Y-108951110D01*
X143828131Y-109010638D01*
X143828133Y-109010645D01*
X143878375Y-109145352D01*
X143878379Y-109145359D01*
X143964539Y-109260453D01*
X143964542Y-109260456D01*
X144079636Y-109346616D01*
X144079643Y-109346620D01*
X144214350Y-109396862D01*
X144214357Y-109396864D01*
X144273885Y-109403265D01*
X144273902Y-109403266D01*
X144421730Y-109403266D01*
X144421730Y-108753266D01*
X144921730Y-108753266D01*
X144921730Y-109403266D01*
X145069558Y-109403266D01*
X145069574Y-109403265D01*
X145129102Y-109396864D01*
X145129109Y-109396862D01*
X145263816Y-109346620D01*
X145263823Y-109346616D01*
X145378917Y-109260456D01*
X145378920Y-109260453D01*
X145465080Y-109145359D01*
X145465084Y-109145352D01*
X145515326Y-109010645D01*
X145515328Y-109010638D01*
X145521729Y-108951110D01*
X145521730Y-108951093D01*
X145521730Y-108753266D01*
X149721731Y-108753266D01*
X149721731Y-108951110D01*
X149728132Y-109010638D01*
X149728134Y-109010645D01*
X149778376Y-109145352D01*
X149778380Y-109145359D01*
X149864540Y-109260453D01*
X149864543Y-109260456D01*
X149979637Y-109346616D01*
X149979644Y-109346620D01*
X150114351Y-109396862D01*
X150114358Y-109396864D01*
X150173886Y-109403265D01*
X150173903Y-109403266D01*
X150321731Y-109403266D01*
X150321731Y-108753266D01*
X150821731Y-108753266D01*
X150821731Y-109403266D01*
X150969559Y-109403266D01*
X150969575Y-109403265D01*
X151029103Y-109396864D01*
X151029110Y-109396862D01*
X151163817Y-109346620D01*
X151163824Y-109346616D01*
X151278918Y-109260456D01*
X151278921Y-109260453D01*
X151365081Y-109145359D01*
X151365085Y-109145352D01*
X151415327Y-109010645D01*
X151415329Y-109010638D01*
X151421730Y-108951110D01*
X151421731Y-108951093D01*
X151421731Y-108753266D01*
X150821731Y-108753266D01*
X150321731Y-108753266D01*
X149721731Y-108753266D01*
X145521730Y-108753266D01*
X144921730Y-108753266D01*
X144421730Y-108753266D01*
X143821730Y-108753266D01*
X137467255Y-108753266D01*
X136460170Y-107746181D01*
X136426685Y-107684858D01*
X136431669Y-107615166D01*
X136473541Y-107559233D01*
X136539005Y-107534816D01*
X136547851Y-107534500D01*
X143876756Y-107534500D01*
X143943795Y-107554185D01*
X143989550Y-107606989D01*
X143999494Y-107676147D01*
X143970469Y-107739703D01*
X143964568Y-107746039D01*
X143878379Y-107861172D01*
X143878375Y-107861179D01*
X143828133Y-107995886D01*
X143828131Y-107995893D01*
X143821730Y-108055421D01*
X143821730Y-108253266D01*
X145521730Y-108253266D01*
X145521730Y-108055438D01*
X145521729Y-108055421D01*
X145515328Y-107995893D01*
X145515326Y-107995886D01*
X145465084Y-107861179D01*
X145465080Y-107861172D01*
X145373605Y-107738978D01*
X145374659Y-107738188D01*
X145345538Y-107684858D01*
X145350522Y-107615166D01*
X145392394Y-107559233D01*
X145457858Y-107534816D01*
X145466704Y-107534500D01*
X149776757Y-107534500D01*
X149843796Y-107554185D01*
X149889551Y-107606989D01*
X149899495Y-107676147D01*
X149870470Y-107739703D01*
X149864569Y-107746039D01*
X149778380Y-107861172D01*
X149778376Y-107861179D01*
X149728134Y-107995886D01*
X149728132Y-107995893D01*
X149721731Y-108055421D01*
X149721731Y-108253266D01*
X151421731Y-108253266D01*
X151421731Y-108055438D01*
X151421730Y-108055421D01*
X151415329Y-107995893D01*
X151415327Y-107995886D01*
X151365085Y-107861179D01*
X151365081Y-107861172D01*
X151273606Y-107738978D01*
X151274660Y-107738188D01*
X151245539Y-107684858D01*
X151250523Y-107615166D01*
X151292395Y-107559233D01*
X151357859Y-107534816D01*
X151366705Y-107534500D01*
X151433366Y-107534500D01*
X151500405Y-107554185D01*
X151521047Y-107570819D01*
X151810912Y-107860684D01*
X151844397Y-107922007D01*
X151847231Y-107948365D01*
X151847231Y-112563520D01*
X151827546Y-112630559D01*
X151810912Y-112651201D01*
X150607762Y-113854350D01*
X150607756Y-113854358D01*
X150563345Y-113931282D01*
X150563345Y-113931284D01*
X150528704Y-113991282D01*
X150523558Y-114010486D01*
X150487780Y-114144011D01*
X150487780Y-114144013D01*
X150487780Y-114312114D01*
X150487781Y-114312127D01*
X150487781Y-117242798D01*
X150487780Y-117242816D01*
X150487780Y-117408522D01*
X150487779Y-117408522D01*
X150519188Y-117525740D01*
X150528704Y-117561253D01*
X150539445Y-117579857D01*
X150551459Y-117600664D01*
X150551460Y-117600668D01*
X150551461Y-117600668D01*
X150602214Y-117688577D01*
X150607760Y-117698182D01*
X150607762Y-117698185D01*
X150726630Y-117817053D01*
X150726636Y-117817058D01*
X154613339Y-121703761D01*
X154646824Y-121765084D01*
X154641840Y-121834776D01*
X154599968Y-121890709D01*
X154594550Y-121894543D01*
X154531063Y-121936964D01*
X154531057Y-121936969D01*
X154427182Y-122040844D01*
X154427179Y-122040848D01*
X154345564Y-122162992D01*
X154345559Y-122163001D01*
X154289342Y-122298723D01*
X154289339Y-122298733D01*
X154260681Y-122442808D01*
X154260681Y-122589727D01*
X154289339Y-122733802D01*
X154289342Y-122733812D01*
X154345559Y-122869534D01*
X154345564Y-122869543D01*
X154427179Y-122991687D01*
X154427182Y-122991691D01*
X154531057Y-123095566D01*
X154531061Y-123095569D01*
X154653205Y-123177184D01*
X154653214Y-123177189D01*
X154678281Y-123187572D01*
X154788939Y-123233408D01*
X154846099Y-123244777D01*
X154933023Y-123262068D01*
X154938742Y-123262631D01*
X155003530Y-123288788D01*
X155043891Y-123345821D01*
X155047011Y-123415621D01*
X155011899Y-123476027D01*
X154979003Y-123498414D01*
X154975031Y-123500266D01*
X154830690Y-123589297D01*
X154830684Y-123589301D01*
X154821055Y-123598931D01*
X154759731Y-123632414D01*
X154690039Y-123627427D01*
X154645696Y-123598928D01*
X154636463Y-123589695D01*
X154636459Y-123589692D01*
X154492223Y-123500725D01*
X154492212Y-123500720D01*
X154331337Y-123447412D01*
X154232053Y-123437268D01*
X154208731Y-123437268D01*
X154208731Y-125387267D01*
X154232039Y-125387267D01*
X154232053Y-125387266D01*
X154331338Y-125377123D01*
X154492212Y-125323815D01*
X154492223Y-125323810D01*
X154636462Y-125234841D01*
X154645690Y-125225613D01*
X154707010Y-125192124D01*
X154776702Y-125197103D01*
X154821058Y-125225607D01*
X154830686Y-125235235D01*
X154830690Y-125235238D01*
X154975025Y-125324266D01*
X154975028Y-125324267D01*
X154975034Y-125324271D01*
X155136023Y-125377617D01*
X155235386Y-125387768D01*
X155782075Y-125387767D01*
X155782083Y-125387766D01*
X155782086Y-125387766D01*
X155836491Y-125382208D01*
X155881439Y-125377617D01*
X156042428Y-125324271D01*
X156060684Y-125313010D01*
X156171536Y-125244636D01*
X156238928Y-125226195D01*
X156277587Y-125233132D01*
X156370476Y-125265636D01*
X156370482Y-125265636D01*
X156370484Y-125265637D01*
X156549727Y-125285833D01*
X156549731Y-125285833D01*
X156549735Y-125285833D01*
X156728980Y-125265637D01*
X156728983Y-125265636D01*
X156728986Y-125265636D01*
X156899253Y-125206057D01*
X157051993Y-125110084D01*
X157179547Y-124982530D01*
X157182863Y-124977251D01*
X157218968Y-124940116D01*
X157279488Y-124899679D01*
X157366891Y-124812276D01*
X157467082Y-124712085D01*
X157528405Y-124678600D01*
X157554763Y-124675766D01*
X158007953Y-124675766D01*
X158074992Y-124695451D01*
X158107156Y-124725371D01*
X158130708Y-124756777D01*
X158170526Y-124809875D01*
X158181953Y-124825112D01*
X158316140Y-124948953D01*
X158316142Y-124948954D01*
X158316143Y-124948955D01*
X158416503Y-125012337D01*
X158470527Y-125046456D01*
X158640014Y-125114400D01*
X158795562Y-125145807D01*
X158818995Y-125150539D01*
X158818996Y-125150539D01*
X158819001Y-125150540D01*
X159001573Y-125153682D01*
X159181697Y-125123722D01*
X159353422Y-125061650D01*
X159367768Y-125053289D01*
X159369159Y-125052596D01*
X159375456Y-125048914D01*
X159375459Y-125048914D01*
X159403157Y-125032723D01*
X159465764Y-125015775D01*
X159497792Y-125015784D01*
X159497795Y-125015783D01*
X159505681Y-125015785D01*
X159505974Y-125015767D01*
X160947011Y-125015767D01*
X160947165Y-125015776D01*
X160955104Y-125015775D01*
X160955108Y-125015776D01*
X160987071Y-125015771D01*
X161049507Y-125032627D01*
X161099535Y-125061773D01*
X161271270Y-125123830D01*
X161451401Y-125153775D01*
X161451405Y-125153774D01*
X161451406Y-125153775D01*
X161516606Y-125152647D01*
X161633977Y-125150619D01*
X161812966Y-125114467D01*
X161982454Y-125046512D01*
X162136841Y-124949001D01*
X162271027Y-124825154D01*
X162345850Y-124725373D01*
X162401818Y-124683548D01*
X162445056Y-124675766D01*
X162936383Y-124675766D01*
X163003422Y-124695451D01*
X163024063Y-124712084D01*
X164014498Y-125702520D01*
X164014500Y-125702521D01*
X164014504Y-125702524D01*
X164151423Y-125781573D01*
X164151430Y-125781577D01*
X164304157Y-125822501D01*
X164304159Y-125822501D01*
X164469868Y-125822501D01*
X164469884Y-125822500D01*
X168705501Y-125822500D01*
X168772540Y-125842185D01*
X168818295Y-125894989D01*
X168829501Y-125946500D01*
X168829501Y-126119876D01*
X168835908Y-126179483D01*
X168886202Y-126314328D01*
X168886206Y-126314335D01*
X168972452Y-126429544D01*
X168972455Y-126429547D01*
X169087664Y-126515793D01*
X169087671Y-126515797D01*
X169222517Y-126566091D01*
X169222516Y-126566091D01*
X169229444Y-126566835D01*
X169282127Y-126572500D01*
X171077872Y-126572499D01*
X171137483Y-126566091D01*
X171272331Y-126515796D01*
X171387546Y-126429546D01*
X171473796Y-126314331D01*
X171524091Y-126179483D01*
X171530500Y-126119873D01*
X171530499Y-124324128D01*
X171524091Y-124264517D01*
X171520153Y-124253960D01*
X171473797Y-124129671D01*
X171473793Y-124129664D01*
X171387547Y-124014455D01*
X171387544Y-124014452D01*
X171272335Y-123928206D01*
X171272328Y-123928202D01*
X171137482Y-123877908D01*
X171137483Y-123877908D01*
X171077883Y-123871501D01*
X171077881Y-123871500D01*
X171077873Y-123871500D01*
X171077864Y-123871500D01*
X169282129Y-123871500D01*
X169282123Y-123871501D01*
X169222516Y-123877908D01*
X169087671Y-123928202D01*
X169087664Y-123928206D01*
X168972455Y-124014452D01*
X168972452Y-124014455D01*
X168886206Y-124129664D01*
X168886202Y-124129671D01*
X168835908Y-124264517D01*
X168829623Y-124322980D01*
X168829501Y-124324123D01*
X168829500Y-124324135D01*
X168829500Y-124497500D01*
X168809815Y-124564539D01*
X168757011Y-124610294D01*
X168705500Y-124621500D01*
X166609147Y-124621500D01*
X166542108Y-124601815D01*
X166496353Y-124549011D01*
X166486409Y-124479853D01*
X166515434Y-124416297D01*
X166544050Y-124391961D01*
X166544245Y-124391841D01*
X166655887Y-124322980D01*
X166779943Y-124198924D01*
X166872045Y-124049602D01*
X166927230Y-123883065D01*
X166937731Y-123780277D01*
X166937730Y-123180260D01*
X166937416Y-123177189D01*
X166927230Y-123077471D01*
X166927229Y-123077468D01*
X166924185Y-123068282D01*
X166872045Y-122910934D01*
X166779943Y-122761612D01*
X166707253Y-122688922D01*
X166673768Y-122627599D01*
X166677893Y-122560286D01*
X166722597Y-122432530D01*
X166722600Y-122432517D01*
X166742796Y-122253271D01*
X166742796Y-122253264D01*
X166722600Y-122074018D01*
X166722597Y-122074005D01*
X166665969Y-121912173D01*
X166662407Y-121842394D01*
X166695326Y-121783540D01*
X166779943Y-121698924D01*
X166872045Y-121549602D01*
X166927230Y-121383065D01*
X166937731Y-121280277D01*
X166937730Y-120680260D01*
X166927230Y-120577471D01*
X166872045Y-120410934D01*
X166779943Y-120261612D01*
X166655887Y-120137556D01*
X166506565Y-120045454D01*
X166340028Y-119990269D01*
X166340026Y-119990268D01*
X166237241Y-119979768D01*
X165637229Y-119979768D01*
X165637211Y-119979769D01*
X165534434Y-119990268D01*
X165534431Y-119990269D01*
X165367899Y-120045453D01*
X165367894Y-120045455D01*
X165218573Y-120137557D01*
X165094520Y-120261610D01*
X165094519Y-120261612D01*
X165044764Y-120342279D01*
X165036384Y-120355865D01*
X164984436Y-120402589D01*
X164930845Y-120414768D01*
X162317137Y-120414768D01*
X162250098Y-120395083D01*
X162204343Y-120342279D01*
X162194399Y-120273121D01*
X162223424Y-120209565D01*
X162229456Y-120203087D01*
X162253675Y-120178868D01*
X162280601Y-120151942D01*
X162473216Y-119910411D01*
X162618704Y-119678868D01*
X176161531Y-119678868D01*
X176886531Y-119678868D01*
X176886531Y-118978868D01*
X176886530Y-118978867D01*
X176838224Y-118978868D01*
X176838206Y-118978869D01*
X176738923Y-118989012D01*
X176578049Y-119042320D01*
X176578038Y-119042325D01*
X176433802Y-119131292D01*
X176433798Y-119131295D01*
X176313958Y-119251135D01*
X176313955Y-119251139D01*
X176224988Y-119395375D01*
X176224983Y-119395386D01*
X176171675Y-119556261D01*
X176161531Y-119655545D01*
X176161531Y-119678868D01*
X162618704Y-119678868D01*
X162637576Y-119648833D01*
X162771616Y-119370497D01*
X162873649Y-119078904D01*
X162942392Y-118777720D01*
X162945734Y-118748064D01*
X162965325Y-118574180D01*
X162976981Y-118470733D01*
X162976981Y-118402955D01*
X164205081Y-118402955D01*
X164232201Y-118574181D01*
X164285771Y-118739056D01*
X164285772Y-118739059D01*
X164340489Y-118846445D01*
X164364479Y-118893528D01*
X164466380Y-119033782D01*
X164588967Y-119156369D01*
X164729221Y-119258270D01*
X164804983Y-119296872D01*
X164883689Y-119336976D01*
X164883692Y-119336977D01*
X164946860Y-119357501D01*
X165048569Y-119390548D01*
X165116815Y-119401357D01*
X165219794Y-119417668D01*
X165219799Y-119417668D01*
X165393162Y-119417668D01*
X165393163Y-119417668D01*
X165497086Y-119401208D01*
X165535876Y-119401208D01*
X165639799Y-119417668D01*
X165639800Y-119417668D01*
X165813168Y-119417668D01*
X165896176Y-119404520D01*
X165984393Y-119390548D01*
X166149272Y-119336976D01*
X166303741Y-119258270D01*
X166443995Y-119156369D01*
X166566582Y-119033782D01*
X166668483Y-118893528D01*
X166747189Y-118739059D01*
X166747647Y-118737651D01*
X166754379Y-118716930D01*
X166800761Y-118574180D01*
X166817794Y-118466636D01*
X166827881Y-118402955D01*
X166827881Y-118229580D01*
X166810654Y-118120818D01*
X166800761Y-118058356D01*
X166764963Y-117948180D01*
X166747190Y-117893479D01*
X166747189Y-117893476D01*
X166690539Y-117782295D01*
X166668483Y-117739008D01*
X166626534Y-117681271D01*
X171416166Y-117681271D01*
X171436361Y-117860517D01*
X171436362Y-117860522D01*
X171495942Y-118030791D01*
X171572669Y-118152900D01*
X171591915Y-118183530D01*
X171719469Y-118311084D01*
X171733124Y-118319664D01*
X171865680Y-118402955D01*
X171872209Y-118407057D01*
X171971653Y-118441854D01*
X172042476Y-118466636D01*
X172042481Y-118466637D01*
X172221727Y-118486833D01*
X172221731Y-118486833D01*
X172221735Y-118486833D01*
X172400980Y-118466637D01*
X172400983Y-118466636D01*
X172400986Y-118466636D01*
X172571253Y-118407057D01*
X172723993Y-118311084D01*
X172851547Y-118183530D01*
X172947520Y-118030790D01*
X173007099Y-117860523D01*
X173007100Y-117860517D01*
X173027296Y-117681271D01*
X173027296Y-117681264D01*
X173007100Y-117502018D01*
X173007099Y-117502013D01*
X172974385Y-117408522D01*
X172947520Y-117331746D01*
X172942618Y-117323945D01*
X172896411Y-117250407D01*
X172858938Y-117190768D01*
X174971732Y-117190768D01*
X174971732Y-117328254D01*
X174982225Y-117430965D01*
X175037372Y-117597387D01*
X175037374Y-117597392D01*
X175129415Y-117746613D01*
X175253385Y-117870583D01*
X175402606Y-117962624D01*
X175402611Y-117962626D01*
X175569033Y-118017773D01*
X175569040Y-118017774D01*
X175671750Y-118028267D01*
X175946730Y-118028267D01*
X175946731Y-118028266D01*
X175946731Y-117190768D01*
X176446731Y-117190768D01*
X176446731Y-118028267D01*
X176721703Y-118028267D01*
X176721717Y-118028266D01*
X176824428Y-118017773D01*
X176990850Y-117962626D01*
X176990855Y-117962624D01*
X177140076Y-117870583D01*
X177264046Y-117746613D01*
X177356087Y-117597392D01*
X177356089Y-117597387D01*
X177411236Y-117430965D01*
X177411237Y-117430958D01*
X177421730Y-117328254D01*
X177421731Y-117328241D01*
X177421731Y-117190768D01*
X176446731Y-117190768D01*
X175946731Y-117190768D01*
X174971732Y-117190768D01*
X172858938Y-117190768D01*
X172851547Y-117179006D01*
X172723993Y-117051452D01*
X172647180Y-117003187D01*
X172571254Y-116955479D01*
X172400985Y-116895899D01*
X172400980Y-116895898D01*
X172293761Y-116883818D01*
X178403731Y-116883818D01*
X179378731Y-116883818D01*
X179378731Y-116046318D01*
X179878731Y-116046318D01*
X179878731Y-116883818D01*
X180853730Y-116883818D01*
X180853730Y-116746346D01*
X180853729Y-116746331D01*
X180843236Y-116643620D01*
X180788089Y-116477198D01*
X180788087Y-116477193D01*
X180696046Y-116327972D01*
X180572076Y-116204002D01*
X180422855Y-116111961D01*
X180422850Y-116111959D01*
X180256428Y-116056812D01*
X180256421Y-116056811D01*
X180153717Y-116046318D01*
X179878731Y-116046318D01*
X179378731Y-116046318D01*
X179103760Y-116046318D01*
X179103743Y-116046319D01*
X179001033Y-116056812D01*
X178834611Y-116111959D01*
X178834606Y-116111961D01*
X178685385Y-116204002D01*
X178561415Y-116327972D01*
X178469374Y-116477193D01*
X178469372Y-116477198D01*
X178414225Y-116643620D01*
X178414224Y-116643627D01*
X178403731Y-116746331D01*
X178403731Y-116883818D01*
X172293761Y-116883818D01*
X172221735Y-116875703D01*
X172221727Y-116875703D01*
X172042481Y-116895898D01*
X172042476Y-116895899D01*
X171872207Y-116955479D01*
X171719468Y-117051452D01*
X171591915Y-117179005D01*
X171495942Y-117331744D01*
X171436362Y-117502013D01*
X171436361Y-117502018D01*
X171416166Y-117681264D01*
X171416166Y-117681271D01*
X166626534Y-117681271D01*
X166566582Y-117598754D01*
X166443995Y-117476167D01*
X166303741Y-117374266D01*
X166149272Y-117295559D01*
X166149269Y-117295558D01*
X165984394Y-117241988D01*
X165813168Y-117214868D01*
X165813163Y-117214868D01*
X165639799Y-117214868D01*
X165639793Y-117214868D01*
X165535878Y-117231326D01*
X165497084Y-117231326D01*
X165393169Y-117214868D01*
X165393163Y-117214868D01*
X165219799Y-117214868D01*
X165219794Y-117214868D01*
X165048567Y-117241988D01*
X164883692Y-117295558D01*
X164883689Y-117295559D01*
X164729220Y-117374266D01*
X164658364Y-117425747D01*
X164588967Y-117476167D01*
X164588965Y-117476169D01*
X164588964Y-117476169D01*
X164466382Y-117598751D01*
X164466382Y-117598752D01*
X164466380Y-117598754D01*
X164441972Y-117632349D01*
X164364479Y-117739007D01*
X164285772Y-117893476D01*
X164285771Y-117893479D01*
X164232201Y-118058354D01*
X164205081Y-118229580D01*
X164205081Y-118402955D01*
X162976981Y-118402955D01*
X162976981Y-118161803D01*
X162961935Y-118028266D01*
X162942394Y-117854830D01*
X162942391Y-117854812D01*
X162932160Y-117809989D01*
X162873649Y-117553632D01*
X162865105Y-117529216D01*
X162785500Y-117301717D01*
X162771616Y-117262039D01*
X162646959Y-117003187D01*
X162637577Y-116983705D01*
X162637576Y-116983703D01*
X162473216Y-116722125D01*
X162280601Y-116480594D01*
X162062155Y-116262148D01*
X162060616Y-116260921D01*
X161908500Y-116139612D01*
X161820624Y-116069533D01*
X161619672Y-115943267D01*
X161559043Y-115905171D01*
X161280717Y-115771136D01*
X161280703Y-115771130D01*
X160989128Y-115669103D01*
X160989116Y-115669099D01*
X160687936Y-115600357D01*
X160687918Y-115600354D01*
X160380952Y-115565768D01*
X160380946Y-115565768D01*
X160072016Y-115565768D01*
X160072009Y-115565768D01*
X159765043Y-115600354D01*
X159765025Y-115600357D01*
X159463845Y-115669099D01*
X159463833Y-115669103D01*
X159172258Y-115771130D01*
X159172244Y-115771136D01*
X158893918Y-115905171D01*
X158632339Y-116069532D01*
X158390812Y-116262143D01*
X158318793Y-116334162D01*
X158257469Y-116367646D01*
X158187778Y-116362661D01*
X158131844Y-116320790D01*
X158107428Y-116255325D01*
X158111336Y-116214393D01*
X158137029Y-116118506D01*
X158166981Y-115891002D01*
X158166981Y-115661534D01*
X158137029Y-115434030D01*
X158077639Y-115212381D01*
X158021553Y-115076978D01*
X157989830Y-115000391D01*
X157989827Y-115000385D01*
X157989825Y-115000380D01*
X157875092Y-114801656D01*
X157875089Y-114801653D01*
X157875088Y-114801650D01*
X157760536Y-114652365D01*
X157735400Y-114619607D01*
X157735399Y-114619606D01*
X157735392Y-114619598D01*
X157644243Y-114528449D01*
X157610758Y-114467126D01*
X157615742Y-114397434D01*
X157657614Y-114341501D01*
X157723078Y-114317084D01*
X157731924Y-114316768D01*
X157741208Y-114316768D01*
X157741215Y-114316768D01*
X157968719Y-114286816D01*
X158190368Y-114227426D01*
X158193311Y-114226206D01*
X158240766Y-114216767D01*
X158299352Y-114216767D01*
X158299353Y-114216767D01*
X158358964Y-114210359D01*
X158493812Y-114160064D01*
X158609027Y-114073814D01*
X158695277Y-113958599D01*
X158695278Y-113958594D01*
X158695580Y-113958192D01*
X158719354Y-113934132D01*
X158783142Y-113885187D01*
X158915591Y-113752737D01*
X158976912Y-113719254D01*
X159046604Y-113724238D01*
X159078756Y-113742043D01*
X159141936Y-113790524D01*
X159251863Y-113874875D01*
X159251866Y-113874876D01*
X159251869Y-113874879D01*
X159450593Y-113989612D01*
X159450598Y-113989614D01*
X159450604Y-113989617D01*
X159513413Y-114015633D01*
X159662594Y-114077426D01*
X159884243Y-114136816D01*
X160111747Y-114166768D01*
X160111754Y-114166768D01*
X160341208Y-114166768D01*
X160341215Y-114166768D01*
X160568719Y-114136816D01*
X160790368Y-114077426D01*
X160998335Y-113991283D01*
X161002360Y-113989616D01*
X161002362Y-113989614D01*
X161002369Y-113989612D01*
X161028294Y-113974643D01*
X161096194Y-113958170D01*
X161162221Y-113981021D01*
X161197683Y-114020030D01*
X161221901Y-114061977D01*
X161306746Y-114208934D01*
X161307873Y-114210885D01*
X161447562Y-114392929D01*
X161447570Y-114392938D01*
X161609811Y-114555179D01*
X161609819Y-114555186D01*
X161609820Y-114555187D01*
X161631536Y-114571850D01*
X161791863Y-114694875D01*
X161791866Y-114694876D01*
X161791869Y-114694879D01*
X161990593Y-114809612D01*
X161990598Y-114809614D01*
X161990604Y-114809617D01*
X162050255Y-114834325D01*
X162202594Y-114897426D01*
X162424243Y-114956816D01*
X162651747Y-114986768D01*
X162651754Y-114986768D01*
X162881208Y-114986768D01*
X162881215Y-114986768D01*
X163108719Y-114956816D01*
X163330368Y-114897426D01*
X163330391Y-114897416D01*
X163333254Y-114896445D01*
X163334172Y-114896406D01*
X163334290Y-114896375D01*
X163334297Y-114896401D01*
X163403063Y-114893526D01*
X163460810Y-114926178D01*
X163469817Y-114935185D01*
X163490886Y-114951352D01*
X163532088Y-115007780D01*
X163535173Y-115017633D01*
X163565323Y-115130155D01*
X163576975Y-115158286D01*
X163653131Y-115342144D01*
X163653138Y-115342158D01*
X163708271Y-115437651D01*
X163757315Y-115522599D01*
X163767873Y-115540885D01*
X163907562Y-115722929D01*
X163907570Y-115722938D01*
X164069811Y-115885179D01*
X164069819Y-115885186D01*
X164069820Y-115885187D01*
X164095866Y-115905173D01*
X164251863Y-116024875D01*
X164251866Y-116024876D01*
X164251869Y-116024879D01*
X164450593Y-116139612D01*
X164450598Y-116139614D01*
X164450604Y-116139617D01*
X164533159Y-116173812D01*
X164662594Y-116227426D01*
X164884243Y-116286816D01*
X165100793Y-116315325D01*
X165111731Y-116316766D01*
X165111747Y-116316768D01*
X165111754Y-116316768D01*
X165341208Y-116316768D01*
X165341215Y-116316768D01*
X165568719Y-116286816D01*
X165790368Y-116227426D01*
X166002369Y-116139612D01*
X166201093Y-116024879D01*
X166383142Y-115885187D01*
X166489301Y-115779027D01*
X166550622Y-115745544D01*
X166620314Y-115750528D01*
X166676248Y-115792399D01*
X166700665Y-115857863D01*
X166700773Y-115860833D01*
X166700805Y-115860832D01*
X166700982Y-115864144D01*
X166707389Y-115923751D01*
X166757683Y-116058596D01*
X166757687Y-116058603D01*
X166843933Y-116173812D01*
X166843936Y-116173815D01*
X166959145Y-116260061D01*
X166959152Y-116260065D01*
X167093998Y-116310359D01*
X167093997Y-116310359D01*
X167100925Y-116311103D01*
X167153608Y-116316768D01*
X169849353Y-116316767D01*
X169908964Y-116310359D01*
X170043812Y-116260064D01*
X170159027Y-116173814D01*
X170245277Y-116058599D01*
X170295572Y-115923751D01*
X170301981Y-115864141D01*
X170301980Y-113168396D01*
X170295572Y-113108785D01*
X170293403Y-113102970D01*
X170245278Y-112973939D01*
X170245274Y-112973932D01*
X170159028Y-112858723D01*
X170159025Y-112858720D01*
X170043816Y-112772474D01*
X170043809Y-112772470D01*
X169941920Y-112734468D01*
X174666932Y-112734468D01*
X174666932Y-112784454D01*
X174677425Y-112887165D01*
X174732572Y-113053587D01*
X174732574Y-113053592D01*
X174824615Y-113202813D01*
X174948585Y-113326783D01*
X175097806Y-113418824D01*
X175097811Y-113418826D01*
X175264233Y-113473973D01*
X175264240Y-113473974D01*
X175366950Y-113484467D01*
X175641930Y-113484467D01*
X175641931Y-113484466D01*
X175641931Y-112734468D01*
X174666932Y-112734468D01*
X169941920Y-112734468D01*
X169908963Y-112722176D01*
X169908964Y-112722176D01*
X169849364Y-112715769D01*
X169849362Y-112715768D01*
X169849354Y-112715768D01*
X169849346Y-112715768D01*
X169825980Y-112715768D01*
X169758941Y-112696083D01*
X169713186Y-112643279D01*
X169701980Y-112591768D01*
X169701980Y-112268397D01*
X169701979Y-112268391D01*
X169700928Y-112258616D01*
X169695572Y-112208785D01*
X169691382Y-112197552D01*
X169645278Y-112073939D01*
X169645274Y-112073932D01*
X169559028Y-111958723D01*
X169559025Y-111958720D01*
X169443816Y-111872474D01*
X169443809Y-111872470D01*
X169308967Y-111822178D01*
X169308966Y-111822177D01*
X169308964Y-111822177D01*
X169270642Y-111818056D01*
X169206094Y-111791319D01*
X169166246Y-111733927D01*
X169163752Y-111664102D01*
X169199404Y-111604013D01*
X169261884Y-111572738D01*
X169283900Y-111570768D01*
X171859459Y-111570768D01*
X174399459Y-111570768D01*
X174722956Y-111570768D01*
X174789995Y-111590453D01*
X174835750Y-111643257D01*
X174845694Y-111712415D01*
X174825861Y-111758407D01*
X174828406Y-111759977D01*
X174732574Y-111915343D01*
X174732572Y-111915348D01*
X174677425Y-112081770D01*
X174677424Y-112081777D01*
X174666931Y-112184481D01*
X174666931Y-112234468D01*
X177116930Y-112234468D01*
X177116930Y-112184496D01*
X177116929Y-112184481D01*
X177106436Y-112081770D01*
X177051289Y-111915348D01*
X177051287Y-111915343D01*
X176955456Y-111759977D01*
X176958271Y-111758240D01*
X176937529Y-111707180D01*
X176950404Y-111638507D01*
X176998363Y-111587696D01*
X177060906Y-111570768D01*
X180993274Y-111570768D01*
X181091153Y-111551298D01*
X181135524Y-111542472D01*
X181186567Y-111532319D01*
X181256366Y-111503407D01*
X181317536Y-111478069D01*
X181387004Y-111470603D01*
X181449482Y-111501878D01*
X181485134Y-111561968D01*
X181482639Y-111631793D01*
X181471717Y-111655753D01*
X181413986Y-111753371D01*
X181413985Y-111753374D01*
X181368133Y-111911194D01*
X181368132Y-111911199D01*
X181365056Y-111950289D01*
X181344540Y-112009448D01*
X181238905Y-112167542D01*
X181238897Y-112167556D01*
X181185910Y-112295481D01*
X181163481Y-112349626D01*
X181163480Y-112349632D01*
X181159285Y-112370724D01*
X181125031Y-112542924D01*
X181125031Y-112745768D01*
X181105346Y-112812807D01*
X181052542Y-112858562D01*
X181001031Y-112869768D01*
X177296906Y-112869768D01*
X177296886Y-112869767D01*
X177290772Y-112869767D01*
X177240931Y-112869767D01*
X177173892Y-112850082D01*
X177128137Y-112797278D01*
X177116931Y-112745767D01*
X177116931Y-112734468D01*
X176141931Y-112734468D01*
X176141931Y-113454284D01*
X176122246Y-113521323D01*
X176105612Y-113541965D01*
X175906127Y-113741449D01*
X175844804Y-113774934D01*
X175818447Y-113777768D01*
X175671730Y-113777768D01*
X175671711Y-113777769D01*
X175568934Y-113788268D01*
X175568931Y-113788269D01*
X175402399Y-113843453D01*
X175402394Y-113843455D01*
X175253073Y-113935557D01*
X175129020Y-114059610D01*
X175036918Y-114208931D01*
X175036916Y-114208936D01*
X175022229Y-114253260D01*
X174981732Y-114375471D01*
X174981732Y-114375472D01*
X174981731Y-114375472D01*
X174971231Y-114478251D01*
X174971231Y-115253269D01*
X174971232Y-115253287D01*
X174981731Y-115356064D01*
X174981732Y-115356067D01*
X175036916Y-115522599D01*
X175036918Y-115522604D01*
X175063542Y-115565768D01*
X175129019Y-115671924D01*
X175253075Y-115795980D01*
X175256359Y-115798005D01*
X175256384Y-115798021D01*
X175258176Y-115800014D01*
X175258742Y-115800461D01*
X175258665Y-115800557D01*
X175303110Y-115849967D01*
X175314334Y-115918929D01*
X175286492Y-115983012D01*
X175256396Y-116009094D01*
X175253391Y-116010947D01*
X175253386Y-116010951D01*
X175129415Y-116134922D01*
X175037374Y-116284143D01*
X175037372Y-116284148D01*
X174982225Y-116450570D01*
X174982224Y-116450577D01*
X174971731Y-116553281D01*
X174971731Y-116690768D01*
X177421730Y-116690768D01*
X177421730Y-116553296D01*
X177421729Y-116553281D01*
X177411236Y-116450570D01*
X177356089Y-116284148D01*
X177356087Y-116284143D01*
X177264046Y-116134922D01*
X177140075Y-116010951D01*
X177140072Y-116010949D01*
X177137070Y-116009097D01*
X177135444Y-116007289D01*
X177134408Y-116006470D01*
X177134548Y-116006292D01*
X177090348Y-115957148D01*
X177079128Y-115888185D01*
X177106974Y-115824104D01*
X177137075Y-115798022D01*
X177140387Y-115795980D01*
X177264443Y-115671924D01*
X177356545Y-115522602D01*
X177411730Y-115356065D01*
X177422231Y-115253277D01*
X177422230Y-115106551D01*
X177441914Y-115039512D01*
X177458550Y-115018869D01*
X177570335Y-114907086D01*
X177631658Y-114873602D01*
X177658015Y-114870768D01*
X178511190Y-114870768D01*
X180746949Y-114870768D01*
X180813988Y-114890453D01*
X180834630Y-114907087D01*
X181088712Y-115161169D01*
X181122197Y-115222492D01*
X181125031Y-115248850D01*
X181125031Y-117132359D01*
X181125031Y-117132361D01*
X181125030Y-117132361D01*
X181163478Y-117325647D01*
X181163481Y-117325657D01*
X181233362Y-117494366D01*
X181240831Y-117563835D01*
X181209556Y-117626314D01*
X181149466Y-117661966D01*
X181118801Y-117665818D01*
X180976280Y-117665818D01*
X180909241Y-117646133D01*
X180863486Y-117593329D01*
X180852922Y-117529213D01*
X180853730Y-117521299D01*
X180853731Y-117521291D01*
X180853731Y-117383818D01*
X178403732Y-117383818D01*
X178403732Y-117521304D01*
X178404541Y-117529216D01*
X178391772Y-117597909D01*
X178343891Y-117648793D01*
X178281183Y-117665818D01*
X178252731Y-117665818D01*
X178252722Y-117665818D01*
X178252721Y-117665819D01*
X178145280Y-117677370D01*
X178145268Y-117677372D01*
X178093758Y-117688578D01*
X177991233Y-117722701D01*
X177991227Y-117722704D01*
X177870193Y-117800489D01*
X177870182Y-117800497D01*
X177817390Y-117846241D01*
X177723164Y-117954982D01*
X177723161Y-117954986D01*
X177663395Y-118085852D01*
X177643707Y-118152900D01*
X177623231Y-118295319D01*
X177623231Y-118860800D01*
X177603546Y-118927839D01*
X177550742Y-118973594D01*
X177486629Y-118984158D01*
X177434855Y-118978868D01*
X177386531Y-118978868D01*
X177386531Y-120054868D01*
X177366846Y-120121907D01*
X177314042Y-120167662D01*
X177262531Y-120178868D01*
X176161532Y-120178868D01*
X176161532Y-120202190D01*
X176171675Y-120301475D01*
X176224983Y-120462349D01*
X176224988Y-120462360D01*
X176313955Y-120606596D01*
X176313958Y-120606600D01*
X176323191Y-120615833D01*
X176356676Y-120677156D01*
X176351692Y-120746848D01*
X176323194Y-120791192D01*
X176313564Y-120800821D01*
X176313560Y-120800827D01*
X176224532Y-120945162D01*
X176224527Y-120945173D01*
X176171182Y-121106158D01*
X176161031Y-121205515D01*
X176161031Y-121752205D01*
X176161032Y-121752223D01*
X176171181Y-121851575D01*
X176171182Y-121851578D01*
X176224527Y-122012562D01*
X176224532Y-122012573D01*
X176313560Y-122156908D01*
X176313563Y-122156912D01*
X176433486Y-122276835D01*
X176433490Y-122276838D01*
X176577825Y-122365866D01*
X176577828Y-122365867D01*
X176577834Y-122365871D01*
X176738823Y-122419217D01*
X176838186Y-122429368D01*
X177434875Y-122429367D01*
X177486630Y-122424080D01*
X177555322Y-122436849D01*
X177606206Y-122484730D01*
X177623231Y-122547438D01*
X177623231Y-124547318D01*
X177623232Y-124547327D01*
X177634783Y-124654768D01*
X177634785Y-124654780D01*
X177645991Y-124706290D01*
X177680114Y-124808815D01*
X177680117Y-124808821D01*
X177757902Y-124929855D01*
X177757910Y-124929866D01*
X177803654Y-124982658D01*
X177803657Y-124982661D01*
X177803661Y-124982665D01*
X177912395Y-125076885D01*
X177912398Y-125076886D01*
X177912399Y-125076887D01*
X178015187Y-125123830D01*
X178043272Y-125136656D01*
X178110311Y-125156341D01*
X178110315Y-125156342D01*
X178252731Y-125176818D01*
X178252734Y-125176818D01*
X183004721Y-125176818D01*
X183004731Y-125176818D01*
X183112187Y-125165265D01*
X183163698Y-125154059D01*
X183197928Y-125142665D01*
X183266228Y-125119934D01*
X183266232Y-125119931D01*
X183266235Y-125119931D01*
X183387274Y-125042143D01*
X183440078Y-124996388D01*
X183534298Y-124887654D01*
X183594069Y-124756777D01*
X183613754Y-124689738D01*
X183613755Y-124689734D01*
X183634231Y-124547318D01*
X183634231Y-122099181D01*
X188444800Y-122099181D01*
X188451208Y-122169702D01*
X188451209Y-122169707D01*
X188501781Y-122331996D01*
X188589727Y-122477477D01*
X188709922Y-122597672D01*
X188855404Y-122685619D01*
X188855403Y-122685619D01*
X189017694Y-122736190D01*
X189017693Y-122736190D01*
X189088208Y-122742598D01*
X189088226Y-122742599D01*
X189094799Y-122742598D01*
X189094800Y-122742598D01*
X189094800Y-122017600D01*
X188444801Y-122017600D01*
X188444801Y-122099173D01*
X188444800Y-122099181D01*
X183634231Y-122099181D01*
X183634231Y-121517600D01*
X188444800Y-121517600D01*
X189094800Y-121517600D01*
X189094800Y-120792600D01*
X189094799Y-120792599D01*
X189088236Y-120792600D01*
X189088217Y-120792601D01*
X189017697Y-120799008D01*
X189017692Y-120799009D01*
X188855403Y-120849581D01*
X188709922Y-120937527D01*
X188589727Y-121057722D01*
X188501780Y-121203204D01*
X188451209Y-121365493D01*
X188444800Y-121436027D01*
X188444800Y-121517600D01*
X183634231Y-121517600D01*
X183634231Y-120578307D01*
X183653916Y-120511268D01*
X183706720Y-120465513D01*
X183775878Y-120455569D01*
X183792824Y-120459230D01*
X183826162Y-120468916D01*
X183863037Y-120471818D01*
X183863045Y-120471818D01*
X184294417Y-120471818D01*
X184294425Y-120471818D01*
X184331300Y-120468916D01*
X184331302Y-120468915D01*
X184331304Y-120468915D01*
X184425376Y-120441584D01*
X184489129Y-120423062D01*
X184630596Y-120339399D01*
X184746812Y-120223183D01*
X184830475Y-120081716D01*
X184876329Y-119923887D01*
X184879231Y-119887012D01*
X184879231Y-118730624D01*
X184876329Y-118693749D01*
X184874557Y-118687651D01*
X184830476Y-118535924D01*
X184830475Y-118535921D01*
X184830475Y-118535920D01*
X184746812Y-118394453D01*
X184746810Y-118394451D01*
X184746807Y-118394447D01*
X184630601Y-118278241D01*
X184630598Y-118278239D01*
X184630596Y-118278237D01*
X184630280Y-118278050D01*
X184630084Y-118277840D01*
X184624433Y-118273457D01*
X184625140Y-118272545D01*
X184582597Y-118226982D01*
X184570093Y-118158241D01*
X184596737Y-118093651D01*
X184624652Y-118069462D01*
X184624433Y-118069179D01*
X184629642Y-118065138D01*
X184630281Y-118064585D01*
X184630596Y-118064399D01*
X184746812Y-117948183D01*
X184830475Y-117806716D01*
X184866610Y-117682339D01*
X184876328Y-117648891D01*
X184876329Y-117648885D01*
X184876999Y-117640368D01*
X184879231Y-117612012D01*
X184879231Y-116455624D01*
X184876329Y-116418749D01*
X184873511Y-116409050D01*
X184838158Y-116287364D01*
X184830475Y-116260920D01*
X184746812Y-116119453D01*
X184746810Y-116119451D01*
X184746807Y-116119447D01*
X184630601Y-116003241D01*
X184630592Y-116003234D01*
X184541110Y-115950315D01*
X184493426Y-115899246D01*
X184480231Y-115843583D01*
X184480231Y-115803787D01*
X184499916Y-115736748D01*
X184516545Y-115716110D01*
X184635203Y-115597453D01*
X184723209Y-115451874D01*
X184773817Y-115289464D01*
X184780231Y-115218884D01*
X184780231Y-114565268D01*
X185635732Y-114565268D01*
X185635732Y-114571850D01*
X185642139Y-114642370D01*
X185642140Y-114642375D01*
X185692712Y-114804664D01*
X185780658Y-114950145D01*
X185900853Y-115070340D01*
X186046335Y-115158287D01*
X186046334Y-115158287D01*
X186208625Y-115208858D01*
X186208623Y-115208858D01*
X186279149Y-115215267D01*
X186360730Y-115215266D01*
X186360731Y-115215266D01*
X186360731Y-114565268D01*
X186860731Y-114565268D01*
X186860731Y-115215267D01*
X186942312Y-115215267D01*
X187012833Y-115208859D01*
X187012838Y-115208858D01*
X187175127Y-115158286D01*
X187320608Y-115070340D01*
X187440803Y-114950145D01*
X187528750Y-114804663D01*
X187579321Y-114642374D01*
X187585731Y-114571840D01*
X187585731Y-114565268D01*
X186860731Y-114565268D01*
X186360731Y-114565268D01*
X185635732Y-114565268D01*
X184780231Y-114565268D01*
X184780231Y-114555652D01*
X184773926Y-114486268D01*
X188810731Y-114486268D01*
X189535731Y-114486268D01*
X189535731Y-113836268D01*
X189535730Y-113836267D01*
X189454148Y-113836268D01*
X189383628Y-113842676D01*
X189383623Y-113842677D01*
X189221334Y-113893249D01*
X189075853Y-113981195D01*
X188955658Y-114101390D01*
X188867711Y-114246872D01*
X188817140Y-114409161D01*
X188810731Y-114479695D01*
X188810731Y-114486268D01*
X184773926Y-114486268D01*
X184773817Y-114485072D01*
X184723209Y-114322662D01*
X184635203Y-114177083D01*
X184635201Y-114177081D01*
X184635200Y-114177079D01*
X184514919Y-114056798D01*
X184514916Y-114056796D01*
X184446821Y-114015631D01*
X184399636Y-113964105D01*
X184387797Y-113895246D01*
X184415066Y-113830917D01*
X184469144Y-113794025D01*
X184468966Y-113793612D01*
X184471113Y-113792682D01*
X184472784Y-113791543D01*
X184476099Y-113790524D01*
X184476122Y-113790513D01*
X184476129Y-113790512D01*
X184617596Y-113706849D01*
X184686359Y-113638085D01*
X184747680Y-113604602D01*
X184774039Y-113601768D01*
X184861190Y-113601768D01*
X185608330Y-113601768D01*
X185675369Y-113621453D01*
X185721124Y-113674257D01*
X185731068Y-113743415D01*
X185714446Y-113789919D01*
X185692712Y-113825869D01*
X185692711Y-113825871D01*
X185642140Y-113988161D01*
X185635731Y-114058695D01*
X185635731Y-114065268D01*
X187585730Y-114065268D01*
X187585730Y-114058685D01*
X187579322Y-113988165D01*
X187579321Y-113988160D01*
X187528749Y-113825871D01*
X187440803Y-113680390D01*
X187338715Y-113578302D01*
X187305230Y-113516979D01*
X187310214Y-113447287D01*
X187338714Y-113402941D01*
X187441203Y-113300453D01*
X187529209Y-113154874D01*
X187579817Y-112992464D01*
X187586231Y-112921884D01*
X187586231Y-112901704D01*
X187588614Y-112877512D01*
X187589570Y-112872707D01*
X187611231Y-112763809D01*
X187611231Y-112566728D01*
X187588614Y-112453022D01*
X187586231Y-112428831D01*
X187586231Y-112408654D01*
X187582442Y-112366959D01*
X187579817Y-112338072D01*
X187529209Y-112175662D01*
X187441203Y-112030083D01*
X187441201Y-112030081D01*
X187441200Y-112030079D01*
X187349570Y-111938449D01*
X187316085Y-111877126D01*
X187321069Y-111807434D01*
X187362941Y-111751501D01*
X187428405Y-111727084D01*
X187437251Y-111726768D01*
X189131459Y-111726768D01*
X191286486Y-111726768D01*
X191353525Y-111746453D01*
X191374167Y-111763087D01*
X192352912Y-112741832D01*
X192386397Y-112803155D01*
X192389231Y-112829513D01*
X192389231Y-114245311D01*
X192406848Y-114333874D01*
X192409231Y-114358066D01*
X192409231Y-114452768D01*
X192389546Y-114519807D01*
X192336742Y-114565562D01*
X192285231Y-114576768D01*
X192234231Y-114576768D01*
X192167192Y-114557083D01*
X192121437Y-114504279D01*
X192110231Y-114452768D01*
X192110231Y-113748581D01*
X192110230Y-113748566D01*
X192109756Y-113742548D01*
X192107329Y-113711699D01*
X192107145Y-113711066D01*
X192061476Y-113553874D01*
X192061476Y-113553873D01*
X192061475Y-113553871D01*
X192061475Y-113553870D01*
X192026998Y-113495572D01*
X192009731Y-113432452D01*
X192009731Y-113166971D01*
X192007235Y-113167168D01*
X191849537Y-113212984D01*
X191849522Y-113212990D01*
X191848330Y-113213696D01*
X191847274Y-113213963D01*
X191842372Y-113216085D01*
X191842029Y-113215293D01*
X191780604Y-113230871D01*
X191727441Y-113215260D01*
X191727285Y-113215621D01*
X191724361Y-113214355D01*
X191722108Y-113213694D01*
X191720130Y-113212524D01*
X191720124Y-113212522D01*
X191562304Y-113166670D01*
X191562298Y-113166669D01*
X191525432Y-113163768D01*
X191525425Y-113163768D01*
X191094037Y-113163768D01*
X191094029Y-113163768D01*
X191057163Y-113166669D01*
X191057157Y-113166670D01*
X190899337Y-113212522D01*
X190899334Y-113212523D01*
X190757868Y-113296185D01*
X190757860Y-113296191D01*
X190641654Y-113412397D01*
X190641648Y-113412405D01*
X190557986Y-113553871D01*
X190557985Y-113553874D01*
X190512133Y-113711694D01*
X190512132Y-113711700D01*
X190509231Y-113748566D01*
X190509231Y-113774307D01*
X190489546Y-113841346D01*
X190436742Y-113887101D01*
X190367584Y-113897045D01*
X190348341Y-113892692D01*
X190187836Y-113842677D01*
X190187837Y-113842677D01*
X190117303Y-113836268D01*
X190035731Y-113836268D01*
X190035731Y-114862268D01*
X190016046Y-114929307D01*
X189963242Y-114975062D01*
X189911731Y-114986268D01*
X188810732Y-114986268D01*
X188810732Y-114992850D01*
X188817139Y-115063370D01*
X188817140Y-115063375D01*
X188867712Y-115225664D01*
X188955658Y-115371145D01*
X189057746Y-115473233D01*
X189091231Y-115534556D01*
X189086247Y-115604248D01*
X189057746Y-115648595D01*
X188955262Y-115751078D01*
X188955261Y-115751079D01*
X188867253Y-115896661D01*
X188816644Y-116059075D01*
X188810231Y-116129654D01*
X188810231Y-116642881D01*
X188816644Y-116713460D01*
X188816644Y-116713462D01*
X188816645Y-116713464D01*
X188867253Y-116875874D01*
X188932439Y-116983705D01*
X188955261Y-117021456D01*
X189075542Y-117141737D01*
X189075544Y-117141738D01*
X189075546Y-117141740D01*
X189221125Y-117229746D01*
X189383535Y-117280354D01*
X189454115Y-117286768D01*
X189872428Y-117286768D01*
X189934427Y-117303380D01*
X189970046Y-117323945D01*
X190122774Y-117364869D01*
X190122777Y-117364869D01*
X190288485Y-117364869D01*
X190288501Y-117364868D01*
X190481464Y-117364868D01*
X190548503Y-117384553D01*
X190588196Y-117425747D01*
X190641648Y-117516130D01*
X190641654Y-117516138D01*
X190757860Y-117632344D01*
X190757863Y-117632346D01*
X190757866Y-117632349D01*
X190797510Y-117655794D01*
X190845193Y-117706862D01*
X190857697Y-117775604D01*
X190831052Y-117840193D01*
X190798540Y-117868642D01*
X190675548Y-117942994D01*
X190675546Y-117942995D01*
X190643782Y-117974759D01*
X190582458Y-118008242D01*
X190515148Y-118004116D01*
X190396793Y-117962701D01*
X190396780Y-117962698D01*
X190217535Y-117942503D01*
X190217527Y-117942503D01*
X190038281Y-117962698D01*
X190038276Y-117962699D01*
X189868007Y-118022279D01*
X189715268Y-118118252D01*
X189587715Y-118245805D01*
X189491742Y-118398544D01*
X189432162Y-118568813D01*
X189432161Y-118568818D01*
X189411966Y-118748064D01*
X189411966Y-118748071D01*
X189432161Y-118927317D01*
X189432162Y-118927322D01*
X189491742Y-119097591D01*
X189540799Y-119175664D01*
X189587715Y-119250330D01*
X189715269Y-119377884D01*
X189747500Y-119398136D01*
X189855402Y-119465936D01*
X189868009Y-119473857D01*
X190013016Y-119524597D01*
X190038276Y-119533436D01*
X190038281Y-119533437D01*
X190217527Y-119553633D01*
X190217531Y-119553633D01*
X190217535Y-119553633D01*
X190396779Y-119533437D01*
X190396779Y-119533436D01*
X190396786Y-119533436D01*
X190477519Y-119505185D01*
X190547292Y-119501623D01*
X190606151Y-119534546D01*
X190675542Y-119603937D01*
X190675544Y-119603938D01*
X190675546Y-119603940D01*
X190821125Y-119691946D01*
X190983535Y-119742554D01*
X191054115Y-119748968D01*
X191054118Y-119748968D01*
X191567344Y-119748968D01*
X191567347Y-119748968D01*
X191637927Y-119742554D01*
X191800337Y-119691946D01*
X191945916Y-119603940D01*
X191996223Y-119553633D01*
X192048050Y-119501807D01*
X192109373Y-119468322D01*
X192179065Y-119473306D01*
X192223412Y-119501807D01*
X192325542Y-119603937D01*
X192325544Y-119603938D01*
X192325546Y-119603940D01*
X192471125Y-119691946D01*
X192633535Y-119742554D01*
X192704115Y-119748968D01*
X192704118Y-119748968D01*
X193217344Y-119748968D01*
X193217347Y-119748968D01*
X193287927Y-119742554D01*
X193450337Y-119691946D01*
X193595916Y-119603940D01*
X193716203Y-119483653D01*
X193804209Y-119338074D01*
X193854817Y-119175664D01*
X193861231Y-119105084D01*
X193861231Y-118441852D01*
X193854817Y-118371272D01*
X193804209Y-118208862D01*
X193716203Y-118063283D01*
X193716201Y-118063281D01*
X193716200Y-118063279D01*
X193595917Y-117942996D01*
X193592176Y-117940735D01*
X193544991Y-117889205D01*
X193533156Y-117820345D01*
X193560428Y-117756017D01*
X193613323Y-117719937D01*
X193612966Y-117719112D01*
X193617252Y-117717256D01*
X193618148Y-117716646D01*
X193619920Y-117716102D01*
X193620122Y-117716013D01*
X193620129Y-117716012D01*
X193718838Y-117657635D01*
X193781959Y-117640368D01*
X194126074Y-117640368D01*
X194268590Y-117612019D01*
X194319366Y-117601919D01*
X194347779Y-117590149D01*
X194417247Y-117582681D01*
X194479726Y-117613956D01*
X194515379Y-117674044D01*
X194519231Y-117704711D01*
X194519231Y-120770700D01*
X194499546Y-120837739D01*
X194459382Y-120876816D01*
X194359614Y-120937128D01*
X194359610Y-120937131D01*
X194257481Y-121039261D01*
X194196158Y-121072746D01*
X194126466Y-121067762D01*
X194082119Y-121039261D01*
X193979988Y-120937130D01*
X193979981Y-120937126D01*
X193834406Y-120849122D01*
X193671996Y-120798514D01*
X193671994Y-120798513D01*
X193671992Y-120798513D01*
X193622578Y-120794023D01*
X193601416Y-120792100D01*
X193088184Y-120792100D01*
X193068945Y-120793848D01*
X193017607Y-120798513D01*
X192855193Y-120849122D01*
X192709616Y-120937126D01*
X192709613Y-120937128D01*
X192683193Y-120963548D01*
X192621869Y-120997031D01*
X192554562Y-120992906D01*
X192524054Y-120982231D01*
X192344804Y-120962035D01*
X192344796Y-120962035D01*
X192165550Y-120982230D01*
X192165545Y-120982231D01*
X191995274Y-121041812D01*
X191917547Y-121090651D01*
X191850310Y-121109651D01*
X191783475Y-121089283D01*
X191753960Y-121062123D01*
X191750268Y-121057410D01*
X191629988Y-120937130D01*
X191629981Y-120937126D01*
X191484406Y-120849122D01*
X191321996Y-120798514D01*
X191321994Y-120798513D01*
X191321992Y-120798513D01*
X191272578Y-120794023D01*
X191251416Y-120792100D01*
X190738184Y-120792100D01*
X190718945Y-120793848D01*
X190667607Y-120798513D01*
X190505193Y-120849122D01*
X190359611Y-120937130D01*
X190359610Y-120937131D01*
X190257127Y-121039615D01*
X190195804Y-121073100D01*
X190126112Y-121068116D01*
X190081765Y-121039615D01*
X189979677Y-120937527D01*
X189834195Y-120849580D01*
X189834196Y-120849580D01*
X189671905Y-120799009D01*
X189671906Y-120799009D01*
X189601372Y-120792600D01*
X189594800Y-120792600D01*
X189594800Y-122742599D01*
X189601381Y-122742599D01*
X189671902Y-122736191D01*
X189671907Y-122736190D01*
X189834196Y-122685618D01*
X189979677Y-122597672D01*
X189979678Y-122597671D01*
X190081763Y-122495585D01*
X190143086Y-122462099D01*
X190212777Y-122467083D01*
X190257126Y-122495584D01*
X190359611Y-122598069D01*
X190359613Y-122598070D01*
X190359615Y-122598072D01*
X190505194Y-122686078D01*
X190667604Y-122736686D01*
X190738184Y-122743100D01*
X190738187Y-122743100D01*
X191251413Y-122743100D01*
X191251416Y-122743100D01*
X191321996Y-122736686D01*
X191484406Y-122686078D01*
X191629985Y-122598072D01*
X191750272Y-122477785D01*
X191750278Y-122477775D01*
X191753965Y-122473070D01*
X191810804Y-122432437D01*
X191880589Y-122428984D01*
X191917550Y-122444549D01*
X191995275Y-122493388D01*
X192165545Y-122552968D01*
X192165550Y-122552969D01*
X192344796Y-122573165D01*
X192344800Y-122573165D01*
X192344804Y-122573165D01*
X192524046Y-122552969D01*
X192524045Y-122552969D01*
X192524055Y-122552968D01*
X192554562Y-122542292D01*
X192624340Y-122538732D01*
X192683196Y-122571654D01*
X192709611Y-122598069D01*
X192709613Y-122598070D01*
X192709615Y-122598072D01*
X192855194Y-122686078D01*
X193017604Y-122736686D01*
X193088184Y-122743100D01*
X193088187Y-122743100D01*
X193601413Y-122743100D01*
X193601416Y-122743100D01*
X193671996Y-122736686D01*
X193834406Y-122686078D01*
X193979985Y-122598072D01*
X194030619Y-122547438D01*
X194082119Y-122495939D01*
X194143442Y-122462454D01*
X194213134Y-122467438D01*
X194257481Y-122495939D01*
X194359611Y-122598069D01*
X194359613Y-122598070D01*
X194359615Y-122598072D01*
X194505194Y-122686078D01*
X194667604Y-122736686D01*
X194738184Y-122743100D01*
X194738187Y-122743100D01*
X195251413Y-122743100D01*
X195251416Y-122743100D01*
X195321996Y-122736686D01*
X195484406Y-122686078D01*
X195629985Y-122598072D01*
X195750272Y-122477785D01*
X195838278Y-122332206D01*
X195888886Y-122169796D01*
X195895300Y-122099216D01*
X195895300Y-121435984D01*
X195888886Y-121365404D01*
X195838278Y-121202994D01*
X195750272Y-121057415D01*
X195750267Y-121057410D01*
X195746616Y-121052748D01*
X195720770Y-120987834D01*
X195720231Y-120976280D01*
X195720231Y-115322853D01*
X195739916Y-115255814D01*
X195792720Y-115210059D01*
X195805220Y-115205149D01*
X195914065Y-115169082D01*
X196063387Y-115076980D01*
X196187443Y-114952924D01*
X196279545Y-114803602D01*
X196334730Y-114637065D01*
X196345231Y-114534277D01*
X196345230Y-113759260D01*
X196344138Y-113748574D01*
X196334730Y-113656471D01*
X196334729Y-113656468D01*
X196333027Y-113651331D01*
X196279545Y-113489934D01*
X196187443Y-113340612D01*
X196063387Y-113216556D01*
X196060073Y-113214511D01*
X196058277Y-113212516D01*
X196057720Y-113212075D01*
X196057795Y-113211979D01*
X196013349Y-113162565D01*
X196002128Y-113093602D01*
X196029971Y-113029520D01*
X196060079Y-113003433D01*
X196063073Y-113001586D01*
X196187046Y-112877613D01*
X196279087Y-112728392D01*
X196279089Y-112728387D01*
X196334236Y-112561965D01*
X196334237Y-112561958D01*
X196344730Y-112459254D01*
X196344731Y-112459241D01*
X196344731Y-112321768D01*
X194993731Y-112321768D01*
X194926692Y-112302083D01*
X194880937Y-112249279D01*
X194869731Y-112197768D01*
X194869731Y-110984268D01*
X195369731Y-110984268D01*
X195369731Y-111821768D01*
X196344730Y-111821768D01*
X196344730Y-111684296D01*
X196344729Y-111684281D01*
X196334236Y-111581570D01*
X196279089Y-111415148D01*
X196279087Y-111415143D01*
X196187046Y-111265922D01*
X196063076Y-111141952D01*
X195913855Y-111049911D01*
X195913850Y-111049909D01*
X195747428Y-110994762D01*
X195747421Y-110994761D01*
X195644717Y-110984268D01*
X195369731Y-110984268D01*
X194869731Y-110984268D01*
X194594760Y-110984268D01*
X194594743Y-110984269D01*
X194492033Y-110994762D01*
X194325611Y-111049909D01*
X194325606Y-111049911D01*
X194176385Y-111141952D01*
X194052414Y-111265923D01*
X194052411Y-111265927D01*
X194002908Y-111346184D01*
X193950960Y-111392909D01*
X193881997Y-111404130D01*
X193817916Y-111376287D01*
X193809689Y-111368768D01*
X192536477Y-110095557D01*
X192536474Y-110095553D01*
X192536474Y-110095554D01*
X192529407Y-110088487D01*
X192529407Y-110088486D01*
X192390050Y-109949129D01*
X192390049Y-109949128D01*
X192390048Y-109949127D01*
X192230313Y-109842396D01*
X192185508Y-109788784D01*
X192176801Y-109719459D01*
X192183022Y-109695960D01*
X192214197Y-109612376D01*
X192214198Y-109612372D01*
X192220599Y-109552844D01*
X192220600Y-109552827D01*
X192220600Y-108558553D01*
X190954728Y-107292681D01*
X190921243Y-107231358D01*
X190923128Y-107205000D01*
X191574153Y-107205000D01*
X192220599Y-107851447D01*
X192220600Y-107851446D01*
X192220600Y-106558553D01*
X192220599Y-106558552D01*
X191574153Y-107204999D01*
X191574153Y-107205000D01*
X190923128Y-107205000D01*
X190926227Y-107161666D01*
X190954728Y-107117319D01*
X192220599Y-105851447D01*
X192220600Y-105851446D01*
X192220600Y-104857172D01*
X192220599Y-104857155D01*
X192214198Y-104797627D01*
X192214196Y-104797620D01*
X192163954Y-104662913D01*
X192163950Y-104662906D01*
X192077790Y-104547812D01*
X192077787Y-104547809D01*
X191962693Y-104461649D01*
X191962686Y-104461645D01*
X191827979Y-104411403D01*
X191827972Y-104411401D01*
X191768444Y-104405000D01*
X190672755Y-104405000D01*
X190613227Y-104411401D01*
X190613220Y-104411403D01*
X190478513Y-104461645D01*
X190478506Y-104461649D01*
X190363412Y-104547809D01*
X190320178Y-104605562D01*
X190264244Y-104647432D01*
X190194552Y-104652416D01*
X190133229Y-104618930D01*
X190121646Y-104605562D01*
X190104551Y-104582727D01*
X190078146Y-104547454D01*
X190078144Y-104547453D01*
X190078144Y-104547452D01*
X189962935Y-104461206D01*
X189962928Y-104461202D01*
X189828082Y-104410908D01*
X189828083Y-104410908D01*
X189768483Y-104404501D01*
X189768481Y-104404500D01*
X189768473Y-104404500D01*
X189768464Y-104404500D01*
X188672729Y-104404500D01*
X188672723Y-104404501D01*
X188613116Y-104410908D01*
X188478271Y-104461202D01*
X188478264Y-104461206D01*
X188363055Y-104547452D01*
X188363052Y-104547455D01*
X188276806Y-104662664D01*
X188276804Y-104662669D01*
X188226508Y-104797517D01*
X188220101Y-104857116D01*
X188220100Y-104857135D01*
X188220100Y-109552870D01*
X188220101Y-109552878D01*
X188223932Y-109588516D01*
X188211525Y-109657275D01*
X188163913Y-109708411D01*
X188100642Y-109725768D01*
X183824039Y-109725768D01*
X183757000Y-109706083D01*
X183736362Y-109689453D01*
X183667596Y-109620687D01*
X183667283Y-109620502D01*
X183552937Y-109552878D01*
X183526129Y-109537024D01*
X183526128Y-109537023D01*
X183526127Y-109537023D01*
X183526124Y-109537022D01*
X183368304Y-109491170D01*
X183368298Y-109491169D01*
X183331432Y-109488268D01*
X183331425Y-109488268D01*
X182900037Y-109488268D01*
X182900029Y-109488268D01*
X182863167Y-109491169D01*
X182863152Y-109491172D01*
X182830292Y-109500718D01*
X182760423Y-109500517D01*
X182708020Y-109469322D01*
X182352044Y-109113346D01*
X182348218Y-109108983D01*
X182344521Y-109105286D01*
X182344520Y-109105284D01*
X182232716Y-108993480D01*
X182232715Y-108993479D01*
X182228385Y-108989149D01*
X182228374Y-108989139D01*
X182097590Y-108858355D01*
X182097588Y-108858352D01*
X181978717Y-108739481D01*
X181978716Y-108739480D01*
X181879157Y-108682000D01*
X181841785Y-108660423D01*
X181689057Y-108619499D01*
X181530943Y-108619499D01*
X181523347Y-108619499D01*
X181523331Y-108619500D01*
X180132098Y-108619500D01*
X180065059Y-108599815D01*
X180044417Y-108583181D01*
X179451667Y-107990431D01*
X179418182Y-107929108D01*
X179423166Y-107859416D01*
X179465038Y-107803483D01*
X179530502Y-107779066D01*
X179550144Y-107779221D01*
X179578000Y-107781659D01*
X179813408Y-107761063D01*
X180041663Y-107699903D01*
X180255830Y-107600035D01*
X180449401Y-107464495D01*
X180616495Y-107297401D01*
X180752035Y-107103830D01*
X180851903Y-106889663D01*
X180913063Y-106661408D01*
X180933659Y-106426000D01*
X180913063Y-106190592D01*
X180851903Y-105962337D01*
X180752035Y-105748171D01*
X180746425Y-105740158D01*
X180616494Y-105554597D01*
X180449402Y-105387506D01*
X180449395Y-105387501D01*
X180255834Y-105251967D01*
X180255830Y-105251965D01*
X180184727Y-105218809D01*
X180041663Y-105152097D01*
X180041659Y-105152096D01*
X180041655Y-105152094D01*
X179813413Y-105090938D01*
X179813403Y-105090936D01*
X179578001Y-105070341D01*
X179577999Y-105070341D01*
X179342596Y-105090936D01*
X179342586Y-105090938D01*
X179114344Y-105152094D01*
X179114335Y-105152098D01*
X178900171Y-105251964D01*
X178900169Y-105251965D01*
X178706597Y-105387505D01*
X178539505Y-105554597D01*
X178409575Y-105740158D01*
X178354998Y-105783783D01*
X178285500Y-105790977D01*
X178223145Y-105759454D01*
X178206425Y-105740158D01*
X178076494Y-105554597D01*
X177909402Y-105387506D01*
X177909395Y-105387501D01*
X177715834Y-105251967D01*
X177715830Y-105251965D01*
X177644727Y-105218809D01*
X177501663Y-105152097D01*
X177501659Y-105152096D01*
X177501655Y-105152094D01*
X177273413Y-105090938D01*
X177273403Y-105090936D01*
X177038001Y-105070341D01*
X177037999Y-105070341D01*
X176802596Y-105090936D01*
X176802586Y-105090938D01*
X176574344Y-105152094D01*
X176574335Y-105152098D01*
X176360171Y-105251964D01*
X176360169Y-105251965D01*
X176166597Y-105387505D01*
X175999505Y-105554597D01*
X175869575Y-105740158D01*
X175814998Y-105783783D01*
X175745500Y-105790977D01*
X175683145Y-105759454D01*
X175666425Y-105740158D01*
X175536494Y-105554597D01*
X175369402Y-105387506D01*
X175369395Y-105387501D01*
X175175834Y-105251967D01*
X175175830Y-105251965D01*
X175104727Y-105218809D01*
X174961663Y-105152097D01*
X174961659Y-105152096D01*
X174961655Y-105152094D01*
X174733413Y-105090938D01*
X174733403Y-105090936D01*
X174498001Y-105070341D01*
X174497999Y-105070341D01*
X174262596Y-105090936D01*
X174262586Y-105090938D01*
X174034344Y-105152094D01*
X174034335Y-105152098D01*
X173820171Y-105251964D01*
X173820169Y-105251965D01*
X173626600Y-105387503D01*
X173504284Y-105509819D01*
X173442961Y-105543303D01*
X173373269Y-105538319D01*
X173317336Y-105496447D01*
X173300421Y-105465470D01*
X173251354Y-105333913D01*
X173251350Y-105333906D01*
X173165190Y-105218812D01*
X173165187Y-105218809D01*
X173050093Y-105132649D01*
X173050086Y-105132645D01*
X172915379Y-105082403D01*
X172915372Y-105082401D01*
X172855844Y-105076000D01*
X172208000Y-105076000D01*
X172208000Y-105992988D01*
X172150993Y-105960075D01*
X172023826Y-105926000D01*
X171892174Y-105926000D01*
X171765007Y-105960075D01*
X171708000Y-105992988D01*
X171708000Y-105076000D01*
X171060155Y-105076000D01*
X171000627Y-105082401D01*
X171000620Y-105082403D01*
X170865913Y-105132645D01*
X170865906Y-105132649D01*
X170750812Y-105218809D01*
X170750809Y-105218812D01*
X170664649Y-105333906D01*
X170664645Y-105333913D01*
X170614403Y-105468620D01*
X170614401Y-105468627D01*
X170608000Y-105528155D01*
X170608000Y-106176000D01*
X171524988Y-106176000D01*
X171492075Y-106233007D01*
X171458000Y-106360174D01*
X171458000Y-106491826D01*
X171492075Y-106618993D01*
X171524988Y-106676000D01*
X170608000Y-106676000D01*
X170608000Y-107323844D01*
X170614401Y-107383372D01*
X170614403Y-107383379D01*
X170664645Y-107518086D01*
X170664649Y-107518093D01*
X170750809Y-107633187D01*
X170750812Y-107633190D01*
X170865906Y-107719350D01*
X170865913Y-107719354D01*
X171000620Y-107769596D01*
X171000627Y-107769598D01*
X171060155Y-107775999D01*
X171060172Y-107776000D01*
X171708000Y-107776000D01*
X171708000Y-106859012D01*
X171765007Y-106891925D01*
X171892174Y-106926000D01*
X172023826Y-106926000D01*
X172150993Y-106891925D01*
X172208000Y-106859012D01*
X172208000Y-107776000D01*
X172855828Y-107776000D01*
X172855844Y-107775999D01*
X172915372Y-107769598D01*
X172915379Y-107769596D01*
X173050086Y-107719354D01*
X173050093Y-107719350D01*
X173165187Y-107633190D01*
X173165190Y-107633187D01*
X173251350Y-107518093D01*
X173251354Y-107518086D01*
X173300422Y-107386529D01*
X173342293Y-107330595D01*
X173407757Y-107306178D01*
X173476030Y-107321030D01*
X173504285Y-107342181D01*
X173626599Y-107464495D01*
X173703135Y-107518086D01*
X173820165Y-107600032D01*
X173820167Y-107600033D01*
X173820170Y-107600035D01*
X173825898Y-107602706D01*
X173878339Y-107648872D01*
X173897500Y-107715090D01*
X173897500Y-109445768D01*
X173877815Y-109512807D01*
X173825011Y-109558562D01*
X173773500Y-109569768D01*
X167570313Y-109569768D01*
X167503274Y-109550083D01*
X167482632Y-109533449D01*
X167046811Y-109097628D01*
X167046791Y-109097606D01*
X165398541Y-107449358D01*
X165398539Y-107449355D01*
X165055641Y-107106457D01*
X164712739Y-106763556D01*
X164712737Y-106763553D01*
X164712737Y-106763554D01*
X164705670Y-106756487D01*
X164705670Y-106756486D01*
X164566313Y-106617129D01*
X164566312Y-106617128D01*
X164566311Y-106617127D01*
X164402451Y-106507639D01*
X164402438Y-106507632D01*
X164271700Y-106453480D01*
X164220367Y-106432217D01*
X164220359Y-106432215D01*
X164077425Y-106403784D01*
X164077424Y-106403783D01*
X164052248Y-106398776D01*
X164027073Y-106393768D01*
X164027072Y-106393768D01*
X163804590Y-106393768D01*
X163804589Y-106393768D01*
X163779413Y-106398776D01*
X163754237Y-106403784D01*
X163754236Y-106403784D01*
X163611302Y-106432215D01*
X163611294Y-106432217D01*
X163559962Y-106453480D01*
X163559961Y-106453480D01*
X163429223Y-106507632D01*
X163429210Y-106507639D01*
X163265349Y-106617128D01*
X163265345Y-106617131D01*
X163125994Y-106756482D01*
X163125991Y-106756486D01*
X163016502Y-106920347D01*
X163016495Y-106920360D01*
X162978100Y-107013057D01*
X162978100Y-107013058D01*
X162941080Y-107102431D01*
X162941078Y-107102439D01*
X162928478Y-107165785D01*
X162928478Y-107165786D01*
X162905849Y-107279550D01*
X162902631Y-107295727D01*
X162902631Y-107492809D01*
X162902631Y-107492811D01*
X162902630Y-107492811D01*
X162918686Y-107573522D01*
X162918686Y-107573523D01*
X162941078Y-107686097D01*
X162941081Y-107686107D01*
X162959489Y-107730547D01*
X163016495Y-107868174D01*
X163016502Y-107868187D01*
X163041198Y-107905147D01*
X163125992Y-108032050D01*
X163265349Y-108171407D01*
X163265351Y-108171408D01*
X163272417Y-108178474D01*
X163272416Y-108178474D01*
X163272420Y-108178477D01*
X163951146Y-108857205D01*
X163951151Y-108857209D01*
X163982833Y-108878378D01*
X164017544Y-108901570D01*
X164036334Y-108916991D01*
X165631869Y-110512528D01*
X165631891Y-110512548D01*
X166324266Y-111204923D01*
X166324295Y-111204954D01*
X166393428Y-111274087D01*
X166426913Y-111335410D01*
X166421929Y-111405102D01*
X166380057Y-111461035D01*
X166314593Y-111485452D01*
X166305747Y-111485768D01*
X165193610Y-111485768D01*
X165193604Y-111485769D01*
X165133997Y-111492176D01*
X164999152Y-111542470D01*
X164999145Y-111542474D01*
X164883936Y-111628720D01*
X164883933Y-111628723D01*
X164797687Y-111743932D01*
X164797685Y-111743936D01*
X164797685Y-111743937D01*
X164782330Y-111785104D01*
X164740460Y-111841035D01*
X164674996Y-111865452D01*
X164666150Y-111865768D01*
X164511739Y-111865768D01*
X164295196Y-111894277D01*
X164284243Y-111895720D01*
X164088853Y-111948074D01*
X164062594Y-111955110D01*
X164059681Y-111956099D01*
X164058761Y-111956137D01*
X164058673Y-111956161D01*
X164058667Y-111956141D01*
X163989871Y-111959002D01*
X163932151Y-111926357D01*
X163923151Y-111917357D01*
X163923142Y-111917349D01*
X163741098Y-111777660D01*
X163699026Y-111753370D01*
X163568300Y-111677895D01*
X163542371Y-111662925D01*
X163542357Y-111662918D01*
X163330368Y-111575110D01*
X163293431Y-111565213D01*
X163108719Y-111515720D01*
X163070696Y-111510714D01*
X162881222Y-111485768D01*
X162881215Y-111485768D01*
X162651747Y-111485768D01*
X162651739Y-111485768D01*
X162442647Y-111513297D01*
X162424243Y-111515720D01*
X162362298Y-111532318D01*
X162202593Y-111575110D01*
X161990604Y-111662918D01*
X161990596Y-111662922D01*
X161964661Y-111677895D01*
X161896760Y-111694364D01*
X161830734Y-111671510D01*
X161795278Y-111632505D01*
X161794867Y-111631793D01*
X161685092Y-111441656D01*
X161685089Y-111441653D01*
X161685088Y-111441650D01*
X161556511Y-111274087D01*
X161545400Y-111259607D01*
X161545399Y-111259606D01*
X161545392Y-111259598D01*
X161383151Y-111097357D01*
X161383142Y-111097349D01*
X161201098Y-110957660D01*
X161002371Y-110842925D01*
X161002357Y-110842918D01*
X160790368Y-110755110D01*
X160568719Y-110695720D01*
X160530696Y-110690714D01*
X160341222Y-110665768D01*
X160341215Y-110665768D01*
X160111747Y-110665768D01*
X160111739Y-110665768D01*
X159902784Y-110693279D01*
X159884243Y-110695720D01*
X159835140Y-110708877D01*
X159662593Y-110755110D01*
X159450604Y-110842918D01*
X159450590Y-110842925D01*
X159251863Y-110957660D01*
X159069819Y-111097349D01*
X158963661Y-111203507D01*
X158902338Y-111236992D01*
X158832646Y-111232008D01*
X158776713Y-111190136D01*
X158752296Y-111124672D01*
X158751980Y-111115826D01*
X158751980Y-111068397D01*
X158751979Y-111068391D01*
X158749992Y-111049909D01*
X158745572Y-111008785D01*
X158740341Y-110994761D01*
X158695278Y-110873939D01*
X158695274Y-110873932D01*
X158609028Y-110758723D01*
X158609025Y-110758720D01*
X158493816Y-110672474D01*
X158493809Y-110672470D01*
X158358963Y-110622176D01*
X158358964Y-110622176D01*
X158299364Y-110615769D01*
X158299362Y-110615768D01*
X158299354Y-110615768D01*
X158299345Y-110615768D01*
X155603610Y-110615768D01*
X155603604Y-110615769D01*
X155543997Y-110622176D01*
X155409152Y-110672470D01*
X155409149Y-110672472D01*
X155317561Y-110741035D01*
X155252096Y-110765452D01*
X155243250Y-110765768D01*
X153172231Y-110765768D01*
X153105192Y-110746083D01*
X153059437Y-110693279D01*
X153048231Y-110641768D01*
X153048231Y-107569211D01*
X153043374Y-107551087D01*
X153043373Y-107551083D01*
X153034533Y-107518093D01*
X153020943Y-107467372D01*
X153020172Y-107464493D01*
X153007309Y-107416486D01*
X153007307Y-107416481D01*
X152928255Y-107279558D01*
X152928249Y-107279550D01*
X152839165Y-107190466D01*
X152805680Y-107129143D01*
X152810664Y-107059451D01*
X152852536Y-107003518D01*
X152879400Y-106988221D01*
X152885777Y-106985579D01*
X152885785Y-106985577D01*
X152885792Y-106985573D01*
X152936640Y-106956216D01*
X152936641Y-106956215D01*
X153022716Y-106906520D01*
X153134520Y-106794716D01*
X153134520Y-106794714D01*
X153144724Y-106784511D01*
X153144727Y-106784506D01*
X154912520Y-105016716D01*
X154991577Y-104879784D01*
X155032501Y-104727057D01*
X155032501Y-104568942D01*
X155032501Y-104561347D01*
X155032500Y-104561329D01*
X155032500Y-103752844D01*
X185520600Y-103752844D01*
X185527001Y-103812372D01*
X185527003Y-103812379D01*
X185577245Y-103947086D01*
X185577249Y-103947093D01*
X185663409Y-104062187D01*
X185663412Y-104062190D01*
X185778506Y-104148350D01*
X185778513Y-104148354D01*
X185913220Y-104198596D01*
X185913227Y-104198598D01*
X185972755Y-104204999D01*
X185972772Y-104205000D01*
X187668428Y-104205000D01*
X187668444Y-104204999D01*
X187727972Y-104198598D01*
X187727979Y-104198596D01*
X187862686Y-104148354D01*
X187862693Y-104148350D01*
X187977787Y-104062190D01*
X187977790Y-104062187D01*
X188063950Y-103947093D01*
X188063954Y-103947086D01*
X188114196Y-103812379D01*
X188114198Y-103812372D01*
X188120599Y-103752844D01*
X192320600Y-103752844D01*
X192327001Y-103812372D01*
X192327003Y-103812379D01*
X192377245Y-103947086D01*
X192377249Y-103947093D01*
X192463409Y-104062187D01*
X192463412Y-104062190D01*
X192578506Y-104148350D01*
X192578513Y-104148354D01*
X192713220Y-104198596D01*
X192713227Y-104198598D01*
X192772755Y-104204999D01*
X192772772Y-104205000D01*
X194468428Y-104205000D01*
X194468444Y-104204999D01*
X194527972Y-104198598D01*
X194527979Y-104198596D01*
X194662686Y-104148354D01*
X194662693Y-104148350D01*
X194777787Y-104062190D01*
X194777790Y-104062187D01*
X194863950Y-103947093D01*
X194863954Y-103947086D01*
X194914196Y-103812379D01*
X194914198Y-103812372D01*
X194920599Y-103752844D01*
X194920600Y-103752827D01*
X194920600Y-103658553D01*
X193620600Y-102358553D01*
X192320600Y-103658552D01*
X192320600Y-103752844D01*
X188120599Y-103752844D01*
X188120600Y-103752827D01*
X188120600Y-103658553D01*
X186820600Y-102358553D01*
X185520600Y-103658552D01*
X185520600Y-103752844D01*
X155032500Y-103752844D01*
X155032500Y-101619090D01*
X155052185Y-101552051D01*
X155104101Y-101506706D01*
X155109830Y-101504035D01*
X155303401Y-101368495D01*
X155470495Y-101201401D01*
X155570519Y-101058552D01*
X185520600Y-101058552D01*
X185520600Y-102951447D01*
X186467047Y-102005000D01*
X187174153Y-102005000D01*
X188120599Y-102951447D01*
X188120600Y-102951446D01*
X188120600Y-101058553D01*
X188120599Y-101058552D01*
X192320600Y-101058552D01*
X192320600Y-102951447D01*
X193267047Y-102005000D01*
X193974153Y-102005000D01*
X194920599Y-102951447D01*
X194920600Y-102951446D01*
X194920600Y-101058553D01*
X194920599Y-101058552D01*
X193974153Y-102004999D01*
X193974153Y-102005000D01*
X193267047Y-102005000D01*
X193267047Y-102004999D01*
X192320600Y-101058552D01*
X188120599Y-101058552D01*
X187174153Y-102004999D01*
X187174153Y-102005000D01*
X186467047Y-102005000D01*
X186467047Y-102004999D01*
X185520600Y-101058552D01*
X155570519Y-101058552D01*
X155606035Y-101007830D01*
X155705903Y-100793663D01*
X155767063Y-100565408D01*
X155785783Y-100351447D01*
X185520600Y-100351447D01*
X186820600Y-101651447D01*
X188120599Y-100351447D01*
X192320600Y-100351447D01*
X193620600Y-101651447D01*
X194920599Y-100351447D01*
X194920600Y-100351446D01*
X194920600Y-100257172D01*
X194920599Y-100257155D01*
X194914198Y-100197627D01*
X194914196Y-100197620D01*
X194863954Y-100062913D01*
X194863950Y-100062906D01*
X194777790Y-99947812D01*
X194777787Y-99947809D01*
X194662693Y-99861649D01*
X194662686Y-99861645D01*
X194527979Y-99811403D01*
X194527972Y-99811401D01*
X194468444Y-99805000D01*
X192772755Y-99805000D01*
X192713227Y-99811401D01*
X192713220Y-99811403D01*
X192578513Y-99861645D01*
X192578506Y-99861649D01*
X192463412Y-99947809D01*
X192463409Y-99947812D01*
X192377249Y-100062906D01*
X192377245Y-100062913D01*
X192327003Y-100197620D01*
X192327001Y-100197627D01*
X192320600Y-100257155D01*
X192320600Y-100351447D01*
X188120599Y-100351447D01*
X188120600Y-100351446D01*
X188120600Y-100257172D01*
X188120599Y-100257155D01*
X188114198Y-100197627D01*
X188114196Y-100197620D01*
X188063954Y-100062913D01*
X188063950Y-100062906D01*
X187977790Y-99947812D01*
X187977787Y-99947809D01*
X187862693Y-99861649D01*
X187862686Y-99861645D01*
X187727979Y-99811403D01*
X187727972Y-99811401D01*
X187668444Y-99805000D01*
X185972755Y-99805000D01*
X185913227Y-99811401D01*
X185913220Y-99811403D01*
X185778513Y-99861645D01*
X185778506Y-99861649D01*
X185663412Y-99947809D01*
X185663409Y-99947812D01*
X185577249Y-100062906D01*
X185577245Y-100062913D01*
X185527003Y-100197620D01*
X185527001Y-100197627D01*
X185520600Y-100257155D01*
X185520600Y-100351447D01*
X155785783Y-100351447D01*
X155787659Y-100330000D01*
X155767063Y-100094592D01*
X155705903Y-99866337D01*
X155606035Y-99652171D01*
X155600425Y-99644158D01*
X155470494Y-99458597D01*
X155303402Y-99291506D01*
X155303395Y-99291501D01*
X155109834Y-99155967D01*
X155109830Y-99155965D01*
X155109828Y-99155964D01*
X154895663Y-99056097D01*
X154895659Y-99056096D01*
X154895655Y-99056094D01*
X154844079Y-99042275D01*
X154784418Y-99005910D01*
X154753889Y-98943063D01*
X154762184Y-98873688D01*
X154806669Y-98819810D01*
X154873221Y-98798535D01*
X154876172Y-98798500D01*
X197038300Y-98798500D01*
X197105339Y-98818185D01*
X197151094Y-98870989D01*
X197162300Y-98922500D01*
X197162300Y-127008788D01*
X197142615Y-127075827D01*
X197089811Y-127121582D01*
X197039274Y-127132784D01*
X150300796Y-127500053D01*
X150233604Y-127480896D01*
X150187436Y-127428453D01*
X150176949Y-127359375D01*
X150200557Y-127301744D01*
X150228432Y-127264509D01*
X150228434Y-127264505D01*
X150278676Y-127129798D01*
X150278678Y-127129791D01*
X150285079Y-127070263D01*
X150285080Y-127070246D01*
X150285080Y-126370719D01*
X148091280Y-126370719D01*
X148091280Y-127070263D01*
X148097681Y-127129791D01*
X148097683Y-127129798D01*
X148147925Y-127264505D01*
X148147926Y-127264507D01*
X148188806Y-127319115D01*
X148213223Y-127384579D01*
X148198372Y-127452852D01*
X148148967Y-127502258D01*
X148090513Y-127517422D01*
X145673576Y-127536414D01*
X145606384Y-127517257D01*
X145560216Y-127464814D01*
X145549729Y-127395736D01*
X145573336Y-127338106D01*
X145628432Y-127264508D01*
X145628434Y-127264505D01*
X145678676Y-127129798D01*
X145678678Y-127129791D01*
X145685079Y-127070263D01*
X145685080Y-127070246D01*
X145685080Y-126370719D01*
X143491280Y-126370719D01*
X143491280Y-127070263D01*
X143497681Y-127129791D01*
X143497683Y-127129798D01*
X143547925Y-127264505D01*
X143547929Y-127264512D01*
X143615707Y-127355051D01*
X143640125Y-127420515D01*
X143625274Y-127488788D01*
X143575869Y-127538194D01*
X143517415Y-127553358D01*
X142146197Y-127564133D01*
X142079005Y-127544976D01*
X142032837Y-127492533D01*
X142022350Y-127423455D01*
X142045957Y-127365825D01*
X142071983Y-127331058D01*
X142071985Y-127331055D01*
X142122227Y-127196348D01*
X142122229Y-127196341D01*
X142128630Y-127136813D01*
X142128631Y-127136796D01*
X142128631Y-126437269D01*
X139934831Y-126437269D01*
X139934831Y-127136813D01*
X139941232Y-127196341D01*
X139941234Y-127196348D01*
X139991476Y-127331055D01*
X139991480Y-127331062D01*
X140030528Y-127383223D01*
X140054946Y-127448687D01*
X140040095Y-127516960D01*
X139990690Y-127566366D01*
X139932236Y-127581530D01*
X137518977Y-127600493D01*
X137451785Y-127581336D01*
X137405617Y-127528893D01*
X137395130Y-127459815D01*
X137418737Y-127402185D01*
X137471983Y-127331058D01*
X137471985Y-127331055D01*
X137522227Y-127196348D01*
X137522229Y-127196341D01*
X137528630Y-127136813D01*
X137528631Y-127136796D01*
X137528631Y-126437269D01*
X135334831Y-126437269D01*
X135334831Y-127136813D01*
X135341232Y-127196341D01*
X135341234Y-127196348D01*
X135391476Y-127331055D01*
X135391477Y-127331057D01*
X135457430Y-127419158D01*
X135481847Y-127484622D01*
X135466996Y-127552895D01*
X135417591Y-127602301D01*
X135359137Y-127617465D01*
X133764519Y-127629996D01*
X133697327Y-127610839D01*
X133651159Y-127558396D01*
X133640256Y-127492738D01*
X133641830Y-127478097D01*
X133641831Y-127478095D01*
X133641831Y-127280268D01*
X131041831Y-127280268D01*
X131041831Y-127478106D01*
X131043960Y-127497909D01*
X131031552Y-127566668D01*
X130983940Y-127617804D01*
X130920472Y-127635160D01*
X120264526Y-127618110D01*
X120197518Y-127598318D01*
X120151847Y-127545441D01*
X120141435Y-127480847D01*
X120141731Y-127478095D01*
X120141731Y-127280268D01*
X117541731Y-127280268D01*
X117541731Y-127478095D01*
X117541909Y-127481421D01*
X117540601Y-127481490D01*
X117529131Y-127545062D01*
X117481520Y-127596199D01*
X117418050Y-127613556D01*
X104408702Y-127592742D01*
X104341694Y-127572950D01*
X104296023Y-127520073D01*
X104284900Y-127468742D01*
X104284900Y-126560158D01*
X104304585Y-126493119D01*
X104357389Y-126447364D01*
X104426547Y-126437420D01*
X104490103Y-126466445D01*
X104496581Y-126472477D01*
X104538599Y-126514495D01*
X104612286Y-126566091D01*
X104732165Y-126650032D01*
X104732167Y-126650033D01*
X104732170Y-126650035D01*
X104946337Y-126749903D01*
X105174592Y-126811063D01*
X105325420Y-126824259D01*
X105409999Y-126831659D01*
X105410000Y-126831659D01*
X105410001Y-126831659D01*
X105449234Y-126828226D01*
X105645408Y-126811063D01*
X105873663Y-126749903D01*
X106087830Y-126650035D01*
X106281401Y-126514495D01*
X106448495Y-126347401D01*
X106584035Y-126153830D01*
X106683903Y-125939663D01*
X106745063Y-125711408D01*
X106765659Y-125476000D01*
X106745063Y-125240592D01*
X106684827Y-125015784D01*
X106683905Y-125012344D01*
X106683904Y-125012343D01*
X106683903Y-125012337D01*
X106584035Y-124798171D01*
X106579695Y-124791972D01*
X106448494Y-124604597D01*
X106281402Y-124437506D01*
X106281396Y-124437501D01*
X106095842Y-124307575D01*
X106052217Y-124252998D01*
X106045023Y-124183500D01*
X106076546Y-124121145D01*
X106095842Y-124104425D01*
X106174141Y-124049599D01*
X106281401Y-123974495D01*
X106448495Y-123807401D01*
X106584035Y-123613830D01*
X106683903Y-123399663D01*
X106745063Y-123171408D01*
X106765659Y-122936000D01*
X106745063Y-122700592D01*
X106693041Y-122506440D01*
X106683905Y-122472344D01*
X106683904Y-122472343D01*
X106683903Y-122472337D01*
X106584035Y-122258171D01*
X106580557Y-122253203D01*
X106448494Y-122064597D01*
X106281402Y-121897506D01*
X106281396Y-121897501D01*
X106095842Y-121767575D01*
X106052217Y-121712998D01*
X106045023Y-121643500D01*
X106076546Y-121581145D01*
X106095842Y-121564425D01*
X106202573Y-121489691D01*
X106281401Y-121434495D01*
X106448495Y-121267401D01*
X106584035Y-121073830D01*
X106683903Y-120859663D01*
X106745063Y-120631408D01*
X106765659Y-120396000D01*
X106745063Y-120160592D01*
X106683903Y-119932337D01*
X106584035Y-119718171D01*
X106565673Y-119691946D01*
X106448494Y-119524597D01*
X106281402Y-119357506D01*
X106281396Y-119357501D01*
X106095842Y-119227575D01*
X106052217Y-119172998D01*
X106045023Y-119103500D01*
X106076546Y-119041145D01*
X106095842Y-119024425D01*
X106153349Y-118984158D01*
X106281401Y-118894495D01*
X106448495Y-118727401D01*
X106584035Y-118533830D01*
X106683903Y-118319663D01*
X106745063Y-118091408D01*
X106765659Y-117856000D01*
X106745063Y-117620592D01*
X106683903Y-117392337D01*
X106584035Y-117178171D01*
X106580793Y-117173540D01*
X106448494Y-116984597D01*
X106281402Y-116817506D01*
X106281396Y-116817501D01*
X106095842Y-116687575D01*
X106052217Y-116632998D01*
X106045023Y-116563500D01*
X106076546Y-116501145D01*
X106095842Y-116484425D01*
X106136985Y-116455616D01*
X106281401Y-116354495D01*
X106448495Y-116187401D01*
X106584035Y-115993830D01*
X106683903Y-115779663D01*
X106745063Y-115551408D01*
X106765659Y-115316000D01*
X106745063Y-115080592D01*
X106683903Y-114852337D01*
X106584035Y-114638171D01*
X106583259Y-114637063D01*
X106448496Y-114444600D01*
X106390348Y-114386452D01*
X106326567Y-114322671D01*
X106293084Y-114261351D01*
X106298068Y-114191659D01*
X106339939Y-114135725D01*
X106370915Y-114118810D01*
X106502331Y-114069796D01*
X106617546Y-113983546D01*
X106703796Y-113868331D01*
X106754091Y-113733483D01*
X106760500Y-113673873D01*
X106760499Y-111878128D01*
X106754485Y-111822178D01*
X106754091Y-111818516D01*
X106703797Y-111683671D01*
X106703793Y-111683664D01*
X106617547Y-111568455D01*
X106617544Y-111568452D01*
X106502335Y-111482206D01*
X106502328Y-111482202D01*
X106367482Y-111431908D01*
X106367483Y-111431908D01*
X106307883Y-111425501D01*
X106307881Y-111425500D01*
X106307873Y-111425500D01*
X106307864Y-111425500D01*
X104512129Y-111425500D01*
X104512123Y-111425501D01*
X104452515Y-111431909D01*
X104452223Y-111432018D01*
X104451979Y-111432035D01*
X104444969Y-111433692D01*
X104444700Y-111432555D01*
X104382531Y-111436996D01*
X104321211Y-111403506D01*
X104287731Y-111342180D01*
X104284900Y-111315832D01*
X104284900Y-98922500D01*
X104304585Y-98855461D01*
X104357389Y-98809706D01*
X104408900Y-98798500D01*
X115189691Y-98798500D01*
X115256730Y-98818185D01*
G37*
G04 #@! TD.AperFunction*
G04 #@! TA.AperFunction,Conductor*
G36*
X164997884Y-121565453D02*
G01*
X165036383Y-121604669D01*
X165088089Y-121688500D01*
X165094520Y-121698925D01*
X165179132Y-121783537D01*
X165212617Y-121844860D01*
X165208493Y-121912172D01*
X165151863Y-122074010D01*
X165151861Y-122074018D01*
X165131666Y-122253264D01*
X165131666Y-122253271D01*
X165151861Y-122432517D01*
X165151863Y-122432525D01*
X165196569Y-122560287D01*
X165200130Y-122630065D01*
X165167209Y-122688922D01*
X165094518Y-122761613D01*
X165002418Y-122910931D01*
X165002416Y-122910936D01*
X164982000Y-122972548D01*
X164947232Y-123077471D01*
X164947232Y-123077472D01*
X164947231Y-123077472D01*
X164936731Y-123180251D01*
X164936731Y-123780269D01*
X164936732Y-123780287D01*
X164947231Y-123883064D01*
X164947232Y-123883067D01*
X164977528Y-123974493D01*
X165002417Y-124049602D01*
X165094519Y-124198924D01*
X165218575Y-124322980D01*
X165315068Y-124382497D01*
X165330412Y-124391961D01*
X165377136Y-124443909D01*
X165388359Y-124512872D01*
X165360515Y-124576954D01*
X165302447Y-124615810D01*
X165265315Y-124621500D01*
X164683312Y-124621500D01*
X164616273Y-124601815D01*
X164595631Y-124585181D01*
X164163299Y-124152849D01*
X164129814Y-124091526D01*
X164126980Y-124065168D01*
X164126980Y-123399088D01*
X164111989Y-123285212D01*
X164111988Y-123285204D01*
X164053293Y-123143504D01*
X164031613Y-123115250D01*
X164012501Y-123090342D01*
X163987307Y-123025173D01*
X164001346Y-122956728D01*
X164012502Y-122939369D01*
X164052856Y-122886779D01*
X164052859Y-122886773D01*
X164111499Y-122745202D01*
X164111501Y-122745197D01*
X164126481Y-122631413D01*
X164126481Y-122515267D01*
X162800481Y-122515267D01*
X162733442Y-122495582D01*
X162687687Y-122442778D01*
X162676481Y-122391267D01*
X162676481Y-122139267D01*
X162696166Y-122072228D01*
X162748970Y-122026473D01*
X162800481Y-122015267D01*
X164126481Y-122015267D01*
X164126481Y-121899120D01*
X164111501Y-121785336D01*
X164111500Y-121785334D01*
X164083287Y-121717221D01*
X164075818Y-121647751D01*
X164107093Y-121585272D01*
X164167182Y-121549620D01*
X164197848Y-121545768D01*
X164930845Y-121545768D01*
X164997884Y-121565453D01*
G37*
G04 #@! TD.AperFunction*
G04 #@! TA.AperFunction,Conductor*
G36*
X183217504Y-117382134D02*
G01*
X183265114Y-117433271D01*
X183278231Y-117488776D01*
X183278231Y-117612019D01*
X183281132Y-117648885D01*
X183281133Y-117648891D01*
X183326985Y-117806711D01*
X183326986Y-117806714D01*
X183326987Y-117806716D01*
X183361463Y-117865012D01*
X183378731Y-117928132D01*
X183378731Y-118193613D01*
X183404978Y-118217876D01*
X183440845Y-118277837D01*
X183438600Y-118347671D01*
X183414202Y-118387332D01*
X183415433Y-118388287D01*
X183410648Y-118394455D01*
X183326986Y-118535921D01*
X183326985Y-118535924D01*
X183281133Y-118693744D01*
X183281132Y-118693750D01*
X183278231Y-118730616D01*
X183278231Y-119465936D01*
X183258546Y-119532975D01*
X183205742Y-119578730D01*
X183136584Y-119588674D01*
X183123738Y-119586128D01*
X183072738Y-119573189D01*
X183012598Y-119537623D01*
X182981233Y-119475189D01*
X182979231Y-119452997D01*
X182979231Y-118730631D01*
X182979230Y-118730616D01*
X182976329Y-118693750D01*
X182976328Y-118693744D01*
X182930476Y-118535924D01*
X182930475Y-118535921D01*
X182930475Y-118535920D01*
X182846812Y-118394453D01*
X182846809Y-118394450D01*
X182842029Y-118388287D01*
X182843713Y-118386980D01*
X182815488Y-118335290D01*
X182820472Y-118265598D01*
X182852483Y-118217875D01*
X182878731Y-118193611D01*
X182878731Y-117928132D01*
X182895998Y-117865012D01*
X182930475Y-117806716D01*
X182966610Y-117682339D01*
X182976328Y-117648891D01*
X182976329Y-117648885D01*
X182976999Y-117640368D01*
X182979231Y-117612012D01*
X182979231Y-117594633D01*
X182998916Y-117527594D01*
X183000130Y-117525740D01*
X183003094Y-117521304D01*
X183012163Y-117507732D01*
X183012164Y-117507728D01*
X183012166Y-117507726D01*
X183039670Y-117441324D01*
X183083510Y-117386920D01*
X183149804Y-117364855D01*
X183217504Y-117382134D01*
G37*
G04 #@! TD.AperFunction*
G04 #@! TA.AperFunction,Conductor*
G36*
X124580941Y-107783185D02*
G01*
X124626696Y-107835989D01*
X124636640Y-107905147D01*
X124607615Y-107968703D01*
X124601583Y-107975181D01*
X121583314Y-110993449D01*
X121521991Y-111026934D01*
X121495633Y-111029768D01*
X120743860Y-111029768D01*
X120743854Y-111029769D01*
X120684246Y-111036177D01*
X120676702Y-111037960D01*
X120676359Y-111036511D01*
X120615315Y-111040873D01*
X120600188Y-111036431D01*
X120599110Y-111036176D01*
X120539514Y-111029769D01*
X120539512Y-111029768D01*
X120539504Y-111029768D01*
X120539496Y-111029768D01*
X120115993Y-111029768D01*
X120048954Y-111010083D01*
X120028312Y-110993449D01*
X119666667Y-110631804D01*
X119524467Y-110489604D01*
X119496217Y-110470728D01*
X119441896Y-110434432D01*
X119376975Y-110391053D01*
X119376973Y-110391052D01*
X119295038Y-110357114D01*
X119295037Y-110357114D01*
X119213097Y-110323173D01*
X119213089Y-110323171D01*
X119060106Y-110292741D01*
X118998195Y-110260356D01*
X118963621Y-110199641D01*
X118967360Y-110129871D01*
X118996616Y-110083442D01*
X119072648Y-110007410D01*
X119164687Y-109858192D01*
X119164689Y-109858187D01*
X119219836Y-109691765D01*
X119219837Y-109691758D01*
X119230330Y-109589054D01*
X119230331Y-109589041D01*
X119230331Y-109539068D01*
X116965931Y-109539068D01*
X116961316Y-109543682D01*
X116946246Y-109595007D01*
X116893442Y-109640762D01*
X116841931Y-109651968D01*
X114972932Y-109651968D01*
X114972932Y-109751122D01*
X114983250Y-109852120D01*
X115037477Y-110015768D01*
X115037482Y-110015779D01*
X115127983Y-110162502D01*
X115127986Y-110162506D01*
X115141913Y-110176433D01*
X115175398Y-110237756D01*
X115170414Y-110307448D01*
X115141915Y-110351793D01*
X115127592Y-110366116D01*
X115037024Y-110512949D01*
X115037023Y-110512952D01*
X114982757Y-110676715D01*
X114982757Y-110676716D01*
X114982756Y-110676716D01*
X114972431Y-110777783D01*
X114972431Y-111476137D01*
X114972432Y-111476155D01*
X114982756Y-111577220D01*
X114999823Y-111628723D01*
X115032312Y-111726768D01*
X115037023Y-111740983D01*
X115037024Y-111740986D01*
X115048738Y-111759977D01*
X115127591Y-111887818D01*
X115249581Y-112009808D01*
X115396415Y-112100376D01*
X115560178Y-112154642D01*
X115661254Y-112164968D01*
X116234607Y-112164967D01*
X116234615Y-112164966D01*
X116234618Y-112164966D01*
X116289961Y-112159312D01*
X116335684Y-112154642D01*
X116499447Y-112100376D01*
X116499452Y-112100372D01*
X116505505Y-112098367D01*
X116568701Y-112094456D01*
X116574263Y-112095562D01*
X116574265Y-112095563D01*
X116748236Y-112130167D01*
X116748238Y-112130168D01*
X116748239Y-112130168D01*
X116925624Y-112130168D01*
X116925624Y-112130167D01*
X117099597Y-112095563D01*
X117099597Y-112095562D01*
X117101311Y-112095222D01*
X117170902Y-112101449D01*
X117190595Y-112111298D01*
X117210997Y-112123882D01*
X117377534Y-112179067D01*
X117480322Y-112189568D01*
X118530339Y-112189567D01*
X118605181Y-112181921D01*
X118673871Y-112194690D01*
X118705461Y-112217597D01*
X119154813Y-112666950D01*
X119188297Y-112728271D01*
X119191131Y-112754629D01*
X119191131Y-112805668D01*
X119171446Y-112872707D01*
X119118642Y-112918462D01*
X119067131Y-112929668D01*
X117993860Y-112929668D01*
X117993854Y-112929669D01*
X117934247Y-112936076D01*
X117799402Y-112986370D01*
X117799395Y-112986374D01*
X117684186Y-113072620D01*
X117684183Y-113072623D01*
X117597938Y-113187831D01*
X117596704Y-113190092D01*
X117594881Y-113191914D01*
X117592619Y-113194937D01*
X117592184Y-113194611D01*
X117547300Y-113239499D01*
X117487870Y-113254668D01*
X114373910Y-113254668D01*
X114306871Y-113234983D01*
X114286229Y-113218349D01*
X113387819Y-112319939D01*
X113354334Y-112258616D01*
X113351500Y-112232258D01*
X113351500Y-109151968D01*
X114972931Y-109151968D01*
X115697931Y-109151968D01*
X116197931Y-109151968D01*
X116737331Y-109151968D01*
X116741945Y-109147353D01*
X116757016Y-109096029D01*
X116809820Y-109050274D01*
X116861331Y-109039068D01*
X117755331Y-109039068D01*
X117755331Y-108289068D01*
X118255331Y-108289068D01*
X118255331Y-109039068D01*
X119230330Y-109039068D01*
X119230330Y-108989096D01*
X119230329Y-108989081D01*
X119219836Y-108886370D01*
X119164689Y-108719948D01*
X119164687Y-108719943D01*
X119072646Y-108570722D01*
X118948676Y-108446752D01*
X118799455Y-108354711D01*
X118799450Y-108354709D01*
X118633028Y-108299562D01*
X118633021Y-108299561D01*
X118530317Y-108289068D01*
X118255331Y-108289068D01*
X117755331Y-108289068D01*
X117480360Y-108289068D01*
X117480343Y-108289069D01*
X117377633Y-108299562D01*
X117211211Y-108354709D01*
X117211206Y-108354711D01*
X117061985Y-108446752D01*
X116938014Y-108570723D01*
X116938009Y-108570729D01*
X116928458Y-108586214D01*
X116876509Y-108632937D01*
X116807546Y-108644157D01*
X116743465Y-108616311D01*
X116735241Y-108608795D01*
X116645969Y-108519523D01*
X116645965Y-108519520D01*
X116499242Y-108429019D01*
X116499231Y-108429014D01*
X116335583Y-108374787D01*
X116234585Y-108364468D01*
X116197931Y-108364468D01*
X116197931Y-109151968D01*
X115697931Y-109151968D01*
X115697931Y-108364468D01*
X115661292Y-108364468D01*
X115661274Y-108364469D01*
X115560278Y-108374787D01*
X115396630Y-108429014D01*
X115396619Y-108429019D01*
X115249896Y-108519520D01*
X115249892Y-108519523D01*
X115127986Y-108641429D01*
X115127983Y-108641433D01*
X115037482Y-108788156D01*
X115037477Y-108788167D01*
X114983250Y-108951815D01*
X114972931Y-109052813D01*
X114972931Y-109151968D01*
X113351500Y-109151968D01*
X113351500Y-109001742D01*
X113371185Y-108934703D01*
X113387819Y-108914061D01*
X114502061Y-107799819D01*
X114563384Y-107766334D01*
X114589742Y-107763500D01*
X124513902Y-107763500D01*
X124580941Y-107783185D01*
G37*
G04 #@! TD.AperFunction*
G04 #@! TA.AperFunction,Conductor*
G36*
X178560747Y-118191003D02*
G01*
X178606502Y-118243807D01*
X178616446Y-118312965D01*
X178587421Y-118376521D01*
X178581389Y-118382999D01*
X178561415Y-118402972D01*
X178469374Y-118552193D01*
X178469372Y-118552198D01*
X178414225Y-118718620D01*
X178414224Y-118718627D01*
X178403731Y-118821331D01*
X178403731Y-118958818D01*
X180853730Y-118958818D01*
X180853730Y-118821346D01*
X180853729Y-118821331D01*
X180843236Y-118718620D01*
X180788089Y-118552198D01*
X180788087Y-118552193D01*
X180696046Y-118402972D01*
X180676073Y-118382999D01*
X180642588Y-118321676D01*
X180647572Y-118251984D01*
X180689444Y-118196051D01*
X180754908Y-118171634D01*
X180763754Y-118171318D01*
X181435129Y-118171318D01*
X181502168Y-118191003D01*
X181547923Y-118243807D01*
X181557867Y-118312965D01*
X181528842Y-118376521D01*
X181522810Y-118382999D01*
X181511052Y-118394756D01*
X181511045Y-118394765D01*
X181427448Y-118536121D01*
X181427447Y-118536124D01*
X181381631Y-118693822D01*
X181381630Y-118693828D01*
X181378731Y-118730668D01*
X181378731Y-119058818D01*
X182304731Y-119058818D01*
X182371770Y-119078503D01*
X182417525Y-119131307D01*
X182428731Y-119182818D01*
X182428731Y-120468613D01*
X182428732Y-120468613D01*
X182431217Y-120468418D01*
X182588929Y-120422599D01*
X182730283Y-120339003D01*
X182730292Y-120338996D01*
X182846409Y-120222879D01*
X182846415Y-120222871D01*
X182897999Y-120135648D01*
X182949068Y-120087965D01*
X183017809Y-120075461D01*
X183082399Y-120102106D01*
X183122329Y-120159441D01*
X183128731Y-120198769D01*
X183128731Y-124547318D01*
X183109046Y-124614357D01*
X183056242Y-124660112D01*
X183004731Y-124671318D01*
X178252731Y-124671318D01*
X178185692Y-124651633D01*
X178139937Y-124598829D01*
X178128731Y-124547318D01*
X178128731Y-119458818D01*
X178403732Y-119458818D01*
X178403732Y-119596304D01*
X178414225Y-119699015D01*
X178469372Y-119865437D01*
X178469374Y-119865442D01*
X178561415Y-120014663D01*
X178685385Y-120138633D01*
X178834606Y-120230674D01*
X178834611Y-120230676D01*
X179001033Y-120285823D01*
X179001040Y-120285824D01*
X179103750Y-120296317D01*
X179378730Y-120296317D01*
X179378731Y-120296316D01*
X179378731Y-119458818D01*
X179878731Y-119458818D01*
X179878731Y-120296317D01*
X180153703Y-120296317D01*
X180153717Y-120296316D01*
X180256428Y-120285823D01*
X180422850Y-120230676D01*
X180422855Y-120230674D01*
X180572076Y-120138633D01*
X180696046Y-120014663D01*
X180788087Y-119865442D01*
X180788089Y-119865437D01*
X180843236Y-119699015D01*
X180843237Y-119699008D01*
X180853730Y-119596304D01*
X180853731Y-119596291D01*
X180853731Y-119558818D01*
X181378731Y-119558818D01*
X181378731Y-119886967D01*
X181381630Y-119923807D01*
X181381631Y-119923813D01*
X181427447Y-120081511D01*
X181427448Y-120081514D01*
X181511045Y-120222870D01*
X181511052Y-120222879D01*
X181627169Y-120338996D01*
X181627178Y-120339003D01*
X181768532Y-120422599D01*
X181926245Y-120468418D01*
X181926242Y-120468418D01*
X181928729Y-120468613D01*
X181928731Y-120468613D01*
X181928731Y-119558818D01*
X181378731Y-119558818D01*
X180853731Y-119558818D01*
X180853731Y-119458818D01*
X179878731Y-119458818D01*
X179378731Y-119458818D01*
X178403732Y-119458818D01*
X178128731Y-119458818D01*
X178128731Y-118295318D01*
X178148416Y-118228279D01*
X178201220Y-118182524D01*
X178252731Y-118171318D01*
X178493708Y-118171318D01*
X178560747Y-118191003D01*
G37*
G04 #@! TD.AperFunction*
M02*
