G04 #@! TF.GenerationSoftware,KiCad,Pcbnew,8.0.1*
G04 #@! TF.CreationDate,2024-04-21T21:17:43-05:00*
G04 #@! TF.ProjectId,uC_test_PCB,75435f74-6573-4745-9f50-43422e6b6963,rev?*
G04 #@! TF.SameCoordinates,Original*
G04 #@! TF.FileFunction,Legend,Bot*
G04 #@! TF.FilePolarity,Positive*
%FSLAX46Y46*%
G04 Gerber Fmt 4.6, Leading zero omitted, Abs format (unit mm)*
G04 Created by KiCad (PCBNEW 8.0.1) date 2024-04-21 21:17:43*
%MOMM*%
%LPD*%
G01*
G04 APERTURE LIST*
G04 Aperture macros list*
%AMRoundRect*
0 Rectangle with rounded corners*
0 $1 Rounding radius*
0 $2 $3 $4 $5 $6 $7 $8 $9 X,Y pos of 4 corners*
0 Add a 4 corners polygon primitive as box body*
4,1,4,$2,$3,$4,$5,$6,$7,$8,$9,$2,$3,0*
0 Add four circle primitives for the rounded corners*
1,1,$1+$1,$2,$3*
1,1,$1+$1,$4,$5*
1,1,$1+$1,$6,$7*
1,1,$1+$1,$8,$9*
0 Add four rect primitives between the rounded corners*
20,1,$1+$1,$2,$3,$4,$5,0*
20,1,$1+$1,$4,$5,$6,$7,0*
20,1,$1+$1,$6,$7,$8,$9,0*
20,1,$1+$1,$8,$9,$2,$3,0*%
G04 Aperture macros list end*
%ADD10C,0.150000*%
%ADD11C,0.100000*%
%ADD12C,0.254000*%
%ADD13C,0.127000*%
%ADD14C,0.152400*%
%ADD15C,0.120000*%
%ADD16C,0.203200*%
%ADD17C,1.701800*%
%ADD18C,3.000000*%
%ADD19C,5.000000*%
%ADD20C,0.990600*%
%ADD21R,2.600000X2.600000*%
%ADD22R,2.550000X2.500000*%
%ADD23RoundRect,0.082000X-0.618000X0.328000X-0.618000X-0.328000X0.618000X-0.328000X0.618000X0.328000X0*%
%ADD24R,1.700000X1.700000*%
%ADD25O,1.700000X1.700000*%
%ADD26RoundRect,0.050800X0.800000X0.400000X-0.800000X0.400000X-0.800000X-0.400000X0.800000X-0.400000X0*%
%ADD27RoundRect,0.050800X0.500000X0.350000X-0.500000X0.350000X-0.500000X-0.350000X0.500000X-0.350000X0*%
%ADD28RoundRect,0.050800X-0.800000X-0.400000X0.800000X-0.400000X0.800000X0.400000X-0.800000X0.400000X0*%
%ADD29RoundRect,0.050800X0.400000X-0.800000X0.400000X0.800000X-0.400000X0.800000X-0.400000X-0.800000X0*%
%ADD30R,0.600000X0.850000*%
%ADD31R,0.700000X0.800000*%
%ADD32R,0.609600X1.549400*%
%ADD33R,1.193800X1.803400*%
%ADD34RoundRect,0.150000X-0.150000X0.512500X-0.150000X-0.512500X0.150000X-0.512500X0.150000X0.512500X0*%
%ADD35RoundRect,0.200000X0.200000X0.275000X-0.200000X0.275000X-0.200000X-0.275000X0.200000X-0.275000X0*%
%ADD36RoundRect,0.250000X0.250000X-0.250000X0.250000X0.250000X-0.250000X0.250000X-0.250000X-0.250000X0*%
%ADD37RoundRect,0.225000X0.225000X0.250000X-0.225000X0.250000X-0.225000X-0.250000X0.225000X-0.250000X0*%
%ADD38RoundRect,0.200000X0.275000X-0.200000X0.275000X0.200000X-0.275000X0.200000X-0.275000X-0.200000X0*%
%ADD39RoundRect,0.250000X0.475000X-0.250000X0.475000X0.250000X-0.475000X0.250000X-0.475000X-0.250000X0*%
%ADD40RoundRect,0.250000X-0.475000X0.250000X-0.475000X-0.250000X0.475000X-0.250000X0.475000X0.250000X0*%
%ADD41RoundRect,0.250000X-0.475000X0.337500X-0.475000X-0.337500X0.475000X-0.337500X0.475000X0.337500X0*%
%ADD42RoundRect,0.200000X-0.275000X0.200000X-0.275000X-0.200000X0.275000X-0.200000X0.275000X0.200000X0*%
%ADD43RoundRect,0.200000X0.053033X-0.335876X0.335876X-0.053033X-0.053033X0.335876X-0.335876X0.053033X0*%
%ADD44RoundRect,0.237500X-0.237500X0.300000X-0.237500X-0.300000X0.237500X-0.300000X0.237500X0.300000X0*%
%ADD45RoundRect,0.050800X0.500000X2.300000X-0.500000X2.300000X-0.500000X-2.300000X0.500000X-2.300000X0*%
%ADD46RoundRect,0.050800X-0.800000X1.700000X-0.800000X-1.700000X0.800000X-1.700000X0.800000X1.700000X0*%
%ADD47RoundRect,0.200000X-0.200000X-0.275000X0.200000X-0.275000X0.200000X0.275000X-0.200000X0.275000X0*%
%ADD48RoundRect,0.225000X-0.250000X0.225000X-0.250000X-0.225000X0.250000X-0.225000X0.250000X0.225000X0*%
%ADD49RoundRect,0.225000X0.375000X-0.225000X0.375000X0.225000X-0.375000X0.225000X-0.375000X-0.225000X0*%
%ADD50RoundRect,0.250000X0.475000X-0.337500X0.475000X0.337500X-0.475000X0.337500X-0.475000X-0.337500X0*%
%ADD51RoundRect,0.150000X0.150000X-0.587500X0.150000X0.587500X-0.150000X0.587500X-0.150000X-0.587500X0*%
G04 APERTURE END LIST*
D10*
X153876481Y-113871268D02*
X153876481Y-114252268D01*
X153876481Y-117300268D02*
X153876481Y-117681268D01*
X154257481Y-117681268D02*
X153876481Y-117681268D01*
X156416481Y-111331268D02*
X165306481Y-111331268D01*
X157762319Y-117681268D02*
X156035481Y-117681268D01*
X165306481Y-111331268D02*
X165306481Y-111712268D01*
X165306481Y-114760268D02*
X165306481Y-115776268D01*
X165306481Y-115776268D02*
X160226481Y-115776268D01*
X167226481Y-112716268D02*
X167226481Y-112116268D01*
X153876481Y-113871268D02*
G75*
G02*
X156416481Y-111331268I2540000J0D01*
G01*
X157762320Y-117700228D02*
G75*
G02*
X160226481Y-115776269I2464161J-616040D01*
G01*
D11*
X164426481Y-124915267D02*
X163526481Y-124915267D01*
X164426481Y-124015267D01*
X164426481Y-124915267D01*
G36*
X164426481Y-124915267D02*
G01*
X163526481Y-124915267D01*
X164426481Y-124015267D01*
X164426481Y-124915267D01*
G37*
D12*
X118841731Y-112330268D02*
X132341831Y-112330268D01*
X118841731Y-130330268D02*
X118841731Y-112330268D01*
X132341731Y-127830268D02*
X118841731Y-127830268D01*
X132341831Y-112330268D02*
X132341831Y-130330268D01*
X132341831Y-130330268D02*
X118841731Y-130330268D01*
D13*
X142543738Y-111643267D02*
X142543738Y-112913267D01*
X142543738Y-112913267D02*
X144067738Y-112278267D01*
X144067738Y-112278267D02*
X142543738Y-111643267D01*
X144321738Y-109223306D02*
X144321738Y-112438269D01*
X144321738Y-112438269D02*
X145201690Y-112438269D01*
X149947502Y-107938268D02*
X145295958Y-107938268D01*
X150041770Y-112438269D02*
X150921725Y-112438269D01*
X150921725Y-112438269D02*
X150921725Y-109223306D01*
D14*
X136104731Y-121810268D02*
X136104731Y-124952829D01*
X137094190Y-121810268D02*
X136104731Y-121810268D01*
X137361371Y-127014268D02*
X140102091Y-127014268D01*
X141358731Y-121810268D02*
X140369272Y-121810268D01*
X141358731Y-124952829D02*
X141358731Y-121810268D01*
D15*
X181568731Y-117371318D02*
X181568731Y-118171318D01*
X181568731Y-118971318D02*
X181568731Y-118171318D01*
X184688731Y-117371318D02*
X184688731Y-118171318D01*
X184688731Y-118971318D02*
X184688731Y-118171318D01*
X181618731Y-116871318D02*
X181288731Y-117111318D01*
X181288731Y-116631318D01*
X181618731Y-116871318D01*
G36*
X181618731Y-116871318D02*
G01*
X181288731Y-117111318D01*
X181288731Y-116631318D01*
X181618731Y-116871318D01*
G37*
X193932542Y-121245100D02*
X194407058Y-121245100D01*
X193932542Y-122290100D02*
X194407058Y-122290100D01*
X165087231Y-120980268D02*
X165087231Y-124240268D01*
X165087231Y-124240268D02*
X166787231Y-124240268D01*
X166787231Y-120980268D02*
X166787231Y-124240268D01*
X154593151Y-123902268D02*
X154874311Y-123902268D01*
X154593151Y-124922268D02*
X154874311Y-124922268D01*
D14*
X144261180Y-121743718D02*
X144261180Y-124886279D01*
X145250639Y-121743718D02*
X144261180Y-121743718D01*
X145517820Y-126947718D02*
X148258540Y-126947718D01*
X149515180Y-121743718D02*
X148525721Y-121743718D01*
X149515180Y-124886279D02*
X149515180Y-121743718D01*
D15*
X189263231Y-115324010D02*
X189263231Y-115798526D01*
X190308231Y-115324010D02*
X190308231Y-115798526D01*
X175156931Y-111273216D02*
X175156931Y-111795720D01*
X176626931Y-111273216D02*
X176626931Y-111795720D01*
X117270331Y-110500320D02*
X117270331Y-109977816D01*
X118740331Y-110500320D02*
X118740331Y-109977816D01*
X194384731Y-113370520D02*
X194384731Y-112848016D01*
X195854731Y-113370520D02*
X195854731Y-112848016D01*
X190699731Y-114664268D02*
X190699731Y-115464268D01*
X190699731Y-116264268D02*
X190699731Y-115464268D01*
X193819731Y-114664268D02*
X193819731Y-115464268D01*
X193819731Y-116264268D02*
X193819731Y-115464268D01*
X190749731Y-114164268D02*
X190419731Y-114404268D01*
X190419731Y-113924268D01*
X190749731Y-114164268D01*
G36*
X190749731Y-114164268D02*
G01*
X190419731Y-114404268D01*
X190419731Y-113924268D01*
X190749731Y-114164268D01*
G37*
X147810431Y-118006926D02*
X147810431Y-117532410D01*
X148855431Y-118006926D02*
X148855431Y-117532410D01*
X137269431Y-117880926D02*
X137269431Y-117406410D01*
X138314431Y-117880926D02*
X138314431Y-117406410D01*
X132434034Y-109397038D02*
X132098501Y-109732571D01*
X133172961Y-110135965D02*
X132837428Y-110471498D01*
X130402034Y-108381038D02*
X130066501Y-108716571D01*
X131140961Y-109119965D02*
X130805428Y-109455498D01*
X115437931Y-110410735D02*
X115437931Y-110118201D01*
X116457931Y-110410735D02*
X116457931Y-110118201D01*
D16*
X186220600Y-104005000D02*
X186220600Y-108005000D01*
X186220600Y-108005000D02*
X187070600Y-108005000D01*
X187070600Y-105505000D02*
X188470600Y-105505000D01*
X187070600Y-108005000D02*
X187070600Y-105505000D01*
X191970600Y-105505000D02*
X193370600Y-105505000D01*
X192470600Y-100505000D02*
X187970600Y-100505000D01*
X193370600Y-105505000D02*
X193370600Y-108005000D01*
X193370600Y-108005000D02*
X194220600Y-108005000D01*
X194220600Y-108005000D02*
X194220600Y-104005000D01*
D15*
X192372989Y-118250968D02*
X191898473Y-118250968D01*
X192372989Y-119295968D02*
X191898473Y-119295968D01*
X176626531Y-120844448D02*
X176626531Y-120563288D01*
X177646531Y-120844448D02*
X177646531Y-120563288D01*
X186088231Y-113727526D02*
X186088231Y-113253010D01*
X187133231Y-113727526D02*
X187133231Y-113253010D01*
X177609731Y-110570268D02*
X177609731Y-114580268D01*
X177609731Y-114580268D02*
X179609731Y-114580268D01*
X179609731Y-110570268D02*
X179609731Y-114580268D01*
X189932542Y-121245100D02*
X190407058Y-121245100D01*
X189932542Y-122290100D02*
X190407058Y-122290100D01*
X178893731Y-118432570D02*
X178893731Y-117910066D01*
X180363731Y-118432570D02*
X180363731Y-117910066D01*
X175461731Y-115642016D02*
X175461731Y-116164520D01*
X176931731Y-115642016D02*
X176931731Y-116164520D01*
X183291989Y-114364768D02*
X182817473Y-114364768D01*
X183291989Y-115409768D02*
X182817473Y-115409768D01*
X181555731Y-111013768D02*
X181555731Y-111663768D01*
X181555731Y-112313768D02*
X181555731Y-111663768D01*
X184675731Y-111013768D02*
X184675731Y-111663768D01*
X184675731Y-112313768D02*
X184675731Y-111663768D01*
X184955731Y-113066268D02*
X184625731Y-112826268D01*
X184955731Y-112586268D01*
X184955731Y-113066268D01*
G36*
X184955731Y-113066268D02*
G01*
X184625731Y-112826268D01*
X184955731Y-112586268D01*
X184955731Y-113066268D01*
G37*
%LPC*%
D17*
X165726481Y-118316268D03*
X165306481Y-118316268D03*
D18*
X165226481Y-114566268D03*
X165226481Y-114516268D03*
X164626481Y-113616268D03*
X162766481Y-113236268D03*
D19*
X160226481Y-118316268D03*
D18*
X160226481Y-112416268D03*
X157626481Y-112566268D03*
X156416481Y-115776268D03*
D17*
X155146481Y-118316268D03*
D20*
X155006481Y-122516268D03*
D17*
X154726481Y-118316268D03*
D21*
X168501481Y-114516268D03*
X167901481Y-113616268D03*
D22*
X166516481Y-113236268D03*
D21*
X156951481Y-112416268D03*
X154351481Y-112566268D03*
D22*
X152666481Y-115776268D03*
D23*
X157526481Y-122265267D03*
X157526481Y-123765267D03*
X162926481Y-123765267D03*
X162926481Y-122265267D03*
D24*
X105410000Y-112776000D03*
D25*
X105410000Y-115316000D03*
X105410000Y-117856000D03*
X105410000Y-120396000D03*
X105410000Y-122936000D03*
X105410000Y-125476000D03*
D24*
X171958000Y-106426000D03*
D25*
X174498000Y-106426000D03*
X177038000Y-106426000D03*
X179578000Y-106426000D03*
D24*
X170180000Y-125222000D03*
D26*
X118841731Y-127030268D03*
X118841731Y-125930168D03*
X118841731Y-124830368D03*
X118841731Y-123730268D03*
X118841731Y-122630268D03*
X118841731Y-121530368D03*
X118841731Y-120430368D03*
X118841731Y-119330268D03*
X118841731Y-118230168D03*
X118841731Y-117130368D03*
X118841731Y-116030268D03*
X118841731Y-114930168D03*
X118841731Y-113830168D03*
D27*
X121341631Y-124830368D03*
X121341631Y-123730268D03*
X121341631Y-122630268D03*
X121341631Y-121530168D03*
X121341631Y-120430368D03*
X121341631Y-119330268D03*
X121341631Y-118230168D03*
X121341631Y-117130368D03*
X121341631Y-116030268D03*
X129841731Y-124830368D03*
X129841731Y-123730268D03*
X129841731Y-122630268D03*
X129841731Y-121530168D03*
X129841731Y-120430368D03*
X129841731Y-119330268D03*
X129841731Y-118230168D03*
X129841731Y-117130368D03*
X129841731Y-116030268D03*
D28*
X132341831Y-127030268D03*
X132341831Y-125930168D03*
X132341831Y-124830368D03*
X132341831Y-123730268D03*
X132341831Y-122630268D03*
X132341831Y-121530368D03*
X132341831Y-120430368D03*
X132341831Y-119330268D03*
X132341831Y-118230168D03*
X132341831Y-117130368D03*
X132341831Y-116030268D03*
X132341831Y-114930168D03*
X132341831Y-113830168D03*
D29*
X131091631Y-112330268D03*
X129991831Y-112330268D03*
X128891731Y-112330268D03*
X127791631Y-112330268D03*
X126691831Y-112330268D03*
X125591831Y-112330268D03*
X124491731Y-112330268D03*
X123391631Y-112330268D03*
X122291831Y-112330268D03*
X121191731Y-112330268D03*
X120091631Y-112330268D03*
D24*
X116332000Y-100330000D03*
D25*
X118872000Y-100330000D03*
X121412000Y-100330000D03*
X123952000Y-100330000D03*
X126492000Y-100330000D03*
X129032000Y-100330000D03*
X131572000Y-100330000D03*
X134112000Y-100330000D03*
X136652000Y-100330000D03*
X139192000Y-100330000D03*
X141732000Y-100330000D03*
X144272000Y-100330000D03*
X146812000Y-100330000D03*
X149352000Y-100330000D03*
X151892000Y-100330000D03*
X154432000Y-100330000D03*
D30*
X145821730Y-112278267D03*
X147021730Y-112278267D03*
X148221730Y-112278267D03*
X149421730Y-112278267D03*
D31*
X144671730Y-108503266D03*
X150571731Y-108503266D03*
D32*
X139731732Y-122312268D03*
X138731731Y-122312268D03*
X137731730Y-122312268D03*
D33*
X141031731Y-126187269D03*
X136431731Y-126187269D03*
D34*
X182178731Y-117033818D03*
X183128731Y-117033818D03*
X184078731Y-117033818D03*
X184078731Y-119308818D03*
X182178731Y-119308818D03*
D35*
X194994800Y-121767600D03*
X193344800Y-121767600D03*
D36*
X165937231Y-123480268D03*
X165937231Y-120980268D03*
D37*
X155508731Y-124412268D03*
X153958731Y-124412268D03*
D32*
X147888181Y-122245718D03*
X146888180Y-122245718D03*
X145888179Y-122245718D03*
D33*
X149188180Y-126120719D03*
X144588180Y-126120719D03*
D38*
X189785731Y-116386268D03*
X189785731Y-114736268D03*
D39*
X175891931Y-112484468D03*
X175891931Y-110584468D03*
D40*
X118005331Y-109289068D03*
X118005331Y-111189068D03*
D41*
X195119731Y-112071768D03*
X195119731Y-114146768D03*
D34*
X191309731Y-114326768D03*
X192259731Y-114326768D03*
X193209731Y-114326768D03*
X193209731Y-116601768D03*
X191309731Y-116601768D03*
D42*
X148332931Y-116944668D03*
X148332931Y-118594668D03*
X137791931Y-116818668D03*
X137791931Y-118468668D03*
D43*
X132052368Y-110517631D03*
X133219094Y-109350905D03*
X130020368Y-109501631D03*
X131187094Y-108334905D03*
D44*
X115947931Y-109401968D03*
X115947931Y-111126968D03*
D45*
X191220600Y-107205000D03*
X189220600Y-107205000D03*
D46*
X193620600Y-102005000D03*
X186820600Y-102005000D03*
D47*
X191310731Y-118773468D03*
X192960731Y-118773468D03*
D48*
X177136531Y-119928868D03*
X177136531Y-121478868D03*
D42*
X186610731Y-112665268D03*
X186610731Y-114315268D03*
D49*
X178609731Y-113870268D03*
X178609731Y-110570268D03*
D35*
X190994800Y-121767600D03*
X189344800Y-121767600D03*
D41*
X179628731Y-117133818D03*
X179628731Y-119208818D03*
D50*
X176196731Y-116940768D03*
X176196731Y-114865768D03*
D47*
X182229731Y-114887268D03*
X183879731Y-114887268D03*
D51*
X184065731Y-112601268D03*
X182165731Y-112601268D03*
X183115731Y-110726268D03*
%LPD*%
M02*
