G04 #@! TF.GenerationSoftware,KiCad,Pcbnew,8.0.1*
G04 #@! TF.CreationDate,2024-04-21T21:17:43-05:00*
G04 #@! TF.ProjectId,uC_test_PCB,75435f74-6573-4745-9f50-43422e6b6963,rev?*
G04 #@! TF.SameCoordinates,Original*
G04 #@! TF.FileFunction,Copper,L3,Inr*
G04 #@! TF.FilePolarity,Positive*
%FSLAX46Y46*%
G04 Gerber Fmt 4.6, Leading zero omitted, Abs format (unit mm)*
G04 Created by KiCad (PCBNEW 8.0.1) date 2024-04-21 21:17:43*
%MOMM*%
%LPD*%
G01*
G04 APERTURE LIST*
G04 #@! TA.AperFunction,ComponentPad*
%ADD10R,1.700000X1.700000*%
G04 #@! TD*
G04 #@! TA.AperFunction,ComponentPad*
%ADD11O,1.700000X1.700000*%
G04 #@! TD*
G04 #@! TA.AperFunction,ViaPad*
%ADD12C,0.800100*%
G04 #@! TD*
G04 #@! TA.AperFunction,ViaPad*
%ADD13C,0.600000*%
G04 #@! TD*
G04 APERTURE END LIST*
D10*
X105410000Y-112776000D03*
D11*
X105410000Y-115316000D03*
X105410000Y-117856000D03*
X105410000Y-120396000D03*
X105410000Y-122936000D03*
X105410000Y-125476000D03*
D10*
X171958000Y-106426000D03*
D11*
X174498000Y-106426000D03*
X177038000Y-106426000D03*
X179578000Y-106426000D03*
D10*
X170180000Y-125222000D03*
X116332000Y-100330000D03*
D11*
X118872000Y-100330000D03*
X121412000Y-100330000D03*
X123952000Y-100330000D03*
X126492000Y-100330000D03*
X129032000Y-100330000D03*
X131572000Y-100330000D03*
X134112000Y-100330000D03*
X136652000Y-100330000D03*
X139192000Y-100330000D03*
X141732000Y-100330000D03*
X144272000Y-100330000D03*
X146812000Y-100330000D03*
X149352000Y-100330000D03*
X151892000Y-100330000D03*
X154432000Y-100330000D03*
D12*
X129663931Y-114150668D03*
D13*
X123444000Y-122936000D03*
X128825731Y-120424468D03*
X117522731Y-115242868D03*
X127606531Y-123370868D03*
X190217531Y-118748068D03*
X128800331Y-121516668D03*
D12*
X180895731Y-110569268D03*
D13*
X128851131Y-117122468D03*
X192344800Y-121767600D03*
X135124931Y-115053868D03*
X165414431Y-108905568D03*
X148307531Y-116081068D03*
X144497531Y-123370868D03*
X184959731Y-112601268D03*
X128825731Y-119306868D03*
X163903131Y-107394268D03*
X137791931Y-116030268D03*
X164614331Y-108080068D03*
X134286731Y-119637068D03*
X130781531Y-115166668D03*
X128851131Y-118214668D03*
X166265331Y-109731068D03*
D12*
X145869131Y-113388668D03*
X194027531Y-116639868D03*
D13*
X172221731Y-117681268D03*
X129003531Y-116030268D03*
X147888181Y-121021118D03*
X165937231Y-122253268D03*
X127525082Y-122156918D03*
X116836931Y-111229668D03*
X156549731Y-124480268D03*
X182128731Y-120671318D03*
X181128731Y-120671318D03*
X180128731Y-123671318D03*
X181128731Y-122671318D03*
X182128731Y-121671318D03*
X180128731Y-121671318D03*
X179117731Y-123618268D03*
X180128731Y-122671318D03*
X181128731Y-123671318D03*
X182128731Y-123671318D03*
X179117731Y-122618268D03*
X179117731Y-120618268D03*
X180128731Y-120671318D03*
X181128731Y-119471418D03*
X181128731Y-121671318D03*
X119092631Y-111331268D03*
X120091631Y-112330268D03*
X179117731Y-121618268D03*
X182128731Y-122671318D03*
X116379731Y-112601268D03*
X177546000Y-116840000D03*
X119605531Y-109324668D03*
X114601731Y-110137468D03*
X114652531Y-110950268D03*
X173990000Y-117348000D03*
X118132331Y-112499668D03*
X115566931Y-112575868D03*
X176022000Y-118364000D03*
X114652531Y-111763068D03*
X114652531Y-112601268D03*
X164592000Y-122174000D03*
X119554731Y-108461068D03*
X117294131Y-112550468D03*
X183134000Y-118364000D03*
X119630931Y-110213668D03*
X114601731Y-109324668D03*
X114601731Y-108511868D03*
G04 #@! TA.AperFunction,Conductor*
G36*
X115256730Y-98818185D02*
G01*
X115302485Y-98870989D01*
X115312429Y-98940147D01*
X115283404Y-99003703D01*
X115246151Y-99029567D01*
X115247454Y-99031953D01*
X115239664Y-99036206D01*
X115124455Y-99122452D01*
X115124452Y-99122455D01*
X115038206Y-99237664D01*
X115038202Y-99237671D01*
X114987908Y-99372517D01*
X114981501Y-99432116D01*
X114981500Y-99432135D01*
X114981500Y-101227870D01*
X114981501Y-101227876D01*
X114987908Y-101287483D01*
X115038202Y-101422328D01*
X115038206Y-101422335D01*
X115124452Y-101537544D01*
X115124455Y-101537547D01*
X115239664Y-101623793D01*
X115239671Y-101623797D01*
X115374517Y-101674091D01*
X115374516Y-101674091D01*
X115381444Y-101674835D01*
X115434127Y-101680500D01*
X117229872Y-101680499D01*
X117289483Y-101674091D01*
X117424331Y-101623796D01*
X117539546Y-101537546D01*
X117625796Y-101422331D01*
X117674810Y-101290916D01*
X117716681Y-101234984D01*
X117782145Y-101210566D01*
X117850418Y-101225417D01*
X117878673Y-101246569D01*
X118000599Y-101368495D01*
X118097384Y-101436265D01*
X118194165Y-101504032D01*
X118194167Y-101504033D01*
X118194170Y-101504035D01*
X118408337Y-101603903D01*
X118636592Y-101665063D01*
X118813034Y-101680500D01*
X118871999Y-101685659D01*
X118872000Y-101685659D01*
X118872001Y-101685659D01*
X118930966Y-101680500D01*
X119107408Y-101665063D01*
X119335663Y-101603903D01*
X119549830Y-101504035D01*
X119743401Y-101368495D01*
X119910495Y-101201401D01*
X120040425Y-101015842D01*
X120095002Y-100972217D01*
X120164500Y-100965023D01*
X120226855Y-100996546D01*
X120243575Y-101015842D01*
X120373500Y-101201395D01*
X120373505Y-101201401D01*
X120540599Y-101368495D01*
X120637384Y-101436265D01*
X120734165Y-101504032D01*
X120734167Y-101504033D01*
X120734170Y-101504035D01*
X120948337Y-101603903D01*
X121176592Y-101665063D01*
X121353034Y-101680500D01*
X121411999Y-101685659D01*
X121412000Y-101685659D01*
X121412001Y-101685659D01*
X121470966Y-101680500D01*
X121647408Y-101665063D01*
X121875663Y-101603903D01*
X122089830Y-101504035D01*
X122283401Y-101368495D01*
X122450495Y-101201401D01*
X122580425Y-101015842D01*
X122635002Y-100972217D01*
X122704500Y-100965023D01*
X122766855Y-100996546D01*
X122783575Y-101015842D01*
X122913500Y-101201395D01*
X122913505Y-101201401D01*
X123080599Y-101368495D01*
X123177384Y-101436265D01*
X123274165Y-101504032D01*
X123274167Y-101504033D01*
X123274170Y-101504035D01*
X123488337Y-101603903D01*
X123716592Y-101665063D01*
X123893034Y-101680500D01*
X123951999Y-101685659D01*
X123952000Y-101685659D01*
X123952001Y-101685659D01*
X124010966Y-101680500D01*
X124187408Y-101665063D01*
X124415663Y-101603903D01*
X124629830Y-101504035D01*
X124823401Y-101368495D01*
X124990495Y-101201401D01*
X125120425Y-101015842D01*
X125175002Y-100972217D01*
X125244500Y-100965023D01*
X125306855Y-100996546D01*
X125323575Y-101015842D01*
X125453500Y-101201395D01*
X125453505Y-101201401D01*
X125620599Y-101368495D01*
X125717384Y-101436265D01*
X125814165Y-101504032D01*
X125814167Y-101504033D01*
X125814170Y-101504035D01*
X126028337Y-101603903D01*
X126256592Y-101665063D01*
X126433034Y-101680500D01*
X126491999Y-101685659D01*
X126492000Y-101685659D01*
X126492001Y-101685659D01*
X126550966Y-101680500D01*
X126727408Y-101665063D01*
X126955663Y-101603903D01*
X127169830Y-101504035D01*
X127363401Y-101368495D01*
X127530495Y-101201401D01*
X127660425Y-101015842D01*
X127715002Y-100972217D01*
X127784500Y-100965023D01*
X127846855Y-100996546D01*
X127863575Y-101015842D01*
X127993500Y-101201395D01*
X127993505Y-101201401D01*
X128160599Y-101368495D01*
X128257384Y-101436265D01*
X128354165Y-101504032D01*
X128354167Y-101504033D01*
X128354170Y-101504035D01*
X128568337Y-101603903D01*
X128796592Y-101665063D01*
X128973034Y-101680500D01*
X129031999Y-101685659D01*
X129032000Y-101685659D01*
X129032001Y-101685659D01*
X129090966Y-101680500D01*
X129267408Y-101665063D01*
X129495663Y-101603903D01*
X129709830Y-101504035D01*
X129903401Y-101368495D01*
X130070495Y-101201401D01*
X130200425Y-101015842D01*
X130255002Y-100972217D01*
X130324500Y-100965023D01*
X130386855Y-100996546D01*
X130403575Y-101015842D01*
X130533500Y-101201395D01*
X130533505Y-101201401D01*
X130700599Y-101368495D01*
X130797384Y-101436265D01*
X130894165Y-101504032D01*
X130894167Y-101504033D01*
X130894170Y-101504035D01*
X131108337Y-101603903D01*
X131336592Y-101665063D01*
X131513034Y-101680500D01*
X131571999Y-101685659D01*
X131572000Y-101685659D01*
X131572001Y-101685659D01*
X131630966Y-101680500D01*
X131807408Y-101665063D01*
X132035663Y-101603903D01*
X132249830Y-101504035D01*
X132443401Y-101368495D01*
X132610495Y-101201401D01*
X132740425Y-101015842D01*
X132795002Y-100972217D01*
X132864500Y-100965023D01*
X132926855Y-100996546D01*
X132943575Y-101015842D01*
X133073500Y-101201395D01*
X133073505Y-101201401D01*
X133240599Y-101368495D01*
X133337384Y-101436265D01*
X133434165Y-101504032D01*
X133434167Y-101504033D01*
X133434170Y-101504035D01*
X133648337Y-101603903D01*
X133876592Y-101665063D01*
X134053034Y-101680500D01*
X134111999Y-101685659D01*
X134112000Y-101685659D01*
X134112001Y-101685659D01*
X134170966Y-101680500D01*
X134347408Y-101665063D01*
X134575663Y-101603903D01*
X134789830Y-101504035D01*
X134983401Y-101368495D01*
X135150495Y-101201401D01*
X135280425Y-101015842D01*
X135335002Y-100972217D01*
X135404500Y-100965023D01*
X135466855Y-100996546D01*
X135483575Y-101015842D01*
X135613500Y-101201395D01*
X135613505Y-101201401D01*
X135780599Y-101368495D01*
X135877384Y-101436265D01*
X135974165Y-101504032D01*
X135974167Y-101504033D01*
X135974170Y-101504035D01*
X136188337Y-101603903D01*
X136416592Y-101665063D01*
X136593034Y-101680500D01*
X136651999Y-101685659D01*
X136652000Y-101685659D01*
X136652001Y-101685659D01*
X136710966Y-101680500D01*
X136887408Y-101665063D01*
X137115663Y-101603903D01*
X137329830Y-101504035D01*
X137523401Y-101368495D01*
X137690495Y-101201401D01*
X137820425Y-101015842D01*
X137875002Y-100972217D01*
X137944500Y-100965023D01*
X138006855Y-100996546D01*
X138023575Y-101015842D01*
X138153500Y-101201395D01*
X138153505Y-101201401D01*
X138320599Y-101368495D01*
X138417384Y-101436265D01*
X138514165Y-101504032D01*
X138514167Y-101504033D01*
X138514170Y-101504035D01*
X138728337Y-101603903D01*
X138956592Y-101665063D01*
X139133034Y-101680500D01*
X139191999Y-101685659D01*
X139192000Y-101685659D01*
X139192001Y-101685659D01*
X139250966Y-101680500D01*
X139427408Y-101665063D01*
X139655663Y-101603903D01*
X139869830Y-101504035D01*
X140063401Y-101368495D01*
X140230495Y-101201401D01*
X140360425Y-101015842D01*
X140415002Y-100972217D01*
X140484500Y-100965023D01*
X140546855Y-100996546D01*
X140563575Y-101015842D01*
X140693500Y-101201395D01*
X140693505Y-101201401D01*
X140860599Y-101368495D01*
X140957384Y-101436265D01*
X141054165Y-101504032D01*
X141054167Y-101504033D01*
X141054170Y-101504035D01*
X141268337Y-101603903D01*
X141496592Y-101665063D01*
X141673034Y-101680500D01*
X141731999Y-101685659D01*
X141732000Y-101685659D01*
X141732001Y-101685659D01*
X141790966Y-101680500D01*
X141967408Y-101665063D01*
X142195663Y-101603903D01*
X142409830Y-101504035D01*
X142603401Y-101368495D01*
X142770495Y-101201401D01*
X142900425Y-101015842D01*
X142955002Y-100972217D01*
X143024500Y-100965023D01*
X143086855Y-100996546D01*
X143103575Y-101015842D01*
X143233500Y-101201395D01*
X143233505Y-101201401D01*
X143400599Y-101368495D01*
X143497384Y-101436265D01*
X143594165Y-101504032D01*
X143594167Y-101504033D01*
X143594170Y-101504035D01*
X143808337Y-101603903D01*
X144036592Y-101665063D01*
X144213034Y-101680500D01*
X144271999Y-101685659D01*
X144272000Y-101685659D01*
X144272001Y-101685659D01*
X144330966Y-101680500D01*
X144507408Y-101665063D01*
X144735663Y-101603903D01*
X144949830Y-101504035D01*
X145143401Y-101368495D01*
X145310495Y-101201401D01*
X145440425Y-101015842D01*
X145495002Y-100972217D01*
X145564500Y-100965023D01*
X145626855Y-100996546D01*
X145643575Y-101015842D01*
X145773500Y-101201395D01*
X145773505Y-101201401D01*
X145940599Y-101368495D01*
X146037384Y-101436265D01*
X146134165Y-101504032D01*
X146134167Y-101504033D01*
X146134170Y-101504035D01*
X146348337Y-101603903D01*
X146576592Y-101665063D01*
X146753034Y-101680500D01*
X146811999Y-101685659D01*
X146812000Y-101685659D01*
X146812001Y-101685659D01*
X146870966Y-101680500D01*
X147047408Y-101665063D01*
X147275663Y-101603903D01*
X147489830Y-101504035D01*
X147683401Y-101368495D01*
X147850495Y-101201401D01*
X147980425Y-101015842D01*
X148035002Y-100972217D01*
X148104500Y-100965023D01*
X148166855Y-100996546D01*
X148183575Y-101015842D01*
X148313500Y-101201395D01*
X148313505Y-101201401D01*
X148480599Y-101368495D01*
X148577384Y-101436265D01*
X148674165Y-101504032D01*
X148674167Y-101504033D01*
X148674170Y-101504035D01*
X148888337Y-101603903D01*
X149116592Y-101665063D01*
X149293034Y-101680500D01*
X149351999Y-101685659D01*
X149352000Y-101685659D01*
X149352001Y-101685659D01*
X149410966Y-101680500D01*
X149587408Y-101665063D01*
X149815663Y-101603903D01*
X150029830Y-101504035D01*
X150223401Y-101368495D01*
X150390495Y-101201401D01*
X150520425Y-101015842D01*
X150575002Y-100972217D01*
X150644500Y-100965023D01*
X150706855Y-100996546D01*
X150723575Y-101015842D01*
X150853500Y-101201395D01*
X150853505Y-101201401D01*
X151020599Y-101368495D01*
X151117384Y-101436265D01*
X151214165Y-101504032D01*
X151214167Y-101504033D01*
X151214170Y-101504035D01*
X151428337Y-101603903D01*
X151656592Y-101665063D01*
X151833034Y-101680500D01*
X151891999Y-101685659D01*
X151892000Y-101685659D01*
X151892001Y-101685659D01*
X151950966Y-101680500D01*
X152127408Y-101665063D01*
X152355663Y-101603903D01*
X152569830Y-101504035D01*
X152763401Y-101368495D01*
X152930495Y-101201401D01*
X153060425Y-101015842D01*
X153115002Y-100972217D01*
X153184500Y-100965023D01*
X153246855Y-100996546D01*
X153263575Y-101015842D01*
X153393500Y-101201395D01*
X153393505Y-101201401D01*
X153560599Y-101368495D01*
X153657384Y-101436265D01*
X153754165Y-101504032D01*
X153754167Y-101504033D01*
X153754170Y-101504035D01*
X153968337Y-101603903D01*
X154196592Y-101665063D01*
X154373034Y-101680500D01*
X154431999Y-101685659D01*
X154432000Y-101685659D01*
X154432001Y-101685659D01*
X154490966Y-101680500D01*
X154667408Y-101665063D01*
X154895663Y-101603903D01*
X155109830Y-101504035D01*
X155303401Y-101368495D01*
X155470495Y-101201401D01*
X155606035Y-101007830D01*
X155705903Y-100793663D01*
X155767063Y-100565408D01*
X155787659Y-100330000D01*
X155767063Y-100094592D01*
X155705903Y-99866337D01*
X155606035Y-99652171D01*
X155600425Y-99644158D01*
X155470494Y-99458597D01*
X155303402Y-99291506D01*
X155303395Y-99291501D01*
X155109834Y-99155967D01*
X155109830Y-99155965D01*
X155109828Y-99155964D01*
X154895663Y-99056097D01*
X154895659Y-99056096D01*
X154895655Y-99056094D01*
X154844079Y-99042275D01*
X154784418Y-99005910D01*
X154753889Y-98943063D01*
X154762184Y-98873688D01*
X154806669Y-98819810D01*
X154873221Y-98798535D01*
X154876172Y-98798500D01*
X197038300Y-98798500D01*
X197105339Y-98818185D01*
X197151094Y-98870989D01*
X197162300Y-98922500D01*
X197162300Y-127008788D01*
X197142615Y-127075827D01*
X197089811Y-127121582D01*
X197039274Y-127132784D01*
X132737952Y-127638063D01*
X132736780Y-127638067D01*
X104408702Y-127592742D01*
X104341694Y-127572950D01*
X104296023Y-127520073D01*
X104284900Y-127468742D01*
X104284900Y-126560158D01*
X104304585Y-126493119D01*
X104357389Y-126447364D01*
X104426547Y-126437420D01*
X104490103Y-126466445D01*
X104496581Y-126472477D01*
X104538599Y-126514495D01*
X104612286Y-126566091D01*
X104732165Y-126650032D01*
X104732167Y-126650033D01*
X104732170Y-126650035D01*
X104946337Y-126749903D01*
X105174592Y-126811063D01*
X105362918Y-126827539D01*
X105409999Y-126831659D01*
X105410000Y-126831659D01*
X105410001Y-126831659D01*
X105449234Y-126828226D01*
X105645408Y-126811063D01*
X105873663Y-126749903D01*
X106087830Y-126650035D01*
X106281401Y-126514495D01*
X106448495Y-126347401D01*
X106584035Y-126153830D01*
X106599871Y-126119870D01*
X168829500Y-126119870D01*
X168829501Y-126119876D01*
X168835908Y-126179483D01*
X168886202Y-126314328D01*
X168886206Y-126314335D01*
X168972452Y-126429544D01*
X168972455Y-126429547D01*
X169087664Y-126515793D01*
X169087671Y-126515797D01*
X169222517Y-126566091D01*
X169222516Y-126566091D01*
X169229444Y-126566835D01*
X169282127Y-126572500D01*
X171077872Y-126572499D01*
X171137483Y-126566091D01*
X171272331Y-126515796D01*
X171387546Y-126429546D01*
X171473796Y-126314331D01*
X171524091Y-126179483D01*
X171530500Y-126119873D01*
X171530499Y-124324128D01*
X171524091Y-124264517D01*
X171484736Y-124159002D01*
X171473797Y-124129671D01*
X171473793Y-124129664D01*
X171387547Y-124014455D01*
X171387544Y-124014452D01*
X171272335Y-123928206D01*
X171272328Y-123928202D01*
X171137482Y-123877908D01*
X171137483Y-123877908D01*
X171077883Y-123871501D01*
X171077881Y-123871500D01*
X171077873Y-123871500D01*
X171077864Y-123871500D01*
X169282129Y-123871500D01*
X169282123Y-123871501D01*
X169222516Y-123877908D01*
X169087671Y-123928202D01*
X169087664Y-123928206D01*
X168972455Y-124014452D01*
X168972452Y-124014455D01*
X168886206Y-124129664D01*
X168886202Y-124129671D01*
X168835908Y-124264517D01*
X168829501Y-124324116D01*
X168829501Y-124324123D01*
X168829500Y-124324135D01*
X168829500Y-126119870D01*
X106599871Y-126119870D01*
X106683903Y-125939663D01*
X106745063Y-125711408D01*
X106765659Y-125476000D01*
X106745063Y-125240592D01*
X106684827Y-125015784D01*
X106683905Y-125012344D01*
X106683904Y-125012343D01*
X106683903Y-125012337D01*
X106584035Y-124798171D01*
X106500635Y-124679062D01*
X106448494Y-124604597D01*
X106324167Y-124480271D01*
X155744166Y-124480271D01*
X155764361Y-124659517D01*
X155764362Y-124659522D01*
X155823942Y-124829791D01*
X155898817Y-124948953D01*
X155919915Y-124982530D01*
X156047469Y-125110084D01*
X156200209Y-125206057D01*
X156298916Y-125240596D01*
X156370476Y-125265636D01*
X156370481Y-125265637D01*
X156549727Y-125285833D01*
X156549731Y-125285833D01*
X156549735Y-125285833D01*
X156728980Y-125265637D01*
X156728983Y-125265636D01*
X156728986Y-125265636D01*
X156899253Y-125206057D01*
X157051993Y-125110084D01*
X157179547Y-124982530D01*
X157275520Y-124829790D01*
X157335099Y-124659523D01*
X157335100Y-124659517D01*
X157355296Y-124480271D01*
X157355296Y-124480264D01*
X157335100Y-124301018D01*
X157335099Y-124301013D01*
X157316578Y-124248083D01*
X157275520Y-124130746D01*
X157274843Y-124129669D01*
X157202616Y-124014720D01*
X157179547Y-123978006D01*
X157051993Y-123850452D01*
X156899254Y-123754479D01*
X156728985Y-123694899D01*
X156728980Y-123694898D01*
X156549735Y-123674703D01*
X156549727Y-123674703D01*
X156370481Y-123694898D01*
X156370476Y-123694899D01*
X156200207Y-123754479D01*
X156047468Y-123850452D01*
X155919915Y-123978005D01*
X155823942Y-124130744D01*
X155764362Y-124301013D01*
X155764361Y-124301018D01*
X155744166Y-124480264D01*
X155744166Y-124480271D01*
X106324167Y-124480271D01*
X106281402Y-124437506D01*
X106281396Y-124437501D01*
X106095842Y-124307575D01*
X106052217Y-124252998D01*
X106045023Y-124183500D01*
X106076546Y-124121145D01*
X106095842Y-124104425D01*
X106149583Y-124066795D01*
X106281401Y-123974495D01*
X106448495Y-123807401D01*
X106584035Y-123613830D01*
X106683903Y-123399663D01*
X106745063Y-123171408D01*
X106765659Y-122936003D01*
X122638435Y-122936003D01*
X122658630Y-123115249D01*
X122658631Y-123115254D01*
X122718211Y-123285523D01*
X122789931Y-123399664D01*
X122814184Y-123438262D01*
X122941738Y-123565816D01*
X123094478Y-123661789D01*
X123157142Y-123683716D01*
X123264745Y-123721368D01*
X123264750Y-123721369D01*
X123443996Y-123741565D01*
X123444000Y-123741565D01*
X123444004Y-123741565D01*
X123623249Y-123721369D01*
X123623252Y-123721368D01*
X123623255Y-123721368D01*
X123793522Y-123661789D01*
X123946262Y-123565816D01*
X124073816Y-123438262D01*
X124169789Y-123285522D01*
X124229368Y-123115255D01*
X124231586Y-123095569D01*
X124249565Y-122936003D01*
X124249565Y-122935996D01*
X124229369Y-122756750D01*
X124229368Y-122756745D01*
X124219047Y-122727250D01*
X124169789Y-122586478D01*
X124169174Y-122585500D01*
X124111297Y-122493389D01*
X124073816Y-122433738D01*
X123946262Y-122306184D01*
X123888456Y-122269862D01*
X123793523Y-122210211D01*
X123641230Y-122156921D01*
X126719517Y-122156921D01*
X126739712Y-122336167D01*
X126739713Y-122336172D01*
X126799293Y-122506441D01*
X126828529Y-122552969D01*
X126895266Y-122659180D01*
X126936672Y-122700586D01*
X126956175Y-122720089D01*
X126989659Y-122781413D01*
X126984674Y-122851104D01*
X126973487Y-122873742D01*
X126880742Y-123021344D01*
X126821162Y-123191613D01*
X126821161Y-123191618D01*
X126800966Y-123370864D01*
X126800966Y-123370871D01*
X126821161Y-123550117D01*
X126821162Y-123550122D01*
X126880742Y-123720391D01*
X126935415Y-123807402D01*
X126976715Y-123873130D01*
X127104269Y-124000684D01*
X127126682Y-124014767D01*
X127250784Y-124092746D01*
X127257009Y-124096657D01*
X127326992Y-124121145D01*
X127427276Y-124156236D01*
X127427281Y-124156237D01*
X127606527Y-124176433D01*
X127606531Y-124176433D01*
X127606535Y-124176433D01*
X127785780Y-124156237D01*
X127785783Y-124156236D01*
X127785786Y-124156236D01*
X127956053Y-124096657D01*
X128108793Y-124000684D01*
X128236347Y-123873130D01*
X128332320Y-123720390D01*
X128391899Y-123550123D01*
X128398441Y-123492063D01*
X128412096Y-123370871D01*
X143691966Y-123370871D01*
X143712161Y-123550117D01*
X143712162Y-123550122D01*
X143771742Y-123720391D01*
X143826415Y-123807402D01*
X143867715Y-123873130D01*
X143995269Y-124000684D01*
X144017682Y-124014767D01*
X144141784Y-124092746D01*
X144148009Y-124096657D01*
X144217992Y-124121145D01*
X144318276Y-124156236D01*
X144318281Y-124156237D01*
X144497527Y-124176433D01*
X144497531Y-124176433D01*
X144497535Y-124176433D01*
X144676780Y-124156237D01*
X144676783Y-124156236D01*
X144676786Y-124156236D01*
X144847053Y-124096657D01*
X144999793Y-124000684D01*
X145127347Y-123873130D01*
X145223320Y-123720390D01*
X145282899Y-123550123D01*
X145289441Y-123492063D01*
X145303096Y-123370871D01*
X145303096Y-123370864D01*
X145282900Y-123191618D01*
X145282899Y-123191613D01*
X145256178Y-123115249D01*
X145223320Y-123021346D01*
X145223003Y-123020842D01*
X145136444Y-122883084D01*
X145127347Y-122868606D01*
X144999793Y-122741052D01*
X144988271Y-122733812D01*
X144847054Y-122645079D01*
X144688868Y-122589727D01*
X154260681Y-122589727D01*
X154289339Y-122733802D01*
X154289342Y-122733812D01*
X154345559Y-122869534D01*
X154345564Y-122869543D01*
X154427179Y-122991687D01*
X154427182Y-122991691D01*
X154531057Y-123095566D01*
X154531061Y-123095569D01*
X154653205Y-123177184D01*
X154653214Y-123177189D01*
X154678281Y-123187572D01*
X154788939Y-123233408D01*
X154933021Y-123262067D01*
X154933025Y-123262068D01*
X154933026Y-123262068D01*
X155079937Y-123262068D01*
X155079938Y-123262067D01*
X155224023Y-123233408D01*
X155359750Y-123177188D01*
X155481901Y-123095569D01*
X155585782Y-122991688D01*
X155667401Y-122869537D01*
X155723621Y-122733810D01*
X155752281Y-122589723D01*
X155752281Y-122442813D01*
X155723621Y-122298726D01*
X155667401Y-122162999D01*
X155667400Y-122162998D01*
X155667397Y-122162992D01*
X155585782Y-122040848D01*
X155585779Y-122040844D01*
X155481904Y-121936969D01*
X155481900Y-121936966D01*
X155359756Y-121855351D01*
X155359747Y-121855346D01*
X155224025Y-121799129D01*
X155224026Y-121799129D01*
X155224023Y-121799128D01*
X155224019Y-121799127D01*
X155224015Y-121799126D01*
X155079940Y-121770468D01*
X155079936Y-121770468D01*
X154933026Y-121770468D01*
X154933021Y-121770468D01*
X154788946Y-121799126D01*
X154788936Y-121799129D01*
X154653214Y-121855346D01*
X154653205Y-121855351D01*
X154531061Y-121936966D01*
X154531057Y-121936969D01*
X154427182Y-122040844D01*
X154427179Y-122040848D01*
X154345564Y-122162992D01*
X154345559Y-122163001D01*
X154289342Y-122298723D01*
X154289339Y-122298733D01*
X154260681Y-122442808D01*
X154260681Y-122589727D01*
X144688868Y-122589727D01*
X144676785Y-122585499D01*
X144676780Y-122585498D01*
X144497535Y-122565303D01*
X144497527Y-122565303D01*
X144318281Y-122585498D01*
X144318276Y-122585499D01*
X144148007Y-122645079D01*
X143995268Y-122741052D01*
X143867715Y-122868605D01*
X143771742Y-123021344D01*
X143712162Y-123191613D01*
X143712161Y-123191618D01*
X143691966Y-123370864D01*
X143691966Y-123370871D01*
X128412096Y-123370871D01*
X128412096Y-123370864D01*
X128391900Y-123191618D01*
X128391899Y-123191613D01*
X128365178Y-123115249D01*
X128332320Y-123021346D01*
X128332003Y-123020842D01*
X128245444Y-122883084D01*
X128236347Y-122868606D01*
X128175438Y-122807697D01*
X128141953Y-122746374D01*
X128146937Y-122676682D01*
X128158125Y-122654044D01*
X128180603Y-122618271D01*
X128250871Y-122506440D01*
X128310450Y-122336173D01*
X128310450Y-122336172D01*
X128312750Y-122329600D01*
X128314740Y-122330296D01*
X128343847Y-122278229D01*
X128405499Y-122245355D01*
X128471608Y-122249735D01*
X128621076Y-122302036D01*
X128621081Y-122302037D01*
X128800327Y-122322233D01*
X128800331Y-122322233D01*
X128800335Y-122322233D01*
X128979580Y-122302037D01*
X128979583Y-122302036D01*
X128979586Y-122302036D01*
X129149853Y-122242457D01*
X129302593Y-122146484D01*
X129430147Y-122018930D01*
X129526120Y-121866190D01*
X129585699Y-121695923D01*
X129586305Y-121690544D01*
X129605896Y-121516671D01*
X129605896Y-121516664D01*
X129585700Y-121337418D01*
X129585699Y-121337413D01*
X129560479Y-121265338D01*
X129526120Y-121167146D01*
X129456753Y-121056750D01*
X129446685Y-121021121D01*
X147082616Y-121021121D01*
X147102811Y-121200367D01*
X147102812Y-121200372D01*
X147162392Y-121370641D01*
X147253106Y-121515010D01*
X147258365Y-121523380D01*
X147385919Y-121650934D01*
X147538659Y-121746907D01*
X147683294Y-121797517D01*
X147708926Y-121806486D01*
X147708931Y-121806487D01*
X147888177Y-121826683D01*
X147888181Y-121826683D01*
X147888185Y-121826683D01*
X148067430Y-121806487D01*
X148067433Y-121806486D01*
X148067436Y-121806486D01*
X148237703Y-121746907D01*
X148390443Y-121650934D01*
X148517997Y-121523380D01*
X148613970Y-121370640D01*
X148673549Y-121200373D01*
X148680601Y-121137784D01*
X148693746Y-121021121D01*
X148693746Y-121021114D01*
X148673550Y-120841868D01*
X148673549Y-120841863D01*
X148649800Y-120773992D01*
X148613970Y-120671596D01*
X148613795Y-120671318D01*
X148517996Y-120518855D01*
X148390443Y-120391302D01*
X148237704Y-120295329D01*
X148067435Y-120235749D01*
X148067430Y-120235748D01*
X147888185Y-120215553D01*
X147888177Y-120215553D01*
X147708931Y-120235748D01*
X147708926Y-120235749D01*
X147538657Y-120295329D01*
X147385918Y-120391302D01*
X147258365Y-120518855D01*
X147162392Y-120671594D01*
X147102812Y-120841863D01*
X147102811Y-120841868D01*
X147082616Y-121021114D01*
X147082616Y-121021121D01*
X129446685Y-121021121D01*
X129437754Y-120989515D01*
X129456754Y-120924808D01*
X129551520Y-120773990D01*
X129611099Y-120603723D01*
X129620661Y-120518856D01*
X129631296Y-120424471D01*
X129631296Y-120424464D01*
X129611100Y-120245218D01*
X129611099Y-120245213D01*
X129551519Y-120074943D01*
X129489070Y-119975558D01*
X129461474Y-119931639D01*
X129442474Y-119864404D01*
X129461475Y-119799695D01*
X129471800Y-119783264D01*
X129551520Y-119656390D01*
X129558280Y-119637071D01*
X133481166Y-119637071D01*
X133501361Y-119816317D01*
X133501362Y-119816322D01*
X133560942Y-119986591D01*
X133656915Y-120139330D01*
X133784469Y-120266884D01*
X133937209Y-120362857D01*
X134107476Y-120422436D01*
X134107481Y-120422437D01*
X134286727Y-120442633D01*
X134286731Y-120442633D01*
X134286735Y-120442633D01*
X134465980Y-120422437D01*
X134465983Y-120422436D01*
X134465986Y-120422436D01*
X134636253Y-120362857D01*
X134788993Y-120266884D01*
X134916547Y-120139330D01*
X135012520Y-119986590D01*
X135072099Y-119816323D01*
X135072507Y-119812703D01*
X135092296Y-119637071D01*
X135092296Y-119637064D01*
X135072100Y-119457818D01*
X135072099Y-119457813D01*
X135048562Y-119390548D01*
X135012520Y-119287546D01*
X134916547Y-119134806D01*
X134788993Y-119007252D01*
X134728362Y-118969155D01*
X134636254Y-118911279D01*
X134465985Y-118851699D01*
X134465980Y-118851698D01*
X134286735Y-118831503D01*
X134286727Y-118831503D01*
X134107481Y-118851698D01*
X134107476Y-118851699D01*
X133937207Y-118911279D01*
X133784468Y-119007252D01*
X133656915Y-119134805D01*
X133560942Y-119287544D01*
X133501362Y-119457813D01*
X133501361Y-119457818D01*
X133481166Y-119637064D01*
X133481166Y-119637071D01*
X129558280Y-119637071D01*
X129611099Y-119486123D01*
X129612756Y-119471418D01*
X129631296Y-119306871D01*
X129631296Y-119306864D01*
X129611100Y-119127618D01*
X129611099Y-119127613D01*
X129594055Y-119078903D01*
X129551520Y-118957346D01*
X129482153Y-118846950D01*
X129463154Y-118779715D01*
X129482154Y-118715008D01*
X129576920Y-118564190D01*
X129633339Y-118402955D01*
X153625081Y-118402955D01*
X153652201Y-118574181D01*
X153705771Y-118739056D01*
X153705772Y-118739059D01*
X153763562Y-118852477D01*
X153784479Y-118893528D01*
X153886380Y-119033782D01*
X154008967Y-119156369D01*
X154149221Y-119258270D01*
X154224983Y-119296872D01*
X154303689Y-119336976D01*
X154303692Y-119336977D01*
X154366860Y-119357501D01*
X154468569Y-119390548D01*
X154547872Y-119403108D01*
X154639794Y-119417668D01*
X154639799Y-119417668D01*
X154813162Y-119417668D01*
X154813163Y-119417668D01*
X154917086Y-119401208D01*
X154955876Y-119401208D01*
X155059799Y-119417668D01*
X155059800Y-119417668D01*
X155233168Y-119417668D01*
X155316176Y-119404520D01*
X155404393Y-119390548D01*
X155569272Y-119336976D01*
X155723741Y-119258270D01*
X155863995Y-119156369D01*
X155986582Y-119033782D01*
X156088483Y-118893528D01*
X156167189Y-118739059D01*
X156220761Y-118574180D01*
X156247231Y-118407056D01*
X156247881Y-118402955D01*
X156247881Y-118229580D01*
X156232103Y-118129970D01*
X156220761Y-118058356D01*
X156189680Y-117962698D01*
X156167190Y-117893479D01*
X156167189Y-117893476D01*
X156088482Y-117739006D01*
X156065061Y-117706771D01*
X156041580Y-117640965D01*
X156057405Y-117572910D01*
X156107510Y-117524215D01*
X156175988Y-117510339D01*
X156181549Y-117510943D01*
X156301747Y-117526768D01*
X156301754Y-117526768D01*
X156531208Y-117526768D01*
X156531215Y-117526768D01*
X156758719Y-117496816D01*
X156980368Y-117437426D01*
X157192369Y-117349612D01*
X157391093Y-117234879D01*
X157471031Y-117173539D01*
X157536200Y-117148345D01*
X157604645Y-117162383D01*
X157654635Y-117211197D01*
X157670299Y-117279288D01*
X157663559Y-117312870D01*
X157579316Y-117553620D01*
X157579312Y-117553632D01*
X157510570Y-117854812D01*
X157510567Y-117854830D01*
X157475981Y-118161796D01*
X157475981Y-118470739D01*
X157510567Y-118777705D01*
X157510570Y-118777723D01*
X157579312Y-119078903D01*
X157579316Y-119078915D01*
X157681343Y-119370490D01*
X157681349Y-119370504D01*
X157815384Y-119648830D01*
X157820134Y-119656390D01*
X157979746Y-119910411D01*
X158172361Y-120151942D01*
X158390807Y-120370388D01*
X158632338Y-120563003D01*
X158796712Y-120666286D01*
X158796827Y-120666358D01*
X158843118Y-120718693D01*
X158853766Y-120787746D01*
X158825391Y-120851594D01*
X158767002Y-120889967D01*
X158755404Y-120892897D01*
X158686712Y-120906768D01*
X158640005Y-120916200D01*
X158640003Y-120916201D01*
X158470530Y-120984139D01*
X158316155Y-121081633D01*
X158316153Y-121081635D01*
X158182043Y-121205399D01*
X158181971Y-121205465D01*
X158072424Y-121351535D01*
X157991127Y-121515015D01*
X157940763Y-121690526D01*
X157940763Y-121690527D01*
X157923002Y-121872244D01*
X157938426Y-122054175D01*
X157938428Y-122054182D01*
X157986526Y-122230306D01*
X157986531Y-122230319D01*
X157993788Y-122245443D01*
X157994495Y-122247198D01*
X157997512Y-122253459D01*
X157997513Y-122253462D01*
X158013681Y-122287013D01*
X158025974Y-122340871D01*
X158025963Y-122386208D01*
X158025982Y-122386495D01*
X158025982Y-123689709D01*
X158013717Y-123743480D01*
X157994332Y-123783759D01*
X157993716Y-123785290D01*
X157986571Y-123800178D01*
X157986570Y-123800182D01*
X157938446Y-123976324D01*
X157923003Y-124158270D01*
X157923003Y-124158276D01*
X157933530Y-124266055D01*
X157940752Y-124340005D01*
X157941915Y-124344058D01*
X157991106Y-124515522D01*
X158072400Y-124679025D01*
X158103707Y-124720772D01*
X158181953Y-124825112D01*
X158316140Y-124948953D01*
X158316142Y-124948954D01*
X158316143Y-124948955D01*
X158416503Y-125012337D01*
X158470527Y-125046456D01*
X158640014Y-125114400D01*
X158795562Y-125145807D01*
X158818995Y-125150539D01*
X158818996Y-125150539D01*
X158819001Y-125150540D01*
X159001573Y-125153682D01*
X159181697Y-125123722D01*
X159353422Y-125061650D01*
X159367768Y-125053289D01*
X159369159Y-125052596D01*
X159375456Y-125048914D01*
X159375459Y-125048914D01*
X159403157Y-125032723D01*
X159465764Y-125015775D01*
X159497792Y-125015784D01*
X159497795Y-125015783D01*
X159505681Y-125015785D01*
X159505974Y-125015767D01*
X160947011Y-125015767D01*
X160947165Y-125015776D01*
X160955104Y-125015775D01*
X160955108Y-125015776D01*
X160987071Y-125015771D01*
X161049507Y-125032627D01*
X161099535Y-125061773D01*
X161271270Y-125123830D01*
X161451401Y-125153775D01*
X161451405Y-125153774D01*
X161451406Y-125153775D01*
X161516606Y-125152647D01*
X161633977Y-125150619D01*
X161812966Y-125114467D01*
X161982454Y-125046512D01*
X162136841Y-124949001D01*
X162271027Y-124825154D01*
X162380578Y-124679063D01*
X162461874Y-124515555D01*
X162512231Y-124340033D01*
X162529984Y-124158294D01*
X162514546Y-123976345D01*
X162514540Y-123976324D01*
X162466431Y-123800203D01*
X162466426Y-123800189D01*
X162459189Y-123785111D01*
X162458603Y-123783656D01*
X162439266Y-123743504D01*
X162426985Y-123689679D01*
X162426992Y-123652308D01*
X162426990Y-123652302D01*
X162426992Y-123644335D01*
X162426980Y-123644135D01*
X162426980Y-123618271D01*
X178312166Y-123618271D01*
X178332361Y-123797517D01*
X178332362Y-123797522D01*
X178391942Y-123967791D01*
X178481321Y-124110035D01*
X178487915Y-124120530D01*
X178615469Y-124248084D01*
X178641622Y-124264517D01*
X178768132Y-124344009D01*
X178768209Y-124344057D01*
X178904768Y-124391841D01*
X178938476Y-124403636D01*
X178938481Y-124403637D01*
X179117727Y-124423833D01*
X179117731Y-124423833D01*
X179117735Y-124423833D01*
X179296980Y-124403637D01*
X179296982Y-124403636D01*
X179296986Y-124403636D01*
X179296989Y-124403634D01*
X179296993Y-124403634D01*
X179467250Y-124344058D01*
X179467249Y-124344058D01*
X179467253Y-124344057D01*
X179515045Y-124314026D01*
X179582277Y-124295026D01*
X179646986Y-124314025D01*
X179779209Y-124397107D01*
X179894660Y-124437505D01*
X179949476Y-124456686D01*
X179949481Y-124456687D01*
X180128727Y-124476883D01*
X180128731Y-124476883D01*
X180128735Y-124476883D01*
X180307980Y-124456687D01*
X180307983Y-124456686D01*
X180307986Y-124456686D01*
X180478253Y-124397107D01*
X180562682Y-124344057D01*
X180562758Y-124344009D01*
X180629995Y-124325008D01*
X180694704Y-124344009D01*
X180779206Y-124397106D01*
X180949476Y-124456686D01*
X180949481Y-124456687D01*
X181128727Y-124476883D01*
X181128731Y-124476883D01*
X181128735Y-124476883D01*
X181307980Y-124456687D01*
X181307983Y-124456686D01*
X181307986Y-124456686D01*
X181478253Y-124397107D01*
X181562682Y-124344057D01*
X181562758Y-124344009D01*
X181629995Y-124325008D01*
X181694704Y-124344009D01*
X181779206Y-124397106D01*
X181949476Y-124456686D01*
X181949481Y-124456687D01*
X182128727Y-124476883D01*
X182128731Y-124476883D01*
X182128735Y-124476883D01*
X182307980Y-124456687D01*
X182307983Y-124456686D01*
X182307986Y-124456686D01*
X182478253Y-124397107D01*
X182630993Y-124301134D01*
X182758547Y-124173580D01*
X182854520Y-124020840D01*
X182914099Y-123850573D01*
X182918963Y-123807402D01*
X182934296Y-123671321D01*
X182934296Y-123671314D01*
X182914100Y-123492068D01*
X182914099Y-123492063D01*
X182854519Y-123321793D01*
X182801422Y-123237291D01*
X182782421Y-123170054D01*
X182801422Y-123105345D01*
X182854519Y-123020842D01*
X182854520Y-123020840D01*
X182914099Y-122850573D01*
X182919737Y-122800535D01*
X182934296Y-122671321D01*
X182934296Y-122671314D01*
X182914100Y-122492068D01*
X182914099Y-122492063D01*
X182854519Y-122321793D01*
X182801422Y-122237291D01*
X182782421Y-122170054D01*
X182801422Y-122105345D01*
X182854519Y-122020842D01*
X182856293Y-122015773D01*
X182914099Y-121850573D01*
X182918964Y-121807394D01*
X182923447Y-121767603D01*
X191539235Y-121767603D01*
X191559430Y-121946849D01*
X191559431Y-121946854D01*
X191619011Y-122117123D01*
X191700313Y-122246513D01*
X191714984Y-122269862D01*
X191842538Y-122397416D01*
X191908739Y-122439013D01*
X191993175Y-122492068D01*
X191995278Y-122493389D01*
X192165545Y-122552968D01*
X192165550Y-122552969D01*
X192344796Y-122573165D01*
X192344800Y-122573165D01*
X192344804Y-122573165D01*
X192524049Y-122552969D01*
X192524052Y-122552968D01*
X192524055Y-122552968D01*
X192694322Y-122493389D01*
X192847062Y-122397416D01*
X192974616Y-122269862D01*
X193070589Y-122117122D01*
X193130168Y-121946855D01*
X193130261Y-121946032D01*
X193150365Y-121767603D01*
X193150365Y-121767596D01*
X193130169Y-121588350D01*
X193130168Y-121588345D01*
X193077914Y-121439013D01*
X193070589Y-121418078D01*
X193041353Y-121371550D01*
X192975912Y-121267401D01*
X192974616Y-121265338D01*
X192847062Y-121137784D01*
X192694323Y-121041811D01*
X192524054Y-120982231D01*
X192524049Y-120982230D01*
X192344804Y-120962035D01*
X192344796Y-120962035D01*
X192165550Y-120982230D01*
X192165545Y-120982231D01*
X191995276Y-121041811D01*
X191842537Y-121137784D01*
X191714984Y-121265337D01*
X191619011Y-121418076D01*
X191559431Y-121588345D01*
X191559430Y-121588350D01*
X191539235Y-121767596D01*
X191539235Y-121767603D01*
X182923447Y-121767603D01*
X182934296Y-121671321D01*
X182934296Y-121671314D01*
X182914100Y-121492068D01*
X182914099Y-121492063D01*
X182854519Y-121321793D01*
X182801422Y-121237291D01*
X182782421Y-121170054D01*
X182801422Y-121105345D01*
X182854519Y-121020842D01*
X182856099Y-121016328D01*
X182914099Y-120850573D01*
X182915080Y-120841868D01*
X182934296Y-120671321D01*
X182934296Y-120671314D01*
X182914100Y-120492068D01*
X182914099Y-120492063D01*
X182895536Y-120439013D01*
X182854520Y-120321796D01*
X182758547Y-120169056D01*
X182630993Y-120041502D01*
X182602391Y-120023530D01*
X182478254Y-119945529D01*
X182307985Y-119885949D01*
X182307980Y-119885948D01*
X182128735Y-119865753D01*
X182128727Y-119865753D01*
X182023045Y-119877660D01*
X181954223Y-119865605D01*
X181902844Y-119818256D01*
X181885220Y-119750646D01*
X181892121Y-119713485D01*
X181914097Y-119650680D01*
X181914100Y-119650667D01*
X181934296Y-119471421D01*
X181934296Y-119471414D01*
X181914100Y-119292168D01*
X181914099Y-119292163D01*
X181872401Y-119172998D01*
X181854520Y-119121896D01*
X181758547Y-118969156D01*
X181630993Y-118841602D01*
X181614921Y-118831503D01*
X181482140Y-118748071D01*
X189411966Y-118748071D01*
X189432161Y-118927317D01*
X189432162Y-118927322D01*
X189491742Y-119097591D01*
X189528673Y-119156366D01*
X189587715Y-119250330D01*
X189715269Y-119377884D01*
X189868009Y-119473857D01*
X190013016Y-119524597D01*
X190038276Y-119533436D01*
X190038281Y-119533437D01*
X190217527Y-119553633D01*
X190217531Y-119553633D01*
X190217535Y-119553633D01*
X190396780Y-119533437D01*
X190396783Y-119533436D01*
X190396786Y-119533436D01*
X190567053Y-119473857D01*
X190719793Y-119377884D01*
X190847347Y-119250330D01*
X190943320Y-119097590D01*
X191002899Y-118927323D01*
X191004707Y-118911279D01*
X191023096Y-118748071D01*
X191023096Y-118748064D01*
X191002900Y-118568818D01*
X191002899Y-118568813D01*
X190946298Y-118407057D01*
X190943320Y-118398546D01*
X190940411Y-118393917D01*
X190847346Y-118245805D01*
X190719793Y-118118252D01*
X190567054Y-118022279D01*
X190396785Y-117962699D01*
X190396780Y-117962698D01*
X190217535Y-117942503D01*
X190217527Y-117942503D01*
X190038281Y-117962698D01*
X190038276Y-117962699D01*
X189868007Y-118022279D01*
X189715268Y-118118252D01*
X189587715Y-118245805D01*
X189491742Y-118398544D01*
X189432162Y-118568813D01*
X189432161Y-118568818D01*
X189411966Y-118748064D01*
X189411966Y-118748071D01*
X181482140Y-118748071D01*
X181478254Y-118745629D01*
X181307985Y-118686049D01*
X181307980Y-118686048D01*
X181128735Y-118665853D01*
X181128727Y-118665853D01*
X180949481Y-118686048D01*
X180949476Y-118686049D01*
X180779207Y-118745629D01*
X180626468Y-118841602D01*
X180498915Y-118969155D01*
X180402942Y-119121894D01*
X180343362Y-119292163D01*
X180343361Y-119292168D01*
X180323166Y-119471414D01*
X180323166Y-119471421D01*
X180343361Y-119650667D01*
X180343364Y-119650680D01*
X180365341Y-119713485D01*
X180368903Y-119783264D01*
X180334175Y-119843891D01*
X180272181Y-119876119D01*
X180234417Y-119877660D01*
X180128735Y-119865753D01*
X180128727Y-119865753D01*
X179949481Y-119885948D01*
X179949476Y-119885949D01*
X179779208Y-119945529D01*
X179731415Y-119975559D01*
X179664178Y-119994558D01*
X179599472Y-119975558D01*
X179467254Y-119892479D01*
X179296985Y-119832899D01*
X179296980Y-119832898D01*
X179117735Y-119812703D01*
X179117727Y-119812703D01*
X178938481Y-119832898D01*
X178938476Y-119832899D01*
X178768207Y-119892479D01*
X178615468Y-119988452D01*
X178487915Y-120116005D01*
X178391942Y-120268744D01*
X178332362Y-120439013D01*
X178332361Y-120439018D01*
X178312166Y-120618264D01*
X178312166Y-120618271D01*
X178332361Y-120797517D01*
X178332364Y-120797530D01*
X178391940Y-120967788D01*
X178445040Y-121052297D01*
X178464040Y-121119534D01*
X178445040Y-121184239D01*
X178391940Y-121268747D01*
X178332364Y-121439005D01*
X178332361Y-121439018D01*
X178312166Y-121618264D01*
X178312166Y-121618271D01*
X178332361Y-121797517D01*
X178332364Y-121797530D01*
X178391940Y-121967788D01*
X178445040Y-122052297D01*
X178464040Y-122119534D01*
X178445040Y-122184239D01*
X178391940Y-122268747D01*
X178332364Y-122439005D01*
X178332361Y-122439018D01*
X178312166Y-122618264D01*
X178312166Y-122618271D01*
X178332361Y-122797517D01*
X178332364Y-122797530D01*
X178391940Y-122967788D01*
X178445040Y-123052297D01*
X178464040Y-123119534D01*
X178445040Y-123184239D01*
X178391940Y-123268747D01*
X178332364Y-123439005D01*
X178332361Y-123439018D01*
X178312166Y-123618264D01*
X178312166Y-123618271D01*
X162426980Y-123618271D01*
X162426980Y-122340823D01*
X162439244Y-122287054D01*
X162447517Y-122269862D01*
X162455501Y-122253271D01*
X165131666Y-122253271D01*
X165151861Y-122432517D01*
X165151862Y-122432522D01*
X165211442Y-122602791D01*
X165285146Y-122720089D01*
X165307415Y-122755530D01*
X165434969Y-122883084D01*
X165519178Y-122935996D01*
X165569777Y-122967790D01*
X165587709Y-122979057D01*
X165708564Y-123021346D01*
X165757976Y-123038636D01*
X165757981Y-123038637D01*
X165937227Y-123058833D01*
X165937231Y-123058833D01*
X165937235Y-123058833D01*
X166116480Y-123038637D01*
X166116483Y-123038636D01*
X166116486Y-123038636D01*
X166286753Y-122979057D01*
X166439493Y-122883084D01*
X166567047Y-122755530D01*
X166663020Y-122602790D01*
X166722599Y-122432523D01*
X166727785Y-122386495D01*
X166742796Y-122253271D01*
X166742796Y-122253264D01*
X166722600Y-122074018D01*
X166722599Y-122074013D01*
X166702195Y-122015703D01*
X166663020Y-121903746D01*
X166632609Y-121855348D01*
X166596280Y-121797530D01*
X166567047Y-121751006D01*
X166439493Y-121623452D01*
X166432411Y-121619002D01*
X166286754Y-121527479D01*
X166116485Y-121467899D01*
X166116480Y-121467898D01*
X165937235Y-121447703D01*
X165937227Y-121447703D01*
X165757981Y-121467898D01*
X165757976Y-121467899D01*
X165587707Y-121527479D01*
X165434968Y-121623452D01*
X165307415Y-121751005D01*
X165211442Y-121903744D01*
X165151862Y-122074013D01*
X165151861Y-122074018D01*
X165131666Y-122253264D01*
X165131666Y-122253271D01*
X162455501Y-122253271D01*
X162455534Y-122253203D01*
X162455534Y-122253199D01*
X162458729Y-122246561D01*
X162459234Y-122245304D01*
X162466391Y-122230397D01*
X162514532Y-122054246D01*
X162529988Y-121872290D01*
X162512248Y-121690542D01*
X162464298Y-121523380D01*
X162461899Y-121515016D01*
X162461896Y-121515008D01*
X162421865Y-121434493D01*
X162380600Y-121351494D01*
X162271043Y-121205397D01*
X162136848Y-121081549D01*
X162136847Y-121081548D01*
X162136844Y-121081546D01*
X161982455Y-120984046D01*
X161982445Y-120984040D01*
X161812949Y-120916097D01*
X161697682Y-120892828D01*
X161635864Y-120860266D01*
X161601463Y-120799452D01*
X161605401Y-120729694D01*
X161646429Y-120673139D01*
X161656242Y-120666290D01*
X161820624Y-120563003D01*
X162062155Y-120370388D01*
X162280601Y-120151942D01*
X162473216Y-119910411D01*
X162637576Y-119648833D01*
X162771616Y-119370497D01*
X162873649Y-119078904D01*
X162942392Y-118777720D01*
X162945734Y-118748064D01*
X162965325Y-118574180D01*
X162976981Y-118470733D01*
X162976981Y-118402955D01*
X164205081Y-118402955D01*
X164232201Y-118574181D01*
X164285771Y-118739056D01*
X164285772Y-118739059D01*
X164343562Y-118852477D01*
X164364479Y-118893528D01*
X164466380Y-119033782D01*
X164588967Y-119156369D01*
X164729221Y-119258270D01*
X164804983Y-119296872D01*
X164883689Y-119336976D01*
X164883692Y-119336977D01*
X164946860Y-119357501D01*
X165048569Y-119390548D01*
X165127872Y-119403108D01*
X165219794Y-119417668D01*
X165219799Y-119417668D01*
X165393162Y-119417668D01*
X165393163Y-119417668D01*
X165497086Y-119401208D01*
X165535876Y-119401208D01*
X165639799Y-119417668D01*
X165639800Y-119417668D01*
X165813168Y-119417668D01*
X165896176Y-119404520D01*
X165984393Y-119390548D01*
X166149272Y-119336976D01*
X166303741Y-119258270D01*
X166443995Y-119156369D01*
X166566582Y-119033782D01*
X166668483Y-118893528D01*
X166747189Y-118739059D01*
X166800761Y-118574180D01*
X166827231Y-118407056D01*
X166827881Y-118402955D01*
X166827881Y-118229580D01*
X166812103Y-118129970D01*
X166800761Y-118058356D01*
X166769680Y-117962698D01*
X166747190Y-117893479D01*
X166747189Y-117893476D01*
X166668482Y-117739007D01*
X166626534Y-117681271D01*
X171416166Y-117681271D01*
X171436361Y-117860517D01*
X171436362Y-117860522D01*
X171495942Y-118030791D01*
X171534034Y-118091413D01*
X171591915Y-118183530D01*
X171719469Y-118311084D01*
X171733124Y-118319664D01*
X171865680Y-118402955D01*
X171872209Y-118407057D01*
X172042476Y-118466636D01*
X172042481Y-118466637D01*
X172221727Y-118486833D01*
X172221731Y-118486833D01*
X172221735Y-118486833D01*
X172400980Y-118466637D01*
X172400983Y-118466636D01*
X172400986Y-118466636D01*
X172571253Y-118407057D01*
X172723993Y-118311084D01*
X172851547Y-118183530D01*
X172947520Y-118030790D01*
X173007099Y-117860523D01*
X173007609Y-117855999D01*
X173027296Y-117681271D01*
X173027296Y-117681264D01*
X173007100Y-117502018D01*
X173007099Y-117502013D01*
X172979823Y-117424063D01*
X172947520Y-117331746D01*
X172935659Y-117312870D01*
X172884422Y-117231326D01*
X172851547Y-117179006D01*
X172723993Y-117051452D01*
X172571254Y-116955479D01*
X172400985Y-116895899D01*
X172400980Y-116895898D01*
X172221735Y-116875703D01*
X172221727Y-116875703D01*
X172042481Y-116895898D01*
X172042476Y-116895899D01*
X171872207Y-116955479D01*
X171719468Y-117051452D01*
X171591915Y-117179005D01*
X171495942Y-117331744D01*
X171436362Y-117502013D01*
X171436361Y-117502018D01*
X171416166Y-117681264D01*
X171416166Y-117681271D01*
X166626534Y-117681271D01*
X166566582Y-117598754D01*
X166443995Y-117476167D01*
X166303741Y-117374266D01*
X166255355Y-117349612D01*
X166149272Y-117295559D01*
X166149269Y-117295558D01*
X165984394Y-117241988D01*
X165813168Y-117214868D01*
X165813163Y-117214868D01*
X165639799Y-117214868D01*
X165639793Y-117214868D01*
X165535878Y-117231326D01*
X165497084Y-117231326D01*
X165393169Y-117214868D01*
X165393163Y-117214868D01*
X165219799Y-117214868D01*
X165219794Y-117214868D01*
X165048567Y-117241988D01*
X164883692Y-117295558D01*
X164883689Y-117295559D01*
X164729220Y-117374266D01*
X164697886Y-117397032D01*
X164588967Y-117476167D01*
X164588965Y-117476169D01*
X164588964Y-117476169D01*
X164466382Y-117598751D01*
X164466382Y-117598752D01*
X164466380Y-117598754D01*
X164435712Y-117640965D01*
X164364479Y-117739007D01*
X164285772Y-117893476D01*
X164285771Y-117893479D01*
X164232201Y-118058354D01*
X164205081Y-118229580D01*
X164205081Y-118402955D01*
X162976981Y-118402955D01*
X162976981Y-118161803D01*
X162962219Y-118030790D01*
X162942394Y-117854830D01*
X162942391Y-117854812D01*
X162873649Y-117553632D01*
X162873645Y-117553620D01*
X162785500Y-117301717D01*
X162771616Y-117262039D01*
X162646959Y-117003187D01*
X162637577Y-116983705D01*
X162637576Y-116983703D01*
X162473216Y-116722125D01*
X162407618Y-116639868D01*
X193122021Y-116639868D01*
X193141809Y-116828134D01*
X193141810Y-116828137D01*
X193200304Y-117008169D01*
X193200306Y-117008172D01*
X193294958Y-117172113D01*
X193333170Y-117214552D01*
X193421621Y-117312788D01*
X193421624Y-117312790D01*
X193421627Y-117312793D01*
X193472304Y-117349612D01*
X193574777Y-117424064D01*
X193738183Y-117496816D01*
X193747713Y-117501059D01*
X193932879Y-117540418D01*
X194122183Y-117540418D01*
X194307349Y-117501059D01*
X194316879Y-117496816D01*
X194480284Y-117424064D01*
X194480284Y-117424063D01*
X194480286Y-117424063D01*
X194633435Y-117312793D01*
X194643403Y-117301723D01*
X194663873Y-117278988D01*
X194760104Y-117172113D01*
X194854756Y-117008172D01*
X194913253Y-116828134D01*
X194933041Y-116639868D01*
X194913253Y-116451602D01*
X194870750Y-116320790D01*
X194854757Y-116271566D01*
X194854756Y-116271564D01*
X194760104Y-116107623D01*
X194690456Y-116030271D01*
X194633440Y-115966947D01*
X194633437Y-115966945D01*
X194633436Y-115966944D01*
X194633435Y-115966943D01*
X194556860Y-115911308D01*
X194480284Y-115855671D01*
X194307348Y-115778676D01*
X194122183Y-115739318D01*
X193932879Y-115739318D01*
X193747713Y-115778676D01*
X193747712Y-115778676D01*
X193574777Y-115855671D01*
X193421624Y-115966945D01*
X193421621Y-115966947D01*
X193294957Y-116107624D01*
X193200304Y-116271566D01*
X193141810Y-116451598D01*
X193141809Y-116451602D01*
X193122021Y-116639868D01*
X162407618Y-116639868D01*
X162280601Y-116480594D01*
X162062155Y-116262148D01*
X162059865Y-116260322D01*
X161908500Y-116139612D01*
X161820624Y-116069533D01*
X161559046Y-115905173D01*
X161559043Y-115905171D01*
X161280717Y-115771136D01*
X161280703Y-115771130D01*
X160989128Y-115669103D01*
X160989116Y-115669099D01*
X160687936Y-115600357D01*
X160687918Y-115600354D01*
X160380952Y-115565768D01*
X160380946Y-115565768D01*
X160072016Y-115565768D01*
X160072009Y-115565768D01*
X159765043Y-115600354D01*
X159765025Y-115600357D01*
X159463845Y-115669099D01*
X159463833Y-115669103D01*
X159172258Y-115771130D01*
X159172244Y-115771136D01*
X158893918Y-115905171D01*
X158632339Y-116069532D01*
X158390812Y-116262143D01*
X158318793Y-116334162D01*
X158257469Y-116367646D01*
X158187778Y-116362661D01*
X158131844Y-116320790D01*
X158107428Y-116255325D01*
X158111336Y-116214393D01*
X158137029Y-116118506D01*
X158166981Y-115891002D01*
X158166981Y-115661534D01*
X158137029Y-115434030D01*
X158077639Y-115212381D01*
X158004915Y-115036810D01*
X157989830Y-115000391D01*
X157989827Y-115000385D01*
X157989825Y-115000380D01*
X157875092Y-114801656D01*
X157875089Y-114801653D01*
X157875088Y-114801650D01*
X157735399Y-114619606D01*
X157735392Y-114619598D01*
X157644243Y-114528449D01*
X157610758Y-114467126D01*
X157615742Y-114397434D01*
X157657614Y-114341501D01*
X157723078Y-114317084D01*
X157731924Y-114316768D01*
X157741208Y-114316768D01*
X157741215Y-114316768D01*
X157968719Y-114286816D01*
X158190368Y-114227426D01*
X158402369Y-114139612D01*
X158601093Y-114024879D01*
X158783142Y-113885187D01*
X158915591Y-113752737D01*
X158976912Y-113719254D01*
X159046604Y-113724238D01*
X159078756Y-113742043D01*
X159148982Y-113795930D01*
X159251863Y-113874875D01*
X159251866Y-113874876D01*
X159251869Y-113874879D01*
X159450593Y-113989612D01*
X159450598Y-113989614D01*
X159450604Y-113989617D01*
X159524028Y-114020030D01*
X159662594Y-114077426D01*
X159884243Y-114136816D01*
X160111747Y-114166768D01*
X160111754Y-114166768D01*
X160341208Y-114166768D01*
X160341215Y-114166768D01*
X160568719Y-114136816D01*
X160790368Y-114077426D01*
X160974792Y-114001035D01*
X161002360Y-113989616D01*
X161002362Y-113989614D01*
X161002369Y-113989612D01*
X161028294Y-113974643D01*
X161096194Y-113958170D01*
X161162221Y-113981021D01*
X161197683Y-114020030D01*
X161282401Y-114166767D01*
X161307873Y-114210885D01*
X161447562Y-114392929D01*
X161447570Y-114392938D01*
X161609811Y-114555179D01*
X161609819Y-114555186D01*
X161791863Y-114694875D01*
X161791866Y-114694876D01*
X161791869Y-114694879D01*
X161990593Y-114809612D01*
X161990598Y-114809614D01*
X161990604Y-114809617D01*
X162081961Y-114847458D01*
X162202594Y-114897426D01*
X162424243Y-114956816D01*
X162651747Y-114986768D01*
X162651754Y-114986768D01*
X162881208Y-114986768D01*
X162881215Y-114986768D01*
X163108719Y-114956816D01*
X163330368Y-114897426D01*
X163330391Y-114897416D01*
X163333254Y-114896445D01*
X163334172Y-114896406D01*
X163334290Y-114896375D01*
X163334297Y-114896401D01*
X163403063Y-114893526D01*
X163460810Y-114926178D01*
X163469817Y-114935185D01*
X163490886Y-114951352D01*
X163532088Y-115007780D01*
X163535173Y-115017633D01*
X163565324Y-115130157D01*
X163653131Y-115342144D01*
X163653138Y-115342158D01*
X163767873Y-115540885D01*
X163907562Y-115722929D01*
X163907570Y-115722938D01*
X164069811Y-115885179D01*
X164069819Y-115885186D01*
X164069820Y-115885187D01*
X164095866Y-115905173D01*
X164251863Y-116024875D01*
X164251866Y-116024876D01*
X164251869Y-116024879D01*
X164450593Y-116139612D01*
X164450598Y-116139614D01*
X164450604Y-116139617D01*
X164541961Y-116177458D01*
X164662594Y-116227426D01*
X164884243Y-116286816D01*
X165111747Y-116316768D01*
X165111754Y-116316768D01*
X165341208Y-116316768D01*
X165341215Y-116316768D01*
X165568719Y-116286816D01*
X165790368Y-116227426D01*
X166002369Y-116139612D01*
X166201093Y-116024879D01*
X166383142Y-115885187D01*
X166383146Y-115885182D01*
X166383151Y-115885179D01*
X166545392Y-115722938D01*
X166545395Y-115722933D01*
X166545400Y-115722929D01*
X166685092Y-115540880D01*
X166799825Y-115342156D01*
X166887639Y-115130155D01*
X166947029Y-114908506D01*
X166976981Y-114681002D01*
X166976981Y-114451534D01*
X166976981Y-114401534D01*
X166947029Y-114174030D01*
X166887639Y-113952381D01*
X166817216Y-113782366D01*
X166799830Y-113740391D01*
X166799827Y-113740385D01*
X166799825Y-113740380D01*
X166685092Y-113541656D01*
X166685089Y-113541653D01*
X166685088Y-113541650D01*
X166566140Y-113386636D01*
X166545400Y-113359607D01*
X166383142Y-113197349D01*
X166383137Y-113197345D01*
X166383136Y-113197344D01*
X166345212Y-113168244D01*
X166304009Y-113111816D01*
X166300926Y-113101972D01*
X166287639Y-113052381D01*
X166206471Y-112856424D01*
X166199830Y-112840391D01*
X166199827Y-112840385D01*
X166199825Y-112840380D01*
X166085092Y-112641656D01*
X166085089Y-112641653D01*
X166085088Y-112641650D01*
X166054104Y-112601271D01*
X184154166Y-112601271D01*
X184174361Y-112780517D01*
X184174362Y-112780522D01*
X184233942Y-112950791D01*
X184329915Y-113103530D01*
X184457469Y-113231084D01*
X184610209Y-113327057D01*
X184780476Y-113386636D01*
X184780481Y-113386637D01*
X184959727Y-113406833D01*
X184959731Y-113406833D01*
X184959735Y-113406833D01*
X185138980Y-113386637D01*
X185138983Y-113386636D01*
X185138986Y-113386636D01*
X185309253Y-113327057D01*
X185461993Y-113231084D01*
X185589547Y-113103530D01*
X185685520Y-112950790D01*
X185745099Y-112780523D01*
X185745100Y-112780517D01*
X185765296Y-112601271D01*
X185765296Y-112601264D01*
X185745100Y-112422018D01*
X185745099Y-112422013D01*
X185712996Y-112330268D01*
X185685520Y-112251746D01*
X185589547Y-112099006D01*
X185461993Y-111971452D01*
X185309254Y-111875479D01*
X185138985Y-111815899D01*
X185138980Y-111815898D01*
X184959735Y-111795703D01*
X184959727Y-111795703D01*
X184780481Y-111815898D01*
X184780476Y-111815899D01*
X184610207Y-111875479D01*
X184457468Y-111971452D01*
X184329915Y-112099005D01*
X184233942Y-112251744D01*
X184174362Y-112422013D01*
X184174361Y-112422018D01*
X184154166Y-112601264D01*
X184154166Y-112601271D01*
X166054104Y-112601271D01*
X165945399Y-112459606D01*
X165945392Y-112459598D01*
X165783151Y-112297357D01*
X165783142Y-112297349D01*
X165601098Y-112157660D01*
X165402371Y-112042925D01*
X165402357Y-112042918D01*
X165190368Y-111955110D01*
X164968719Y-111895720D01*
X164930696Y-111890714D01*
X164741222Y-111865768D01*
X164741215Y-111865768D01*
X164511747Y-111865768D01*
X164511739Y-111865768D01*
X164295196Y-111894277D01*
X164284243Y-111895720D01*
X164203522Y-111917349D01*
X164062594Y-111955110D01*
X164059681Y-111956099D01*
X164058761Y-111956137D01*
X164058673Y-111956161D01*
X164058667Y-111956141D01*
X163989871Y-111959002D01*
X163932151Y-111926357D01*
X163923151Y-111917357D01*
X163923142Y-111917349D01*
X163741098Y-111777660D01*
X163542371Y-111662925D01*
X163542357Y-111662918D01*
X163330368Y-111575110D01*
X163217621Y-111544900D01*
X163108719Y-111515720D01*
X163069199Y-111510517D01*
X162881222Y-111485768D01*
X162881215Y-111485768D01*
X162651747Y-111485768D01*
X162651739Y-111485768D01*
X162435196Y-111514277D01*
X162424243Y-111515720D01*
X162390718Y-111524703D01*
X162202593Y-111575110D01*
X161990604Y-111662918D01*
X161990596Y-111662922D01*
X161964661Y-111677895D01*
X161896760Y-111694364D01*
X161830734Y-111671510D01*
X161795278Y-111632505D01*
X161685092Y-111441656D01*
X161685089Y-111441653D01*
X161685088Y-111441650D01*
X161545399Y-111259606D01*
X161545392Y-111259598D01*
X161383151Y-111097357D01*
X161383142Y-111097349D01*
X161201098Y-110957660D01*
X161002371Y-110842925D01*
X161002357Y-110842918D01*
X160790368Y-110755110D01*
X160568719Y-110695720D01*
X160530696Y-110690714D01*
X160341222Y-110665768D01*
X160341215Y-110665768D01*
X160111747Y-110665768D01*
X160111739Y-110665768D01*
X159895196Y-110694277D01*
X159884243Y-110695720D01*
X159862851Y-110701452D01*
X159662593Y-110755110D01*
X159450604Y-110842918D01*
X159450590Y-110842925D01*
X159251863Y-110957660D01*
X159069819Y-111097349D01*
X158937371Y-111229797D01*
X158876048Y-111263281D01*
X158806356Y-111258297D01*
X158774203Y-111240490D01*
X158760094Y-111229664D01*
X158743609Y-111217014D01*
X158601098Y-111107660D01*
X158402371Y-110992925D01*
X158402357Y-110992918D01*
X158190368Y-110905110D01*
X157968719Y-110845720D01*
X157930696Y-110840714D01*
X157741222Y-110815768D01*
X157741215Y-110815768D01*
X157511747Y-110815768D01*
X157511739Y-110815768D01*
X157295196Y-110844277D01*
X157284243Y-110845720D01*
X157190557Y-110870822D01*
X157062593Y-110905110D01*
X156850604Y-110992918D01*
X156850590Y-110992925D01*
X156651863Y-111107660D01*
X156469819Y-111247349D01*
X156307562Y-111409606D01*
X156167873Y-111591650D01*
X156053138Y-111790377D01*
X156053131Y-111790391D01*
X155965323Y-112002380D01*
X155905934Y-112224027D01*
X155905932Y-112224038D01*
X155875981Y-112451526D01*
X155875981Y-112681009D01*
X155889083Y-112780522D01*
X155905933Y-112908506D01*
X155945469Y-113056057D01*
X155965323Y-113130155D01*
X156053131Y-113342144D01*
X156053138Y-113342158D01*
X156167873Y-113540885D01*
X156307562Y-113722929D01*
X156307570Y-113722938D01*
X156398719Y-113814087D01*
X156432204Y-113875410D01*
X156427220Y-113945102D01*
X156385348Y-114001035D01*
X156319884Y-114025452D01*
X156311038Y-114025768D01*
X156301739Y-114025768D01*
X156085196Y-114054277D01*
X156074243Y-114055720D01*
X155993238Y-114077425D01*
X155852593Y-114115110D01*
X155640604Y-114202918D01*
X155640590Y-114202925D01*
X155441863Y-114317660D01*
X155259819Y-114457349D01*
X155097562Y-114619606D01*
X154957873Y-114801650D01*
X154843138Y-115000377D01*
X154843131Y-115000391D01*
X154755323Y-115212380D01*
X154732998Y-115295699D01*
X154699124Y-115422123D01*
X154695934Y-115434027D01*
X154695932Y-115434038D01*
X154665981Y-115661526D01*
X154665981Y-115891009D01*
X154688720Y-116063716D01*
X154695933Y-116118506D01*
X154741031Y-116286816D01*
X154755323Y-116340155D01*
X154843131Y-116552144D01*
X154843138Y-116552158D01*
X154957873Y-116750885D01*
X155097562Y-116932929D01*
X155097570Y-116932938D01*
X155167819Y-117003187D01*
X155201304Y-117064510D01*
X155196320Y-117134202D01*
X155154448Y-117190135D01*
X155088984Y-117214552D01*
X155080138Y-117214868D01*
X155059793Y-117214868D01*
X154955878Y-117231326D01*
X154917084Y-117231326D01*
X154813169Y-117214868D01*
X154813163Y-117214868D01*
X154639799Y-117214868D01*
X154639794Y-117214868D01*
X154468567Y-117241988D01*
X154303692Y-117295558D01*
X154303689Y-117295559D01*
X154149220Y-117374266D01*
X154117886Y-117397032D01*
X154008967Y-117476167D01*
X154008965Y-117476169D01*
X154008964Y-117476169D01*
X153886382Y-117598751D01*
X153886382Y-117598752D01*
X153886380Y-117598754D01*
X153855712Y-117640965D01*
X153784479Y-117739007D01*
X153705772Y-117893476D01*
X153705771Y-117893479D01*
X153652201Y-118058354D01*
X153625081Y-118229580D01*
X153625081Y-118402955D01*
X129633339Y-118402955D01*
X129636499Y-118393923D01*
X129656696Y-118214668D01*
X129650739Y-118161800D01*
X129636500Y-118035418D01*
X129636499Y-118035413D01*
X129576919Y-117865143D01*
X129497662Y-117739008D01*
X129494854Y-117734539D01*
X129475854Y-117667304D01*
X129494855Y-117602595D01*
X129497269Y-117598754D01*
X129574294Y-117476169D01*
X129576919Y-117471992D01*
X129604789Y-117392344D01*
X129636499Y-117301723D01*
X129636500Y-117301717D01*
X129656696Y-117122471D01*
X129656696Y-117122464D01*
X129636500Y-116943218D01*
X129636499Y-116943213D01*
X129609634Y-116866437D01*
X129576920Y-116772946D01*
X129566308Y-116756057D01*
X129558533Y-116743683D01*
X129539533Y-116676447D01*
X129559901Y-116609611D01*
X129575839Y-116590037D01*
X129633347Y-116532530D01*
X129729320Y-116379790D01*
X129788899Y-116209523D01*
X129788900Y-116209517D01*
X129809096Y-116030271D01*
X136986366Y-116030271D01*
X137006561Y-116209517D01*
X137006562Y-116209522D01*
X137066142Y-116379791D01*
X137137139Y-116492781D01*
X137162115Y-116532530D01*
X137289669Y-116660084D01*
X137333421Y-116687575D01*
X137434177Y-116750885D01*
X137442409Y-116756057D01*
X137587584Y-116806856D01*
X137612676Y-116815636D01*
X137612681Y-116815637D01*
X137791927Y-116835833D01*
X137791931Y-116835833D01*
X137791935Y-116835833D01*
X137971180Y-116815637D01*
X137971183Y-116815636D01*
X137971186Y-116815636D01*
X138141453Y-116756057D01*
X138294193Y-116660084D01*
X138421747Y-116532530D01*
X138517720Y-116379790D01*
X138577299Y-116209523D01*
X138577300Y-116209517D01*
X138591772Y-116081071D01*
X147501966Y-116081071D01*
X147522161Y-116260317D01*
X147522162Y-116260322D01*
X147581742Y-116430591D01*
X147658127Y-116552156D01*
X147677715Y-116583330D01*
X147805269Y-116710884D01*
X147958009Y-116806857D01*
X148018824Y-116828137D01*
X148128276Y-116866436D01*
X148128281Y-116866437D01*
X148307527Y-116886633D01*
X148307531Y-116886633D01*
X148307535Y-116886633D01*
X148486780Y-116866437D01*
X148486783Y-116866436D01*
X148486786Y-116866436D01*
X148657053Y-116806857D01*
X148809793Y-116710884D01*
X148937347Y-116583330D01*
X149033320Y-116430590D01*
X149092899Y-116260323D01*
X149098623Y-116209522D01*
X149113096Y-116081071D01*
X149113096Y-116081064D01*
X149092900Y-115901818D01*
X149092899Y-115901813D01*
X149089625Y-115892456D01*
X149033320Y-115731546D01*
X148937347Y-115578806D01*
X148809793Y-115451252D01*
X148782397Y-115434038D01*
X148657054Y-115355279D01*
X148486785Y-115295699D01*
X148486780Y-115295698D01*
X148307535Y-115275503D01*
X148307527Y-115275503D01*
X148128281Y-115295698D01*
X148128276Y-115295699D01*
X147958007Y-115355279D01*
X147805268Y-115451252D01*
X147677715Y-115578805D01*
X147581742Y-115731544D01*
X147522162Y-115901813D01*
X147522161Y-115901818D01*
X147501966Y-116081064D01*
X147501966Y-116081071D01*
X138591772Y-116081071D01*
X138597496Y-116030271D01*
X138597496Y-116030264D01*
X138577300Y-115851018D01*
X138577299Y-115851013D01*
X138552333Y-115779664D01*
X138517720Y-115680746D01*
X138510402Y-115669100D01*
X138439418Y-115556130D01*
X138421747Y-115528006D01*
X138294193Y-115400452D01*
X138207411Y-115345923D01*
X138141454Y-115304479D01*
X137971185Y-115244899D01*
X137971180Y-115244898D01*
X137791935Y-115224703D01*
X137791927Y-115224703D01*
X137612681Y-115244898D01*
X137612676Y-115244899D01*
X137442407Y-115304479D01*
X137289668Y-115400452D01*
X137162115Y-115528005D01*
X137066142Y-115680744D01*
X137006562Y-115851013D01*
X137006561Y-115851018D01*
X136986366Y-116030264D01*
X136986366Y-116030271D01*
X129809096Y-116030271D01*
X129809096Y-116030264D01*
X129788900Y-115851018D01*
X129788899Y-115851013D01*
X129763933Y-115779664D01*
X129729320Y-115680746D01*
X129722002Y-115669100D01*
X129651018Y-115556130D01*
X129633347Y-115528006D01*
X129505793Y-115400452D01*
X129419011Y-115345923D01*
X129353054Y-115304479D01*
X129182785Y-115244899D01*
X129182780Y-115244898D01*
X129003535Y-115224703D01*
X129003527Y-115224703D01*
X128824281Y-115244898D01*
X128824276Y-115244899D01*
X128654007Y-115304479D01*
X128501268Y-115400452D01*
X128373715Y-115528005D01*
X128277742Y-115680744D01*
X128218162Y-115851013D01*
X128218161Y-115851018D01*
X128197966Y-116030264D01*
X128197966Y-116030271D01*
X128218161Y-116209517D01*
X128218162Y-116209522D01*
X128277742Y-116379792D01*
X128296127Y-116409050D01*
X128315128Y-116476287D01*
X128294761Y-116543122D01*
X128278816Y-116562704D01*
X128221315Y-116620205D01*
X128125342Y-116772944D01*
X128065762Y-116943213D01*
X128065761Y-116943218D01*
X128045566Y-117122464D01*
X128045566Y-117122471D01*
X128065761Y-117301717D01*
X128065762Y-117301722D01*
X128125342Y-117471991D01*
X128207407Y-117602596D01*
X128226407Y-117669833D01*
X128207407Y-117734540D01*
X128125342Y-117865144D01*
X128065762Y-118035413D01*
X128065761Y-118035418D01*
X128045566Y-118214664D01*
X128045566Y-118214671D01*
X128065761Y-118393917D01*
X128065762Y-118393922D01*
X128125342Y-118564191D01*
X128194707Y-118674584D01*
X128213707Y-118741821D01*
X128194707Y-118806528D01*
X128099942Y-118957344D01*
X128040362Y-119127613D01*
X128040361Y-119127618D01*
X128020166Y-119306864D01*
X128020166Y-119306871D01*
X128040361Y-119486117D01*
X128040362Y-119486122D01*
X128099942Y-119656391D01*
X128189987Y-119799696D01*
X128208987Y-119866933D01*
X128189987Y-119931640D01*
X128099942Y-120074944D01*
X128040362Y-120245213D01*
X128040361Y-120245218D01*
X128020166Y-120424464D01*
X128020166Y-120424471D01*
X128040361Y-120603717D01*
X128040362Y-120603722D01*
X128099942Y-120773991D01*
X128169307Y-120884384D01*
X128188307Y-120951621D01*
X128169307Y-121016328D01*
X128074542Y-121167144D01*
X128012663Y-121343986D01*
X128010682Y-121343292D01*
X127981520Y-121395399D01*
X127919851Y-121428243D01*
X127853804Y-121423850D01*
X127704339Y-121371550D01*
X127704331Y-121371548D01*
X127525086Y-121351353D01*
X127525078Y-121351353D01*
X127345832Y-121371548D01*
X127345827Y-121371549D01*
X127175558Y-121431129D01*
X127022819Y-121527102D01*
X126895266Y-121654655D01*
X126799293Y-121807394D01*
X126739713Y-121977663D01*
X126739712Y-121977668D01*
X126719517Y-122156914D01*
X126719517Y-122156921D01*
X123641230Y-122156921D01*
X123623254Y-122150631D01*
X123623249Y-122150630D01*
X123444004Y-122130435D01*
X123443996Y-122130435D01*
X123264750Y-122150630D01*
X123264745Y-122150631D01*
X123094476Y-122210211D01*
X122941737Y-122306184D01*
X122814184Y-122433737D01*
X122718211Y-122586476D01*
X122658631Y-122756745D01*
X122658630Y-122756750D01*
X122638435Y-122935996D01*
X122638435Y-122936003D01*
X106765659Y-122936003D01*
X106765659Y-122936000D01*
X106745063Y-122700592D01*
X106693041Y-122506440D01*
X106683905Y-122472344D01*
X106683904Y-122472343D01*
X106683903Y-122472337D01*
X106584035Y-122258171D01*
X106580557Y-122253203D01*
X106448494Y-122064597D01*
X106281402Y-121897506D01*
X106281396Y-121897501D01*
X106095842Y-121767575D01*
X106052217Y-121712998D01*
X106045023Y-121643500D01*
X106076546Y-121581145D01*
X106095842Y-121564425D01*
X106148606Y-121527479D01*
X106281401Y-121434495D01*
X106448495Y-121267401D01*
X106584035Y-121073830D01*
X106683903Y-120859663D01*
X106745063Y-120631408D01*
X106765659Y-120396000D01*
X106745063Y-120160592D01*
X106683903Y-119932337D01*
X106584035Y-119718171D01*
X106540777Y-119656391D01*
X106448494Y-119524597D01*
X106281402Y-119357506D01*
X106281396Y-119357501D01*
X106095842Y-119227575D01*
X106052217Y-119172998D01*
X106045023Y-119103500D01*
X106076546Y-119041145D01*
X106095842Y-119024425D01*
X106174774Y-118969156D01*
X106281401Y-118894495D01*
X106448495Y-118727401D01*
X106584035Y-118533830D01*
X106683903Y-118319663D01*
X106745063Y-118091408D01*
X106765659Y-117856000D01*
X106745063Y-117620592D01*
X106683903Y-117392337D01*
X106584035Y-117178171D01*
X106580793Y-117173540D01*
X106448494Y-116984597D01*
X106281402Y-116817506D01*
X106281396Y-116817501D01*
X106095842Y-116687575D01*
X106052217Y-116632998D01*
X106045023Y-116563500D01*
X106076546Y-116501145D01*
X106095842Y-116484425D01*
X106203488Y-116409050D01*
X106281401Y-116354495D01*
X106448495Y-116187401D01*
X106584035Y-115993830D01*
X106683903Y-115779663D01*
X106745063Y-115551408D01*
X106765659Y-115316000D01*
X106759261Y-115242871D01*
X116717166Y-115242871D01*
X116737361Y-115422117D01*
X116737362Y-115422122D01*
X116796942Y-115592391D01*
X116852460Y-115680746D01*
X116892915Y-115745130D01*
X117020469Y-115872684D01*
X117072172Y-115905171D01*
X117170487Y-115966947D01*
X117173209Y-115968657D01*
X117245161Y-115993834D01*
X117343476Y-116028236D01*
X117343481Y-116028237D01*
X117522727Y-116048433D01*
X117522731Y-116048433D01*
X117522735Y-116048433D01*
X117701980Y-116028237D01*
X117701983Y-116028236D01*
X117701986Y-116028236D01*
X117872253Y-115968657D01*
X118024993Y-115872684D01*
X118152547Y-115745130D01*
X118248520Y-115592390D01*
X118308099Y-115422123D01*
X118310541Y-115400452D01*
X118328296Y-115242871D01*
X118328296Y-115242864D01*
X118308100Y-115063618D01*
X118308099Y-115063613D01*
X118253825Y-114908508D01*
X118248520Y-114893346D01*
X118236752Y-114874618D01*
X118200639Y-114817144D01*
X118152547Y-114740606D01*
X118024993Y-114613052D01*
X117872254Y-114517079D01*
X117701985Y-114457499D01*
X117701980Y-114457498D01*
X117522735Y-114437303D01*
X117522727Y-114437303D01*
X117343481Y-114457498D01*
X117343476Y-114457499D01*
X117173207Y-114517079D01*
X117020468Y-114613052D01*
X116892915Y-114740605D01*
X116796942Y-114893344D01*
X116737362Y-115063613D01*
X116737361Y-115063618D01*
X116717166Y-115242864D01*
X116717166Y-115242871D01*
X106759261Y-115242871D01*
X106745063Y-115080592D01*
X106683903Y-114852337D01*
X106584035Y-114638171D01*
X106571036Y-114619607D01*
X106448496Y-114444600D01*
X106396825Y-114392929D01*
X106326567Y-114322671D01*
X106293084Y-114261351D01*
X106298068Y-114191659D01*
X106328753Y-114150668D01*
X128758421Y-114150668D01*
X128778209Y-114338934D01*
X128778210Y-114338937D01*
X128836704Y-114518969D01*
X128847029Y-114536852D01*
X128931358Y-114682913D01*
X128975481Y-114731917D01*
X129058021Y-114823588D01*
X129058024Y-114823590D01*
X129058027Y-114823593D01*
X129172888Y-114907045D01*
X129211177Y-114934864D01*
X129358355Y-115000391D01*
X129384113Y-115011859D01*
X129569279Y-115051218D01*
X129758582Y-115051218D01*
X129758583Y-115051218D01*
X129826365Y-115036810D01*
X129896031Y-115042126D01*
X129951765Y-115084262D01*
X129975871Y-115149842D01*
X129975649Y-115159705D01*
X129975966Y-115159705D01*
X129975966Y-115166671D01*
X129996161Y-115345917D01*
X129996162Y-115345922D01*
X130055742Y-115516191D01*
X130147063Y-115661526D01*
X130151715Y-115668930D01*
X130279269Y-115796484D01*
X130347308Y-115839236D01*
X130429704Y-115891009D01*
X130432009Y-115892457D01*
X130602276Y-115952036D01*
X130602281Y-115952037D01*
X130781527Y-115972233D01*
X130781531Y-115972233D01*
X130781535Y-115972233D01*
X130960780Y-115952037D01*
X130960783Y-115952036D01*
X130960786Y-115952036D01*
X131131053Y-115892457D01*
X131283793Y-115796484D01*
X131411347Y-115668930D01*
X131507320Y-115516190D01*
X131566899Y-115345923D01*
X131566900Y-115345917D01*
X131587096Y-115166671D01*
X131587096Y-115166664D01*
X131574387Y-115053871D01*
X134319366Y-115053871D01*
X134339561Y-115233117D01*
X134339562Y-115233122D01*
X134399142Y-115403391D01*
X134485533Y-115540880D01*
X134495115Y-115556130D01*
X134622669Y-115683684D01*
X134698838Y-115731544D01*
X134775405Y-115779655D01*
X134775409Y-115779657D01*
X134823498Y-115796484D01*
X134945676Y-115839236D01*
X134945681Y-115839237D01*
X135124927Y-115859433D01*
X135124931Y-115859433D01*
X135124935Y-115859433D01*
X135304180Y-115839237D01*
X135304183Y-115839236D01*
X135304186Y-115839236D01*
X135474453Y-115779657D01*
X135627193Y-115683684D01*
X135754747Y-115556130D01*
X135850720Y-115403390D01*
X135910299Y-115233123D01*
X135912636Y-115212380D01*
X135930496Y-115053871D01*
X135930496Y-115053864D01*
X135910300Y-114874618D01*
X135910299Y-114874613D01*
X135892445Y-114823590D01*
X135850720Y-114704346D01*
X135844771Y-114694879D01*
X135754746Y-114551605D01*
X135627193Y-114424052D01*
X135474454Y-114328079D01*
X135304185Y-114268499D01*
X135304180Y-114268498D01*
X135124935Y-114248303D01*
X135124927Y-114248303D01*
X134945681Y-114268498D01*
X134945676Y-114268499D01*
X134775407Y-114328079D01*
X134622668Y-114424052D01*
X134495115Y-114551605D01*
X134399142Y-114704344D01*
X134339562Y-114874613D01*
X134339561Y-114874618D01*
X134319366Y-115053864D01*
X134319366Y-115053871D01*
X131574387Y-115053871D01*
X131566900Y-114987418D01*
X131566899Y-114987413D01*
X131535054Y-114896406D01*
X131507320Y-114817146D01*
X131411347Y-114664406D01*
X131283793Y-114536852D01*
X131255337Y-114518972D01*
X131131054Y-114440879D01*
X130960785Y-114381299D01*
X130960780Y-114381298D01*
X130781535Y-114361103D01*
X130781527Y-114361103D01*
X130697849Y-114370531D01*
X130629027Y-114358476D01*
X130577648Y-114311127D01*
X130560024Y-114243517D01*
X130560643Y-114234364D01*
X130569441Y-114150668D01*
X130549653Y-113962402D01*
X130491156Y-113782364D01*
X130396504Y-113618423D01*
X130327383Y-113541656D01*
X130269840Y-113477747D01*
X130269837Y-113477745D01*
X130269836Y-113477744D01*
X130269835Y-113477743D01*
X130193260Y-113422108D01*
X130147235Y-113388668D01*
X144963621Y-113388668D01*
X144983409Y-113576934D01*
X144983410Y-113576937D01*
X145041904Y-113756969D01*
X145101909Y-113860900D01*
X145136558Y-113920913D01*
X145173911Y-113962398D01*
X145263221Y-114061588D01*
X145263224Y-114061590D01*
X145263227Y-114061593D01*
X145370610Y-114139612D01*
X145416377Y-114172864D01*
X145585818Y-114248303D01*
X145589313Y-114249859D01*
X145774479Y-114289218D01*
X145963783Y-114289218D01*
X146148949Y-114249859D01*
X146254365Y-114202925D01*
X146321884Y-114172864D01*
X146321884Y-114172863D01*
X146321886Y-114172863D01*
X146475035Y-114061593D01*
X146480323Y-114055721D01*
X146507292Y-114025768D01*
X146601704Y-113920913D01*
X146696356Y-113756972D01*
X146754853Y-113576934D01*
X146774641Y-113388668D01*
X146754853Y-113200402D01*
X146707953Y-113056056D01*
X146696357Y-113020366D01*
X146661553Y-112960084D01*
X146601704Y-112856423D01*
X146552091Y-112801322D01*
X146475040Y-112715747D01*
X146475037Y-112715745D01*
X146475036Y-112715744D01*
X146475035Y-112715743D01*
X146373064Y-112641656D01*
X146321884Y-112604471D01*
X146148948Y-112527476D01*
X145963783Y-112488118D01*
X145774479Y-112488118D01*
X145589313Y-112527476D01*
X145589312Y-112527476D01*
X145416377Y-112604471D01*
X145263224Y-112715745D01*
X145263221Y-112715747D01*
X145136557Y-112856424D01*
X145041904Y-113020366D01*
X144984401Y-113197349D01*
X144983409Y-113200402D01*
X144963621Y-113388668D01*
X130147235Y-113388668D01*
X130116684Y-113366471D01*
X129943748Y-113289476D01*
X129758583Y-113250118D01*
X129569279Y-113250118D01*
X129384113Y-113289476D01*
X129384112Y-113289476D01*
X129211177Y-113366471D01*
X129058024Y-113477745D01*
X129058021Y-113477747D01*
X128931357Y-113618424D01*
X128836704Y-113782366D01*
X128791689Y-113920913D01*
X128778209Y-113962402D01*
X128758421Y-114150668D01*
X106328753Y-114150668D01*
X106339939Y-114135725D01*
X106370915Y-114118810D01*
X106502331Y-114069796D01*
X106617546Y-113983546D01*
X106703796Y-113868331D01*
X106754091Y-113733483D01*
X106760500Y-113673873D01*
X106760499Y-111878128D01*
X106754091Y-111818517D01*
X106753114Y-111815898D01*
X106703797Y-111683671D01*
X106703793Y-111683664D01*
X106617547Y-111568455D01*
X106617544Y-111568452D01*
X106502335Y-111482206D01*
X106502328Y-111482202D01*
X106367482Y-111431908D01*
X106367483Y-111431908D01*
X106307883Y-111425501D01*
X106307881Y-111425500D01*
X106307873Y-111425500D01*
X106307864Y-111425500D01*
X104512129Y-111425500D01*
X104512123Y-111425501D01*
X104452515Y-111431909D01*
X104452223Y-111432018D01*
X104451979Y-111432035D01*
X104444969Y-111433692D01*
X104444700Y-111432555D01*
X104382531Y-111436996D01*
X104321211Y-111403506D01*
X104287731Y-111342180D01*
X104284900Y-111315832D01*
X104284900Y-111229671D01*
X116031366Y-111229671D01*
X116051561Y-111408917D01*
X116051562Y-111408922D01*
X116111142Y-111579191D01*
X116176792Y-111683671D01*
X116207115Y-111731930D01*
X116334669Y-111859484D01*
X116392337Y-111895719D01*
X116486856Y-111955110D01*
X116487409Y-111955457D01*
X116621507Y-112002380D01*
X116657676Y-112015036D01*
X116657681Y-112015037D01*
X116836927Y-112035233D01*
X116836931Y-112035233D01*
X116836935Y-112035233D01*
X117016180Y-112015037D01*
X117016183Y-112015036D01*
X117016186Y-112015036D01*
X117186453Y-111955457D01*
X117339193Y-111859484D01*
X117466747Y-111731930D01*
X117562720Y-111579190D01*
X117622299Y-111408923D01*
X117622759Y-111404840D01*
X117631048Y-111331271D01*
X118287066Y-111331271D01*
X118307261Y-111510517D01*
X118307262Y-111510522D01*
X118366842Y-111680791D01*
X118435700Y-111790377D01*
X118462815Y-111833530D01*
X118590369Y-111961084D01*
X118743109Y-112057057D01*
X118913376Y-112116636D01*
X118913381Y-112116637D01*
X119092627Y-112136833D01*
X119092631Y-112136833D01*
X119092633Y-112136833D01*
X119122709Y-112133444D01*
X119156114Y-112129680D01*
X119224936Y-112141734D01*
X119276315Y-112189083D01*
X119293940Y-112256693D01*
X119293218Y-112266783D01*
X119286066Y-112330263D01*
X119286066Y-112330271D01*
X119306261Y-112509517D01*
X119306262Y-112509522D01*
X119365842Y-112679791D01*
X119388434Y-112715745D01*
X119461815Y-112832530D01*
X119589369Y-112960084D01*
X119679711Y-113016850D01*
X119736261Y-113052383D01*
X119742109Y-113056057D01*
X119873292Y-113101960D01*
X119912376Y-113115636D01*
X119912381Y-113115637D01*
X120091627Y-113135833D01*
X120091631Y-113135833D01*
X120091635Y-113135833D01*
X120270880Y-113115637D01*
X120270883Y-113115636D01*
X120270886Y-113115636D01*
X120441153Y-113056057D01*
X120593893Y-112960084D01*
X120721447Y-112832530D01*
X120817420Y-112679790D01*
X120876999Y-112509523D01*
X120882623Y-112459607D01*
X120897196Y-112330271D01*
X120897196Y-112330264D01*
X120877000Y-112151018D01*
X120876999Y-112151013D01*
X120829419Y-112015037D01*
X120817420Y-111980746D01*
X120721447Y-111828006D01*
X120593893Y-111700452D01*
X120547832Y-111671510D01*
X120441154Y-111604479D01*
X120270885Y-111544899D01*
X120270880Y-111544898D01*
X120091635Y-111524703D01*
X120091627Y-111524703D01*
X120028146Y-111531855D01*
X119959324Y-111519800D01*
X119907945Y-111472451D01*
X119890321Y-111404840D01*
X119891043Y-111394751D01*
X119898196Y-111331270D01*
X119898196Y-111331264D01*
X119878000Y-111152018D01*
X119877999Y-111152013D01*
X119860328Y-111101513D01*
X119818420Y-110981746D01*
X119722447Y-110829006D01*
X119594893Y-110701452D01*
X119585769Y-110695719D01*
X119442154Y-110605479D01*
X119338669Y-110569268D01*
X179990221Y-110569268D01*
X180010009Y-110757534D01*
X180010010Y-110757537D01*
X180068504Y-110937569D01*
X180068506Y-110937572D01*
X180163158Y-111101513D01*
X180168693Y-111107660D01*
X180289821Y-111242188D01*
X180289824Y-111242190D01*
X180289827Y-111242193D01*
X180391182Y-111315832D01*
X180442977Y-111353464D01*
X180567542Y-111408923D01*
X180615913Y-111430459D01*
X180801079Y-111469818D01*
X180990383Y-111469818D01*
X181175549Y-111430459D01*
X181223922Y-111408922D01*
X181348484Y-111353464D01*
X181348484Y-111353463D01*
X181348486Y-111353463D01*
X181501635Y-111242193D01*
X181503169Y-111240490D01*
X181529078Y-111211713D01*
X181628304Y-111101513D01*
X181722956Y-110937572D01*
X181781453Y-110757534D01*
X181801241Y-110569268D01*
X181781453Y-110381002D01*
X181722956Y-110200964D01*
X181628304Y-110037023D01*
X181578691Y-109981922D01*
X181501640Y-109896347D01*
X181501637Y-109896345D01*
X181501636Y-109896344D01*
X181501635Y-109896343D01*
X181425060Y-109840708D01*
X181348484Y-109785071D01*
X181175548Y-109708076D01*
X180990383Y-109668718D01*
X180801079Y-109668718D01*
X180615913Y-109708076D01*
X180615912Y-109708076D01*
X180442977Y-109785071D01*
X180289824Y-109896345D01*
X180289821Y-109896347D01*
X180163157Y-110037024D01*
X180068504Y-110200966D01*
X180010010Y-110380998D01*
X180010009Y-110381002D01*
X179990221Y-110569268D01*
X119338669Y-110569268D01*
X119271885Y-110545899D01*
X119271880Y-110545898D01*
X119092635Y-110525703D01*
X119092627Y-110525703D01*
X118913381Y-110545898D01*
X118913376Y-110545899D01*
X118743107Y-110605479D01*
X118590368Y-110701452D01*
X118462815Y-110829005D01*
X118366842Y-110981744D01*
X118307262Y-111152013D01*
X118307261Y-111152018D01*
X118287066Y-111331264D01*
X118287066Y-111331271D01*
X117631048Y-111331271D01*
X117642496Y-111229671D01*
X117642496Y-111229664D01*
X117622300Y-111050418D01*
X117622299Y-111050413D01*
X117562719Y-110880144D01*
X117522269Y-110815768D01*
X117466747Y-110727406D01*
X117339193Y-110599852D01*
X117290519Y-110569268D01*
X117186454Y-110503879D01*
X117016185Y-110444299D01*
X117016180Y-110444298D01*
X116836935Y-110424103D01*
X116836927Y-110424103D01*
X116657681Y-110444298D01*
X116657676Y-110444299D01*
X116487407Y-110503879D01*
X116334668Y-110599852D01*
X116207115Y-110727405D01*
X116111142Y-110880144D01*
X116051562Y-111050413D01*
X116051561Y-111050418D01*
X116031366Y-111229664D01*
X116031366Y-111229671D01*
X104284900Y-111229671D01*
X104284900Y-107394271D01*
X163097566Y-107394271D01*
X163117761Y-107573517D01*
X163117762Y-107573522D01*
X163177342Y-107743791D01*
X163273315Y-107896530D01*
X163400869Y-108024084D01*
X163489967Y-108080068D01*
X163553609Y-108120057D01*
X163723876Y-108179636D01*
X163726814Y-108179967D01*
X163728586Y-108180711D01*
X163730665Y-108181186D01*
X163730581Y-108181549D01*
X163791230Y-108207029D01*
X163829982Y-108262234D01*
X163888541Y-108429589D01*
X163888542Y-108429590D01*
X163984515Y-108582330D01*
X164112069Y-108709884D01*
X164264809Y-108805857D01*
X164311852Y-108822318D01*
X164435076Y-108865436D01*
X164435081Y-108865437D01*
X164508253Y-108873681D01*
X164572668Y-108900747D01*
X164612223Y-108958341D01*
X164617591Y-108983017D01*
X164629061Y-109084818D01*
X164629062Y-109084822D01*
X164688642Y-109255091D01*
X164768098Y-109381544D01*
X164784615Y-109407830D01*
X164912169Y-109535384D01*
X165064909Y-109631357D01*
X165171681Y-109668718D01*
X165235176Y-109690936D01*
X165235181Y-109690937D01*
X165359808Y-109704979D01*
X165424222Y-109732045D01*
X165463777Y-109789640D01*
X165469145Y-109814316D01*
X165479961Y-109910317D01*
X165479962Y-109910322D01*
X165539542Y-110080591D01*
X165615178Y-110200964D01*
X165635515Y-110233330D01*
X165763069Y-110360884D01*
X165795087Y-110381002D01*
X165895824Y-110444300D01*
X165915809Y-110456857D01*
X166050190Y-110503879D01*
X166086076Y-110516436D01*
X166086081Y-110516437D01*
X166265327Y-110536633D01*
X166265331Y-110536633D01*
X166265335Y-110536633D01*
X166444580Y-110516437D01*
X166444583Y-110516436D01*
X166444586Y-110516436D01*
X166614853Y-110456857D01*
X166767593Y-110360884D01*
X166895147Y-110233330D01*
X166991120Y-110080590D01*
X167050699Y-109910323D01*
X167052274Y-109896343D01*
X167070896Y-109731071D01*
X167070896Y-109731064D01*
X167050700Y-109551818D01*
X167050699Y-109551813D01*
X166991119Y-109381544D01*
X166895146Y-109228805D01*
X166767593Y-109101252D01*
X166614854Y-109005279D01*
X166444585Y-108945699D01*
X166444581Y-108945698D01*
X166319952Y-108931656D01*
X166255538Y-108904589D01*
X166215983Y-108846994D01*
X166210616Y-108822318D01*
X166199800Y-108726318D01*
X166199799Y-108726313D01*
X166140219Y-108556044D01*
X166060762Y-108429590D01*
X166044247Y-108403306D01*
X165916693Y-108275752D01*
X165895179Y-108262234D01*
X165763954Y-108179779D01*
X165593685Y-108120199D01*
X165593680Y-108120198D01*
X165520506Y-108111954D01*
X165456092Y-108084888D01*
X165416536Y-108027293D01*
X165411169Y-108002616D01*
X165399700Y-107900818D01*
X165399699Y-107900813D01*
X165356025Y-107776000D01*
X165340120Y-107730546D01*
X165320864Y-107699901D01*
X165258114Y-107600034D01*
X165244147Y-107577806D01*
X165116593Y-107450252D01*
X165027500Y-107394271D01*
X164963854Y-107354279D01*
X164876876Y-107323844D01*
X170608000Y-107323844D01*
X170614401Y-107383372D01*
X170614403Y-107383379D01*
X170664645Y-107518086D01*
X170664649Y-107518093D01*
X170750809Y-107633187D01*
X170750812Y-107633190D01*
X170865906Y-107719350D01*
X170865913Y-107719354D01*
X171000620Y-107769596D01*
X171000627Y-107769598D01*
X171060155Y-107775999D01*
X171060172Y-107776000D01*
X171708000Y-107776000D01*
X171708000Y-106859012D01*
X171765007Y-106891925D01*
X171892174Y-106926000D01*
X172023826Y-106926000D01*
X172150993Y-106891925D01*
X172208000Y-106859012D01*
X172208000Y-107776000D01*
X172855828Y-107776000D01*
X172855844Y-107775999D01*
X172915372Y-107769598D01*
X172915379Y-107769596D01*
X173050086Y-107719354D01*
X173050093Y-107719350D01*
X173165187Y-107633190D01*
X173165190Y-107633187D01*
X173251350Y-107518093D01*
X173251354Y-107518086D01*
X173300422Y-107386529D01*
X173342293Y-107330595D01*
X173407757Y-107306178D01*
X173476030Y-107321030D01*
X173504285Y-107342181D01*
X173626599Y-107464495D01*
X173703135Y-107518086D01*
X173820165Y-107600032D01*
X173820167Y-107600033D01*
X173820170Y-107600035D01*
X174034337Y-107699903D01*
X174262592Y-107761063D01*
X174433319Y-107776000D01*
X174497999Y-107781659D01*
X174498000Y-107781659D01*
X174498001Y-107781659D01*
X174562681Y-107776000D01*
X174733408Y-107761063D01*
X174961663Y-107699903D01*
X175175830Y-107600035D01*
X175369401Y-107464495D01*
X175536495Y-107297401D01*
X175666425Y-107111842D01*
X175721002Y-107068217D01*
X175790500Y-107061023D01*
X175852855Y-107092546D01*
X175869575Y-107111842D01*
X175999500Y-107297395D01*
X175999505Y-107297401D01*
X176166599Y-107464495D01*
X176243135Y-107518086D01*
X176360165Y-107600032D01*
X176360167Y-107600033D01*
X176360170Y-107600035D01*
X176574337Y-107699903D01*
X176802592Y-107761063D01*
X176973319Y-107776000D01*
X177037999Y-107781659D01*
X177038000Y-107781659D01*
X177038001Y-107781659D01*
X177102681Y-107776000D01*
X177273408Y-107761063D01*
X177501663Y-107699903D01*
X177715830Y-107600035D01*
X177909401Y-107464495D01*
X178076495Y-107297401D01*
X178206425Y-107111842D01*
X178261002Y-107068217D01*
X178330500Y-107061023D01*
X178392855Y-107092546D01*
X178409575Y-107111842D01*
X178539500Y-107297395D01*
X178539505Y-107297401D01*
X178706599Y-107464495D01*
X178783135Y-107518086D01*
X178900165Y-107600032D01*
X178900167Y-107600033D01*
X178900170Y-107600035D01*
X179114337Y-107699903D01*
X179342592Y-107761063D01*
X179513319Y-107776000D01*
X179577999Y-107781659D01*
X179578000Y-107781659D01*
X179578001Y-107781659D01*
X179642681Y-107776000D01*
X179813408Y-107761063D01*
X180041663Y-107699903D01*
X180255830Y-107600035D01*
X180449401Y-107464495D01*
X180616495Y-107297401D01*
X180752035Y-107103830D01*
X180851903Y-106889663D01*
X180913063Y-106661408D01*
X180933659Y-106426000D01*
X180913063Y-106190592D01*
X180851903Y-105962337D01*
X180752035Y-105748171D01*
X180746425Y-105740158D01*
X180616494Y-105554597D01*
X180449402Y-105387506D01*
X180449395Y-105387501D01*
X180255834Y-105251967D01*
X180255830Y-105251965D01*
X180184727Y-105218809D01*
X180041663Y-105152097D01*
X180041659Y-105152096D01*
X180041655Y-105152094D01*
X179813413Y-105090938D01*
X179813403Y-105090936D01*
X179578001Y-105070341D01*
X179577999Y-105070341D01*
X179342596Y-105090936D01*
X179342586Y-105090938D01*
X179114344Y-105152094D01*
X179114335Y-105152098D01*
X178900171Y-105251964D01*
X178900169Y-105251965D01*
X178706597Y-105387505D01*
X178539505Y-105554597D01*
X178409575Y-105740158D01*
X178354998Y-105783783D01*
X178285500Y-105790977D01*
X178223145Y-105759454D01*
X178206425Y-105740158D01*
X178076494Y-105554597D01*
X177909402Y-105387506D01*
X177909395Y-105387501D01*
X177715834Y-105251967D01*
X177715830Y-105251965D01*
X177644727Y-105218809D01*
X177501663Y-105152097D01*
X177501659Y-105152096D01*
X177501655Y-105152094D01*
X177273413Y-105090938D01*
X177273403Y-105090936D01*
X177038001Y-105070341D01*
X177037999Y-105070341D01*
X176802596Y-105090936D01*
X176802586Y-105090938D01*
X176574344Y-105152094D01*
X176574335Y-105152098D01*
X176360171Y-105251964D01*
X176360169Y-105251965D01*
X176166597Y-105387505D01*
X175999505Y-105554597D01*
X175869575Y-105740158D01*
X175814998Y-105783783D01*
X175745500Y-105790977D01*
X175683145Y-105759454D01*
X175666425Y-105740158D01*
X175536494Y-105554597D01*
X175369402Y-105387506D01*
X175369395Y-105387501D01*
X175175834Y-105251967D01*
X175175830Y-105251965D01*
X175104727Y-105218809D01*
X174961663Y-105152097D01*
X174961659Y-105152096D01*
X174961655Y-105152094D01*
X174733413Y-105090938D01*
X174733403Y-105090936D01*
X174498001Y-105070341D01*
X174497999Y-105070341D01*
X174262596Y-105090936D01*
X174262586Y-105090938D01*
X174034344Y-105152094D01*
X174034335Y-105152098D01*
X173820171Y-105251964D01*
X173820169Y-105251965D01*
X173626600Y-105387503D01*
X173504284Y-105509819D01*
X173442961Y-105543303D01*
X173373269Y-105538319D01*
X173317336Y-105496447D01*
X173300421Y-105465470D01*
X173251354Y-105333913D01*
X173251350Y-105333906D01*
X173165190Y-105218812D01*
X173165187Y-105218809D01*
X173050093Y-105132649D01*
X173050086Y-105132645D01*
X172915379Y-105082403D01*
X172915372Y-105082401D01*
X172855844Y-105076000D01*
X172208000Y-105076000D01*
X172208000Y-105992988D01*
X172150993Y-105960075D01*
X172023826Y-105926000D01*
X171892174Y-105926000D01*
X171765007Y-105960075D01*
X171708000Y-105992988D01*
X171708000Y-105076000D01*
X171060155Y-105076000D01*
X171000627Y-105082401D01*
X171000620Y-105082403D01*
X170865913Y-105132645D01*
X170865906Y-105132649D01*
X170750812Y-105218809D01*
X170750809Y-105218812D01*
X170664649Y-105333906D01*
X170664645Y-105333913D01*
X170614403Y-105468620D01*
X170614401Y-105468627D01*
X170608000Y-105528155D01*
X170608000Y-106176000D01*
X171524988Y-106176000D01*
X171492075Y-106233007D01*
X171458000Y-106360174D01*
X171458000Y-106491826D01*
X171492075Y-106618993D01*
X171524988Y-106676000D01*
X170608000Y-106676000D01*
X170608000Y-107323844D01*
X164876876Y-107323844D01*
X164793584Y-107294699D01*
X164790635Y-107294367D01*
X164788861Y-107293621D01*
X164786799Y-107293151D01*
X164786881Y-107292789D01*
X164726222Y-107267298D01*
X164687480Y-107212101D01*
X164628920Y-107044746D01*
X164532946Y-106892005D01*
X164405393Y-106764452D01*
X164252654Y-106668479D01*
X164082385Y-106608899D01*
X164082380Y-106608898D01*
X163903135Y-106588703D01*
X163903127Y-106588703D01*
X163723881Y-106608898D01*
X163723876Y-106608899D01*
X163553607Y-106668479D01*
X163400868Y-106764452D01*
X163273315Y-106892005D01*
X163177342Y-107044744D01*
X163117762Y-107215013D01*
X163117761Y-107215018D01*
X163097566Y-107394264D01*
X163097566Y-107394271D01*
X104284900Y-107394271D01*
X104284900Y-98922500D01*
X104304585Y-98855461D01*
X104357389Y-98809706D01*
X104408900Y-98798500D01*
X115189691Y-98798500D01*
X115256730Y-98818185D01*
G37*
G04 #@! TD.AperFunction*
M02*
