M48
; DRILL file {KiCad 8.0.1} date 2024-04-21T21:17:49-0500
; FORMAT={-:-/ absolute / metric / decimal}
; #@! TF.CreationDate,2024-04-21T21:17:49-05:00
; #@! TF.GenerationSoftware,Kicad,Pcbnew,8.0.1
; #@! TF.FileFunction,Plated,1,4,PTH
FMAT,2
METRIC
; #@! TA.AperFunction,Plated,PTH,ViaDrill
T1C0.300
; #@! TA.AperFunction,Plated,PTH,ViaDrill
T2C0.394
; #@! TA.AperFunction,Plated,PTH,ComponentDrill
T3C1.000
%
G90
G05
T1
X114.602Y-108.512
X114.602Y-109.325
X114.602Y-110.137
X114.653Y-110.95
X114.653Y-111.763
X114.653Y-112.601
X115.567Y-112.576
X116.38Y-112.601
X116.837Y-111.23
X117.294Y-112.55
X117.523Y-115.243
X118.132Y-112.5
X119.093Y-111.331
X119.555Y-108.461
X119.606Y-109.325
X119.631Y-110.214
X120.092Y-112.33
X123.444Y-122.936
X127.525Y-122.157
X127.607Y-123.371
X128.8Y-121.517
X128.826Y-119.307
X128.826Y-120.424
X128.851Y-117.122
X128.851Y-118.215
X129.004Y-116.03
X130.782Y-115.167
X134.287Y-119.637
X135.125Y-115.054
X137.792Y-116.03
X144.498Y-123.371
X147.888Y-121.021
X148.308Y-116.081
X156.55Y-124.48
X163.903Y-107.394
X164.592Y-122.174
X164.614Y-108.08
X165.414Y-108.906
X165.937Y-122.253
X166.265Y-109.731
X172.222Y-117.681
X173.99Y-117.348
X176.022Y-118.364
X177.546Y-116.84
X179.118Y-120.618
X179.118Y-121.618
X179.118Y-122.618
X179.118Y-123.618
X180.129Y-120.671
X180.129Y-121.671
X180.129Y-122.671
X180.129Y-123.671
X181.129Y-119.471
X181.129Y-120.671
X181.129Y-121.671
X181.129Y-122.671
X181.129Y-123.671
X182.129Y-120.671
X182.129Y-121.671
X182.129Y-122.671
X182.129Y-123.671
X183.134Y-118.364
X184.96Y-112.601
X190.218Y-118.748
X192.345Y-121.768
T2
X129.664Y-114.151
X145.869Y-113.389
X180.896Y-110.569
X194.028Y-116.64
T3
X105.41Y-112.776
X105.41Y-115.316
X105.41Y-117.856
X105.41Y-120.396
X105.41Y-122.936
X105.41Y-125.476
X116.332Y-100.33
X118.872Y-100.33
X121.412Y-100.33
X123.952Y-100.33
X126.492Y-100.33
X129.032Y-100.33
X131.572Y-100.33
X134.112Y-100.33
X136.652Y-100.33
X139.192Y-100.33
X141.732Y-100.33
X144.272Y-100.33
X146.812Y-100.33
X149.352Y-100.33
X151.892Y-100.33
X154.432Y-100.33
X170.18Y-125.222
X171.958Y-106.426
X174.498Y-106.426
X177.038Y-106.426
X179.578Y-106.426
M30
