G04 #@! TF.GenerationSoftware,KiCad,Pcbnew,8.0.1*
G04 #@! TF.CreationDate,2024-04-21T21:17:43-05:00*
G04 #@! TF.ProjectId,uC_test_PCB,75435f74-6573-4745-9f50-43422e6b6963,rev?*
G04 #@! TF.SameCoordinates,Original*
G04 #@! TF.FileFunction,Paste,Bot*
G04 #@! TF.FilePolarity,Positive*
%FSLAX46Y46*%
G04 Gerber Fmt 4.6, Leading zero omitted, Abs format (unit mm)*
G04 Created by KiCad (PCBNEW 8.0.1) date 2024-04-21 21:17:43*
%MOMM*%
%LPD*%
G01*
G04 APERTURE LIST*
G04 Aperture macros list*
%AMRoundRect*
0 Rectangle with rounded corners*
0 $1 Rounding radius*
0 $2 $3 $4 $5 $6 $7 $8 $9 X,Y pos of 4 corners*
0 Add a 4 corners polygon primitive as box body*
4,1,4,$2,$3,$4,$5,$6,$7,$8,$9,$2,$3,0*
0 Add four circle primitives for the rounded corners*
1,1,$1+$1,$2,$3*
1,1,$1+$1,$4,$5*
1,1,$1+$1,$6,$7*
1,1,$1+$1,$8,$9*
0 Add four rect primitives between the rounded corners*
20,1,$1+$1,$2,$3,$4,$5,0*
20,1,$1+$1,$4,$5,$6,$7,0*
20,1,$1+$1,$6,$7,$8,$9,0*
20,1,$1+$1,$8,$9,$2,$3,0*%
G04 Aperture macros list end*
%ADD10R,2.600000X2.600000*%
%ADD11R,2.550000X2.500000*%
%ADD12RoundRect,0.082000X-0.618000X0.328000X-0.618000X-0.328000X0.618000X-0.328000X0.618000X0.328000X0*%
%ADD13R,1.600000X0.800000*%
%ADD14R,1.000000X0.700000*%
%ADD15R,0.800000X1.600000*%
%ADD16R,0.600000X0.850000*%
%ADD17R,0.700000X0.800000*%
%ADD18R,0.609600X1.549400*%
%ADD19R,1.193800X1.803400*%
%ADD20RoundRect,0.150000X-0.150000X0.512500X-0.150000X-0.512500X0.150000X-0.512500X0.150000X0.512500X0*%
%ADD21RoundRect,0.200000X0.200000X0.275000X-0.200000X0.275000X-0.200000X-0.275000X0.200000X-0.275000X0*%
%ADD22RoundRect,0.250000X0.250000X-0.250000X0.250000X0.250000X-0.250000X0.250000X-0.250000X-0.250000X0*%
%ADD23RoundRect,0.225000X0.225000X0.250000X-0.225000X0.250000X-0.225000X-0.250000X0.225000X-0.250000X0*%
%ADD24RoundRect,0.200000X0.275000X-0.200000X0.275000X0.200000X-0.275000X0.200000X-0.275000X-0.200000X0*%
%ADD25RoundRect,0.250000X0.475000X-0.250000X0.475000X0.250000X-0.475000X0.250000X-0.475000X-0.250000X0*%
%ADD26RoundRect,0.250000X-0.475000X0.250000X-0.475000X-0.250000X0.475000X-0.250000X0.475000X0.250000X0*%
%ADD27RoundRect,0.250000X-0.475000X0.337500X-0.475000X-0.337500X0.475000X-0.337500X0.475000X0.337500X0*%
%ADD28RoundRect,0.200000X-0.275000X0.200000X-0.275000X-0.200000X0.275000X-0.200000X0.275000X0.200000X0*%
%ADD29RoundRect,0.200000X0.053033X-0.335876X0.335876X-0.053033X-0.053033X0.335876X-0.335876X0.053033X0*%
%ADD30RoundRect,0.237500X-0.237500X0.300000X-0.237500X-0.300000X0.237500X-0.300000X0.237500X0.300000X0*%
%ADD31R,1.000000X4.600000*%
%ADD32R,1.600000X3.400000*%
%ADD33RoundRect,0.200000X-0.200000X-0.275000X0.200000X-0.275000X0.200000X0.275000X-0.200000X0.275000X0*%
%ADD34RoundRect,0.225000X-0.250000X0.225000X-0.250000X-0.225000X0.250000X-0.225000X0.250000X0.225000X0*%
%ADD35RoundRect,0.225000X0.375000X-0.225000X0.375000X0.225000X-0.375000X0.225000X-0.375000X-0.225000X0*%
%ADD36RoundRect,0.250000X0.475000X-0.337500X0.475000X0.337500X-0.475000X0.337500X-0.475000X-0.337500X0*%
%ADD37RoundRect,0.150000X0.150000X-0.587500X0.150000X0.587500X-0.150000X0.587500X-0.150000X-0.587500X0*%
G04 APERTURE END LIST*
D10*
X168501481Y-114516268D03*
X167901481Y-113616268D03*
D11*
X166516481Y-113236268D03*
D10*
X156951481Y-112416268D03*
X154351481Y-112566268D03*
D11*
X152666481Y-115776268D03*
D12*
X157526481Y-122265267D03*
X157526481Y-123765267D03*
X162926481Y-123765267D03*
X162926481Y-122265267D03*
D13*
X118841731Y-127030268D03*
X118841731Y-125930168D03*
X118841731Y-124830368D03*
X118841731Y-123730268D03*
X118841731Y-122630268D03*
X118841731Y-121530368D03*
X118841731Y-120430368D03*
X118841731Y-119330268D03*
X118841731Y-118230168D03*
X118841731Y-117130368D03*
X118841731Y-116030268D03*
X118841731Y-114930168D03*
X118841731Y-113830168D03*
D14*
X121341631Y-124830368D03*
X121341631Y-123730268D03*
X121341631Y-122630268D03*
X121341631Y-121530168D03*
X121341631Y-120430368D03*
X121341631Y-119330268D03*
X121341631Y-118230168D03*
X121341631Y-117130368D03*
X121341631Y-116030268D03*
X129841731Y-124830368D03*
X129841731Y-123730268D03*
X129841731Y-122630268D03*
X129841731Y-121530168D03*
X129841731Y-120430368D03*
X129841731Y-119330268D03*
X129841731Y-118230168D03*
X129841731Y-117130368D03*
X129841731Y-116030268D03*
D13*
X132341831Y-127030268D03*
X132341831Y-125930168D03*
X132341831Y-124830368D03*
X132341831Y-123730268D03*
X132341831Y-122630268D03*
X132341831Y-121530368D03*
X132341831Y-120430368D03*
X132341831Y-119330268D03*
X132341831Y-118230168D03*
X132341831Y-117130368D03*
X132341831Y-116030268D03*
X132341831Y-114930168D03*
X132341831Y-113830168D03*
D15*
X131091631Y-112330268D03*
X129991831Y-112330268D03*
X128891731Y-112330268D03*
X127791631Y-112330268D03*
X126691831Y-112330268D03*
X125591831Y-112330268D03*
X124491731Y-112330268D03*
X123391631Y-112330268D03*
X122291831Y-112330268D03*
X121191731Y-112330268D03*
X120091631Y-112330268D03*
D16*
X145821730Y-112278267D03*
X147021730Y-112278267D03*
X148221730Y-112278267D03*
X149421730Y-112278267D03*
D17*
X144671730Y-108503266D03*
X150571731Y-108503266D03*
D18*
X139731732Y-122312268D03*
X138731731Y-122312268D03*
X137731730Y-122312268D03*
D19*
X141031731Y-126187269D03*
X136431731Y-126187269D03*
D20*
X182178731Y-117033818D03*
X183128731Y-117033818D03*
X184078731Y-117033818D03*
X184078731Y-119308818D03*
X182178731Y-119308818D03*
D21*
X194994800Y-121767600D03*
X193344800Y-121767600D03*
D22*
X165937231Y-123480268D03*
X165937231Y-120980268D03*
D23*
X155508731Y-124412268D03*
X153958731Y-124412268D03*
D18*
X147888181Y-122245718D03*
X146888180Y-122245718D03*
X145888179Y-122245718D03*
D19*
X149188180Y-126120719D03*
X144588180Y-126120719D03*
D24*
X189785731Y-116386268D03*
X189785731Y-114736268D03*
D25*
X175891931Y-112484468D03*
X175891931Y-110584468D03*
D26*
X118005331Y-109289068D03*
X118005331Y-111189068D03*
D27*
X195119731Y-112071768D03*
X195119731Y-114146768D03*
D20*
X191309731Y-114326768D03*
X192259731Y-114326768D03*
X193209731Y-114326768D03*
X193209731Y-116601768D03*
X191309731Y-116601768D03*
D28*
X148332931Y-116944668D03*
X148332931Y-118594668D03*
X137791931Y-116818668D03*
X137791931Y-118468668D03*
D29*
X132052368Y-110517631D03*
X133219094Y-109350905D03*
X130020368Y-109501631D03*
X131187094Y-108334905D03*
D30*
X115947931Y-109401968D03*
X115947931Y-111126968D03*
D31*
X191220600Y-107205000D03*
X189220600Y-107205000D03*
D32*
X193620600Y-102005000D03*
X186820600Y-102005000D03*
D33*
X191310731Y-118773468D03*
X192960731Y-118773468D03*
D34*
X177136531Y-119928868D03*
X177136531Y-121478868D03*
D28*
X186610731Y-112665268D03*
X186610731Y-114315268D03*
D35*
X178609731Y-113870268D03*
X178609731Y-110570268D03*
D21*
X190994800Y-121767600D03*
X189344800Y-121767600D03*
D27*
X179628731Y-117133818D03*
X179628731Y-119208818D03*
D36*
X176196731Y-116940768D03*
X176196731Y-114865768D03*
D33*
X182229731Y-114887268D03*
X183879731Y-114887268D03*
D37*
X184065731Y-112601268D03*
X182165731Y-112601268D03*
X183115731Y-110726268D03*
M02*
